M48
;Layer_Color=9474304
;FILE_FORMAT=4:4
METRIC,LZ
;TYPE=PLATED
T1F00S00C0.2500
T2F00S00C0.7000
T3F00S00C0.8000
T4F00S00C0.8900
T5F00S00C0.9000
T6F00S00C1.0000
T7F00S00C1.1000
T8F00S00C1.2000
T9F00S00C1.3000
T10F00S00C1.8500
T11F00S00C1.9300
T12F00S00C2.2900
T13F00S00C2.3000
T14F00S00C3.7000
%
T01
X00151Y000555
X0027625Y0006475
X002765Y0003925
Y00015
X0027625Y000985
X003295Y00087
X0040375Y0004075
X0052525Y00043
X00615Y0008425
X006655Y000245
X00709Y0010375
X00784Y0033725
X0065925Y0034925
X00615Y0034675
X0060175Y00316
X005435Y003155
X00505Y00313
X005005Y00327
X0046925Y00331
X0047125Y0035125
Y00383
Y0040725
X00451Y0040425
X004505Y004445
X004395
X0046375Y004405
X0048625Y0045025
X004785Y0046525
X0047075Y00471
X00463Y004755
X004385Y0047225
X004145
X003785Y0044425
X003545
X0035575Y0042725
X0034675Y0043325
X0034525Y0040325
X003455Y00381
X0035725Y0038375
X003765Y00386
X0037125Y003725
X003785Y0035875
X0034525Y0035125
X0034825Y0032725
X003585Y00318
X003785
X0039166Y0032
X0039916
X004105Y00318
X004245Y00323
X004385Y00318
X004545
X0042875Y0034075
X0043Y0035125
X0043975Y0036975
X0049975Y0037125
Y0039125
X005Y004095
X0050975Y0040975
X004995Y0042725
X00514Y004605
X005075Y00467
X0052075Y0046725
X005145Y004805
X00562Y0044375
X005435Y00381
X00562Y002705
X006275Y0021575
X006055Y00193
X006475Y001505
X0046675Y00201
X00428Y0024975
X0040925Y0025025
X0039025Y00249
X003685Y0025725
X003245Y0025575
X003315Y0021575
X00391Y0018675
X00383Y0029
X004225
X003175Y003145
X0031725Y0033125
X0030775Y0035725
X0031725Y0037125
Y0039125
Y0039925
Y0040725
X0031775Y004255
X0031575Y0043525
X0034575Y0048
X003915Y0041375
X00655Y00476
X00271Y00449
X0028625Y0042725
X00276Y0039125
X0027175Y003805
X00253Y0037075
X002315Y0037275
X0019925Y00426
X0019375Y0046825
X0023875Y002905
X0027275Y0030075
X0027325Y0026075
X0029325Y002695
X0022575Y002275
X0021325
X002195Y0018225
X0018775Y001955
X001475Y00176
X001545Y002465
X00132Y003
X0009625Y00306
X000665Y0037125
X0016925Y00111
X002185Y0011125
X00276Y001235
Y001485
X0027575Y0017375
X0026491Y00531
X0025741
X0027775Y0055875
X002855Y00572
X00246Y0059825
X0024575Y006195
X0023125Y006315
X0023Y006595
X0019075Y006575
X001755Y0060625
X001625Y0059425
X0017725Y005825
X002315Y0058575
X0022775Y0050575
X0019375Y00519
X0013125Y0055225
X0009Y006
X0007
X0008Y00615
X001
X0009Y0063
X0007
X0004
X0002
X0003Y00615
X0001
X0002Y006
X0004
X00052Y006695
X0010725Y007485
X0013325
X0023675Y0072075
X000675Y005195
X003175Y005965
X00309Y006095
X003475Y00609
X0038075Y0054725
X0044975Y0054
X0042625Y0051075
X00474Y0050575
X0054625Y00527
X0059175Y005345
X0059025Y0050225
X0066275Y005175
X0067225Y00538
X0067175Y00607
X0061675Y0061075
X00604Y0057975
X0056375Y005855
X00545Y0062975
X0054775Y006465
X0057325Y00646
X00586Y0064625
X00578Y0068575
X00548Y0069875
X0059875Y00729
X00624Y0073025
Y006775
X00678Y0067775
X005185Y0064225
X0049225Y00611
X00497Y00594
X0045075Y00643
X00444Y0069925
X0041325Y007015
X003905Y007005
X0052075Y007555
X0072475Y007265
X0077525Y0057775
X00775Y0055225
T02
X005771Y00763
X005923
X006075
X006227
X006379
X006531
X006683
X006759Y00778
X006607
X006455
X006303
X006151
X005999
X005847
X005695
T03
X0049475Y0010085
X0057095
Y0012625
Y0015165
Y0017705
X0049475
Y0015165
Y0012625
X00585Y00405
Y0043
Y00455
Y0048
X0024Y004495
X0025Y003235
X0020025Y002465
X00067Y00283
X0006675Y0030875
X0006725Y00443
Y0046825
X001775Y006425
X0029972Y0066802
X0032512
X0048Y0068
Y00705
Y00655
X005465Y0057275
X003655Y0049925
T04
X002995Y0070915
Y0073405
X0032
X00346
X003665
Y0070915
T05
X00748Y00105
X00672
X001325Y0067
Y0069
X001075
Y0067
T06
X00119Y002875
X001444
Y003129
Y003383
Y003637
Y003891
Y004145
Y004399
Y004653
Y004907
X00119
Y004653
Y004399
Y004145
Y003891
Y003637
Y003383
Y003129
Y005161
X001444
X0005475Y00615
T07
X0003475Y002832
Y003086
Y00334
Y003594
Y003848
X0003475Y004427
Y004681
Y004935
Y005189
Y005443
X0040775Y0057885
Y0060425
Y0062965
T08
X007095Y0024805
X007349
Y0027345
X007095
Y0029885
X007349
Y0032425
X007095
Y0034965
X007349
Y0037505
X007095
Y0040045
X007349
Y0042585
X007095
Y0045125
X007349
Y0047665
X007095
Y0050205
X007349
Y0052745
X007095
Y0055285
X007349
Y0057825
X007095
Y0060365
X007349
Y0062905
X007095
Y0065445
X007349
T09
X00301Y005295
T10
X000643Y000827
Y002148
T11
X0046905Y007399
X0077635
T12
X002654Y0076405
X00333Y0077215
X004006Y0076405
T13
X000598Y007171
X001802
T14
X004085Y0038125
M30
