G04*
G04 #@! TF.GenerationSoftware,Altium Limited,Altium Designer,20.1.7 (139)*
G04*
G04 Layer_Physical_Order=3*
G04 Layer_Color=16440176*
%FSLAX44Y44*%
%MOMM*%
G71*
G04*
G04 #@! TF.SameCoordinates,35BF2D9B-2704-4646-8845-34ABFBBC40B6*
G04*
G04*
G04 #@! TF.FilePolarity,Positive*
G04*
G01*
G75*
%ADD11C,0.2500*%
%ADD14C,0.2000*%
%ADD16C,0.1500*%
%ADD22C,0.1270*%
%ADD23C,0.1778*%
%ADD75C,1.3900*%
%ADD98C,1.2000*%
%ADD105C,1.5000*%
%ADD110R,1.6000X1.6000*%
%ADD114C,0.6000*%
%ADD118R,2.4750X2.0250*%
G36*
X579141Y679260D02*
X579201Y679149D01*
X579225Y679025D01*
X579433Y678713D01*
X579610Y678383D01*
X579707Y678303D01*
X579778Y678198D01*
X580089Y677990D01*
X580379Y677752D01*
X580500Y677715D01*
X580605Y677645D01*
X580972Y677572D01*
X581330Y677463D01*
X581456Y677476D01*
X581580Y677451D01*
X618402D01*
X618819Y675354D01*
X620035Y673535D01*
X621854Y672319D01*
X624000Y671892D01*
X626146Y672319D01*
X627965Y673535D01*
X629181Y675354D01*
X629598Y677451D01*
X672452D01*
X672819Y675604D01*
X674035Y673785D01*
X675854Y672569D01*
X678000Y672142D01*
X680146Y672569D01*
X681965Y673785D01*
X683181Y675604D01*
X683548Y677451D01*
X757451D01*
Y162549D01*
X710000D01*
X709025Y162355D01*
X708198Y161802D01*
X707645Y160975D01*
X707451Y160000D01*
Y109159D01*
X707472Y109054D01*
X706854Y108931D01*
X705035Y107715D01*
X703819Y105896D01*
X703392Y103750D01*
X703819Y101604D01*
X705035Y99785D01*
X706854Y98569D01*
X707472Y98446D01*
X707451Y98341D01*
Y3844D01*
X3844D01*
Y612028D01*
X5114Y612413D01*
X6035Y611035D01*
X7854Y609819D01*
X10000Y609392D01*
X12146Y609819D01*
X13965Y611035D01*
X15181Y612854D01*
X15608Y615000D01*
X15181Y617146D01*
X13965Y618965D01*
X12146Y620181D01*
X10000Y620608D01*
X7854Y620181D01*
X6035Y618965D01*
X5114Y617587D01*
X3844Y617972D01*
Y637451D01*
X77451D01*
Y620608D01*
X77500Y620361D01*
Y620111D01*
X77554Y619980D01*
X76035Y618965D01*
X74819Y617146D01*
X74392Y615000D01*
X74819Y612854D01*
X76035Y611035D01*
X77854Y609819D01*
X80000Y609392D01*
X82146Y609819D01*
X83965Y611035D01*
X85181Y612854D01*
X85608Y615000D01*
X85373Y616181D01*
X86388Y617451D01*
X93612D01*
X94627Y616181D01*
X94392Y615000D01*
X94819Y612854D01*
X96035Y611035D01*
X97854Y609819D01*
X100000Y609392D01*
X102146Y609819D01*
X103965Y611035D01*
X105181Y612854D01*
X105608Y615000D01*
X105373Y616181D01*
X106388Y617451D01*
X200000D01*
X200975Y617645D01*
X201802Y618198D01*
X202355Y619025D01*
X202549Y620000D01*
Y677451D01*
X262451D01*
Y550000D01*
X262645Y549025D01*
X263198Y548198D01*
X264025Y547645D01*
X265000Y547451D01*
X303500D01*
X304475Y547645D01*
X305302Y548198D01*
X305855Y549025D01*
X306049Y550000D01*
Y603446D01*
X307319Y604227D01*
X309000Y603892D01*
X311146Y604319D01*
X312965Y605535D01*
X314181Y607354D01*
X314608Y609500D01*
X314181Y611646D01*
X312965Y613465D01*
X311146Y614681D01*
X309000Y615108D01*
X307319Y614773D01*
X306049Y615554D01*
Y659242D01*
X306000Y659489D01*
Y659740D01*
X305904Y659972D01*
X305855Y660218D01*
X305715Y660427D01*
X305619Y660658D01*
X305771Y661870D01*
X305931Y662152D01*
X307145Y663733D01*
X308001Y665801D01*
X308293Y668020D01*
X308001Y670239D01*
X307145Y672307D01*
X305931Y673888D01*
X305771Y674170D01*
X305619Y675381D01*
X305715Y675613D01*
X305855Y675822D01*
X305904Y676068D01*
X306000Y676300D01*
Y676551D01*
X306049Y676798D01*
Y677451D01*
X322358D01*
X322611Y676181D01*
X320833Y675445D01*
X319058Y674082D01*
X317695Y672307D01*
X316839Y670239D01*
X316547Y668020D01*
X316839Y665801D01*
X317695Y663733D01*
X319058Y661958D01*
X320833Y660595D01*
X322901Y659739D01*
X325120Y659447D01*
X327339Y659739D01*
X329407Y660595D01*
X331182Y661958D01*
X332545Y663733D01*
X333401Y665801D01*
X333693Y668020D01*
X333401Y670239D01*
X332545Y672307D01*
X331182Y674082D01*
X329407Y675445D01*
X327629Y676181D01*
X327882Y677451D01*
X471427D01*
X471754Y677516D01*
X471827Y677521D01*
X472575Y675713D01*
X473938Y673938D01*
X475713Y672575D01*
X477781Y671719D01*
X480000Y671427D01*
X482219Y671719D01*
X484287Y672575D01*
X486062Y673938D01*
X487425Y675713D01*
X488173Y677521D01*
X488246Y677516D01*
X488573Y677451D01*
X574420D01*
X574544Y677476D01*
X574670Y677463D01*
X575028Y677572D01*
X575395Y677645D01*
X575500Y677715D01*
X575621Y677752D01*
X575911Y677990D01*
X576222Y678198D01*
X576292Y678303D01*
X576390Y678383D01*
X576567Y678713D01*
X576775Y679025D01*
X576799Y679148D01*
X576859Y679260D01*
X577176Y680306D01*
X578000Y680142D01*
X578824Y680306D01*
X579141Y679260D01*
D02*
G37*
G36*
X796156Y3844D02*
X710000D01*
Y98341D01*
X711146Y98569D01*
X712965Y99785D01*
X714181Y101604D01*
X714608Y103750D01*
X714181Y105896D01*
X712965Y107715D01*
X711146Y108931D01*
X710000Y109159D01*
Y160000D01*
X760000D01*
Y680000D01*
X683111D01*
X681965Y681715D01*
X680146Y682931D01*
X678000Y683358D01*
X675854Y682931D01*
X674035Y681715D01*
X672889Y680000D01*
X628944D01*
X627965Y681465D01*
X626146Y682681D01*
X624000Y683108D01*
X621854Y682681D01*
X620035Y681465D01*
X619056Y680000D01*
X581580D01*
X581195Y681270D01*
X581965Y681785D01*
X583181Y683604D01*
X583608Y685750D01*
X583181Y687896D01*
X581965Y689715D01*
X580146Y690931D01*
X578000Y691358D01*
X575854Y690931D01*
X574035Y689715D01*
X572819Y687896D01*
X572392Y685750D01*
X572819Y683604D01*
X574035Y681785D01*
X574805Y681270D01*
X574420Y680000D01*
X488573D01*
X488573Y680000D01*
X488281Y682219D01*
X487425Y684287D01*
X486062Y686062D01*
X484287Y687425D01*
X482219Y688281D01*
X480000Y688573D01*
X477781Y688281D01*
X475713Y687425D01*
X473938Y686062D01*
X472575Y684287D01*
X471719Y682219D01*
X471427Y680000D01*
X471427Y680000D01*
X303500D01*
Y676798D01*
X302444Y676092D01*
X301939Y676301D01*
X299720Y676593D01*
X297501Y676301D01*
X295433Y675445D01*
X293658Y674082D01*
X292295Y672307D01*
X291439Y670239D01*
X291147Y668020D01*
X291439Y665801D01*
X292295Y663733D01*
X293658Y661958D01*
X295433Y660595D01*
X297501Y659739D01*
X299720Y659447D01*
X301939Y659739D01*
X302444Y659948D01*
X303500Y659242D01*
Y610042D01*
X303392Y609500D01*
X303500Y608958D01*
Y550000D01*
X265000D01*
Y680000D01*
X200000D01*
Y620000D01*
X102417D01*
X102146Y620181D01*
X100000Y620608D01*
X97854Y620181D01*
X97583Y620000D01*
X82417D01*
X82146Y620181D01*
X80000Y620608D01*
X80000Y620608D01*
Y640000D01*
X3844D01*
Y796156D01*
X796156D01*
Y3844D01*
D02*
G37*
G36*
X410400Y-780000D02*
X399300D01*
X384600Y-703100D01*
X394500D01*
X403300Y-749000D01*
Y-749100D01*
X403400Y-749500D01*
X403500Y-750200D01*
X403700Y-751100D01*
X403900Y-752100D01*
X404100Y-753400D01*
X404400Y-754700D01*
X404700Y-756200D01*
X405200Y-759400D01*
X405800Y-762700D01*
X406200Y-766100D01*
X406400Y-767600D01*
X406600Y-769100D01*
X406700Y-769000D01*
X406800Y-768700D01*
X407100Y-768200D01*
X407400Y-767500D01*
X407800Y-766600D01*
X408300Y-765700D01*
X408800Y-764600D01*
X409400Y-763500D01*
X410600Y-761000D01*
X412000Y-758400D01*
X413300Y-755800D01*
X414500Y-753500D01*
X441900Y-703100D01*
X452400D01*
X410400Y-780000D01*
D02*
G37*
G36*
X561399Y-703200D02*
X563200Y-703300D01*
X565299Y-703400D01*
X567399Y-703600D01*
X569399Y-704000D01*
X571199Y-704400D01*
X571299D01*
X571499Y-704500D01*
X571799Y-704600D01*
X572299Y-704700D01*
X573399Y-705100D01*
X574899Y-705700D01*
X576599Y-706500D01*
X578399Y-707500D01*
X580199Y-708700D01*
X581899Y-710200D01*
X581999D01*
X582099Y-710400D01*
X582599Y-710900D01*
X583399Y-711800D01*
X584399Y-713000D01*
X585499Y-714500D01*
X586699Y-716300D01*
X587799Y-718300D01*
X588699Y-720600D01*
Y-720700D01*
X588799Y-720900D01*
X588899Y-721200D01*
X589099Y-721700D01*
X589199Y-722300D01*
X589399Y-723000D01*
X589599Y-723800D01*
X589899Y-724700D01*
X590299Y-726700D01*
X590599Y-729100D01*
X590899Y-731800D01*
X590999Y-734600D01*
Y-734700D01*
Y-735000D01*
Y-735500D01*
Y-736200D01*
X590899Y-737000D01*
Y-737900D01*
X590799Y-739000D01*
X590599Y-740200D01*
X590299Y-742800D01*
X589799Y-745600D01*
X589099Y-748600D01*
X588099Y-751500D01*
Y-751600D01*
X587999Y-751800D01*
X587799Y-752200D01*
X587599Y-752800D01*
X587299Y-753400D01*
X586999Y-754200D01*
X586099Y-756000D01*
X585099Y-758100D01*
X583799Y-760400D01*
X582399Y-762700D01*
X580799Y-764900D01*
Y-765000D01*
X580599Y-765200D01*
X580399Y-765500D01*
X579999Y-765900D01*
X579099Y-766900D01*
X577899Y-768200D01*
X576499Y-769700D01*
X574899Y-771200D01*
X573099Y-772700D01*
X571299Y-774000D01*
X571199D01*
X571099Y-774100D01*
X570799Y-774300D01*
X570399Y-774500D01*
X569399Y-775100D01*
X567999Y-775800D01*
X566300Y-776600D01*
X564300Y-777400D01*
X562099Y-778200D01*
X559599Y-778800D01*
X559399D01*
X559100Y-778900D01*
X558699Y-779000D01*
X558200Y-779100D01*
X557599Y-779200D01*
X556100Y-779400D01*
X554199Y-779600D01*
X552099Y-779800D01*
X549599Y-779900D01*
X546899Y-780000D01*
X519300D01*
X535299Y-703100D01*
X560600D01*
X561399Y-703200D01*
D02*
G37*
G36*
X517500Y-711800D02*
X471900D01*
X466900Y-735800D01*
X511600D01*
X509800Y-744500D01*
X465100D01*
X459500Y-771300D01*
X508100D01*
X506300Y-780000D01*
X447500D01*
X463600Y-703100D01*
X519300D01*
X517500Y-711800D01*
D02*
G37*
G36*
X365900Y-780000D02*
X355900D01*
X352200Y-757900D01*
X321100D01*
X308800Y-780000D01*
X297500D01*
X340900Y-703100D01*
X353200D01*
X365900Y-780000D01*
D02*
G37*
%LPC*%
G36*
X230000Y665108D02*
X227854Y664681D01*
X226035Y663465D01*
X224819Y661646D01*
X224392Y659500D01*
X224819Y657354D01*
X226035Y655535D01*
X227854Y654319D01*
X230000Y653892D01*
X232146Y654319D01*
X233965Y655535D01*
X235181Y657354D01*
X235608Y659500D01*
X235181Y661646D01*
X233965Y663465D01*
X232146Y664681D01*
X230000Y665108D01*
D02*
G37*
G36*
X480000Y663573D02*
X477781Y663281D01*
X475713Y662425D01*
X473938Y661062D01*
X472575Y659287D01*
X471719Y657219D01*
X471427Y655000D01*
X471719Y652781D01*
X472575Y650713D01*
X473938Y648938D01*
X475713Y647575D01*
X477781Y646719D01*
X480000Y646427D01*
X482219Y646719D01*
X484287Y647575D01*
X486062Y648938D01*
X487425Y650713D01*
X488281Y652781D01*
X488573Y655000D01*
X488281Y657219D01*
X487425Y659287D01*
X486062Y661062D01*
X484287Y662425D01*
X482219Y663281D01*
X480000Y663573D01*
D02*
G37*
G36*
X451750Y647899D02*
Y644000D01*
X455649D01*
X455460Y644951D01*
X454355Y646605D01*
X452701Y647710D01*
X451750Y647899D01*
D02*
G37*
G36*
X449750D02*
X448799Y647710D01*
X447145Y646605D01*
X446040Y644951D01*
X445851Y644000D01*
X449750D01*
Y647899D01*
D02*
G37*
G36*
X734900Y666049D02*
X731898Y665654D01*
X729100Y664495D01*
X726698Y662652D01*
X724855Y660250D01*
X723696Y657452D01*
X723301Y654450D01*
X723696Y651448D01*
X724855Y648650D01*
X726698Y646248D01*
X729100Y644405D01*
X731898Y643246D01*
X734900Y642851D01*
X737902Y643246D01*
X740700Y644405D01*
X743102Y646248D01*
X744945Y648650D01*
X746104Y651448D01*
X746499Y654450D01*
X746104Y657452D01*
X744945Y660250D01*
X743102Y662652D01*
X740700Y664495D01*
X737902Y665654D01*
X734900Y666049D01*
D02*
G37*
G36*
X709500D02*
X706498Y665654D01*
X703700Y664495D01*
X701298Y662652D01*
X699455Y660250D01*
X698296Y657452D01*
X697901Y654450D01*
X698296Y651448D01*
X699455Y648650D01*
X701298Y646248D01*
X703700Y644405D01*
X706498Y643246D01*
X709500Y642851D01*
X712502Y643246D01*
X715300Y644405D01*
X717702Y646248D01*
X719545Y648650D01*
X720704Y651448D01*
X721099Y654450D01*
X720704Y657452D01*
X719545Y660250D01*
X717702Y662652D01*
X715300Y664495D01*
X712502Y665654D01*
X709500Y666049D01*
D02*
G37*
G36*
X547750Y652108D02*
X545604Y651681D01*
X543785Y650465D01*
X542569Y648646D01*
X542142Y646500D01*
X542569Y644354D01*
X543785Y642535D01*
X545604Y641319D01*
X547750Y640892D01*
X549896Y641319D01*
X551715Y642535D01*
X552931Y644354D01*
X553358Y646500D01*
X552931Y648646D01*
X551715Y650465D01*
X549896Y651681D01*
X547750Y652108D01*
D02*
G37*
G36*
X586000Y651858D02*
X583854Y651431D01*
X582035Y650215D01*
X580819Y648396D01*
X580392Y646250D01*
X580819Y644104D01*
X582035Y642285D01*
X583854Y641069D01*
X586000Y640642D01*
X588146Y641069D01*
X589965Y642285D01*
X591181Y644104D01*
X591608Y646250D01*
X591181Y648396D01*
X589965Y650215D01*
X588146Y651431D01*
X586000Y651858D01*
D02*
G37*
G36*
X573250Y651608D02*
X571104Y651181D01*
X569285Y649965D01*
X568069Y648146D01*
X567642Y646000D01*
X568069Y643854D01*
X569285Y642035D01*
X571104Y640819D01*
X573250Y640392D01*
X575396Y640819D01*
X577215Y642035D01*
X578431Y643854D01*
X578858Y646000D01*
X578431Y648146D01*
X577215Y649965D01*
X575396Y651181D01*
X573250Y651608D01*
D02*
G37*
G36*
X455649Y642000D02*
X451750D01*
Y638101D01*
X452701Y638290D01*
X454355Y639395D01*
X455460Y641049D01*
X455649Y642000D01*
D02*
G37*
G36*
X449750D02*
X445851D01*
X446040Y641049D01*
X447145Y639395D01*
X448799Y638290D01*
X449750Y638101D01*
Y642000D01*
D02*
G37*
G36*
X518500Y647858D02*
X516354Y647431D01*
X514535Y646215D01*
X513319Y644396D01*
X512892Y642250D01*
X513319Y640104D01*
X514535Y638285D01*
X516354Y637069D01*
X518500Y636642D01*
X520646Y637069D01*
X522465Y638285D01*
X523681Y640104D01*
X524108Y642250D01*
X523681Y644396D01*
X522465Y646215D01*
X520646Y647431D01*
X518500Y647858D01*
D02*
G37*
G36*
X232250Y636399D02*
Y632500D01*
X236149D01*
X235960Y633451D01*
X234855Y635105D01*
X233201Y636210D01*
X232250Y636399D01*
D02*
G37*
G36*
X230250D02*
X229299Y636210D01*
X227645Y635105D01*
X226540Y633451D01*
X226351Y632500D01*
X230250D01*
Y636399D01*
D02*
G37*
G36*
X236149Y630500D02*
X232250D01*
Y626601D01*
X233201Y626790D01*
X234855Y627895D01*
X235960Y629549D01*
X236149Y630500D01*
D02*
G37*
G36*
X230250D02*
X226351D01*
X226540Y629549D01*
X227645Y627895D01*
X229299Y626790D01*
X230250Y626601D01*
Y630500D01*
D02*
G37*
G36*
X70000Y635608D02*
X67854Y635181D01*
X66035Y633965D01*
X64819Y632146D01*
X64392Y630000D01*
X64819Y627854D01*
X66035Y626035D01*
X67854Y624819D01*
X70000Y624392D01*
X72146Y624819D01*
X73965Y626035D01*
X75181Y627854D01*
X75608Y630000D01*
X75181Y632146D01*
X73965Y633965D01*
X72146Y635181D01*
X70000Y635608D01*
D02*
G37*
G36*
X40000D02*
X37854Y635181D01*
X36035Y633965D01*
X34819Y632146D01*
X34392Y630000D01*
X34819Y627854D01*
X36035Y626035D01*
X37854Y624819D01*
X40000Y624392D01*
X42146Y624819D01*
X43965Y626035D01*
X45181Y627854D01*
X45608Y630000D01*
X45181Y632146D01*
X43965Y633965D01*
X42146Y635181D01*
X40000Y635608D01*
D02*
G37*
G36*
X20000D02*
X17854Y635181D01*
X16035Y633965D01*
X14819Y632146D01*
X14392Y630000D01*
X14819Y627854D01*
X16035Y626035D01*
X17854Y624819D01*
X20000Y624392D01*
X22146Y624819D01*
X23965Y626035D01*
X25181Y627854D01*
X25608Y630000D01*
X25181Y632146D01*
X23965Y633965D01*
X22146Y635181D01*
X20000Y635608D01*
D02*
G37*
G36*
X545000Y635358D02*
X542854Y634931D01*
X541035Y633715D01*
X539819Y631896D01*
X539392Y629750D01*
X539819Y627604D01*
X541035Y625785D01*
X542854Y624569D01*
X545000Y624142D01*
X547146Y624569D01*
X548965Y625785D01*
X550181Y627604D01*
X550608Y629750D01*
X550181Y631896D01*
X548965Y633715D01*
X547146Y634931D01*
X545000Y635358D01*
D02*
G37*
G36*
X246750Y624399D02*
Y620500D01*
X250649D01*
X250460Y621451D01*
X249355Y623105D01*
X247701Y624210D01*
X246750Y624399D01*
D02*
G37*
G36*
X244750D02*
X243799Y624210D01*
X242145Y623105D01*
X241040Y621451D01*
X240851Y620500D01*
X244750D01*
Y624399D01*
D02*
G37*
G36*
X407750Y640745D02*
X404878Y640367D01*
X402202Y639258D01*
X399905Y637495D01*
X398142Y635197D01*
X397033Y632522D01*
X396655Y629650D01*
X397033Y626778D01*
X398142Y624103D01*
X399905Y621805D01*
X402202Y620042D01*
X404878Y618933D01*
X407750Y618555D01*
X410621Y618933D01*
X413297Y620042D01*
X415595Y621805D01*
X417358Y624103D01*
X418467Y626778D01*
X418845Y629650D01*
X418467Y632522D01*
X417358Y635197D01*
X415595Y637495D01*
X413297Y639258D01*
X410621Y640367D01*
X407750Y640745D01*
D02*
G37*
G36*
X734900Y640649D02*
X731898Y640254D01*
X729100Y639095D01*
X726698Y637252D01*
X724855Y634850D01*
X723696Y632052D01*
X723301Y629050D01*
X723696Y626048D01*
X724855Y623250D01*
X726698Y620848D01*
X729100Y619005D01*
X731898Y617846D01*
X734900Y617451D01*
X737902Y617846D01*
X740700Y619005D01*
X743102Y620848D01*
X744945Y623250D01*
X746104Y626048D01*
X746499Y629050D01*
X746104Y632052D01*
X744945Y634850D01*
X743102Y637252D01*
X740700Y639095D01*
X737902Y640254D01*
X734900Y640649D01*
D02*
G37*
G36*
X709500D02*
X706498Y640254D01*
X703700Y639095D01*
X701298Y637252D01*
X699455Y634850D01*
X698296Y632052D01*
X697901Y629050D01*
X698296Y626048D01*
X699455Y623250D01*
X701298Y620848D01*
X703700Y619005D01*
X706498Y617846D01*
X709500Y617451D01*
X712502Y617846D01*
X715300Y619005D01*
X717702Y620848D01*
X719545Y623250D01*
X720704Y626048D01*
X721099Y629050D01*
X720704Y632052D01*
X719545Y634850D01*
X717702Y637252D01*
X715300Y639095D01*
X712502Y640254D01*
X709500Y640649D01*
D02*
G37*
G36*
X250649Y618500D02*
X246750D01*
Y614601D01*
X247701Y614790D01*
X249355Y615895D01*
X250460Y617549D01*
X250649Y618500D01*
D02*
G37*
G36*
X244750D02*
X240851D01*
X241040Y617549D01*
X242145Y615895D01*
X243799Y614790D01*
X244750Y614601D01*
Y618500D01*
D02*
G37*
G36*
X617750Y615649D02*
Y611750D01*
X621649D01*
X621460Y612701D01*
X620355Y614355D01*
X618701Y615460D01*
X617750Y615649D01*
D02*
G37*
G36*
X615750D02*
X614799Y615460D01*
X613145Y614355D01*
X612040Y612701D01*
X611851Y611750D01*
X615750D01*
Y615649D01*
D02*
G37*
G36*
X30000Y620608D02*
X27854Y620181D01*
X26035Y618965D01*
X24819Y617146D01*
X24392Y615000D01*
X24819Y612854D01*
X26035Y611035D01*
X27854Y609819D01*
X30000Y609392D01*
X32146Y609819D01*
X33965Y611035D01*
X35181Y612854D01*
X35608Y615000D01*
X35181Y617146D01*
X33965Y618965D01*
X32146Y620181D01*
X30000Y620608D01*
D02*
G37*
G36*
X672750Y611899D02*
Y608000D01*
X676649D01*
X676460Y608951D01*
X675355Y610605D01*
X673701Y611710D01*
X672750Y611899D01*
D02*
G37*
G36*
X670750D02*
X669799Y611710D01*
X668145Y610605D01*
X667040Y608951D01*
X666851Y608000D01*
X670750D01*
Y611899D01*
D02*
G37*
G36*
X621649Y609750D02*
X617750D01*
Y605851D01*
X618701Y606040D01*
X620355Y607145D01*
X621460Y608799D01*
X621649Y609750D01*
D02*
G37*
G36*
X615750D02*
X611851D01*
X612040Y608799D01*
X613145Y607145D01*
X614799Y606040D01*
X615750Y605851D01*
Y609750D01*
D02*
G37*
G36*
X492250Y616608D02*
X490104Y616181D01*
X488285Y614965D01*
X487069Y613146D01*
X486642Y611000D01*
X487069Y608854D01*
X488285Y607035D01*
X490104Y605819D01*
X492250Y605392D01*
X494396Y605819D01*
X496215Y607035D01*
X497431Y608854D01*
X497858Y611000D01*
X497431Y613146D01*
X496215Y614965D01*
X494396Y616181D01*
X492250Y616608D01*
D02*
G37*
G36*
X347500Y614608D02*
X345354Y614181D01*
X343535Y612965D01*
X342319Y611146D01*
X341892Y609000D01*
X342319Y606854D01*
X343535Y605035D01*
X345354Y603819D01*
X347500Y603392D01*
X349646Y603819D01*
X351465Y605035D01*
X352681Y606854D01*
X353108Y609000D01*
X352681Y611146D01*
X351465Y612965D01*
X349646Y614181D01*
X347500Y614608D01*
D02*
G37*
G36*
X54750Y627608D02*
X51487Y627178D01*
X48446Y625919D01*
X45835Y623915D01*
X43831Y621304D01*
X42572Y618263D01*
X42142Y615000D01*
X42572Y611737D01*
X43831Y608696D01*
X45835Y606085D01*
X48446Y604081D01*
X51487Y602822D01*
X54750Y602392D01*
X58013Y602822D01*
X61054Y604081D01*
X63665Y606085D01*
X65669Y608696D01*
X66928Y611737D01*
X67358Y615000D01*
X66928Y618263D01*
X65669Y621304D01*
X63665Y623915D01*
X61054Y625919D01*
X58013Y627178D01*
X54750Y627608D01*
D02*
G37*
G36*
X676649Y606000D02*
X672750D01*
Y602101D01*
X673701Y602290D01*
X675355Y603395D01*
X676460Y605049D01*
X676649Y606000D01*
D02*
G37*
G36*
X670750D02*
X666851D01*
X667040Y605049D01*
X668145Y603395D01*
X669799Y602290D01*
X670750Y602101D01*
Y606000D01*
D02*
G37*
G36*
X175500Y611858D02*
X173354Y611431D01*
X171535Y610215D01*
X170319Y608396D01*
X169892Y606250D01*
X170319Y604104D01*
X171535Y602285D01*
X173354Y601069D01*
X175500Y600642D01*
X177646Y601069D01*
X179465Y602285D01*
X180681Y604104D01*
X181108Y606250D01*
X180681Y608396D01*
X179465Y610215D01*
X177646Y611431D01*
X175500Y611858D01*
D02*
G37*
G36*
X318500Y601399D02*
Y597500D01*
X322399D01*
X322210Y598451D01*
X321105Y600105D01*
X319451Y601210D01*
X318500Y601399D01*
D02*
G37*
G36*
X316500D02*
X315549Y601210D01*
X313895Y600105D01*
X312790Y598451D01*
X312601Y597500D01*
X316500D01*
Y601399D01*
D02*
G37*
G36*
X498000Y598899D02*
Y595000D01*
X501899D01*
X501710Y595951D01*
X500605Y597605D01*
X498951Y598710D01*
X498000Y598899D01*
D02*
G37*
G36*
X496000D02*
X495049Y598710D01*
X493395Y597605D01*
X492290Y595951D01*
X492101Y595000D01*
X496000D01*
Y598899D01*
D02*
G37*
G36*
X90000Y605608D02*
X87854Y605181D01*
X86035Y603965D01*
X84819Y602146D01*
X84392Y600000D01*
X84819Y597854D01*
X86035Y596035D01*
X87854Y594819D01*
X90000Y594392D01*
X92146Y594819D01*
X93965Y596035D01*
X95181Y597854D01*
X95608Y600000D01*
X95181Y602146D01*
X93965Y603965D01*
X92146Y605181D01*
X90000Y605608D01*
D02*
G37*
G36*
X70000D02*
X67854Y605181D01*
X66035Y603965D01*
X64819Y602146D01*
X64392Y600000D01*
X64819Y597854D01*
X66035Y596035D01*
X67854Y594819D01*
X70000Y594392D01*
X72146Y594819D01*
X73965Y596035D01*
X75181Y597854D01*
X75608Y600000D01*
X75181Y602146D01*
X73965Y603965D01*
X72146Y605181D01*
X70000Y605608D01*
D02*
G37*
G36*
X40000D02*
X37854Y605181D01*
X36035Y603965D01*
X34819Y602146D01*
X34392Y600000D01*
X34819Y597854D01*
X36035Y596035D01*
X37854Y594819D01*
X40000Y594392D01*
X42146Y594819D01*
X43965Y596035D01*
X45181Y597854D01*
X45608Y600000D01*
X45181Y602146D01*
X43965Y603965D01*
X42146Y605181D01*
X40000Y605608D01*
D02*
G37*
G36*
X20000D02*
X17854Y605181D01*
X16035Y603965D01*
X14819Y602146D01*
X14392Y600000D01*
X14819Y597854D01*
X16035Y596035D01*
X17854Y594819D01*
X20000Y594392D01*
X22146Y594819D01*
X23965Y596035D01*
X25181Y597854D01*
X25608Y600000D01*
X25181Y602146D01*
X23965Y603965D01*
X22146Y605181D01*
X20000Y605608D01*
D02*
G37*
G36*
X407750Y615345D02*
X404878Y614967D01*
X402202Y613858D01*
X399905Y612095D01*
X398142Y609797D01*
X397033Y607122D01*
X396655Y604250D01*
X397033Y601378D01*
X398142Y598703D01*
X399905Y596405D01*
X402202Y594641D01*
X404878Y593533D01*
X407750Y593155D01*
X410621Y593533D01*
X413297Y594641D01*
X415595Y596405D01*
X417358Y598703D01*
X418467Y601378D01*
X418845Y604250D01*
X418467Y607122D01*
X417358Y609797D01*
X415595Y612095D01*
X413297Y613858D01*
X410621Y614967D01*
X407750Y615345D01*
D02*
G37*
G36*
X246000Y603858D02*
X243854Y603431D01*
X242035Y602215D01*
X240819Y600396D01*
X240392Y598250D01*
X240819Y596104D01*
X242035Y594285D01*
X243854Y593069D01*
X246000Y592642D01*
X248146Y593069D01*
X249965Y594285D01*
X251181Y596104D01*
X251608Y598250D01*
X251181Y600396D01*
X249965Y602215D01*
X248146Y603431D01*
X246000Y603858D01*
D02*
G37*
G36*
X734900Y615249D02*
X731898Y614854D01*
X729100Y613695D01*
X726698Y611852D01*
X724855Y609450D01*
X723696Y606652D01*
X723301Y603650D01*
X723696Y600648D01*
X724855Y597850D01*
X726698Y595448D01*
X729100Y593605D01*
X731898Y592446D01*
X734900Y592051D01*
X737902Y592446D01*
X740700Y593605D01*
X743102Y595448D01*
X744945Y597850D01*
X746104Y600648D01*
X746499Y603650D01*
X746104Y606652D01*
X744945Y609450D01*
X743102Y611852D01*
X740700Y613695D01*
X737902Y614854D01*
X734900Y615249D01*
D02*
G37*
G36*
X709500D02*
X706498Y614854D01*
X703700Y613695D01*
X701298Y611852D01*
X699455Y609450D01*
X698296Y606652D01*
X697901Y603650D01*
X698296Y600648D01*
X699455Y597850D01*
X701298Y595448D01*
X703700Y593605D01*
X706498Y592446D01*
X709500Y592051D01*
X712502Y592446D01*
X715300Y593605D01*
X717702Y595448D01*
X719545Y597850D01*
X720704Y600648D01*
X721099Y603650D01*
X720704Y606652D01*
X719545Y609450D01*
X717702Y611852D01*
X715300Y613695D01*
X712502Y614854D01*
X709500Y615249D01*
D02*
G37*
G36*
X322399Y595500D02*
X318500D01*
Y591601D01*
X319451Y591790D01*
X321105Y592895D01*
X322210Y594549D01*
X322399Y595500D01*
D02*
G37*
G36*
X316500D02*
X312601D01*
X312790Y594549D01*
X313895Y592895D01*
X315549Y591790D01*
X316500Y591601D01*
Y595500D01*
D02*
G37*
G36*
X501899Y593000D02*
X498000D01*
Y589101D01*
X498951Y589290D01*
X500605Y590395D01*
X501710Y592049D01*
X501899Y593000D01*
D02*
G37*
G36*
X496000D02*
X492101D01*
X492290Y592049D01*
X493395Y590395D01*
X495049Y589290D01*
X496000Y589101D01*
Y593000D01*
D02*
G37*
G36*
X162500Y599858D02*
X160354Y599431D01*
X158535Y598215D01*
X157319Y596396D01*
X156892Y594250D01*
X157319Y592104D01*
X158535Y590285D01*
X160354Y589069D01*
X162500Y588642D01*
X164646Y589069D01*
X166465Y590285D01*
X167681Y592104D01*
X168108Y594250D01*
X167681Y596396D01*
X166465Y598215D01*
X164646Y599431D01*
X162500Y599858D01*
D02*
G37*
G36*
X231500Y591358D02*
X229354Y590931D01*
X227535Y589715D01*
X226319Y587896D01*
X225892Y585750D01*
X226319Y583604D01*
X227535Y581785D01*
X229354Y580569D01*
X231500Y580142D01*
X233646Y580569D01*
X235465Y581785D01*
X236681Y583604D01*
X237108Y585750D01*
X236681Y587896D01*
X235465Y589715D01*
X233646Y590931D01*
X231500Y591358D01*
D02*
G37*
G36*
X563750Y591108D02*
X561604Y590681D01*
X559785Y589465D01*
X558569Y587646D01*
X558142Y585500D01*
X558569Y583354D01*
X559785Y581535D01*
X561604Y580319D01*
X563750Y579892D01*
X565896Y580319D01*
X567715Y581535D01*
X568931Y583354D01*
X569358Y585500D01*
X568931Y587646D01*
X567715Y589465D01*
X565896Y590681D01*
X563750Y591108D01*
D02*
G37*
G36*
X177250Y588108D02*
X175104Y587681D01*
X173285Y586465D01*
X172069Y584646D01*
X171642Y582500D01*
X172069Y580354D01*
X173285Y578535D01*
X175104Y577319D01*
X177250Y576892D01*
X179396Y577319D01*
X181215Y578535D01*
X182431Y580354D01*
X182858Y582500D01*
X182431Y584646D01*
X181215Y586465D01*
X179396Y587681D01*
X177250Y588108D01*
D02*
G37*
G36*
X604000Y585358D02*
X601854Y584931D01*
X600035Y583715D01*
X598819Y581896D01*
X598392Y579750D01*
X598819Y577604D01*
X600035Y575785D01*
X601854Y574569D01*
X604000Y574142D01*
X606146Y574569D01*
X607965Y575785D01*
X609181Y577604D01*
X609608Y579750D01*
X609181Y581896D01*
X607965Y583715D01*
X606146Y584931D01*
X604000Y585358D01*
D02*
G37*
G36*
X418750Y589850D02*
X396750D01*
Y567850D01*
X418750D01*
Y589850D01*
D02*
G37*
G36*
X734900Y589849D02*
X731898Y589454D01*
X729100Y588295D01*
X726698Y586452D01*
X724855Y584050D01*
X723696Y581252D01*
X723301Y578250D01*
X723696Y575248D01*
X724855Y572450D01*
X726698Y570048D01*
X729100Y568205D01*
X731898Y567046D01*
X734900Y566651D01*
X737902Y567046D01*
X740700Y568205D01*
X743102Y570048D01*
X744945Y572450D01*
X746104Y575248D01*
X746499Y578250D01*
X746104Y581252D01*
X744945Y584050D01*
X743102Y586452D01*
X740700Y588295D01*
X737902Y589454D01*
X734900Y589849D01*
D02*
G37*
G36*
X709500D02*
X706498Y589454D01*
X703700Y588295D01*
X701298Y586452D01*
X699455Y584050D01*
X698296Y581252D01*
X697901Y578250D01*
X698296Y575248D01*
X699455Y572450D01*
X701298Y570048D01*
X703700Y568205D01*
X706498Y567046D01*
X709500Y566651D01*
X712502Y567046D01*
X715300Y568205D01*
X717702Y570048D01*
X719545Y572450D01*
X720704Y575248D01*
X721099Y578250D01*
X720704Y581252D01*
X719545Y584050D01*
X717702Y586452D01*
X715300Y588295D01*
X712502Y589454D01*
X709500Y589849D01*
D02*
G37*
G36*
X546500Y581323D02*
X544281Y581031D01*
X542213Y580175D01*
X540438Y578812D01*
X539075Y577037D01*
X538219Y574969D01*
X537927Y572750D01*
X538219Y570531D01*
X539075Y568463D01*
X540438Y566688D01*
X542213Y565325D01*
X544281Y564469D01*
X546500Y564177D01*
X548719Y564469D01*
X550787Y565325D01*
X552562Y566688D01*
X553925Y568463D01*
X554781Y570531D01*
X555073Y572750D01*
X554781Y574969D01*
X553925Y577037D01*
X552562Y578812D01*
X550787Y580175D01*
X548719Y581031D01*
X546500Y581323D01*
D02*
G37*
G36*
X131250Y557858D02*
X129104Y557431D01*
X127285Y556215D01*
X126069Y554396D01*
X125642Y552250D01*
X126069Y550104D01*
X127285Y548285D01*
X129104Y547069D01*
X131250Y546642D01*
X133396Y547069D01*
X135215Y548285D01*
X136431Y550104D01*
X136858Y552250D01*
X136431Y554396D01*
X135215Y556215D01*
X133396Y557431D01*
X131250Y557858D01*
D02*
G37*
G36*
X380750Y552858D02*
X378604Y552431D01*
X376785Y551215D01*
X375569Y549396D01*
X375142Y547250D01*
X375569Y545104D01*
X376785Y543285D01*
X378604Y542069D01*
X380750Y541642D01*
X382896Y542069D01*
X384715Y543285D01*
X385931Y545104D01*
X386358Y547250D01*
X385931Y549396D01*
X384715Y551215D01*
X382896Y552431D01*
X380750Y552858D01*
D02*
G37*
G36*
X734900Y564449D02*
X731898Y564054D01*
X729100Y562895D01*
X726698Y561052D01*
X724855Y558650D01*
X723696Y555852D01*
X723301Y552850D01*
X723696Y549848D01*
X724855Y547050D01*
X726698Y544648D01*
X729100Y542805D01*
X731898Y541646D01*
X734900Y541251D01*
X737902Y541646D01*
X740700Y542805D01*
X743102Y544648D01*
X744945Y547050D01*
X746104Y549848D01*
X746499Y552850D01*
X746104Y555852D01*
X744945Y558650D01*
X743102Y561052D01*
X740700Y562895D01*
X737902Y564054D01*
X734900Y564449D01*
D02*
G37*
G36*
X709500D02*
X706498Y564054D01*
X703700Y562895D01*
X701298Y561052D01*
X699455Y558650D01*
X698296Y555852D01*
X697901Y552850D01*
X698296Y549848D01*
X699455Y547050D01*
X701298Y544648D01*
X703700Y542805D01*
X706498Y541646D01*
X709500Y541251D01*
X712502Y541646D01*
X715300Y542805D01*
X717702Y544648D01*
X719545Y547050D01*
X720704Y549848D01*
X721099Y552850D01*
X720704Y555852D01*
X719545Y558650D01*
X717702Y561052D01*
X715300Y562895D01*
X712502Y564054D01*
X709500Y564449D01*
D02*
G37*
G36*
X673250Y542899D02*
Y539000D01*
X677149D01*
X676960Y539951D01*
X675855Y541605D01*
X674201Y542710D01*
X673250Y542899D01*
D02*
G37*
G36*
X671250D02*
X670299Y542710D01*
X668645Y541605D01*
X667540Y539951D01*
X667351Y539000D01*
X671250D01*
Y542899D01*
D02*
G37*
G36*
X264910Y536608D02*
X262764Y536181D01*
X261160Y535109D01*
X259556Y536181D01*
X257410Y536608D01*
X255264Y536181D01*
X253445Y534965D01*
X252229Y533146D01*
X251802Y531000D01*
X252229Y528854D01*
X253445Y527035D01*
X255264Y525819D01*
X257410Y525392D01*
X259556Y525819D01*
X261160Y526891D01*
X262764Y525819D01*
X264910Y525392D01*
X267056Y525819D01*
X268875Y527035D01*
X270091Y528854D01*
X270518Y531000D01*
X270091Y533146D01*
X268875Y534965D01*
X267056Y536181D01*
X264910Y536608D01*
D02*
G37*
G36*
X449750Y545608D02*
X447604Y545181D01*
X445785Y543965D01*
X444569Y542146D01*
X444142Y540000D01*
X444569Y537854D01*
X445785Y536035D01*
X447604Y534819D01*
X449750Y534392D01*
X451896Y534819D01*
X453715Y536035D01*
X454931Y537854D01*
X455358Y540000D01*
X454931Y542146D01*
X453715Y543965D01*
X451896Y545181D01*
X449750Y545608D01*
D02*
G37*
G36*
X45250Y554800D02*
X24250D01*
Y533800D01*
X45250D01*
Y554800D01*
D02*
G37*
G36*
X677149Y537000D02*
X673250D01*
Y533101D01*
X674201Y533290D01*
X675855Y534395D01*
X676960Y536049D01*
X677149Y537000D01*
D02*
G37*
G36*
X671250D02*
X667351D01*
X667540Y536049D01*
X668645Y534395D01*
X670299Y533290D01*
X671250Y533101D01*
Y537000D01*
D02*
G37*
G36*
X591750Y540108D02*
X589604Y539681D01*
X587785Y538465D01*
X586569Y536646D01*
X586142Y534500D01*
X586569Y532354D01*
X587785Y530535D01*
X589604Y529319D01*
X591750Y528892D01*
X593896Y529319D01*
X595715Y530535D01*
X596931Y532354D01*
X597358Y534500D01*
X596931Y536646D01*
X595715Y538465D01*
X593896Y539681D01*
X591750Y540108D01*
D02*
G37*
G36*
X547250Y531899D02*
Y528000D01*
X551149D01*
X550960Y528951D01*
X549855Y530605D01*
X548201Y531710D01*
X547250Y531899D01*
D02*
G37*
G36*
X545250D02*
X544299Y531710D01*
X542645Y530605D01*
X541540Y528951D01*
X541351Y528000D01*
X545250D01*
Y531899D01*
D02*
G37*
G36*
X551149Y526000D02*
X547250D01*
Y522101D01*
X548201Y522290D01*
X549855Y523395D01*
X550960Y525049D01*
X551149Y526000D01*
D02*
G37*
G36*
X545250D02*
X541351D01*
X541540Y525049D01*
X542645Y523395D01*
X544299Y522290D01*
X545250Y522101D01*
Y526000D01*
D02*
G37*
G36*
X301000Y540343D02*
X298194Y539973D01*
X295579Y538890D01*
X293333Y537167D01*
X291610Y534921D01*
X290527Y532306D01*
X290157Y529500D01*
X290527Y526694D01*
X291610Y524079D01*
X293333Y521833D01*
X295579Y520110D01*
X298194Y519027D01*
X301000Y518657D01*
X303806Y519027D01*
X306421Y520110D01*
X308667Y521833D01*
X310390Y524079D01*
X311473Y526694D01*
X311843Y529500D01*
X311473Y532306D01*
X310390Y534921D01*
X308667Y537167D01*
X306421Y538890D01*
X303806Y539973D01*
X301000Y540343D01*
D02*
G37*
G36*
X663750Y522399D02*
Y518500D01*
X667649D01*
X667460Y519451D01*
X666355Y521105D01*
X664701Y522210D01*
X663750Y522399D01*
D02*
G37*
G36*
X661750D02*
X660799Y522210D01*
X659145Y521105D01*
X658040Y519451D01*
X657851Y518500D01*
X661750D01*
Y522399D01*
D02*
G37*
G36*
X734900Y539049D02*
X731898Y538654D01*
X729100Y537495D01*
X726698Y535652D01*
X724855Y533250D01*
X723696Y530452D01*
X723301Y527450D01*
X723696Y524448D01*
X724855Y521650D01*
X726698Y519248D01*
X729100Y517405D01*
X731898Y516246D01*
X734900Y515851D01*
X737902Y516246D01*
X740700Y517405D01*
X743102Y519248D01*
X744945Y521650D01*
X746104Y524448D01*
X746499Y527450D01*
X746104Y530452D01*
X744945Y533250D01*
X743102Y535652D01*
X740700Y537495D01*
X737902Y538654D01*
X734900Y539049D01*
D02*
G37*
G36*
X709500D02*
X706498Y538654D01*
X703700Y537495D01*
X701298Y535652D01*
X699455Y533250D01*
X698296Y530452D01*
X697901Y527450D01*
X698296Y524448D01*
X699455Y521650D01*
X701298Y519248D01*
X703700Y517405D01*
X706498Y516246D01*
X709500Y515851D01*
X712502Y516246D01*
X715300Y517405D01*
X717702Y519248D01*
X719545Y521650D01*
X720704Y524448D01*
X721099Y527450D01*
X720704Y530452D01*
X719545Y533250D01*
X717702Y535652D01*
X715300Y537495D01*
X712502Y538654D01*
X709500Y539049D01*
D02*
G37*
G36*
X67500Y525108D02*
X65354Y524681D01*
X63535Y523465D01*
X62319Y521646D01*
X61892Y519500D01*
X62319Y517354D01*
X63535Y515535D01*
X65354Y514319D01*
X67500Y513892D01*
X69646Y514319D01*
X71465Y515535D01*
X72681Y517354D01*
X73108Y519500D01*
X72681Y521646D01*
X71465Y523465D01*
X69646Y524681D01*
X67500Y525108D01*
D02*
G37*
G36*
X193750Y524608D02*
X191604Y524181D01*
X189785Y522965D01*
X188569Y521146D01*
X188142Y519000D01*
X188569Y516854D01*
X189785Y515035D01*
X191604Y513819D01*
X193750Y513392D01*
X195896Y513819D01*
X197715Y515035D01*
X198931Y516854D01*
X199358Y519000D01*
X198931Y521146D01*
X197715Y522965D01*
X195896Y524181D01*
X193750Y524608D01*
D02*
G37*
G36*
X667649Y516500D02*
X663750D01*
Y512601D01*
X664701Y512790D01*
X666355Y513895D01*
X667460Y515549D01*
X667649Y516500D01*
D02*
G37*
G36*
X661750D02*
X657851D01*
X658040Y515549D01*
X659145Y513895D01*
X660799Y512790D01*
X661750Y512601D01*
Y516500D01*
D02*
G37*
G36*
X34750Y529491D02*
X32009Y529130D01*
X29455Y528072D01*
X27261Y526389D01*
X25578Y524195D01*
X24520Y521641D01*
X24159Y518900D01*
X24520Y516159D01*
X25578Y513605D01*
X27261Y511411D01*
X29455Y509728D01*
X32009Y508670D01*
X34750Y508309D01*
X37491Y508670D01*
X40045Y509728D01*
X42239Y511411D01*
X43922Y513605D01*
X44980Y516159D01*
X45340Y518900D01*
X44980Y521641D01*
X43922Y524195D01*
X42239Y526389D01*
X40045Y528072D01*
X37491Y529130D01*
X34750Y529491D01*
D02*
G37*
G36*
X228750Y510649D02*
Y506750D01*
X232649D01*
X232460Y507701D01*
X231355Y509355D01*
X229701Y510460D01*
X228750Y510649D01*
D02*
G37*
G36*
X226750D02*
X225799Y510460D01*
X224145Y509355D01*
X223040Y507701D01*
X222851Y506750D01*
X226750D01*
Y510649D01*
D02*
G37*
G36*
X129120Y526220D02*
X108880D01*
Y505980D01*
X129120D01*
Y526220D01*
D02*
G37*
G36*
X144400Y526307D02*
X141758Y525960D01*
X139296Y524940D01*
X137182Y523318D01*
X135560Y521204D01*
X134540Y518742D01*
X134193Y516100D01*
X134540Y513458D01*
X135560Y510996D01*
X137182Y508882D01*
X139296Y507260D01*
X141758Y506241D01*
X144400Y505893D01*
X147042Y506241D01*
X149504Y507260D01*
X151618Y508882D01*
X153240Y510996D01*
X154260Y513458D01*
X154607Y516100D01*
X154260Y518742D01*
X153240Y521204D01*
X151618Y523318D01*
X149504Y524940D01*
X147042Y525960D01*
X144400Y526307D01*
D02*
G37*
G36*
X426250Y516358D02*
X424104Y515931D01*
X422285Y514715D01*
X421069Y512896D01*
X420642Y510750D01*
X421069Y508604D01*
X422285Y506785D01*
X424104Y505569D01*
X426250Y505142D01*
X428396Y505569D01*
X430215Y506785D01*
X431431Y508604D01*
X431858Y510750D01*
X431431Y512896D01*
X430215Y514715D01*
X428396Y515931D01*
X426250Y516358D01*
D02*
G37*
G36*
X591250Y507149D02*
Y503250D01*
X595149D01*
X594960Y504201D01*
X593855Y505855D01*
X592201Y506960D01*
X591250Y507149D01*
D02*
G37*
G36*
X589250D02*
X588299Y506960D01*
X586645Y505855D01*
X585540Y504201D01*
X585351Y503250D01*
X589250D01*
Y507149D01*
D02*
G37*
G36*
X232649Y504750D02*
X228750D01*
Y500851D01*
X229701Y501040D01*
X231355Y502145D01*
X232460Y503799D01*
X232649Y504750D01*
D02*
G37*
G36*
X226750D02*
X222851D01*
X223040Y503799D01*
X224145Y502145D01*
X225799Y501040D01*
X226750Y500851D01*
Y504750D01*
D02*
G37*
G36*
X474000Y511358D02*
X471854Y510931D01*
X470035Y509715D01*
X468819Y507896D01*
X468392Y505750D01*
X468819Y503604D01*
X470035Y501785D01*
X471854Y500569D01*
X474000Y500142D01*
X476146Y500569D01*
X477965Y501785D01*
X479181Y503604D01*
X479608Y505750D01*
X479181Y507896D01*
X477965Y509715D01*
X476146Y510931D01*
X474000Y511358D01*
D02*
G37*
G36*
X595149Y501250D02*
X591250D01*
Y497351D01*
X592201Y497540D01*
X593855Y498645D01*
X594960Y500299D01*
X595149Y501250D01*
D02*
G37*
G36*
X589250D02*
X585351D01*
X585540Y500299D01*
X586645Y498645D01*
X588299Y497540D01*
X589250Y497351D01*
Y501250D01*
D02*
G37*
G36*
X734900Y513649D02*
X731898Y513254D01*
X729100Y512095D01*
X726698Y510252D01*
X724855Y507850D01*
X723696Y505052D01*
X723301Y502050D01*
X723696Y499048D01*
X724855Y496250D01*
X726698Y493848D01*
X729100Y492005D01*
X731898Y490846D01*
X734900Y490451D01*
X737902Y490846D01*
X740700Y492005D01*
X743102Y493848D01*
X744945Y496250D01*
X746104Y499048D01*
X746499Y502050D01*
X746104Y505052D01*
X744945Y507850D01*
X743102Y510252D01*
X740700Y512095D01*
X737902Y513254D01*
X734900Y513649D01*
D02*
G37*
G36*
X709500D02*
X706498Y513254D01*
X703700Y512095D01*
X701298Y510252D01*
X699455Y507850D01*
X698296Y505052D01*
X697901Y502050D01*
X698296Y499048D01*
X699455Y496250D01*
X701298Y493848D01*
X703700Y492005D01*
X706498Y490846D01*
X709500Y490451D01*
X712502Y490846D01*
X715300Y492005D01*
X717702Y493848D01*
X719545Y496250D01*
X720704Y499048D01*
X721099Y502050D01*
X720704Y505052D01*
X719545Y507850D01*
X717702Y510252D01*
X715300Y512095D01*
X712502Y513254D01*
X709500Y513649D01*
D02*
G37*
G36*
X34750Y504091D02*
X32009Y503730D01*
X29455Y502672D01*
X27261Y500989D01*
X25578Y498795D01*
X24520Y496241D01*
X24159Y493500D01*
X24520Y490759D01*
X25578Y488205D01*
X27261Y486011D01*
X29455Y484328D01*
X32009Y483270D01*
X34750Y482909D01*
X37491Y483270D01*
X40045Y484328D01*
X42239Y486011D01*
X43922Y488205D01*
X44980Y490759D01*
X45340Y493500D01*
X44980Y496241D01*
X43922Y498795D01*
X42239Y500989D01*
X40045Y502672D01*
X37491Y503730D01*
X34750Y504091D01*
D02*
G37*
G36*
X144400Y500907D02*
X141758Y500560D01*
X139296Y499540D01*
X137182Y497918D01*
X135560Y495804D01*
X134540Y493342D01*
X134193Y490700D01*
X134540Y488058D01*
X135560Y485596D01*
X137182Y483482D01*
X139296Y481860D01*
X141758Y480840D01*
X144400Y480493D01*
X147042Y480840D01*
X149504Y481860D01*
X151618Y483482D01*
X153240Y485596D01*
X154260Y488058D01*
X154607Y490700D01*
X154260Y493342D01*
X153240Y495804D01*
X151618Y497918D01*
X149504Y499540D01*
X147042Y500560D01*
X144400Y500907D01*
D02*
G37*
G36*
X119000D02*
X116358Y500560D01*
X113896Y499540D01*
X111782Y497918D01*
X110160Y495804D01*
X109140Y493342D01*
X108793Y490700D01*
X109140Y488058D01*
X110160Y485596D01*
X111782Y483482D01*
X113896Y481860D01*
X116358Y480840D01*
X119000Y480493D01*
X121642Y480840D01*
X124104Y481860D01*
X126218Y483482D01*
X127840Y485596D01*
X128860Y488058D01*
X129207Y490700D01*
X128860Y493342D01*
X127840Y495804D01*
X126218Y497918D01*
X124104Y499540D01*
X121642Y500560D01*
X119000Y500907D01*
D02*
G37*
G36*
X514500Y486108D02*
X512354Y485681D01*
X510535Y484465D01*
X509319Y482646D01*
X508892Y480500D01*
X509319Y478354D01*
X510535Y476535D01*
X512354Y475319D01*
X514500Y474892D01*
X516646Y475319D01*
X518465Y476535D01*
X519681Y478354D01*
X520108Y480500D01*
X519681Y482646D01*
X518465Y484465D01*
X516646Y485681D01*
X514500Y486108D01*
D02*
G37*
G36*
X439500Y477149D02*
Y473250D01*
X443399D01*
X443210Y474201D01*
X442105Y475855D01*
X440451Y476960D01*
X439500Y477149D01*
D02*
G37*
G36*
X437500D02*
X436549Y476960D01*
X434895Y475855D01*
X433790Y474201D01*
X433601Y473250D01*
X437500D01*
Y477149D01*
D02*
G37*
G36*
X415500D02*
Y473250D01*
X419399D01*
X419210Y474201D01*
X418105Y475855D01*
X416451Y476960D01*
X415500Y477149D01*
D02*
G37*
G36*
X413500D02*
X412549Y476960D01*
X410895Y475855D01*
X409790Y474201D01*
X409601Y473250D01*
X413500D01*
Y477149D01*
D02*
G37*
G36*
X585000Y488573D02*
X582781Y488281D01*
X580713Y487425D01*
X578938Y486062D01*
X577575Y484287D01*
X576719Y482219D01*
X576427Y480000D01*
X576719Y477781D01*
X577575Y475713D01*
X578938Y473938D01*
X580713Y472575D01*
X582781Y471719D01*
X585000Y471427D01*
X587219Y471719D01*
X589287Y472575D01*
X591062Y473938D01*
X592425Y475713D01*
X593281Y477781D01*
X593573Y480000D01*
X593281Y482219D01*
X592425Y484287D01*
X591062Y486062D01*
X589287Y487425D01*
X587219Y488281D01*
X585000Y488573D01*
D02*
G37*
G36*
X655000Y481608D02*
X652854Y481181D01*
X651035Y479965D01*
X649819Y478146D01*
X649392Y476000D01*
X649819Y473854D01*
X651035Y472035D01*
X652854Y470819D01*
X655000Y470392D01*
X657146Y470819D01*
X658965Y472035D01*
X660181Y473854D01*
X660608Y476000D01*
X660181Y478146D01*
X658965Y479965D01*
X657146Y481181D01*
X655000Y481608D01*
D02*
G37*
G36*
X443399Y471250D02*
X439500D01*
Y467351D01*
X440451Y467540D01*
X442105Y468645D01*
X443210Y470299D01*
X443399Y471250D01*
D02*
G37*
G36*
X437500D02*
X433601D01*
X433790Y470299D01*
X434895Y468645D01*
X436549Y467540D01*
X437500Y467351D01*
Y471250D01*
D02*
G37*
G36*
X419399D02*
X415500D01*
Y467351D01*
X416451Y467540D01*
X418105Y468645D01*
X419210Y470299D01*
X419399Y471250D01*
D02*
G37*
G36*
X413500D02*
X409601D01*
X409790Y470299D01*
X410895Y468645D01*
X412549Y467540D01*
X413500Y467351D01*
Y471250D01*
D02*
G37*
G36*
X520750Y472858D02*
X518604Y472431D01*
X516785Y471215D01*
X515569Y469396D01*
X515179Y467433D01*
X514279Y466702D01*
X514051Y466557D01*
X513346Y466799D01*
X513065Y467216D01*
X512681Y469146D01*
X511465Y470965D01*
X509646Y472181D01*
X507500Y472608D01*
X505354Y472181D01*
X503535Y470965D01*
X502319Y469146D01*
X501892Y467000D01*
X502319Y464854D01*
X503535Y463035D01*
X505354Y461819D01*
X507283Y461435D01*
X507817Y461075D01*
X508075Y460817D01*
X508435Y460283D01*
X508819Y458354D01*
X510035Y456535D01*
X511854Y455319D01*
X514000Y454892D01*
X516146Y455319D01*
X517965Y456535D01*
X519181Y458354D01*
X519608Y460500D01*
X519547Y460805D01*
X520445Y461703D01*
X520750Y461642D01*
X522896Y462069D01*
X524715Y463285D01*
X525931Y465104D01*
X526358Y467250D01*
X525931Y469396D01*
X524715Y471215D01*
X522896Y472431D01*
X520750Y472858D01*
D02*
G37*
G36*
X734900Y488249D02*
X731898Y487854D01*
X729100Y486695D01*
X726698Y484852D01*
X724855Y482450D01*
X723696Y479652D01*
X723301Y476650D01*
X723696Y473648D01*
X724855Y470850D01*
X726698Y468448D01*
X729100Y466605D01*
X731898Y465446D01*
X734900Y465051D01*
X737902Y465446D01*
X740700Y466605D01*
X743102Y468448D01*
X744945Y470850D01*
X746104Y473648D01*
X746499Y476650D01*
X746104Y479652D01*
X744945Y482450D01*
X743102Y484852D01*
X740700Y486695D01*
X737902Y487854D01*
X734900Y488249D01*
D02*
G37*
G36*
X709500D02*
X706498Y487854D01*
X703700Y486695D01*
X701298Y484852D01*
X699455Y482450D01*
X698296Y479652D01*
X697901Y476650D01*
X698296Y473648D01*
X699455Y470850D01*
X701298Y468448D01*
X703700Y466605D01*
X706498Y465446D01*
X709500Y465051D01*
X712502Y465446D01*
X715300Y466605D01*
X717702Y468448D01*
X719545Y470850D01*
X720704Y473648D01*
X721099Y476650D01*
X720704Y479652D01*
X719545Y482450D01*
X717702Y484852D01*
X715300Y486695D01*
X712502Y487854D01*
X709500Y488249D01*
D02*
G37*
G36*
X193750Y473858D02*
X191604Y473431D01*
X189785Y472215D01*
X188569Y470396D01*
X188142Y468250D01*
X188569Y466104D01*
X189785Y464285D01*
X191604Y463069D01*
X193750Y462642D01*
X195896Y463069D01*
X197715Y464285D01*
X198931Y466104D01*
X199358Y468250D01*
X198931Y470396D01*
X197715Y472215D01*
X195896Y473431D01*
X193750Y473858D01*
D02*
G37*
G36*
X67250Y476823D02*
X65031Y476531D01*
X62963Y475675D01*
X61188Y474312D01*
X59825Y472537D01*
X58969Y470469D01*
X58677Y468250D01*
X58969Y466031D01*
X59825Y463963D01*
X61188Y462188D01*
X62963Y460825D01*
X65031Y459969D01*
X67250Y459677D01*
X69469Y459969D01*
X71537Y460825D01*
X73312Y462188D01*
X74675Y463963D01*
X75531Y466031D01*
X75823Y468250D01*
X75531Y470469D01*
X74675Y472537D01*
X73312Y474312D01*
X71537Y475675D01*
X69469Y476531D01*
X67250Y476823D01*
D02*
G37*
G36*
X34750Y478691D02*
X32009Y478330D01*
X29455Y477272D01*
X27261Y475589D01*
X25578Y473395D01*
X24520Y470841D01*
X24159Y468100D01*
X24520Y465359D01*
X25578Y462805D01*
X27261Y460611D01*
X29455Y458928D01*
X32009Y457870D01*
X34750Y457509D01*
X37491Y457870D01*
X40045Y458928D01*
X42239Y460611D01*
X43922Y462805D01*
X44980Y465359D01*
X45340Y468100D01*
X44980Y470841D01*
X43922Y473395D01*
X42239Y475589D01*
X40045Y477272D01*
X37491Y478330D01*
X34750Y478691D01*
D02*
G37*
G36*
X144400Y475507D02*
X141758Y475159D01*
X139296Y474140D01*
X137182Y472518D01*
X135560Y470404D01*
X134540Y467942D01*
X134193Y465300D01*
X134540Y462658D01*
X135560Y460196D01*
X137182Y458082D01*
X139296Y456460D01*
X141758Y455440D01*
X144400Y455093D01*
X147042Y455440D01*
X149504Y456460D01*
X151618Y458082D01*
X153240Y460196D01*
X154260Y462658D01*
X154607Y465300D01*
X154260Y467942D01*
X153240Y470404D01*
X151618Y472518D01*
X149504Y474140D01*
X147042Y475159D01*
X144400Y475507D01*
D02*
G37*
G36*
X119000D02*
X116358Y475159D01*
X113896Y474140D01*
X111782Y472518D01*
X110160Y470404D01*
X109140Y467942D01*
X108793Y465300D01*
X109140Y462658D01*
X110160Y460196D01*
X111782Y458082D01*
X113896Y456460D01*
X116358Y455440D01*
X119000Y455093D01*
X121642Y455440D01*
X124104Y456460D01*
X126218Y458082D01*
X127840Y460196D01*
X128860Y462658D01*
X129207Y465300D01*
X128860Y467942D01*
X127840Y470404D01*
X126218Y472518D01*
X124104Y474140D01*
X121642Y475159D01*
X119000Y475507D01*
D02*
G37*
G36*
X585000Y463573D02*
X582781Y463281D01*
X580713Y462425D01*
X578938Y461062D01*
X577575Y459287D01*
X576719Y457219D01*
X576427Y455000D01*
X576719Y452781D01*
X577575Y450713D01*
X578938Y448938D01*
X580713Y447575D01*
X582781Y446719D01*
X585000Y446427D01*
X587219Y446719D01*
X589287Y447575D01*
X591062Y448938D01*
X592425Y450713D01*
X593281Y452781D01*
X593573Y455000D01*
X593281Y457219D01*
X592425Y459287D01*
X591062Y461062D01*
X589287Y462425D01*
X587219Y463281D01*
X585000Y463573D01*
D02*
G37*
G36*
X271000Y454608D02*
X268854Y454181D01*
X267035Y452965D01*
X265819Y451146D01*
X265392Y449000D01*
X265819Y446854D01*
X267035Y445035D01*
X268854Y443819D01*
X271000Y443392D01*
X273146Y443819D01*
X274965Y445035D01*
X276181Y446854D01*
X276608Y449000D01*
X276181Y451146D01*
X274965Y452965D01*
X273146Y454181D01*
X271000Y454608D01*
D02*
G37*
G36*
X240000Y458073D02*
X237781Y457781D01*
X235713Y456925D01*
X233938Y455562D01*
X232575Y453787D01*
X231719Y451719D01*
X231427Y449500D01*
X231719Y447281D01*
X232575Y445213D01*
X233938Y443438D01*
X235713Y442075D01*
X237781Y441219D01*
X240000Y440927D01*
X242219Y441219D01*
X244287Y442075D01*
X246062Y443438D01*
X247425Y445213D01*
X248281Y447281D01*
X248573Y449500D01*
X248281Y451719D01*
X247425Y453787D01*
X246062Y455562D01*
X244287Y456925D01*
X242219Y457781D01*
X240000Y458073D01*
D02*
G37*
G36*
X734900Y462849D02*
X731898Y462454D01*
X729100Y461295D01*
X726698Y459452D01*
X724855Y457050D01*
X723696Y454252D01*
X723301Y451250D01*
X723696Y448248D01*
X724855Y445450D01*
X726698Y443048D01*
X729100Y441205D01*
X731898Y440046D01*
X734900Y439651D01*
X737902Y440046D01*
X740700Y441205D01*
X743102Y443048D01*
X744945Y445450D01*
X746104Y448248D01*
X746499Y451250D01*
X746104Y454252D01*
X744945Y457050D01*
X743102Y459452D01*
X740700Y461295D01*
X737902Y462454D01*
X734900Y462849D01*
D02*
G37*
G36*
X709500D02*
X706498Y462454D01*
X703700Y461295D01*
X701298Y459452D01*
X699455Y457050D01*
X698296Y454252D01*
X697901Y451250D01*
X698296Y448248D01*
X699455Y445450D01*
X701298Y443048D01*
X703700Y441205D01*
X706498Y440046D01*
X709500Y439651D01*
X712502Y440046D01*
X715300Y441205D01*
X717702Y443048D01*
X719545Y445450D01*
X720704Y448248D01*
X721099Y451250D01*
X720704Y454252D01*
X719545Y457050D01*
X717702Y459452D01*
X715300Y461295D01*
X712502Y462454D01*
X709500Y462849D01*
D02*
G37*
G36*
X562000Y449358D02*
X559854Y448931D01*
X558035Y447715D01*
X556819Y445896D01*
X556392Y443750D01*
X556819Y441604D01*
X558035Y439785D01*
X559854Y438569D01*
X562000Y438142D01*
X564146Y438569D01*
X565965Y439785D01*
X567181Y441604D01*
X567608Y443750D01*
X567181Y445896D01*
X565965Y447715D01*
X564146Y448931D01*
X562000Y449358D01*
D02*
G37*
G36*
X67250Y451573D02*
X65031Y451281D01*
X62963Y450425D01*
X61188Y449062D01*
X59825Y447287D01*
X58969Y445219D01*
X58677Y443000D01*
X58969Y440781D01*
X59825Y438713D01*
X61188Y436938D01*
X62963Y435575D01*
X65031Y434719D01*
X67250Y434427D01*
X69469Y434719D01*
X71537Y435575D01*
X73312Y436938D01*
X74675Y438713D01*
X75531Y440781D01*
X75823Y443000D01*
X75531Y445219D01*
X74675Y447287D01*
X73312Y449062D01*
X71537Y450425D01*
X69469Y451281D01*
X67250Y451573D01*
D02*
G37*
G36*
X34750Y453291D02*
X32009Y452930D01*
X29455Y451872D01*
X27261Y450189D01*
X25578Y447995D01*
X24520Y445441D01*
X24159Y442700D01*
X24520Y439959D01*
X25578Y437405D01*
X27261Y435211D01*
X29455Y433528D01*
X32009Y432470D01*
X34750Y432109D01*
X37491Y432470D01*
X40045Y433528D01*
X42239Y435211D01*
X43922Y437405D01*
X44980Y439959D01*
X45340Y442700D01*
X44980Y445441D01*
X43922Y447995D01*
X42239Y450189D01*
X40045Y451872D01*
X37491Y452930D01*
X34750Y453291D01*
D02*
G37*
G36*
X144400Y450107D02*
X141758Y449759D01*
X139296Y448740D01*
X137182Y447118D01*
X135560Y445004D01*
X134540Y442542D01*
X134193Y439900D01*
X134540Y437258D01*
X135560Y434796D01*
X137182Y432682D01*
X139296Y431060D01*
X141758Y430041D01*
X144400Y429693D01*
X147042Y430041D01*
X149504Y431060D01*
X151618Y432682D01*
X153240Y434796D01*
X154260Y437258D01*
X154607Y439900D01*
X154260Y442542D01*
X153240Y445004D01*
X151618Y447118D01*
X149504Y448740D01*
X147042Y449759D01*
X144400Y450107D01*
D02*
G37*
G36*
X119000D02*
X116358Y449759D01*
X113896Y448740D01*
X111782Y447118D01*
X110160Y445004D01*
X109140Y442542D01*
X108793Y439900D01*
X109140Y437258D01*
X110160Y434796D01*
X111782Y432682D01*
X113896Y431060D01*
X116358Y430041D01*
X119000Y429693D01*
X121642Y430041D01*
X124104Y431060D01*
X126218Y432682D01*
X127840Y434796D01*
X128860Y437258D01*
X129207Y439900D01*
X128860Y442542D01*
X127840Y445004D01*
X126218Y447118D01*
X124104Y448740D01*
X121642Y449759D01*
X119000Y450107D01*
D02*
G37*
G36*
X500500Y432149D02*
Y428250D01*
X504399D01*
X504210Y429201D01*
X503105Y430855D01*
X501451Y431960D01*
X500500Y432149D01*
D02*
G37*
G36*
X498500D02*
X497549Y431960D01*
X495895Y430855D01*
X494790Y429201D01*
X494601Y428250D01*
X498500D01*
Y432149D01*
D02*
G37*
G36*
X315750Y440858D02*
X313604Y440431D01*
X311785Y439215D01*
X310569Y437396D01*
X310142Y435250D01*
X310569Y433104D01*
X311785Y431285D01*
X313453Y430170D01*
X313638Y429885D01*
X313646Y429866D01*
X313887Y428718D01*
X313040Y427451D01*
X312851Y426500D01*
X322649D01*
X322460Y427451D01*
X321355Y429105D01*
X320047Y429979D01*
X319789Y430994D01*
X319843Y431476D01*
X320931Y433104D01*
X321358Y435250D01*
X320931Y437396D01*
X319715Y439215D01*
X317896Y440431D01*
X315750Y440858D01*
D02*
G37*
G36*
X504399Y426250D02*
X500500D01*
Y422351D01*
X501451Y422540D01*
X503105Y423645D01*
X504210Y425299D01*
X504399Y426250D01*
D02*
G37*
G36*
X498500D02*
X494601D01*
X494790Y425299D01*
X495895Y423645D01*
X497549Y422540D01*
X498500Y422351D01*
Y426250D01*
D02*
G37*
G36*
X286250Y432858D02*
X284104Y432431D01*
X282285Y431215D01*
X281069Y429396D01*
X280642Y427250D01*
X281069Y425104D01*
X282285Y423285D01*
X284104Y422069D01*
X286250Y421642D01*
X288396Y422069D01*
X290215Y423285D01*
X291431Y425104D01*
X291858Y427250D01*
X291431Y429396D01*
X290215Y431215D01*
X288396Y432431D01*
X286250Y432858D01*
D02*
G37*
G36*
X585000Y438573D02*
X582781Y438281D01*
X580713Y437425D01*
X578938Y436062D01*
X577575Y434287D01*
X576719Y432219D01*
X576427Y430000D01*
X576719Y427781D01*
X577575Y425713D01*
X578938Y423938D01*
X580713Y422575D01*
X582781Y421719D01*
X585000Y421427D01*
X587219Y421719D01*
X589287Y422575D01*
X591062Y423938D01*
X592425Y425713D01*
X593281Y427781D01*
X593573Y430000D01*
X593281Y432219D01*
X592425Y434287D01*
X591062Y436062D01*
X589287Y437425D01*
X587219Y438281D01*
X585000Y438573D01*
D02*
G37*
G36*
X322649Y424500D02*
X318750D01*
Y420601D01*
X319701Y420790D01*
X321355Y421895D01*
X322460Y423549D01*
X322649Y424500D01*
D02*
G37*
G36*
X316750D02*
X312851D01*
X313040Y423549D01*
X314145Y421895D01*
X315799Y420790D01*
X316750Y420601D01*
Y424500D01*
D02*
G37*
G36*
X199250Y431608D02*
X197104Y431181D01*
X195285Y429965D01*
X194069Y428146D01*
X193642Y426000D01*
X194069Y423854D01*
X195285Y422035D01*
X197104Y420819D01*
X199250Y420392D01*
X201396Y420819D01*
X203215Y422035D01*
X204431Y423854D01*
X204858Y426000D01*
X204431Y428146D01*
X203215Y429965D01*
X201396Y431181D01*
X199250Y431608D01*
D02*
G37*
G36*
X734900Y437449D02*
X731898Y437054D01*
X729100Y435895D01*
X726698Y434052D01*
X724855Y431650D01*
X723696Y428852D01*
X723301Y425850D01*
X723696Y422848D01*
X724855Y420050D01*
X726698Y417648D01*
X729100Y415805D01*
X731898Y414646D01*
X734900Y414251D01*
X737902Y414646D01*
X740700Y415805D01*
X743102Y417648D01*
X744945Y420050D01*
X746104Y422848D01*
X746499Y425850D01*
X746104Y428852D01*
X744945Y431650D01*
X743102Y434052D01*
X740700Y435895D01*
X737902Y437054D01*
X734900Y437449D01*
D02*
G37*
G36*
X709500D02*
X706498Y437054D01*
X703700Y435895D01*
X701298Y434052D01*
X699455Y431650D01*
X698296Y428852D01*
X697901Y425850D01*
X698296Y422848D01*
X699455Y420050D01*
X701298Y417648D01*
X703700Y415805D01*
X706498Y414646D01*
X709500Y414251D01*
X712502Y414646D01*
X715300Y415805D01*
X717702Y417648D01*
X719545Y420050D01*
X720704Y422848D01*
X721099Y425850D01*
X720704Y428852D01*
X719545Y431650D01*
X717702Y434052D01*
X715300Y435895D01*
X712502Y437054D01*
X709500Y437449D01*
D02*
G37*
G36*
X509750Y415358D02*
X507604Y414931D01*
X505785Y413715D01*
X505426Y413179D01*
X504156D01*
X503965Y413465D01*
X502146Y414681D01*
X500000Y415108D01*
X497854Y414681D01*
X496035Y413465D01*
X494819Y411646D01*
X494392Y409500D01*
X494819Y407354D01*
X496035Y405535D01*
X497854Y404319D01*
X500000Y403892D01*
X502146Y404319D01*
X503965Y405535D01*
X504324Y406071D01*
X505593D01*
X505785Y405785D01*
X507604Y404569D01*
X509750Y404142D01*
X511896Y404569D01*
X513715Y405785D01*
X514931Y407604D01*
X515358Y409750D01*
X514931Y411896D01*
X513715Y413715D01*
X511896Y414931D01*
X509750Y415358D01*
D02*
G37*
G36*
X144400Y424707D02*
X141758Y424360D01*
X139296Y423340D01*
X137182Y421718D01*
X135560Y419604D01*
X134540Y417142D01*
X134193Y414500D01*
X134540Y411858D01*
X135560Y409396D01*
X137182Y407282D01*
X139296Y405660D01*
X141758Y404641D01*
X144400Y404293D01*
X147042Y404641D01*
X149504Y405660D01*
X151618Y407282D01*
X153240Y409396D01*
X154260Y411858D01*
X154607Y414500D01*
X154260Y417142D01*
X153240Y419604D01*
X151618Y421718D01*
X149504Y423340D01*
X147042Y424360D01*
X144400Y424707D01*
D02*
G37*
G36*
X119000D02*
X116358Y424360D01*
X113896Y423340D01*
X111782Y421718D01*
X110160Y419604D01*
X109140Y417142D01*
X108793Y414500D01*
X109140Y411858D01*
X110160Y409396D01*
X111782Y407282D01*
X113896Y405660D01*
X116358Y404641D01*
X119000Y404293D01*
X121642Y404641D01*
X124104Y405660D01*
X126218Y407282D01*
X127840Y409396D01*
X128860Y411858D01*
X129207Y414500D01*
X128860Y417142D01*
X127840Y419604D01*
X126218Y421718D01*
X124104Y423340D01*
X121642Y424360D01*
X119000Y424707D01*
D02*
G37*
G36*
X585000Y413573D02*
X582781Y413281D01*
X580713Y412425D01*
X578938Y411062D01*
X577575Y409287D01*
X576719Y407219D01*
X576427Y405000D01*
X576719Y402781D01*
X577575Y400713D01*
X578938Y398938D01*
X580713Y397575D01*
X582781Y396719D01*
X585000Y396427D01*
X587219Y396719D01*
X589287Y397575D01*
X591062Y398938D01*
X592425Y400713D01*
X593281Y402781D01*
X593573Y405000D01*
X593281Y407219D01*
X592425Y409287D01*
X591062Y411062D01*
X589287Y412425D01*
X587219Y413281D01*
X585000Y413573D01*
D02*
G37*
G36*
X500750Y396149D02*
Y392250D01*
X504649D01*
X504460Y393201D01*
X503355Y394855D01*
X501701Y395960D01*
X500750Y396149D01*
D02*
G37*
G36*
X498750D02*
X497799Y395960D01*
X496145Y394855D01*
X495040Y393201D01*
X494851Y392250D01*
X498750D01*
Y396149D01*
D02*
G37*
G36*
X317250Y412858D02*
X315104Y412431D01*
X313285Y411215D01*
X312069Y409396D01*
X311642Y407250D01*
X312069Y405104D01*
X312611Y404293D01*
X313263Y403250D01*
X312611Y402207D01*
X312069Y401396D01*
X311642Y399250D01*
X312069Y397104D01*
X313285Y395285D01*
X313027Y393929D01*
X312540Y393201D01*
X312351Y392250D01*
X322149D01*
X321960Y393201D01*
X321473Y393929D01*
X321215Y395285D01*
X322431Y397104D01*
X322858Y399250D01*
X322431Y401396D01*
X321889Y402207D01*
X321237Y403250D01*
X321889Y404293D01*
X322431Y405104D01*
X322858Y407250D01*
X322431Y409396D01*
X321215Y411215D01*
X319396Y412431D01*
X317250Y412858D01*
D02*
G37*
G36*
X734900Y412049D02*
X731898Y411654D01*
X729100Y410495D01*
X726698Y408652D01*
X724855Y406250D01*
X723696Y403452D01*
X723301Y400450D01*
X723696Y397448D01*
X724855Y394650D01*
X726698Y392248D01*
X729100Y390405D01*
X731898Y389246D01*
X734900Y388851D01*
X737902Y389246D01*
X740700Y390405D01*
X743102Y392248D01*
X744945Y394650D01*
X746104Y397448D01*
X746499Y400450D01*
X746104Y403452D01*
X744945Y406250D01*
X743102Y408652D01*
X740700Y410495D01*
X737902Y411654D01*
X734900Y412049D01*
D02*
G37*
G36*
X709500D02*
X706498Y411654D01*
X703700Y410495D01*
X701298Y408652D01*
X699455Y406250D01*
X698296Y403452D01*
X697901Y400450D01*
X698296Y397448D01*
X699455Y394650D01*
X701298Y392248D01*
X703700Y390405D01*
X706498Y389246D01*
X709500Y388851D01*
X712502Y389246D01*
X715300Y390405D01*
X717702Y392248D01*
X719545Y394650D01*
X720704Y397448D01*
X721099Y400450D01*
X720704Y403452D01*
X719545Y406250D01*
X717702Y408652D01*
X715300Y410495D01*
X712502Y411654D01*
X709500Y412049D01*
D02*
G37*
G36*
X504649Y390250D02*
X500750D01*
Y386351D01*
X501701Y386540D01*
X503355Y387645D01*
X504460Y389299D01*
X504649Y390250D01*
D02*
G37*
G36*
X498750D02*
X494851D01*
X495040Y389299D01*
X496145Y387645D01*
X497799Y386540D01*
X498750Y386351D01*
Y390250D01*
D02*
G37*
G36*
X322149D02*
X318250D01*
Y386351D01*
X319201Y386540D01*
X320855Y387645D01*
X321960Y389299D01*
X322149Y390250D01*
D02*
G37*
G36*
X316250D02*
X312351D01*
X312540Y389299D01*
X313645Y387645D01*
X315299Y386540D01*
X316250Y386351D01*
Y390250D01*
D02*
G37*
G36*
X144400Y399307D02*
X141758Y398960D01*
X139296Y397940D01*
X137182Y396318D01*
X135560Y394204D01*
X134540Y391742D01*
X134193Y389100D01*
X134540Y386458D01*
X135560Y383996D01*
X137182Y381882D01*
X139296Y380260D01*
X141758Y379240D01*
X144400Y378893D01*
X147042Y379240D01*
X149504Y380260D01*
X151618Y381882D01*
X153240Y383996D01*
X154260Y386458D01*
X154607Y389100D01*
X154260Y391742D01*
X153240Y394204D01*
X151618Y396318D01*
X149504Y397940D01*
X147042Y398960D01*
X144400Y399307D01*
D02*
G37*
G36*
X119000D02*
X116358Y398960D01*
X113896Y397940D01*
X111782Y396318D01*
X110160Y394204D01*
X109140Y391742D01*
X108793Y389100D01*
X109140Y386458D01*
X110160Y383996D01*
X111782Y381882D01*
X113896Y380260D01*
X116358Y379240D01*
X119000Y378893D01*
X121642Y379240D01*
X124104Y380260D01*
X126218Y381882D01*
X127840Y383996D01*
X128860Y386458D01*
X129207Y389100D01*
X128860Y391742D01*
X127840Y394204D01*
X126218Y396318D01*
X124104Y397940D01*
X121642Y398960D01*
X119000Y399307D01*
D02*
G37*
G36*
X543500Y386608D02*
X541354Y386181D01*
X539535Y384965D01*
X538319Y383146D01*
X537892Y381000D01*
X538319Y378854D01*
X539535Y377035D01*
X541354Y375819D01*
X543500Y375392D01*
X545646Y375819D01*
X547465Y377035D01*
X548681Y378854D01*
X549108Y381000D01*
X548681Y383146D01*
X547465Y384965D01*
X545646Y386181D01*
X543500Y386608D01*
D02*
G37*
G36*
X276000Y396858D02*
X273854Y396431D01*
X272035Y395215D01*
X270819Y393396D01*
X270392Y391250D01*
X270819Y389104D01*
X271990Y387352D01*
X271865Y386705D01*
X271565Y386071D01*
X269604Y385681D01*
X267785Y384465D01*
X266569Y382646D01*
X266142Y380500D01*
X266569Y378354D01*
X267785Y376535D01*
X269604Y375319D01*
X271750Y374892D01*
X273896Y375319D01*
X275715Y376535D01*
X276931Y378354D01*
X277358Y380500D01*
X276931Y382646D01*
X275760Y384398D01*
X275885Y385045D01*
X276185Y385679D01*
X278146Y386069D01*
X279965Y387285D01*
X281181Y389104D01*
X281608Y391250D01*
X281181Y393396D01*
X279965Y395215D01*
X278146Y396431D01*
X276000Y396858D01*
D02*
G37*
G36*
X45250Y395300D02*
X24250D01*
Y374300D01*
X45250D01*
Y395300D01*
D02*
G37*
G36*
X500750Y376149D02*
Y372250D01*
X504649D01*
X504460Y373201D01*
X503355Y374855D01*
X501701Y375960D01*
X500750Y376149D01*
D02*
G37*
G36*
X498750D02*
X497799Y375960D01*
X496145Y374855D01*
X495040Y373201D01*
X494851Y372250D01*
X498750D01*
Y376149D01*
D02*
G37*
G36*
X318250D02*
Y372250D01*
X322149D01*
X321960Y373201D01*
X320855Y374855D01*
X319201Y375960D01*
X318250Y376149D01*
D02*
G37*
G36*
X316250D02*
X315299Y375960D01*
X313645Y374855D01*
X312540Y373201D01*
X312351Y372250D01*
X316250D01*
Y376149D01*
D02*
G37*
G36*
X231500Y378358D02*
X229354Y377931D01*
X227535Y376715D01*
X226319Y374896D01*
X225892Y372750D01*
X226319Y370604D01*
X227535Y368785D01*
X229354Y367569D01*
X231500Y367142D01*
X233646Y367569D01*
X235465Y368785D01*
X236681Y370604D01*
X237108Y372750D01*
X236681Y374896D01*
X235465Y376715D01*
X233646Y377931D01*
X231500Y378358D01*
D02*
G37*
G36*
X504649Y370250D02*
X500750D01*
Y366351D01*
X501701Y366540D01*
X503355Y367645D01*
X504460Y369299D01*
X504649Y370250D01*
D02*
G37*
G36*
X498750D02*
X494851D01*
X495040Y369299D01*
X496145Y367645D01*
X497799Y366540D01*
X498750Y366351D01*
Y370250D01*
D02*
G37*
G36*
X322149D02*
X318250D01*
Y366351D01*
X319201Y366540D01*
X320855Y367645D01*
X321960Y369299D01*
X322149Y370250D01*
D02*
G37*
G36*
X316250D02*
X312351D01*
X312540Y369299D01*
X313645Y367645D01*
X315299Y366540D01*
X316250Y366351D01*
Y370250D01*
D02*
G37*
G36*
X66500Y376858D02*
X64354Y376431D01*
X62535Y375215D01*
X61319Y373396D01*
X60892Y371250D01*
X61319Y369104D01*
X62535Y367285D01*
X64354Y366069D01*
X66500Y365642D01*
X68646Y366069D01*
X70465Y367285D01*
X71681Y369104D01*
X72108Y371250D01*
X71681Y373396D01*
X70465Y375215D01*
X68646Y376431D01*
X66500Y376858D01*
D02*
G37*
G36*
X253000Y376358D02*
X250854Y375931D01*
X249035Y374715D01*
X247819Y372896D01*
X247392Y370750D01*
X247819Y368604D01*
X249035Y366785D01*
X250854Y365569D01*
X253000Y365142D01*
X255146Y365569D01*
X256965Y366785D01*
X258181Y368604D01*
X258608Y370750D01*
X258181Y372896D01*
X256965Y374715D01*
X255146Y375931D01*
X253000Y376358D01*
D02*
G37*
G36*
X734900Y386649D02*
X731898Y386254D01*
X729100Y385095D01*
X726698Y383252D01*
X724855Y380850D01*
X723696Y378052D01*
X723301Y375050D01*
X723696Y372048D01*
X724855Y369250D01*
X726698Y366848D01*
X729100Y365005D01*
X731898Y363846D01*
X734900Y363451D01*
X737902Y363846D01*
X740700Y365005D01*
X743102Y366848D01*
X744945Y369250D01*
X746104Y372048D01*
X746499Y375050D01*
X746104Y378052D01*
X744945Y380850D01*
X743102Y383252D01*
X740700Y385095D01*
X737902Y386254D01*
X734900Y386649D01*
D02*
G37*
G36*
X709500D02*
X706498Y386254D01*
X703700Y385095D01*
X701298Y383252D01*
X699455Y380850D01*
X698296Y378052D01*
X697901Y375050D01*
X698296Y372048D01*
X699455Y369250D01*
X701298Y366848D01*
X703700Y365005D01*
X706498Y363846D01*
X709500Y363451D01*
X712502Y363846D01*
X715300Y365005D01*
X717702Y366848D01*
X719545Y369250D01*
X720704Y372048D01*
X721099Y375050D01*
X720704Y378052D01*
X719545Y380850D01*
X717702Y383252D01*
X715300Y385095D01*
X712502Y386254D01*
X709500Y386649D01*
D02*
G37*
G36*
X144400Y373907D02*
X141758Y373559D01*
X139296Y372540D01*
X137182Y370918D01*
X135560Y368804D01*
X134540Y366342D01*
X134193Y363700D01*
X134540Y361058D01*
X135560Y358596D01*
X137182Y356482D01*
X139296Y354860D01*
X141758Y353840D01*
X144400Y353493D01*
X147042Y353840D01*
X149504Y354860D01*
X151618Y356482D01*
X153240Y358596D01*
X154260Y361058D01*
X154607Y363700D01*
X154260Y366342D01*
X153240Y368804D01*
X151618Y370918D01*
X149504Y372540D01*
X147042Y373559D01*
X144400Y373907D01*
D02*
G37*
G36*
X119000D02*
X116358Y373559D01*
X113896Y372540D01*
X111782Y370918D01*
X110160Y368804D01*
X109140Y366342D01*
X108793Y363700D01*
X109140Y361058D01*
X110160Y358596D01*
X111782Y356482D01*
X113896Y354860D01*
X116358Y353840D01*
X119000Y353493D01*
X121642Y353840D01*
X124104Y354860D01*
X126218Y356482D01*
X127840Y358596D01*
X128860Y361058D01*
X129207Y363700D01*
X128860Y366342D01*
X127840Y368804D01*
X126218Y370918D01*
X124104Y372540D01*
X121642Y373559D01*
X119000Y373907D01*
D02*
G37*
G36*
X307750Y362858D02*
X305604Y362431D01*
X303785Y361215D01*
X302569Y359396D01*
X302142Y357250D01*
X302569Y355104D01*
X303785Y353285D01*
X305604Y352069D01*
X307750Y351642D01*
X309896Y352069D01*
X311715Y353285D01*
X312931Y355104D01*
X313358Y357250D01*
X312931Y359396D01*
X311715Y361215D01*
X309896Y362431D01*
X307750Y362858D01*
D02*
G37*
G36*
X34750Y369991D02*
X32009Y369630D01*
X29455Y368572D01*
X27261Y366889D01*
X25578Y364695D01*
X24520Y362141D01*
X24159Y359400D01*
X24520Y356659D01*
X25578Y354105D01*
X27261Y351911D01*
X29455Y350228D01*
X32009Y349170D01*
X34750Y348809D01*
X37491Y349170D01*
X40045Y350228D01*
X42239Y351911D01*
X43922Y354105D01*
X44980Y356659D01*
X45340Y359400D01*
X44980Y362141D01*
X43922Y364695D01*
X42239Y366889D01*
X40045Y368572D01*
X37491Y369630D01*
X34750Y369991D01*
D02*
G37*
G36*
X616000Y351649D02*
Y347750D01*
X619899D01*
X619710Y348701D01*
X618605Y350355D01*
X616951Y351460D01*
X616000Y351649D01*
D02*
G37*
G36*
X614000D02*
X613049Y351460D01*
X611395Y350355D01*
X610290Y348701D01*
X610101Y347750D01*
X614000D01*
Y351649D01*
D02*
G37*
G36*
X659250Y354858D02*
X657104Y354431D01*
X655285Y353215D01*
X654069Y351396D01*
X653642Y349250D01*
X654069Y347104D01*
X655285Y345285D01*
X657104Y344069D01*
X659250Y343642D01*
X661396Y344069D01*
X663215Y345285D01*
X664431Y347104D01*
X664858Y349250D01*
X664431Y351396D01*
X663215Y353215D01*
X661396Y354431D01*
X659250Y354858D01*
D02*
G37*
G36*
X619899Y345750D02*
X616000D01*
Y341851D01*
X616951Y342040D01*
X618605Y343145D01*
X619710Y344799D01*
X619899Y345750D01*
D02*
G37*
G36*
X614000D02*
X610101D01*
X610290Y344799D01*
X611395Y343145D01*
X613049Y342040D01*
X614000Y341851D01*
Y345750D01*
D02*
G37*
G36*
X734900Y361249D02*
X731898Y360854D01*
X729100Y359695D01*
X726698Y357852D01*
X724855Y355450D01*
X723696Y352652D01*
X723301Y349650D01*
X723696Y346648D01*
X724855Y343850D01*
X726698Y341448D01*
X729100Y339605D01*
X731898Y338446D01*
X734900Y338051D01*
X737902Y338446D01*
X740700Y339605D01*
X743102Y341448D01*
X744945Y343850D01*
X746104Y346648D01*
X746499Y349650D01*
X746104Y352652D01*
X744945Y355450D01*
X743102Y357852D01*
X740700Y359695D01*
X737902Y360854D01*
X734900Y361249D01*
D02*
G37*
G36*
X709500D02*
X706498Y360854D01*
X703700Y359695D01*
X701298Y357852D01*
X699455Y355450D01*
X698296Y352652D01*
X697901Y349650D01*
X698296Y346648D01*
X699455Y343850D01*
X701298Y341448D01*
X703700Y339605D01*
X706498Y338446D01*
X709500Y338051D01*
X712502Y338446D01*
X715300Y339605D01*
X717702Y341448D01*
X719545Y343850D01*
X720704Y346648D01*
X721099Y349650D01*
X720704Y352652D01*
X719545Y355450D01*
X717702Y357852D01*
X715300Y359695D01*
X712502Y360854D01*
X709500Y361249D01*
D02*
G37*
G36*
X318250Y336149D02*
Y332250D01*
X322149D01*
X321960Y333201D01*
X320855Y334855D01*
X319201Y335960D01*
X318250Y336149D01*
D02*
G37*
G36*
X316250D02*
X315299Y335960D01*
X313645Y334855D01*
X312540Y333201D01*
X312351Y332250D01*
X316250D01*
Y336149D01*
D02*
G37*
G36*
X144400Y348507D02*
X141758Y348159D01*
X139296Y347140D01*
X137182Y345518D01*
X135560Y343404D01*
X134540Y340942D01*
X134193Y338300D01*
X134540Y335658D01*
X135560Y333196D01*
X137182Y331082D01*
X139296Y329460D01*
X141758Y328441D01*
X144400Y328093D01*
X147042Y328441D01*
X149504Y329460D01*
X151618Y331082D01*
X153240Y333196D01*
X154260Y335658D01*
X154607Y338300D01*
X154260Y340942D01*
X153240Y343404D01*
X151618Y345518D01*
X149504Y347140D01*
X147042Y348159D01*
X144400Y348507D01*
D02*
G37*
G36*
X119000D02*
X116358Y348159D01*
X113896Y347140D01*
X111782Y345518D01*
X110160Y343404D01*
X109140Y340942D01*
X108793Y338300D01*
X109140Y335658D01*
X110160Y333196D01*
X111782Y331082D01*
X113896Y329460D01*
X116358Y328441D01*
X119000Y328093D01*
X121642Y328441D01*
X124104Y329460D01*
X126218Y331082D01*
X127840Y333196D01*
X128860Y335658D01*
X129207Y338300D01*
X128860Y340942D01*
X127840Y343404D01*
X126218Y345518D01*
X124104Y347140D01*
X121642Y348159D01*
X119000Y348507D01*
D02*
G37*
G36*
X501500Y331899D02*
Y328000D01*
X505399D01*
X505210Y328951D01*
X504105Y330605D01*
X502451Y331710D01*
X501500Y331899D01*
D02*
G37*
G36*
X499500D02*
X498549Y331710D01*
X496895Y330605D01*
X495790Y328951D01*
X495601Y328000D01*
X499500D01*
Y331899D01*
D02*
G37*
G36*
X322149Y330250D02*
X318250D01*
Y326351D01*
X319201Y326540D01*
X320855Y327645D01*
X321960Y329299D01*
X322149Y330250D01*
D02*
G37*
G36*
X316250D02*
X312351D01*
X312540Y329299D01*
X313645Y327645D01*
X315299Y326540D01*
X316250Y326351D01*
Y330250D01*
D02*
G37*
G36*
X251000Y331437D02*
Y324500D01*
X257937D01*
X257794Y325588D01*
X256988Y327534D01*
X255706Y329206D01*
X254035Y330488D01*
X252088Y331294D01*
X251000Y331437D01*
D02*
G37*
G36*
X249000D02*
X247912Y331294D01*
X245965Y330488D01*
X244294Y329206D01*
X243012Y327534D01*
X242206Y325588D01*
X242063Y324500D01*
X249000D01*
Y331437D01*
D02*
G37*
G36*
X34750Y344590D02*
X32009Y344230D01*
X29455Y343172D01*
X27261Y341489D01*
X25578Y339295D01*
X24520Y336741D01*
X24159Y334000D01*
X24520Y331259D01*
X25578Y328705D01*
X27261Y326511D01*
X29455Y324828D01*
X32009Y323770D01*
X34750Y323409D01*
X37491Y323770D01*
X40045Y324828D01*
X42239Y326511D01*
X43922Y328705D01*
X44980Y331259D01*
X45340Y334000D01*
X44980Y336741D01*
X43922Y339295D01*
X42239Y341489D01*
X40045Y343172D01*
X37491Y344230D01*
X34750Y344590D01*
D02*
G37*
G36*
X505399Y326000D02*
X501500D01*
Y322101D01*
X502451Y322290D01*
X504105Y323395D01*
X505210Y325049D01*
X505399Y326000D01*
D02*
G37*
G36*
X499500D02*
X495601D01*
X495790Y325049D01*
X496895Y323395D01*
X498549Y322290D01*
X499500Y322101D01*
Y326000D01*
D02*
G37*
G36*
X257937Y322500D02*
X251000D01*
Y315563D01*
X252088Y315706D01*
X254035Y316512D01*
X255706Y317794D01*
X256988Y319466D01*
X257794Y321412D01*
X257937Y322500D01*
D02*
G37*
G36*
X249000D02*
X242063D01*
X242206Y321412D01*
X243012Y319466D01*
X244294Y317794D01*
X245965Y316512D01*
X247912Y315706D01*
X249000Y315563D01*
Y322500D01*
D02*
G37*
G36*
X734900Y335849D02*
X731898Y335454D01*
X729100Y334295D01*
X726698Y332452D01*
X724855Y330050D01*
X723696Y327252D01*
X723301Y324250D01*
X723696Y321248D01*
X724855Y318450D01*
X726698Y316048D01*
X729100Y314205D01*
X731898Y313046D01*
X734900Y312651D01*
X737902Y313046D01*
X740700Y314205D01*
X743102Y316048D01*
X744945Y318450D01*
X746104Y321248D01*
X746499Y324250D01*
X746104Y327252D01*
X744945Y330050D01*
X743102Y332452D01*
X740700Y334295D01*
X737902Y335454D01*
X734900Y335849D01*
D02*
G37*
G36*
X709500D02*
X706498Y335454D01*
X703700Y334295D01*
X701298Y332452D01*
X699455Y330050D01*
X698296Y327252D01*
X697901Y324250D01*
X698296Y321248D01*
X699455Y318450D01*
X701298Y316048D01*
X703700Y314205D01*
X706498Y313046D01*
X709500Y312651D01*
X712502Y313046D01*
X715300Y314205D01*
X717702Y316048D01*
X719545Y318450D01*
X720704Y321248D01*
X721099Y324250D01*
X720704Y327252D01*
X719545Y330050D01*
X717702Y332452D01*
X715300Y334295D01*
X712502Y335454D01*
X709500Y335849D01*
D02*
G37*
G36*
X601750Y321608D02*
X599604Y321181D01*
X597785Y319965D01*
X596569Y318146D01*
X596142Y316000D01*
X596569Y313854D01*
X597785Y312035D01*
X599604Y310819D01*
X601750Y310392D01*
X603896Y310819D01*
X605715Y312035D01*
X606931Y313854D01*
X607358Y316000D01*
X606931Y318146D01*
X605715Y319965D01*
X603896Y321181D01*
X601750Y321608D01*
D02*
G37*
G36*
X543500Y321108D02*
X541354Y320681D01*
X539535Y319465D01*
X538319Y317646D01*
X537892Y315500D01*
X538319Y313354D01*
X539535Y311535D01*
X541354Y310319D01*
X543500Y309892D01*
X545646Y310319D01*
X547465Y311535D01*
X548681Y313354D01*
X549108Y315500D01*
X548681Y317646D01*
X547465Y319465D01*
X545646Y320681D01*
X543500Y321108D01*
D02*
G37*
G36*
X317500Y320108D02*
X315354Y319681D01*
X313535Y318465D01*
X312319Y316646D01*
X311892Y314500D01*
X312319Y312354D01*
X313535Y310535D01*
X315354Y309319D01*
X317500Y308892D01*
X319646Y309319D01*
X321465Y310535D01*
X322681Y312354D01*
X323108Y314500D01*
X322681Y316646D01*
X321465Y318465D01*
X319646Y319681D01*
X317500Y320108D01*
D02*
G37*
G36*
X505000Y318608D02*
X502854Y318181D01*
X501035Y316965D01*
X499819Y315146D01*
X499392Y313000D01*
X499819Y310854D01*
X501035Y309035D01*
X502854Y307819D01*
X505000Y307392D01*
X507146Y307819D01*
X508965Y309035D01*
X510181Y310854D01*
X510608Y313000D01*
X510181Y315146D01*
X508965Y316965D01*
X507146Y318181D01*
X505000Y318608D01*
D02*
G37*
G36*
X97250Y310899D02*
Y307000D01*
X101149D01*
X100960Y307951D01*
X99855Y309605D01*
X98201Y310710D01*
X97250Y310899D01*
D02*
G37*
G36*
X95250D02*
X94299Y310710D01*
X92645Y309605D01*
X91540Y307951D01*
X91351Y307000D01*
X95250D01*
Y310899D01*
D02*
G37*
G36*
X144400Y323107D02*
X141758Y322760D01*
X139296Y321740D01*
X137182Y320118D01*
X135560Y318004D01*
X134540Y315542D01*
X134193Y312900D01*
X134540Y310258D01*
X135560Y307796D01*
X137182Y305682D01*
X139296Y304060D01*
X141758Y303041D01*
X144400Y302693D01*
X147042Y303041D01*
X149504Y304060D01*
X151618Y305682D01*
X153240Y307796D01*
X154260Y310258D01*
X154607Y312900D01*
X154260Y315542D01*
X153240Y318004D01*
X151618Y320118D01*
X149504Y321740D01*
X147042Y322760D01*
X144400Y323107D01*
D02*
G37*
G36*
X119000D02*
X116358Y322760D01*
X113896Y321740D01*
X111782Y320118D01*
X110160Y318004D01*
X109140Y315542D01*
X108793Y312900D01*
X109140Y310258D01*
X110160Y307796D01*
X111782Y305682D01*
X113896Y304060D01*
X116358Y303041D01*
X119000Y302693D01*
X121642Y303041D01*
X124104Y304060D01*
X126218Y305682D01*
X127840Y307796D01*
X128860Y310258D01*
X129207Y312900D01*
X128860Y315542D01*
X127840Y318004D01*
X126218Y320118D01*
X124104Y321740D01*
X121642Y322760D01*
X119000Y323107D01*
D02*
G37*
G36*
X400000Y522549D02*
X335000D01*
X334025Y522355D01*
X333198Y521802D01*
X332645Y520975D01*
X332451Y520000D01*
Y305000D01*
X332645Y304025D01*
X333198Y303198D01*
X334025Y302645D01*
X335000Y302451D01*
X485000D01*
X485975Y302645D01*
X486802Y303198D01*
X487355Y304025D01*
X487549Y305000D01*
Y444891D01*
X487547Y444900D01*
X488396Y445069D01*
X490215Y446285D01*
X491431Y448104D01*
X491858Y450250D01*
X491431Y452396D01*
X490215Y454215D01*
X488396Y455431D01*
X487547Y455600D01*
X487549Y455609D01*
Y460000D01*
X487355Y460975D01*
X486802Y461802D01*
X485975Y462355D01*
X485000Y462549D01*
X484721D01*
X483823Y463819D01*
X484108Y465250D01*
X483681Y467396D01*
X482465Y469215D01*
X480646Y470431D01*
X478500Y470858D01*
X477588Y470676D01*
X476358Y471000D01*
X475931Y473146D01*
X474715Y474965D01*
X472896Y476181D01*
X470750Y476608D01*
X469688Y476396D01*
X468240Y477349D01*
X468181Y477646D01*
X466965Y479465D01*
X465146Y480681D01*
X463000Y481108D01*
X460854Y480681D01*
X459035Y479465D01*
X457819Y477646D01*
X457392Y475500D01*
X457819Y473354D01*
X459035Y471535D01*
X460854Y470319D01*
X463000Y469892D01*
X464062Y470103D01*
X465510Y469151D01*
X465569Y468854D01*
X466785Y467035D01*
X468604Y465819D01*
X470750Y465392D01*
X471662Y465574D01*
X472892Y465250D01*
X473177Y463819D01*
X472279Y462549D01*
X402549D01*
Y520000D01*
X402355Y520975D01*
X401802Y521802D01*
X400975Y522355D01*
X400000Y522549D01*
D02*
G37*
G36*
X101149Y305000D02*
X97250D01*
Y301101D01*
X98201Y301290D01*
X99855Y302395D01*
X100960Y304049D01*
X101149Y305000D01*
D02*
G37*
G36*
X95250D02*
X91351D01*
X91540Y304049D01*
X92645Y302395D01*
X94299Y301290D01*
X95250Y301101D01*
Y305000D01*
D02*
G37*
G36*
X66750Y317323D02*
X64531Y317031D01*
X62463Y316175D01*
X60688Y314812D01*
X59325Y313037D01*
X58469Y310969D01*
X58177Y308750D01*
X58469Y306531D01*
X59325Y304463D01*
X60688Y302688D01*
X62463Y301325D01*
X64531Y300469D01*
X66750Y300177D01*
X68969Y300469D01*
X71037Y301325D01*
X72812Y302688D01*
X74175Y304463D01*
X75031Y306531D01*
X75323Y308750D01*
X75031Y310969D01*
X74175Y313037D01*
X72812Y314812D01*
X71037Y316175D01*
X68969Y317031D01*
X66750Y317323D01*
D02*
G37*
G36*
X34750Y319191D02*
X32009Y318830D01*
X29455Y317772D01*
X27261Y316089D01*
X25578Y313895D01*
X24520Y311341D01*
X24159Y308600D01*
X24520Y305859D01*
X25578Y303305D01*
X27261Y301111D01*
X29455Y299428D01*
X32009Y298370D01*
X34750Y298009D01*
X37491Y298370D01*
X40045Y299428D01*
X42239Y301111D01*
X43922Y303305D01*
X44980Y305859D01*
X45340Y308600D01*
X44980Y311341D01*
X43922Y313895D01*
X42239Y316089D01*
X40045Y317772D01*
X37491Y318830D01*
X34750Y319191D01*
D02*
G37*
G36*
X272750Y306358D02*
X270604Y305931D01*
X268785Y304715D01*
X267569Y302896D01*
X267142Y300750D01*
X267569Y298604D01*
X268785Y296785D01*
X270604Y295569D01*
X272750Y295142D01*
X274896Y295569D01*
X276715Y296785D01*
X277931Y298604D01*
X278358Y300750D01*
X277931Y302896D01*
X276715Y304715D01*
X274896Y305931D01*
X272750Y306358D01*
D02*
G37*
G36*
X132000Y305608D02*
X129854Y305181D01*
X128035Y303965D01*
X126819Y302146D01*
X126392Y300000D01*
X126819Y297854D01*
X128035Y296035D01*
X129854Y294819D01*
X132000Y294392D01*
X134146Y294819D01*
X135965Y296035D01*
X137181Y297854D01*
X137608Y300000D01*
X137181Y302146D01*
X135965Y303965D01*
X134146Y305181D01*
X132000Y305608D01*
D02*
G37*
G36*
X423500Y294899D02*
Y291000D01*
X427399D01*
X427210Y291951D01*
X426105Y293605D01*
X424451Y294710D01*
X423500Y294899D01*
D02*
G37*
G36*
X421500D02*
X420549Y294710D01*
X418895Y293605D01*
X417790Y291951D01*
X417601Y291000D01*
X421500D01*
Y294899D01*
D02*
G37*
G36*
X384000D02*
Y291000D01*
X387899D01*
X387710Y291951D01*
X386605Y293605D01*
X384951Y294710D01*
X384000Y294899D01*
D02*
G37*
G36*
X382000D02*
X381049Y294710D01*
X379395Y293605D01*
X378290Y291951D01*
X378101Y291000D01*
X382000D01*
Y294899D01*
D02*
G37*
G36*
X734900Y310449D02*
X731898Y310054D01*
X729100Y308895D01*
X726698Y307052D01*
X724855Y304650D01*
X723696Y301852D01*
X723301Y298850D01*
X723696Y295848D01*
X724855Y293050D01*
X726698Y290648D01*
X729100Y288805D01*
X731898Y287646D01*
X734900Y287251D01*
X737902Y287646D01*
X740700Y288805D01*
X743102Y290648D01*
X744945Y293050D01*
X746104Y295848D01*
X746499Y298850D01*
X746104Y301852D01*
X744945Y304650D01*
X743102Y307052D01*
X740700Y308895D01*
X737902Y310054D01*
X734900Y310449D01*
D02*
G37*
G36*
X709500D02*
X706498Y310054D01*
X703700Y308895D01*
X701298Y307052D01*
X699455Y304650D01*
X698296Y301852D01*
X697901Y298850D01*
X698296Y295848D01*
X699455Y293050D01*
X701298Y290648D01*
X703700Y288805D01*
X706498Y287646D01*
X709500Y287251D01*
X712502Y287646D01*
X715300Y288805D01*
X717702Y290648D01*
X719545Y293050D01*
X720704Y295848D01*
X721099Y298850D01*
X720704Y301852D01*
X719545Y304650D01*
X717702Y307052D01*
X715300Y308895D01*
X712502Y310054D01*
X709500Y310449D01*
D02*
G37*
G36*
X427399Y289000D02*
X423500D01*
Y285101D01*
X424451Y285290D01*
X426105Y286395D01*
X427210Y288049D01*
X427399Y289000D01*
D02*
G37*
G36*
X421500D02*
X417601D01*
X417790Y288049D01*
X418895Y286395D01*
X420549Y285290D01*
X421500Y285101D01*
Y289000D01*
D02*
G37*
G36*
X387899D02*
X384000D01*
Y285101D01*
X384951Y285290D01*
X386605Y286395D01*
X387710Y288049D01*
X387899Y289000D01*
D02*
G37*
G36*
X382000D02*
X378101D01*
X378290Y288049D01*
X379395Y286395D01*
X381049Y285290D01*
X382000Y285101D01*
Y289000D01*
D02*
G37*
G36*
X238750Y296108D02*
X236604Y295681D01*
X234785Y294465D01*
X233569Y292646D01*
X233142Y290500D01*
X233569Y288354D01*
X234785Y286535D01*
X236604Y285319D01*
X238750Y284892D01*
X240896Y285319D01*
X242715Y286535D01*
X243931Y288354D01*
X244358Y290500D01*
X243931Y292646D01*
X242715Y294465D01*
X240896Y295681D01*
X238750Y296108D01*
D02*
G37*
G36*
X144400Y297707D02*
X141758Y297360D01*
X139296Y296340D01*
X137182Y294718D01*
X135560Y292604D01*
X134540Y290142D01*
X134193Y287500D01*
X134540Y284858D01*
X135560Y282396D01*
X137182Y280282D01*
X139296Y278660D01*
X141758Y277640D01*
X144400Y277293D01*
X147042Y277640D01*
X149504Y278660D01*
X151618Y280282D01*
X153240Y282396D01*
X154260Y284858D01*
X154607Y287500D01*
X154260Y290142D01*
X153240Y292604D01*
X151618Y294718D01*
X149504Y296340D01*
X147042Y297360D01*
X144400Y297707D01*
D02*
G37*
G36*
X119000D02*
X116358Y297360D01*
X113896Y296340D01*
X111782Y294718D01*
X110160Y292604D01*
X109140Y290142D01*
X108793Y287500D01*
X109140Y284858D01*
X110160Y282396D01*
X111782Y280282D01*
X113896Y278660D01*
X116358Y277640D01*
X119000Y277293D01*
X121642Y277640D01*
X124104Y278660D01*
X126218Y280282D01*
X127840Y282396D01*
X128860Y284858D01*
X129207Y287500D01*
X128860Y290142D01*
X127840Y292604D01*
X126218Y294718D01*
X124104Y296340D01*
X121642Y297360D01*
X119000Y297707D01*
D02*
G37*
G36*
X67000Y291573D02*
X64781Y291281D01*
X62713Y290425D01*
X60938Y289062D01*
X59575Y287287D01*
X58719Y285219D01*
X58427Y283000D01*
X58719Y280781D01*
X59575Y278713D01*
X60938Y276938D01*
X62713Y275575D01*
X64781Y274719D01*
X67000Y274427D01*
X69219Y274719D01*
X71287Y275575D01*
X73062Y276938D01*
X74425Y278713D01*
X75281Y280781D01*
X75573Y283000D01*
X75281Y285219D01*
X74425Y287287D01*
X73062Y289062D01*
X71287Y290425D01*
X69219Y291281D01*
X67000Y291573D01*
D02*
G37*
G36*
X34750Y293790D02*
X32009Y293430D01*
X29455Y292372D01*
X27261Y290689D01*
X25578Y288495D01*
X24520Y285941D01*
X24159Y283200D01*
X24520Y280459D01*
X25578Y277905D01*
X27261Y275711D01*
X29455Y274028D01*
X32009Y272970D01*
X34750Y272609D01*
X37491Y272970D01*
X40045Y274028D01*
X42239Y275711D01*
X43922Y277905D01*
X44980Y280459D01*
X45340Y283200D01*
X44980Y285941D01*
X43922Y288495D01*
X42239Y290689D01*
X40045Y292372D01*
X37491Y293430D01*
X34750Y293790D01*
D02*
G37*
G36*
X294250Y274399D02*
Y270500D01*
X298149D01*
X297960Y271451D01*
X296855Y273105D01*
X295201Y274210D01*
X294250Y274399D01*
D02*
G37*
G36*
X292250D02*
X291299Y274210D01*
X289645Y273105D01*
X288540Y271451D01*
X288351Y270500D01*
X292250D01*
Y274399D01*
D02*
G37*
G36*
X562000Y276108D02*
X559854Y275681D01*
X558035Y274465D01*
X556819Y272646D01*
X556392Y270500D01*
X556819Y268354D01*
X558035Y266535D01*
X559854Y265319D01*
X562000Y264892D01*
X564146Y265319D01*
X565965Y266535D01*
X567181Y268354D01*
X567608Y270500D01*
X567181Y272646D01*
X565965Y274465D01*
X564146Y275681D01*
X562000Y276108D01*
D02*
G37*
G36*
X298149Y268500D02*
X294250D01*
Y264601D01*
X295201Y264790D01*
X296855Y265895D01*
X297960Y267549D01*
X298149Y268500D01*
D02*
G37*
G36*
X292250D02*
X288351D01*
X288540Y267549D01*
X289645Y265895D01*
X291299Y264790D01*
X292250Y264601D01*
Y268500D01*
D02*
G37*
G36*
X734900Y285049D02*
X731898Y284654D01*
X729100Y283495D01*
X726698Y281652D01*
X724855Y279250D01*
X723696Y276452D01*
X723301Y273450D01*
X723696Y270448D01*
X724855Y267650D01*
X726698Y265248D01*
X729100Y263405D01*
X731898Y262246D01*
X734900Y261851D01*
X737902Y262246D01*
X740700Y263405D01*
X743102Y265248D01*
X744945Y267650D01*
X746104Y270448D01*
X746499Y273450D01*
X746104Y276452D01*
X744945Y279250D01*
X743102Y281652D01*
X740700Y283495D01*
X737902Y284654D01*
X734900Y285049D01*
D02*
G37*
G36*
X709500D02*
X706498Y284654D01*
X703700Y283495D01*
X701298Y281652D01*
X699455Y279250D01*
X698296Y276452D01*
X697901Y273450D01*
X698296Y270448D01*
X699455Y267650D01*
X701298Y265248D01*
X703700Y263405D01*
X706498Y262246D01*
X709500Y261851D01*
X712502Y262246D01*
X715300Y263405D01*
X717702Y265248D01*
X719545Y267650D01*
X720704Y270448D01*
X721099Y273450D01*
X720704Y276452D01*
X719545Y279250D01*
X717702Y281652D01*
X715300Y283495D01*
X712502Y284654D01*
X709500Y285049D01*
D02*
G37*
G36*
X274250Y265649D02*
Y261750D01*
X278149D01*
X277960Y262701D01*
X276855Y264355D01*
X275201Y265460D01*
X274250Y265649D01*
D02*
G37*
G36*
X272250D02*
X271299Y265460D01*
X269645Y264355D01*
X268540Y262701D01*
X268351Y261750D01*
X272250D01*
Y265649D01*
D02*
G37*
G36*
X278149Y259750D02*
X274250D01*
Y255851D01*
X275201Y256040D01*
X276855Y257145D01*
X277960Y258799D01*
X278149Y259750D01*
D02*
G37*
G36*
X272250D02*
X268351D01*
X268540Y258799D01*
X269645Y257145D01*
X271299Y256040D01*
X272250Y255851D01*
Y259750D01*
D02*
G37*
G36*
X368500Y262858D02*
X366354Y262431D01*
X364535Y261215D01*
X363319Y259396D01*
X362892Y257250D01*
X363319Y255104D01*
X364535Y253285D01*
X366354Y252069D01*
X368500Y251642D01*
X370646Y252069D01*
X372465Y253285D01*
X373681Y255104D01*
X374108Y257250D01*
X373681Y259396D01*
X372465Y261215D01*
X370646Y262431D01*
X368500Y262858D01*
D02*
G37*
G36*
X324500Y261358D02*
X322354Y260931D01*
X320535Y259715D01*
X319319Y257896D01*
X318892Y255750D01*
X319319Y253604D01*
X320535Y251785D01*
X322354Y250569D01*
X324500Y250142D01*
X326646Y250569D01*
X328465Y251785D01*
X329681Y253604D01*
X330108Y255750D01*
X329681Y257896D01*
X328465Y259715D01*
X326646Y260931D01*
X324500Y261358D01*
D02*
G37*
G36*
X391250Y253899D02*
Y250000D01*
X395149D01*
X394960Y250951D01*
X393855Y252605D01*
X392201Y253710D01*
X391250Y253899D01*
D02*
G37*
G36*
X389250D02*
X388299Y253710D01*
X386645Y252605D01*
X385540Y250951D01*
X385351Y250000D01*
X389250D01*
Y253899D01*
D02*
G37*
G36*
X155500Y251399D02*
Y247500D01*
X159399D01*
X159210Y248451D01*
X158105Y250105D01*
X156451Y251210D01*
X155500Y251399D01*
D02*
G37*
G36*
X153500D02*
X152549Y251210D01*
X150895Y250105D01*
X149790Y248451D01*
X149601Y247500D01*
X153500D01*
Y251399D01*
D02*
G37*
G36*
X409250Y255858D02*
X407104Y255431D01*
X405285Y254215D01*
X404069Y252396D01*
X403642Y250250D01*
X404069Y248104D01*
X405285Y246285D01*
X407104Y245069D01*
X409250Y244642D01*
X411396Y245069D01*
X413215Y246285D01*
X414431Y248104D01*
X414858Y250250D01*
X414431Y252396D01*
X413215Y254215D01*
X411396Y255431D01*
X409250Y255858D01*
D02*
G37*
G36*
X428000Y255358D02*
X425854Y254931D01*
X424035Y253715D01*
X422819Y251896D01*
X422392Y249750D01*
X422819Y247604D01*
X424035Y245785D01*
X425854Y244569D01*
X428000Y244142D01*
X430146Y244569D01*
X431965Y245785D01*
X433181Y247604D01*
X433608Y249750D01*
X433181Y251896D01*
X431965Y253715D01*
X430146Y254931D01*
X428000Y255358D01*
D02*
G37*
G36*
X395149Y248000D02*
X391250D01*
Y244101D01*
X392201Y244290D01*
X393855Y245395D01*
X394960Y247049D01*
X395149Y248000D01*
D02*
G37*
G36*
X389250D02*
X385351D01*
X385540Y247049D01*
X386645Y245395D01*
X388299Y244290D01*
X389250Y244101D01*
Y248000D01*
D02*
G37*
G36*
X159399Y245500D02*
X155500D01*
Y241601D01*
X156451Y241790D01*
X158105Y242895D01*
X159210Y244549D01*
X159399Y245500D01*
D02*
G37*
G36*
X153500D02*
X149601D01*
X149790Y244549D01*
X150895Y242895D01*
X152549Y241790D01*
X153500Y241601D01*
Y245500D01*
D02*
G37*
G36*
X200250Y255073D02*
X198031Y254781D01*
X195963Y253925D01*
X194188Y252562D01*
X192825Y250787D01*
X191969Y248719D01*
X191677Y246500D01*
X191969Y244281D01*
X192825Y242213D01*
X194188Y240438D01*
X195963Y239075D01*
X198031Y238219D01*
X200250Y237927D01*
X202469Y238219D01*
X204537Y239075D01*
X206312Y240438D01*
X207675Y242213D01*
X208531Y244281D01*
X208823Y246500D01*
X208531Y248719D01*
X207675Y250787D01*
X206312Y252562D01*
X204537Y253925D01*
X202469Y254781D01*
X200250Y255073D01*
D02*
G37*
G36*
X746400Y259550D02*
X723400D01*
Y236550D01*
X746400D01*
Y259550D01*
D02*
G37*
G36*
X709500Y259649D02*
X706498Y259254D01*
X703700Y258095D01*
X701298Y256252D01*
X699455Y253850D01*
X698296Y251052D01*
X697901Y248050D01*
X698296Y245048D01*
X699455Y242250D01*
X701298Y239848D01*
X703700Y238005D01*
X706498Y236846D01*
X709500Y236451D01*
X712502Y236846D01*
X715300Y238005D01*
X717702Y239848D01*
X719545Y242250D01*
X720704Y245048D01*
X721099Y248050D01*
X720704Y251052D01*
X719545Y253850D01*
X717702Y256252D01*
X715300Y258095D01*
X712502Y259254D01*
X709500Y259649D01*
D02*
G37*
G36*
X225750Y233108D02*
X223604Y232681D01*
X221785Y231465D01*
X220569Y229646D01*
X220142Y227500D01*
X220569Y225354D01*
X221785Y223535D01*
X223604Y222319D01*
X225750Y221892D01*
X227896Y222319D01*
X229715Y223535D01*
X230931Y225354D01*
X231358Y227500D01*
X230931Y229646D01*
X229715Y231465D01*
X227896Y232681D01*
X225750Y233108D01*
D02*
G37*
G36*
X213250D02*
X211104Y232681D01*
X209285Y231465D01*
X208069Y229646D01*
X207642Y227500D01*
X208069Y225354D01*
X209285Y223535D01*
X211104Y222319D01*
X213250Y221892D01*
X215396Y222319D01*
X217215Y223535D01*
X218431Y225354D01*
X218858Y227500D01*
X218431Y229646D01*
X217215Y231465D01*
X215396Y232681D01*
X213250Y233108D01*
D02*
G37*
G36*
X627500Y221358D02*
X625354Y220931D01*
X623535Y219715D01*
X622319Y217896D01*
X621892Y215750D01*
X622319Y213604D01*
X623535Y211785D01*
X625354Y210569D01*
X627500Y210142D01*
X629646Y210569D01*
X631465Y211785D01*
X632681Y213604D01*
X633108Y215750D01*
X632681Y217896D01*
X631465Y219715D01*
X629646Y220931D01*
X627500Y221358D01*
D02*
G37*
G36*
X331500Y221358D02*
X329354Y220931D01*
X327535Y219715D01*
X326319Y217896D01*
X325892Y215750D01*
X326319Y213604D01*
X327535Y211785D01*
X329354Y210569D01*
X331500Y210142D01*
X333646Y210569D01*
X335465Y211785D01*
X336681Y213604D01*
X337108Y215750D01*
X336681Y217896D01*
X335465Y219715D01*
X333646Y220931D01*
X331500Y221358D01*
D02*
G37*
G36*
X64300Y231380D02*
X61065Y231061D01*
X57955Y230118D01*
X55089Y228586D01*
X52576Y226524D01*
X50514Y224011D01*
X48982Y221145D01*
X48039Y218034D01*
X47720Y214800D01*
X48039Y211565D01*
X48982Y208455D01*
X50514Y205589D01*
X52576Y203076D01*
X55089Y201014D01*
X57955Y199482D01*
X61065Y198539D01*
X64300Y198220D01*
X67534Y198539D01*
X70645Y199482D01*
X73511Y201014D01*
X76024Y203076D01*
X78086Y205589D01*
X79618Y208455D01*
X80561Y211565D01*
X80880Y214800D01*
X80561Y218034D01*
X79618Y221145D01*
X78086Y224011D01*
X76024Y226524D01*
X73511Y228586D01*
X70645Y230118D01*
X67534Y231061D01*
X64300Y231380D01*
D02*
G37*
G36*
X188750Y200399D02*
Y196500D01*
X192649D01*
X192460Y197451D01*
X191355Y199105D01*
X189701Y200210D01*
X188750Y200399D01*
D02*
G37*
G36*
X186750D02*
X185799Y200210D01*
X184145Y199105D01*
X183040Y197451D01*
X182851Y196500D01*
X186750D01*
Y200399D01*
D02*
G37*
G36*
X466750Y206608D02*
X464604Y206181D01*
X462785Y204965D01*
X461569Y203146D01*
X461142Y201000D01*
X461569Y198854D01*
X462785Y197035D01*
X464604Y195819D01*
X466750Y195392D01*
X468896Y195819D01*
X470715Y197035D01*
X471931Y198854D01*
X472358Y201000D01*
X471931Y203146D01*
X470715Y204965D01*
X468896Y206181D01*
X466750Y206608D01*
D02*
G37*
G36*
X606500Y197899D02*
Y194000D01*
X610399D01*
X610210Y194951D01*
X609105Y196605D01*
X607451Y197710D01*
X606500Y197899D01*
D02*
G37*
G36*
X604500D02*
X603549Y197710D01*
X601895Y196605D01*
X600790Y194951D01*
X600601Y194000D01*
X604500D01*
Y197899D01*
D02*
G37*
G36*
X192649Y194500D02*
X188750D01*
Y190601D01*
X189701Y190790D01*
X191355Y191895D01*
X192460Y193549D01*
X192649Y194500D01*
D02*
G37*
G36*
X186750D02*
X182851D01*
X183040Y193549D01*
X184145Y191895D01*
X185799Y190790D01*
X186750Y190601D01*
Y194500D01*
D02*
G37*
G36*
X610399Y192000D02*
X606500D01*
Y188101D01*
X607451Y188290D01*
X609105Y189395D01*
X610210Y191049D01*
X610399Y192000D01*
D02*
G37*
G36*
X604500D02*
X600601D01*
X600790Y191049D01*
X601895Y189395D01*
X603549Y188290D01*
X604500Y188101D01*
Y192000D01*
D02*
G37*
G36*
X391000Y192358D02*
X388854Y191931D01*
X387035Y190715D01*
X385819Y188896D01*
X385392Y186750D01*
X385819Y184604D01*
X387035Y182785D01*
X388854Y181569D01*
X391000Y181142D01*
X393146Y181569D01*
X394965Y182785D01*
X396181Y184604D01*
X396608Y186750D01*
X396181Y188896D01*
X394965Y190715D01*
X393146Y191931D01*
X391000Y192358D01*
D02*
G37*
G36*
X219500Y187858D02*
X217354Y187431D01*
X215535Y186215D01*
X214319Y184396D01*
X213892Y182250D01*
X214319Y180104D01*
X215535Y178285D01*
X217354Y177069D01*
X219500Y176642D01*
X221646Y177069D01*
X223465Y178285D01*
X224681Y180104D01*
X225108Y182250D01*
X224681Y184396D01*
X223465Y186215D01*
X221646Y187431D01*
X219500Y187858D01*
D02*
G37*
G36*
X147500Y181608D02*
X145354Y181181D01*
X143535Y179965D01*
X142319Y178146D01*
X141892Y176000D01*
X142319Y173854D01*
X143535Y172035D01*
X145354Y170819D01*
X147500Y170392D01*
X149646Y170819D01*
X151465Y172035D01*
X152681Y173854D01*
X153108Y176000D01*
X152681Y178146D01*
X151465Y179965D01*
X149646Y181181D01*
X147500Y181608D01*
D02*
G37*
G36*
X275750Y179358D02*
X273604Y178931D01*
X271785Y177715D01*
X270569Y175896D01*
X270142Y173750D01*
X270569Y171604D01*
X271785Y169785D01*
X273604Y168569D01*
X275750Y168142D01*
X277896Y168569D01*
X279715Y169785D01*
X280931Y171604D01*
X281358Y173750D01*
X280931Y175896D01*
X279715Y177715D01*
X277896Y178931D01*
X275750Y179358D01*
D02*
G37*
G36*
X570950Y186128D02*
X568601Y185818D01*
X566411Y184911D01*
X564531Y183469D01*
X563089Y181589D01*
X562182Y179399D01*
X561872Y177050D01*
X562182Y174701D01*
X563089Y172511D01*
X564531Y170631D01*
X566411Y169188D01*
X568601Y168282D01*
X570950Y167972D01*
X573299Y168282D01*
X575489Y169188D01*
X577369Y170631D01*
X578811Y172511D01*
X579718Y174701D01*
X580028Y177050D01*
X579718Y179399D01*
X578811Y181589D01*
X577369Y183469D01*
X575489Y184911D01*
X573299Y185818D01*
X570950Y186128D01*
D02*
G37*
G36*
X494750D02*
X492401Y185818D01*
X490211Y184911D01*
X488331Y183469D01*
X486889Y181589D01*
X485982Y179399D01*
X485672Y177050D01*
X485982Y174701D01*
X486889Y172511D01*
X488331Y170631D01*
X490211Y169188D01*
X492401Y168282D01*
X494750Y167972D01*
X497099Y168282D01*
X499289Y169188D01*
X501169Y170631D01*
X502612Y172511D01*
X503518Y174701D01*
X503828Y177050D01*
X503518Y179399D01*
X502612Y181589D01*
X501169Y183469D01*
X499289Y184911D01*
X497099Y185818D01*
X494750Y186128D01*
D02*
G37*
G36*
X647500Y156108D02*
X645354Y155681D01*
X643535Y154465D01*
X642319Y152646D01*
X641892Y150500D01*
X642319Y148354D01*
X643535Y146535D01*
X645354Y145319D01*
X647500Y144892D01*
X649646Y145319D01*
X651465Y146535D01*
X652681Y148354D01*
X653108Y150500D01*
X652681Y152646D01*
X651465Y154465D01*
X649646Y155681D01*
X647500Y156108D01*
D02*
G37*
G36*
X276000Y154108D02*
X273854Y153681D01*
X272035Y152465D01*
X270819Y150646D01*
X270392Y148500D01*
X270819Y146354D01*
X272035Y144535D01*
X273854Y143319D01*
X276000Y142892D01*
X278146Y143319D01*
X279965Y144535D01*
X281181Y146354D01*
X281608Y148500D01*
X281181Y150646D01*
X279965Y152465D01*
X278146Y153681D01*
X276000Y154108D01*
D02*
G37*
G36*
X570950Y160728D02*
X568601Y160418D01*
X566411Y159511D01*
X564531Y158069D01*
X563089Y156189D01*
X562182Y153999D01*
X561872Y151650D01*
X562182Y149300D01*
X563089Y147111D01*
X564531Y145231D01*
X566411Y143788D01*
X568601Y142882D01*
X570950Y142572D01*
X573299Y142882D01*
X575489Y143788D01*
X577369Y145231D01*
X578811Y147111D01*
X579718Y149300D01*
X580028Y151650D01*
X579718Y153999D01*
X578811Y156189D01*
X577369Y158069D01*
X575489Y159511D01*
X573299Y160418D01*
X570950Y160728D01*
D02*
G37*
G36*
X494750D02*
X492401Y160418D01*
X490211Y159511D01*
X488331Y158069D01*
X486889Y156189D01*
X485982Y153999D01*
X485672Y151650D01*
X485982Y149300D01*
X486889Y147111D01*
X488331Y145231D01*
X490211Y143788D01*
X492401Y142882D01*
X494750Y142572D01*
X497099Y142882D01*
X499289Y143788D01*
X501169Y145231D01*
X502612Y147111D01*
X503518Y149300D01*
X503828Y151650D01*
X503518Y153999D01*
X502612Y156189D01*
X501169Y158069D01*
X499289Y159511D01*
X497099Y160418D01*
X494750Y160728D01*
D02*
G37*
G36*
X276000Y129108D02*
X273854Y128681D01*
X272035Y127465D01*
X270819Y125646D01*
X270392Y123500D01*
X270819Y121354D01*
X272035Y119535D01*
X273854Y118319D01*
X276000Y117892D01*
X278146Y118319D01*
X279965Y119535D01*
X281181Y121354D01*
X281608Y123500D01*
X281181Y125646D01*
X279965Y127465D01*
X278146Y128681D01*
X276000Y129108D01*
D02*
G37*
G36*
X570950Y135328D02*
X568601Y135018D01*
X566411Y134111D01*
X564531Y132669D01*
X563089Y130789D01*
X562182Y128599D01*
X561872Y126250D01*
X562182Y123900D01*
X563089Y121711D01*
X564531Y119831D01*
X566411Y118389D01*
X568601Y117482D01*
X570950Y117172D01*
X573299Y117482D01*
X575489Y118389D01*
X577369Y119831D01*
X578811Y121711D01*
X579718Y123900D01*
X580028Y126250D01*
X579718Y128599D01*
X578811Y130789D01*
X577369Y132669D01*
X575489Y134111D01*
X573299Y135018D01*
X570950Y135328D01*
D02*
G37*
G36*
X494750D02*
X492401Y135018D01*
X490211Y134111D01*
X488331Y132669D01*
X486889Y130789D01*
X485982Y128599D01*
X485672Y126250D01*
X485982Y123900D01*
X486889Y121711D01*
X488331Y119831D01*
X490211Y118389D01*
X492401Y117482D01*
X494750Y117172D01*
X497099Y117482D01*
X499289Y118389D01*
X501169Y119831D01*
X502612Y121711D01*
X503518Y123900D01*
X503828Y126250D01*
X503518Y128599D01*
X502612Y130789D01*
X501169Y132669D01*
X499289Y134111D01*
X497099Y135018D01*
X494750Y135328D01*
D02*
G37*
G36*
X218500Y116858D02*
X216354Y116431D01*
X214535Y115215D01*
X213319Y113396D01*
X212892Y111250D01*
X213319Y109104D01*
X214535Y107285D01*
X216354Y106069D01*
X218500Y105642D01*
X220646Y106069D01*
X222465Y107285D01*
X223681Y109104D01*
X224108Y111250D01*
X223681Y113396D01*
X222465Y115215D01*
X220646Y116431D01*
X218500Y116858D01*
D02*
G37*
G36*
X169250Y116608D02*
X167104Y116181D01*
X165285Y114965D01*
X164069Y113146D01*
X163642Y111000D01*
X164069Y108854D01*
X165285Y107035D01*
X167104Y105819D01*
X169250Y105392D01*
X171396Y105819D01*
X173215Y107035D01*
X174431Y108854D01*
X174858Y111000D01*
X174431Y113146D01*
X173215Y114965D01*
X171396Y116181D01*
X169250Y116608D01*
D02*
G37*
G36*
X672000Y115086D02*
X669389Y114742D01*
X666957Y113735D01*
X664868Y112132D01*
X663265Y110043D01*
X662257Y107611D01*
X661914Y105000D01*
X662257Y102389D01*
X663265Y99957D01*
X664868Y97868D01*
X666957Y96265D01*
X669389Y95257D01*
X672000Y94914D01*
X674611Y95257D01*
X677043Y96265D01*
X679132Y97868D01*
X680735Y99957D01*
X681743Y102389D01*
X682086Y105000D01*
X681743Y107611D01*
X680735Y110043D01*
X679132Y112132D01*
X677043Y113735D01*
X674611Y114742D01*
X672000Y115086D01*
D02*
G37*
G36*
X276250Y104108D02*
X274104Y103681D01*
X272285Y102465D01*
X271069Y100646D01*
X270642Y98500D01*
X271069Y96354D01*
X272285Y94535D01*
X274104Y93319D01*
X276250Y92892D01*
X278396Y93319D01*
X280215Y94535D01*
X281431Y96354D01*
X281858Y98500D01*
X281431Y100646D01*
X280215Y102465D01*
X278396Y103681D01*
X276250Y104108D01*
D02*
G37*
G36*
X570950Y109928D02*
X568601Y109618D01*
X566411Y108711D01*
X564531Y107269D01*
X563089Y105389D01*
X562182Y103199D01*
X561872Y100850D01*
X562182Y98500D01*
X563089Y96311D01*
X564531Y94431D01*
X566411Y92989D01*
X568601Y92082D01*
X570950Y91772D01*
X573299Y92082D01*
X575489Y92989D01*
X577369Y94431D01*
X578811Y96311D01*
X579718Y98500D01*
X580028Y100850D01*
X579718Y103199D01*
X578811Y105389D01*
X577369Y107269D01*
X575489Y108711D01*
X573299Y109618D01*
X570950Y109928D01*
D02*
G37*
G36*
X494750D02*
X492401Y109618D01*
X490211Y108711D01*
X488331Y107269D01*
X486889Y105389D01*
X485982Y103199D01*
X485672Y100850D01*
X485982Y98500D01*
X486889Y96311D01*
X488331Y94431D01*
X490211Y92989D01*
X492401Y92082D01*
X494750Y91772D01*
X497099Y92082D01*
X499289Y92989D01*
X501169Y94431D01*
X502612Y96311D01*
X503518Y98500D01*
X503828Y100850D01*
X503518Y103199D01*
X502612Y105389D01*
X501169Y107269D01*
X499289Y108711D01*
X497099Y109618D01*
X494750Y109928D01*
D02*
G37*
G36*
X329500Y92608D02*
X327354Y92181D01*
X325535Y90965D01*
X324319Y89146D01*
X323892Y87000D01*
X324319Y84854D01*
X325535Y83035D01*
X327354Y81819D01*
X329500Y81392D01*
X331646Y81819D01*
X333465Y83035D01*
X334681Y84854D01*
X335108Y87000D01*
X334681Y89146D01*
X333465Y90965D01*
X331646Y92181D01*
X329500Y92608D01*
D02*
G37*
G36*
X615000Y89858D02*
X612854Y89431D01*
X611035Y88215D01*
X609819Y86396D01*
X609392Y84250D01*
X609819Y82104D01*
X611035Y80285D01*
X612854Y79069D01*
X615000Y78642D01*
X617146Y79069D01*
X618965Y80285D01*
X620181Y82104D01*
X620608Y84250D01*
X620181Y86396D01*
X618965Y88215D01*
X617146Y89431D01*
X615000Y89858D01*
D02*
G37*
G36*
X64300Y99280D02*
X61065Y98961D01*
X57955Y98018D01*
X55089Y96486D01*
X52576Y94424D01*
X50514Y91911D01*
X48982Y89045D01*
X48039Y85934D01*
X47720Y82700D01*
X48039Y79465D01*
X48982Y76355D01*
X50514Y73489D01*
X52576Y70976D01*
X55089Y68914D01*
X57955Y67382D01*
X61065Y66439D01*
X64300Y66120D01*
X67534Y66439D01*
X70645Y67382D01*
X73511Y68914D01*
X76024Y70976D01*
X78086Y73489D01*
X79618Y76355D01*
X80561Y79465D01*
X80880Y82700D01*
X80561Y85934D01*
X79618Y89045D01*
X78086Y91911D01*
X76024Y94424D01*
X73511Y96486D01*
X70645Y98018D01*
X67534Y98961D01*
X64300Y99280D01*
D02*
G37*
G36*
X276250Y70358D02*
X274104Y69931D01*
X272285Y68715D01*
X271069Y66896D01*
X270642Y64750D01*
X271069Y62604D01*
X272285Y60785D01*
X274104Y59569D01*
X276250Y59142D01*
X278396Y59569D01*
X280215Y60785D01*
X281431Y62604D01*
X281858Y64750D01*
X281431Y66896D01*
X280215Y68715D01*
X278396Y69931D01*
X276250Y70358D01*
D02*
G37*
G36*
X151000Y61108D02*
X148854Y60681D01*
X147035Y59465D01*
X145819Y57646D01*
X145392Y55500D01*
X145819Y53354D01*
X147035Y51535D01*
X148854Y50319D01*
X151000Y49892D01*
X153146Y50319D01*
X154965Y51535D01*
X156181Y53354D01*
X156608Y55500D01*
X156181Y57646D01*
X154965Y59465D01*
X153146Y60681D01*
X151000Y61108D01*
D02*
G37*
G36*
X526250Y47899D02*
Y44000D01*
X530149D01*
X529960Y44951D01*
X528855Y46605D01*
X527201Y47710D01*
X526250Y47899D01*
D02*
G37*
G36*
X524250D02*
X523299Y47710D01*
X521645Y46605D01*
X520540Y44951D01*
X520351Y44000D01*
X524250D01*
Y47899D01*
D02*
G37*
G36*
X530149Y42000D02*
X526250D01*
Y38101D01*
X527201Y38290D01*
X528855Y39395D01*
X529960Y41049D01*
X530149Y42000D01*
D02*
G37*
G36*
X524250D02*
X520351D01*
X520540Y41049D01*
X521645Y39395D01*
X523299Y38290D01*
X524250Y38101D01*
Y42000D01*
D02*
G37*
G36*
X403750Y46358D02*
X401604Y45931D01*
X399785Y44715D01*
X398569Y42896D01*
X398142Y40750D01*
X398569Y38604D01*
X399785Y36785D01*
X401604Y35569D01*
X403750Y35142D01*
X405896Y35569D01*
X407715Y36785D01*
X408931Y38604D01*
X409358Y40750D01*
X408931Y42896D01*
X407715Y44715D01*
X405896Y45931D01*
X403750Y46358D01*
D02*
G37*
G36*
X276500Y44858D02*
X274354Y44431D01*
X272535Y43215D01*
X271319Y41396D01*
X270892Y39250D01*
X271319Y37104D01*
X272535Y35285D01*
X274354Y34069D01*
X276500Y33642D01*
X278646Y34069D01*
X280465Y35285D01*
X281681Y37104D01*
X282108Y39250D01*
X281681Y41396D01*
X280465Y43215D01*
X278646Y44431D01*
X276500Y44858D01*
D02*
G37*
G36*
X665500Y30108D02*
X663354Y29681D01*
X661535Y28465D01*
X660319Y26646D01*
X659892Y24500D01*
X660319Y22354D01*
X661535Y20535D01*
X663354Y19319D01*
X665500Y18892D01*
X667646Y19319D01*
X669465Y20535D01*
X670681Y22354D01*
X671108Y24500D01*
X670681Y26646D01*
X669465Y28465D01*
X667646Y29681D01*
X665500Y30108D01*
D02*
G37*
G36*
X276500Y20608D02*
X274354Y20181D01*
X272535Y18965D01*
X271319Y17146D01*
X270892Y15000D01*
X271319Y12854D01*
X272535Y11035D01*
X274354Y9819D01*
X276500Y9392D01*
X278646Y9819D01*
X280465Y11035D01*
X281681Y12854D01*
X282108Y15000D01*
X281681Y17146D01*
X280465Y18965D01*
X278646Y20181D01*
X276500Y20608D01*
D02*
G37*
%LPD*%
G36*
X400000Y460000D02*
X476702D01*
X478500Y459642D01*
X480298Y460000D01*
X485000D01*
Y455609D01*
X484104Y455431D01*
X482285Y454215D01*
X481069Y452396D01*
X480642Y450250D01*
X481069Y448104D01*
X482285Y446285D01*
X484104Y445069D01*
X485000Y444891D01*
Y305000D01*
X335000D01*
Y520000D01*
X400000D01*
Y460000D01*
D02*
G37*
%LPC*%
G36*
X366500Y507187D02*
Y500250D01*
X373437D01*
X373294Y501338D01*
X372488Y503284D01*
X371206Y504956D01*
X369534Y506238D01*
X367588Y507044D01*
X366500Y507187D01*
D02*
G37*
G36*
X364500Y507187D02*
X363412Y507044D01*
X361465Y506238D01*
X359794Y504956D01*
X358512Y503284D01*
X357706Y501338D01*
X357563Y500250D01*
X364500D01*
Y507187D01*
D02*
G37*
G36*
Y498250D02*
X357563D01*
X357706Y497162D01*
X358512Y495215D01*
X359794Y493544D01*
X361465Y492262D01*
X363412Y491456D01*
X364500Y491313D01*
Y498250D01*
D02*
G37*
G36*
X373437D02*
X366500D01*
Y491313D01*
X367588Y491456D01*
X369534Y492262D01*
X371206Y493544D01*
X372488Y495215D01*
X373294Y497162D01*
X373437Y498250D01*
D02*
G37*
G36*
X345750Y485608D02*
X343604Y485181D01*
X341785Y483965D01*
X340569Y482146D01*
X340142Y480000D01*
X340569Y477854D01*
X341785Y476035D01*
X343604Y474819D01*
X345750Y474392D01*
X347896Y474819D01*
X349715Y476035D01*
X350931Y477854D01*
X351358Y480000D01*
X350931Y482146D01*
X349715Y483965D01*
X347896Y485181D01*
X345750Y485608D01*
D02*
G37*
G36*
X451500Y449399D02*
Y445500D01*
X455399D01*
X455210Y446451D01*
X454105Y448105D01*
X452451Y449210D01*
X451500Y449399D01*
D02*
G37*
G36*
X379500Y449149D02*
Y445250D01*
X383399D01*
X383210Y446201D01*
X382105Y447855D01*
X380451Y448960D01*
X379500Y449149D01*
D02*
G37*
G36*
X377500D02*
X376549Y448960D01*
X374895Y447855D01*
X373790Y446201D01*
X373601Y445250D01*
X377500D01*
Y449149D01*
D02*
G37*
G36*
X355500D02*
Y445250D01*
X359399D01*
X359210Y446201D01*
X358105Y447855D01*
X356451Y448960D01*
X355500Y449149D01*
D02*
G37*
G36*
X353500D02*
X352549Y448960D01*
X350895Y447855D01*
X349790Y446201D01*
X349601Y445250D01*
X353500D01*
Y449149D01*
D02*
G37*
G36*
X455399Y443500D02*
X451500D01*
Y439601D01*
X452451Y439790D01*
X454105Y440895D01*
X455210Y442549D01*
X455399Y443500D01*
D02*
G37*
G36*
X439500Y450108D02*
X437354Y449681D01*
X435535Y448465D01*
X434319Y446646D01*
X433892Y444500D01*
X434319Y442354D01*
X435535Y440535D01*
X437354Y439319D01*
X439500Y438892D01*
X441646Y439319D01*
X443465Y440535D01*
X444595Y442226D01*
X444964Y442326D01*
X445071Y442335D01*
X445963Y442290D01*
X446895Y440895D01*
X448549Y439790D01*
X449500Y439601D01*
Y444500D01*
Y449399D01*
X448549Y449210D01*
X446895Y448105D01*
X445963Y446710D01*
X445071Y446665D01*
X444964Y446674D01*
X444595Y446774D01*
X443465Y448465D01*
X441646Y449681D01*
X439500Y450108D01*
D02*
G37*
G36*
X383399Y443250D02*
X379500D01*
Y439351D01*
X380451Y439540D01*
X382105Y440645D01*
X383210Y442299D01*
X383399Y443250D01*
D02*
G37*
G36*
X377500D02*
X373601D01*
X373790Y442299D01*
X374895Y440645D01*
X376549Y439540D01*
X377500Y439351D01*
Y443250D01*
D02*
G37*
G36*
X359399D02*
X355500D01*
Y439351D01*
X356451Y439540D01*
X358105Y440645D01*
X359210Y442299D01*
X359399Y443250D01*
D02*
G37*
G36*
X353500D02*
X349601D01*
X349790Y442299D01*
X350895Y440645D01*
X352549Y439540D01*
X353500Y439351D01*
Y443250D01*
D02*
G37*
G36*
X463750Y446108D02*
X461604Y445681D01*
X459785Y444465D01*
X458569Y442646D01*
X458142Y440500D01*
X458569Y438354D01*
X459785Y436535D01*
X461604Y435319D01*
X463750Y434892D01*
X465896Y435319D01*
X467715Y436535D01*
X468931Y438354D01*
X469358Y440500D01*
X468931Y442646D01*
X467715Y444465D01*
X465896Y445681D01*
X463750Y446108D01*
D02*
G37*
G36*
X346750Y438858D02*
X344604Y438431D01*
X342785Y437215D01*
X341569Y435396D01*
X341142Y433250D01*
X341569Y431104D01*
X342785Y429285D01*
X344604Y428069D01*
X346750Y427642D01*
X348896Y428069D01*
X349142Y428233D01*
X350197Y427528D01*
X350142Y427250D01*
X350569Y425104D01*
X351785Y423285D01*
X353604Y422069D01*
X355750Y421642D01*
X357896Y422069D01*
X359715Y423285D01*
X360931Y425104D01*
X361358Y427250D01*
X360931Y429396D01*
X359715Y431215D01*
X357896Y432431D01*
X355750Y432858D01*
X353604Y432431D01*
X353358Y432267D01*
X352303Y432972D01*
X352358Y433250D01*
X351931Y435396D01*
X350715Y437215D01*
X348896Y438431D01*
X346750Y438858D01*
D02*
G37*
G36*
X472250Y412149D02*
Y408250D01*
X476149D01*
X475960Y409201D01*
X474855Y410855D01*
X473201Y411960D01*
X472250Y412149D01*
D02*
G37*
G36*
X470250D02*
X469299Y411960D01*
X467645Y410855D01*
X466540Y409201D01*
X466351Y408250D01*
X470250D01*
Y412149D01*
D02*
G37*
G36*
X391500Y419358D02*
X389354Y418931D01*
X387535Y417715D01*
X386319Y415896D01*
X385892Y413750D01*
X386319Y411604D01*
X387535Y409785D01*
X389354Y408569D01*
X391500Y408142D01*
X393646Y408569D01*
X395465Y409785D01*
X396681Y411604D01*
X397108Y413750D01*
X396681Y415896D01*
X395465Y417715D01*
X393646Y418931D01*
X391500Y419358D01*
D02*
G37*
G36*
X346250Y408149D02*
Y404250D01*
X350149D01*
X349960Y405201D01*
X348855Y406855D01*
X347201Y407960D01*
X346250Y408149D01*
D02*
G37*
G36*
X344250D02*
X343299Y407960D01*
X341645Y406855D01*
X340540Y405201D01*
X340351Y404250D01*
X344250D01*
Y408149D01*
D02*
G37*
G36*
X476149Y406250D02*
X472250D01*
Y402351D01*
X473201Y402540D01*
X474855Y403645D01*
X475960Y405299D01*
X476149Y406250D01*
D02*
G37*
G36*
X470250D02*
X466351D01*
X466540Y405299D01*
X467645Y403645D01*
X469299Y402540D01*
X470250Y402351D01*
Y406250D01*
D02*
G37*
G36*
X451000Y409858D02*
X448854Y409431D01*
X447035Y408215D01*
X445819Y406396D01*
X445392Y404250D01*
X445819Y402104D01*
X447035Y400285D01*
X448854Y399069D01*
X451000Y398642D01*
X453146Y399069D01*
X454965Y400285D01*
X456181Y402104D01*
X456608Y404250D01*
X456181Y406396D01*
X454965Y408215D01*
X453146Y409431D01*
X451000Y409858D01*
D02*
G37*
G36*
X350149Y402250D02*
X346250D01*
Y398351D01*
X347201Y398540D01*
X348855Y399645D01*
X349960Y401299D01*
X350149Y402250D01*
D02*
G37*
G36*
X344250D02*
X340351D01*
X340540Y401299D01*
X341645Y399645D01*
X343299Y398540D01*
X344250Y398351D01*
Y402250D01*
D02*
G37*
G36*
X472250Y387899D02*
Y384000D01*
X476149D01*
X475960Y384951D01*
X474855Y386605D01*
X473201Y387710D01*
X472250Y387899D01*
D02*
G37*
G36*
X470250D02*
X469299Y387710D01*
X467645Y386605D01*
X466540Y384951D01*
X466351Y384000D01*
X470250D01*
Y387899D01*
D02*
G37*
G36*
X346500Y385899D02*
Y382000D01*
X350399D01*
X350210Y382951D01*
X349105Y384605D01*
X347451Y385710D01*
X346500Y385899D01*
D02*
G37*
G36*
X344500D02*
X343549Y385710D01*
X341895Y384605D01*
X340790Y382951D01*
X340601Y382000D01*
X344500D01*
Y385899D01*
D02*
G37*
G36*
X376500Y391608D02*
X374354Y391181D01*
X372535Y389965D01*
X371319Y388146D01*
X370892Y386000D01*
X371319Y383854D01*
X372535Y382035D01*
X374354Y380819D01*
X376500Y380392D01*
X378646Y380819D01*
X380465Y382035D01*
X381681Y383854D01*
X382108Y386000D01*
X381681Y388146D01*
X380465Y389965D01*
X378646Y391181D01*
X376500Y391608D01*
D02*
G37*
G36*
X357250Y389358D02*
X355104Y388931D01*
X353285Y387715D01*
X352069Y385896D01*
X351642Y383750D01*
X352069Y381604D01*
X353285Y379785D01*
X355104Y378569D01*
X357250Y378142D01*
X359396Y378569D01*
X361215Y379785D01*
X362431Y381604D01*
X362858Y383750D01*
X362431Y385896D01*
X361215Y387715D01*
X359396Y388931D01*
X357250Y389358D01*
D02*
G37*
G36*
X476149Y382000D02*
X472250D01*
Y378101D01*
X473201Y378290D01*
X474855Y379395D01*
X475960Y381049D01*
X476149Y382000D01*
D02*
G37*
G36*
X470250D02*
X466351D01*
X466540Y381049D01*
X467645Y379395D01*
X469299Y378290D01*
X470250Y378101D01*
Y382000D01*
D02*
G37*
G36*
X350399Y380000D02*
X346500D01*
Y376101D01*
X347451Y376290D01*
X349105Y377395D01*
X350210Y379049D01*
X350399Y380000D01*
D02*
G37*
G36*
X344500D02*
X340601D01*
X340790Y379049D01*
X341895Y377395D01*
X343549Y376290D01*
X344500Y376101D01*
Y380000D01*
D02*
G37*
G36*
X371250Y378108D02*
X369104Y377681D01*
X367285Y376465D01*
X366069Y374646D01*
X365642Y372500D01*
X366069Y370354D01*
X367285Y368535D01*
X369104Y367319D01*
X371250Y366892D01*
X373396Y367319D01*
X375215Y368535D01*
X376431Y370354D01*
X376858Y372500D01*
X376431Y374646D01*
X375215Y376465D01*
X373396Y377681D01*
X371250Y378108D01*
D02*
G37*
G36*
X439750Y375358D02*
X437604Y374931D01*
X435785Y373715D01*
X434569Y371896D01*
X434142Y369750D01*
X434569Y367604D01*
X435785Y365785D01*
X437604Y364569D01*
X439750Y364142D01*
X441896Y364569D01*
X443715Y365785D01*
X444931Y367604D01*
X445358Y369750D01*
X444931Y371896D01*
X443715Y373715D01*
X441896Y374931D01*
X439750Y375358D01*
D02*
G37*
G36*
X408500Y403859D02*
X404089Y403424D01*
X399848Y402138D01*
X395939Y400048D01*
X392513Y397237D01*
X389701Y393811D01*
X387612Y389902D01*
X386325Y385661D01*
X385891Y381250D01*
X386325Y376839D01*
X387612Y372598D01*
X389701Y368689D01*
X392513Y365263D01*
X395939Y362451D01*
X399848Y360362D01*
X404089Y359076D01*
X408500Y358641D01*
X412911Y359076D01*
X417152Y360362D01*
X421061Y362451D01*
X424487Y365263D01*
X427299Y368689D01*
X429388Y372598D01*
X430674Y376839D01*
X431109Y381250D01*
X430674Y385661D01*
X429388Y389902D01*
X427299Y393811D01*
X424487Y397237D01*
X421061Y400048D01*
X417152Y402138D01*
X412911Y403424D01*
X408500Y403859D01*
D02*
G37*
G36*
X378500Y364358D02*
X376354Y363931D01*
X374535Y362715D01*
X373319Y360896D01*
X372892Y358750D01*
X373319Y356604D01*
X374535Y354785D01*
X376354Y353569D01*
X378500Y353142D01*
X380646Y353569D01*
X382465Y354785D01*
X383681Y356604D01*
X384108Y358750D01*
X383681Y360896D01*
X382465Y362715D01*
X380646Y363931D01*
X378500Y364358D01*
D02*
G37*
G36*
X472250Y356149D02*
Y352250D01*
X476149D01*
X475960Y353201D01*
X474855Y354855D01*
X473201Y355960D01*
X472250Y356149D01*
D02*
G37*
G36*
X470250D02*
X469299Y355960D01*
X467645Y354855D01*
X466540Y353201D01*
X466351Y352250D01*
X470250D01*
Y356149D01*
D02*
G37*
G36*
X346250D02*
Y352250D01*
X350149D01*
X349960Y353201D01*
X348855Y354855D01*
X347201Y355960D01*
X346250Y356149D01*
D02*
G37*
G36*
X344250D02*
X343299Y355960D01*
X341645Y354855D01*
X340540Y353201D01*
X340351Y352250D01*
X344250D01*
Y356149D01*
D02*
G37*
G36*
X476149Y350250D02*
X472250D01*
Y346351D01*
X473201Y346540D01*
X474855Y347645D01*
X475960Y349299D01*
X476149Y350250D01*
D02*
G37*
G36*
X470250D02*
X466351D01*
X466540Y349299D01*
X467645Y347645D01*
X469299Y346540D01*
X470250Y346351D01*
Y350250D01*
D02*
G37*
G36*
X350149D02*
X346250D01*
Y346351D01*
X347201Y346540D01*
X348855Y347645D01*
X349960Y349299D01*
X350149Y350250D01*
D02*
G37*
G36*
X344250D02*
X340351D01*
X340540Y349299D01*
X341645Y347645D01*
X343299Y346540D01*
X344250Y346351D01*
Y350250D01*
D02*
G37*
G36*
X430000Y356858D02*
X427854Y356431D01*
X426035Y355215D01*
X424819Y353396D01*
X424392Y351250D01*
X424819Y349104D01*
X426035Y347285D01*
X426347Y347076D01*
X426189Y345654D01*
X424785Y344715D01*
X423569Y342896D01*
X423142Y340750D01*
X423569Y338604D01*
X424785Y336785D01*
X426604Y335569D01*
X428750Y335142D01*
X430896Y335569D01*
X432715Y336785D01*
X433931Y338604D01*
X434358Y340750D01*
X433931Y342896D01*
X432715Y344715D01*
X432403Y344924D01*
X432561Y346346D01*
X433965Y347285D01*
X435181Y349104D01*
X435608Y351250D01*
X435181Y353396D01*
X433965Y355215D01*
X432146Y356431D01*
X430000Y356858D01*
D02*
G37*
G36*
X469250Y336608D02*
X467104Y336181D01*
X465285Y334965D01*
X464069Y333146D01*
X463642Y331000D01*
X464069Y328854D01*
X465285Y327035D01*
X467104Y325819D01*
X469250Y325392D01*
X471396Y325819D01*
X473215Y327035D01*
X474431Y328854D01*
X474858Y331000D01*
X474431Y333146D01*
X473215Y334965D01*
X471396Y336181D01*
X469250Y336608D01*
D02*
G37*
G36*
X399160Y325608D02*
X397014Y325181D01*
X395410Y324109D01*
X393806Y325181D01*
X391660Y325608D01*
X389514Y325181D01*
X387695Y323965D01*
X386479Y322146D01*
X386052Y320000D01*
X386479Y317854D01*
X387695Y316035D01*
X389514Y314819D01*
X391660Y314392D01*
X393806Y314819D01*
X395410Y315891D01*
X397014Y314819D01*
X399160Y314392D01*
X401306Y314819D01*
X403125Y316035D01*
X404183Y317618D01*
X405155Y317595D01*
X405505Y317484D01*
X405790Y316049D01*
X406895Y314395D01*
X408549Y313290D01*
X409500Y313101D01*
Y318000D01*
Y322899D01*
X408549Y322710D01*
X406895Y321605D01*
X406008Y320276D01*
X404686Y320413D01*
X404341Y322146D01*
X403125Y323965D01*
X401306Y325181D01*
X399160Y325608D01*
D02*
G37*
G36*
X348250Y332858D02*
X346104Y332431D01*
X344285Y331215D01*
X343069Y329396D01*
X342642Y327250D01*
X343069Y325104D01*
X344285Y323285D01*
X346104Y322069D01*
X348250Y321642D01*
X350396Y322069D01*
X352215Y323285D01*
X353431Y325104D01*
X353858Y327250D01*
X353431Y329396D01*
X352215Y331215D01*
X350396Y332431D01*
X348250Y332858D01*
D02*
G37*
G36*
X455500Y322899D02*
Y319000D01*
X459399D01*
X459210Y319951D01*
X458105Y321605D01*
X456451Y322710D01*
X455500Y322899D01*
D02*
G37*
G36*
X453500D02*
X452549Y322710D01*
X450895Y321605D01*
X449790Y319951D01*
X449601Y319000D01*
X453500D01*
Y322899D01*
D02*
G37*
G36*
X439500D02*
Y319000D01*
X443399D01*
X443210Y319951D01*
X442105Y321605D01*
X440451Y322710D01*
X439500Y322899D01*
D02*
G37*
G36*
X437500D02*
X436549Y322710D01*
X434895Y321605D01*
X433790Y319951D01*
X433601Y319000D01*
X437500D01*
Y322899D01*
D02*
G37*
G36*
X411500D02*
Y319000D01*
X415399D01*
X415210Y319951D01*
X414105Y321605D01*
X412451Y322710D01*
X411500Y322899D01*
D02*
G37*
G36*
X379500D02*
Y319000D01*
X383399D01*
X383210Y319951D01*
X382105Y321605D01*
X380451Y322710D01*
X379500Y322899D01*
D02*
G37*
G36*
X377500D02*
X376549Y322710D01*
X374895Y321605D01*
X373790Y319951D01*
X373601Y319000D01*
X377500D01*
Y322899D01*
D02*
G37*
G36*
X359500D02*
Y319000D01*
X363399D01*
X363210Y319951D01*
X362105Y321605D01*
X360451Y322710D01*
X359500Y322899D01*
D02*
G37*
G36*
X357500D02*
X356549Y322710D01*
X354895Y321605D01*
X353790Y319951D01*
X353601Y319000D01*
X357500D01*
Y322899D01*
D02*
G37*
G36*
X424500Y328608D02*
X422354Y328181D01*
X420535Y326965D01*
X419319Y325146D01*
X418892Y323000D01*
X419319Y320854D01*
X420535Y319035D01*
X422354Y317819D01*
X424500Y317392D01*
X426646Y317819D01*
X428465Y319035D01*
X429681Y320854D01*
X430108Y323000D01*
X429681Y325146D01*
X428465Y326965D01*
X426646Y328181D01*
X424500Y328608D01*
D02*
G37*
G36*
X459399Y317000D02*
X455500D01*
Y313101D01*
X456451Y313290D01*
X458105Y314395D01*
X459210Y316049D01*
X459399Y317000D01*
D02*
G37*
G36*
X453500D02*
X449601D01*
X449790Y316049D01*
X450895Y314395D01*
X452549Y313290D01*
X453500Y313101D01*
Y317000D01*
D02*
G37*
G36*
X443399D02*
X439500D01*
Y313101D01*
X440451Y313290D01*
X442105Y314395D01*
X443210Y316049D01*
X443399Y317000D01*
D02*
G37*
G36*
X437500D02*
X433601D01*
X433790Y316049D01*
X434895Y314395D01*
X436549Y313290D01*
X437500Y313101D01*
Y317000D01*
D02*
G37*
G36*
X415399D02*
X411500D01*
Y313101D01*
X412451Y313290D01*
X414105Y314395D01*
X415210Y316049D01*
X415399Y317000D01*
D02*
G37*
G36*
X383399D02*
X379500D01*
Y313101D01*
X380451Y313290D01*
X382105Y314395D01*
X383210Y316049D01*
X383399Y317000D01*
D02*
G37*
G36*
X377500D02*
X373601D01*
X373790Y316049D01*
X374895Y314395D01*
X376549Y313290D01*
X377500Y313101D01*
Y317000D01*
D02*
G37*
G36*
X363399D02*
X359500D01*
Y313101D01*
X360451Y313290D01*
X362105Y314395D01*
X363210Y316049D01*
X363399Y317000D01*
D02*
G37*
G36*
X357500D02*
X353601D01*
X353790Y316049D01*
X354895Y314395D01*
X356549Y313290D01*
X357500Y313101D01*
Y317000D01*
D02*
G37*
G36*
X675900Y786573D02*
X673681Y786281D01*
X671613Y785425D01*
X669838Y784062D01*
X669100Y783101D01*
X667500D01*
X666762Y784062D01*
X664987Y785425D01*
X662919Y786281D01*
X660700Y786573D01*
X658481Y786281D01*
X656413Y785425D01*
X654638Y784062D01*
X653900Y783101D01*
X652300D01*
X651562Y784062D01*
X649787Y785425D01*
X647719Y786281D01*
X645500Y786573D01*
X643281Y786281D01*
X641213Y785425D01*
X639438Y784062D01*
X638700Y783101D01*
X637100D01*
X636362Y784062D01*
X634587Y785425D01*
X632519Y786281D01*
X630300Y786573D01*
X628081Y786281D01*
X626013Y785425D01*
X624238Y784062D01*
X623500Y783101D01*
X621900D01*
X621162Y784062D01*
X619387Y785425D01*
X617319Y786281D01*
X615100Y786573D01*
X612881Y786281D01*
X610813Y785425D01*
X609038Y784062D01*
X608300Y783101D01*
X606699D01*
X605962Y784062D01*
X604187Y785425D01*
X602119Y786281D01*
X599900Y786573D01*
X597681Y786281D01*
X595613Y785425D01*
X594470Y784547D01*
X593200Y785174D01*
Y786500D01*
X576200D01*
Y785174D01*
X574930Y784547D01*
X573787Y785425D01*
X571719Y786281D01*
X569500Y786573D01*
X567281Y786281D01*
X565213Y785425D01*
X563438Y784062D01*
X562075Y782287D01*
X561219Y780219D01*
X560927Y778000D01*
X561219Y775781D01*
X562075Y773713D01*
X563438Y771938D01*
X565213Y770575D01*
X567281Y769719D01*
X569500Y769427D01*
X569741Y769458D01*
X570428Y768268D01*
X569675Y767287D01*
X568819Y765219D01*
X568527Y763000D01*
X568819Y760781D01*
X569675Y758713D01*
X571038Y756938D01*
X572813Y755575D01*
X574881Y754719D01*
X577100Y754427D01*
X579319Y754719D01*
X581387Y755575D01*
X583162Y756938D01*
X583900Y757899D01*
X585500D01*
X586238Y756938D01*
X588013Y755575D01*
X590081Y754719D01*
X592300Y754427D01*
X594519Y754719D01*
X596587Y755575D01*
X598362Y756938D01*
X599100Y757899D01*
X600700D01*
X601438Y756938D01*
X603213Y755575D01*
X605281Y754719D01*
X607500Y754427D01*
X609719Y754719D01*
X611787Y755575D01*
X613562Y756938D01*
X614300Y757899D01*
X615900D01*
X616638Y756938D01*
X618413Y755575D01*
X620481Y754719D01*
X622700Y754427D01*
X624919Y754719D01*
X626987Y755575D01*
X628762Y756938D01*
X629500Y757899D01*
X631100D01*
X631838Y756938D01*
X633613Y755575D01*
X635681Y754719D01*
X637900Y754427D01*
X640119Y754719D01*
X642187Y755575D01*
X643962Y756938D01*
X644700Y757899D01*
X646300D01*
X647038Y756938D01*
X648813Y755575D01*
X650881Y754719D01*
X653100Y754427D01*
X655319Y754719D01*
X657387Y755575D01*
X659162Y756938D01*
X659900Y757899D01*
X661500D01*
X662238Y756938D01*
X664013Y755575D01*
X666081Y754719D01*
X668300Y754427D01*
X670519Y754719D01*
X672587Y755575D01*
X674362Y756938D01*
X675725Y758713D01*
X676581Y760781D01*
X676873Y763000D01*
X676581Y765219D01*
X675725Y767287D01*
X674972Y768268D01*
X675659Y769458D01*
X675900Y769427D01*
X678119Y769719D01*
X680187Y770575D01*
X681962Y771938D01*
X683325Y773713D01*
X684181Y775781D01*
X684473Y778000D01*
X684181Y780219D01*
X683325Y782287D01*
X681962Y784062D01*
X680187Y785425D01*
X678119Y786281D01*
X675900Y786573D01*
D02*
G37*
G36*
X527470Y785155D02*
X524298Y784737D01*
X521343Y783513D01*
X518805Y781565D01*
X516857Y779027D01*
X515633Y776072D01*
X515215Y772900D01*
X515633Y769728D01*
X516857Y766773D01*
X518805Y764234D01*
X521343Y762287D01*
X521353Y762283D01*
X520982Y761061D01*
X520750Y761108D01*
X518604Y760681D01*
X516785Y759465D01*
X515569Y757646D01*
X515142Y755500D01*
X515569Y753354D01*
X516785Y751535D01*
X518604Y750319D01*
X520750Y749892D01*
X522896Y750319D01*
X524715Y751535D01*
X525931Y753354D01*
X526358Y755500D01*
X525931Y757646D01*
X524715Y759465D01*
X524228Y759791D01*
X524687Y761012D01*
X527470Y760645D01*
X530642Y761063D01*
X533597Y762287D01*
X536135Y764234D01*
X538083Y766773D01*
X539307Y769728D01*
X539725Y772900D01*
X539307Y776072D01*
X538083Y779027D01*
X536135Y781565D01*
X533597Y783513D01*
X530642Y784737D01*
X527470Y785155D01*
D02*
G37*
G36*
X717930D02*
X714758Y784737D01*
X711803Y783513D01*
X709265Y781565D01*
X707317Y779027D01*
X706093Y776072D01*
X705675Y772900D01*
X706093Y769728D01*
X707317Y766773D01*
X709265Y764234D01*
X711803Y762287D01*
X714758Y761063D01*
X717930Y760645D01*
X721102Y761063D01*
X724057Y762287D01*
X726596Y764234D01*
X728543Y766773D01*
X729767Y769728D01*
X730185Y772900D01*
X729767Y776072D01*
X728543Y779027D01*
X726596Y781565D01*
X724057Y783513D01*
X721102Y784737D01*
X717930Y785155D01*
D02*
G37*
G36*
X333000Y792197D02*
X329089Y791811D01*
X325328Y790670D01*
X321863Y788818D01*
X318825Y786325D01*
X316332Y783287D01*
X314479Y779821D01*
X313339Y776061D01*
X312953Y772150D01*
X313339Y768239D01*
X314479Y764479D01*
X316332Y761013D01*
X318825Y757975D01*
X321863Y755482D01*
X325328Y753629D01*
X329089Y752489D01*
X333000Y752103D01*
X336911Y752489D01*
X340671Y753629D01*
X344137Y755482D01*
X347175Y757975D01*
X349668Y761013D01*
X351521Y764479D01*
X352661Y768239D01*
X353046Y772150D01*
X352661Y776061D01*
X351521Y779821D01*
X349668Y783287D01*
X347175Y786325D01*
X344137Y788818D01*
X340671Y790670D01*
X336911Y791811D01*
X333000Y792197D01*
D02*
G37*
G36*
X400600Y784097D02*
X396689Y783711D01*
X392929Y782570D01*
X389463Y780718D01*
X386425Y778225D01*
X383932Y775187D01*
X382079Y771721D01*
X380939Y767961D01*
X380553Y764050D01*
X380939Y760139D01*
X382079Y756378D01*
X383932Y752913D01*
X386425Y749875D01*
X389463Y747382D01*
X392929Y745529D01*
X396689Y744389D01*
X400600Y744003D01*
X404511Y744389D01*
X408271Y745529D01*
X411737Y747382D01*
X414775Y749875D01*
X417268Y752913D01*
X419120Y756378D01*
X420261Y760139D01*
X420647Y764050D01*
X420261Y767961D01*
X419120Y771721D01*
X417268Y775187D01*
X414775Y778225D01*
X411737Y780718D01*
X408271Y782570D01*
X404511Y783711D01*
X400600Y784097D01*
D02*
G37*
G36*
X265400D02*
X261489Y783711D01*
X257729Y782570D01*
X254263Y780718D01*
X251225Y778225D01*
X248732Y775187D01*
X246879Y771721D01*
X245739Y767961D01*
X245354Y764050D01*
X245739Y760139D01*
X246879Y756378D01*
X248732Y752913D01*
X251225Y749875D01*
X254263Y747382D01*
X257729Y745529D01*
X261489Y744389D01*
X265400Y744003D01*
X269311Y744389D01*
X273071Y745529D01*
X276537Y747382D01*
X279575Y749875D01*
X282068Y752913D01*
X283920Y756378D01*
X285061Y760139D01*
X285446Y764050D01*
X285061Y767961D01*
X283920Y771721D01*
X282068Y775187D01*
X279575Y778225D01*
X276537Y780718D01*
X273071Y782570D01*
X269311Y783711D01*
X265400Y784097D01*
D02*
G37*
G36*
X133250Y754108D02*
X131104Y753681D01*
X129285Y752465D01*
X128069Y750646D01*
X127642Y748500D01*
X128069Y746354D01*
X129285Y744535D01*
X131104Y743319D01*
X133250Y742892D01*
X135396Y743319D01*
X137215Y744535D01*
X138431Y746354D01*
X138858Y748500D01*
X138431Y750646D01*
X137215Y752465D01*
X135396Y753681D01*
X133250Y754108D01*
D02*
G37*
G36*
X107250D02*
X105104Y753681D01*
X103285Y752465D01*
X102069Y750646D01*
X101642Y748500D01*
X102069Y746354D01*
X103285Y744535D01*
X105104Y743319D01*
X107250Y742892D01*
X109396Y743319D01*
X111215Y744535D01*
X112431Y746354D01*
X112858Y748500D01*
X112431Y750646D01*
X111215Y752465D01*
X109396Y753681D01*
X107250Y754108D01*
D02*
G37*
G36*
X367500Y742946D02*
Y735050D01*
X375396D01*
X375220Y736386D01*
X374318Y738564D01*
X372883Y740433D01*
X371014Y741868D01*
X368836Y742770D01*
X367500Y742946D01*
D02*
G37*
G36*
X365500D02*
X364164Y742770D01*
X361986Y741868D01*
X360117Y740433D01*
X358682Y738564D01*
X357780Y736386D01*
X357604Y735050D01*
X365500D01*
Y742946D01*
D02*
G37*
G36*
X375396Y733050D02*
X367500D01*
Y725154D01*
X368836Y725330D01*
X371014Y726232D01*
X372883Y727667D01*
X374318Y729536D01*
X375220Y731713D01*
X375396Y733050D01*
D02*
G37*
G36*
X365500D02*
X357604D01*
X357780Y731713D01*
X358682Y729536D01*
X360117Y727667D01*
X361986Y726232D01*
X364164Y725330D01*
X365500Y725154D01*
Y733050D01*
D02*
G37*
G36*
X624000Y735858D02*
X621854Y735431D01*
X620035Y734215D01*
X618819Y732396D01*
X618392Y730250D01*
X618819Y728104D01*
X620035Y726285D01*
X621854Y725069D01*
X624000Y724642D01*
X626146Y725069D01*
X627965Y726285D01*
X629181Y728104D01*
X629608Y730250D01*
X629181Y732396D01*
X627965Y734215D01*
X626146Y735431D01*
X624000Y735858D01*
D02*
G37*
G36*
X329450Y743500D02*
X310550D01*
Y724600D01*
X329450D01*
Y743500D01*
D02*
G37*
G36*
X346000Y743581D02*
X343533Y743257D01*
X341234Y742305D01*
X339260Y740790D01*
X337745Y738816D01*
X336793Y736517D01*
X336468Y734050D01*
X336793Y731583D01*
X337745Y729284D01*
X339260Y727310D01*
X341234Y725795D01*
X343533Y724843D01*
X346000Y724518D01*
X348467Y724843D01*
X350766Y725795D01*
X352740Y727310D01*
X354254Y729284D01*
X355207Y731583D01*
X355532Y734050D01*
X355207Y736517D01*
X354254Y738816D01*
X352740Y740790D01*
X350766Y742305D01*
X348467Y743257D01*
X346000Y743581D01*
D02*
G37*
G36*
X299500D02*
X297033Y743257D01*
X294734Y742305D01*
X292760Y740790D01*
X291245Y738816D01*
X290293Y736517D01*
X289968Y734050D01*
X290293Y731583D01*
X291245Y729284D01*
X292760Y727310D01*
X294734Y725795D01*
X297033Y724843D01*
X299500Y724518D01*
X301967Y724843D01*
X304266Y725795D01*
X306240Y727310D01*
X307754Y729284D01*
X308707Y731583D01*
X309032Y734050D01*
X308707Y736517D01*
X307754Y738816D01*
X306240Y740790D01*
X304266Y742305D01*
X301967Y743257D01*
X299500Y743581D01*
D02*
G37*
G36*
X598750Y734608D02*
X596604Y734181D01*
X594785Y732965D01*
X593569Y731146D01*
X593142Y729000D01*
X593569Y726854D01*
X594785Y725035D01*
X596604Y723819D01*
X598750Y723392D01*
X600896Y723819D01*
X602715Y725035D01*
X603931Y726854D01*
X604358Y729000D01*
X603931Y731146D01*
X602715Y732965D01*
X600896Y734181D01*
X598750Y734608D01*
D02*
G37*
G36*
X776350Y756957D02*
X773022Y756629D01*
X769822Y755659D01*
X766873Y754082D01*
X764289Y751961D01*
X762168Y749376D01*
X760591Y746428D01*
X759621Y743228D01*
X759293Y739900D01*
X759621Y736572D01*
X760591Y733372D01*
X762168Y730424D01*
X764289Y727839D01*
X766873Y725717D01*
X769822Y724141D01*
X773022Y723171D01*
X776350Y722843D01*
X779678Y723171D01*
X782878Y724141D01*
X785826Y725717D01*
X788411Y727839D01*
X790533Y730424D01*
X792109Y733372D01*
X793079Y736572D01*
X793407Y739900D01*
X793079Y743228D01*
X792109Y746428D01*
X790533Y749376D01*
X788411Y751961D01*
X785826Y754082D01*
X782878Y755659D01*
X779678Y756629D01*
X776350Y756957D01*
D02*
G37*
G36*
X469050D02*
X465722Y756629D01*
X462523Y755659D01*
X459574Y754082D01*
X456989Y751961D01*
X454868Y749376D01*
X453291Y746428D01*
X452321Y743228D01*
X451993Y739900D01*
X452321Y736572D01*
X453291Y733372D01*
X454868Y730424D01*
X456989Y727839D01*
X459574Y725717D01*
X462523Y724141D01*
X465722Y723171D01*
X469050Y722843D01*
X472378Y723171D01*
X475578Y724141D01*
X478526Y725717D01*
X481111Y727839D01*
X483232Y730424D01*
X484809Y733372D01*
X485779Y736572D01*
X486107Y739900D01*
X485779Y743228D01*
X484809Y746428D01*
X483232Y749376D01*
X481111Y751961D01*
X478526Y754082D01*
X475578Y755659D01*
X472378Y756629D01*
X469050Y756957D01*
D02*
G37*
G36*
X724750Y732108D02*
X722604Y731681D01*
X720785Y730465D01*
X719569Y728646D01*
X719142Y726500D01*
X719569Y724354D01*
X720785Y722535D01*
X722604Y721319D01*
X724750Y720892D01*
X726896Y721319D01*
X728715Y722535D01*
X729931Y724354D01*
X730358Y726500D01*
X729931Y728646D01*
X728715Y730465D01*
X726896Y731681D01*
X724750Y732108D01*
D02*
G37*
G36*
X236750Y726358D02*
X234604Y725931D01*
X232785Y724715D01*
X231569Y722896D01*
X231142Y720750D01*
X231569Y718604D01*
X232785Y716785D01*
X234604Y715569D01*
X236750Y715142D01*
X238896Y715569D01*
X240715Y716785D01*
X241931Y718604D01*
X242358Y720750D01*
X241931Y722896D01*
X240715Y724715D01*
X238896Y725931D01*
X236750Y726358D01*
D02*
G37*
G36*
X549000Y703649D02*
Y699750D01*
X552899D01*
X552710Y700701D01*
X551605Y702355D01*
X549951Y703460D01*
X549000Y703649D01*
D02*
G37*
G36*
X547000D02*
X546049Y703460D01*
X544395Y702355D01*
X543290Y700701D01*
X543101Y699750D01*
X547000D01*
Y703649D01*
D02*
G37*
G36*
X366500Y718681D02*
X364033Y718357D01*
X361734Y717404D01*
X359760Y715890D01*
X358245Y713916D01*
X357293Y711617D01*
X356968Y709150D01*
X357293Y706683D01*
X358245Y704384D01*
X359760Y702410D01*
X361734Y700895D01*
X364033Y699943D01*
X366500Y699618D01*
X368967Y699943D01*
X371266Y700895D01*
X373240Y702410D01*
X374754Y704384D01*
X375707Y706683D01*
X376031Y709150D01*
X375707Y711617D01*
X374754Y713916D01*
X373240Y715890D01*
X371266Y717404D01*
X368967Y718357D01*
X366500Y718681D01*
D02*
G37*
G36*
X299500D02*
X297033Y718357D01*
X294734Y717404D01*
X292760Y715890D01*
X291245Y713916D01*
X290293Y711617D01*
X289968Y709150D01*
X290293Y706683D01*
X291245Y704384D01*
X292760Y702410D01*
X294734Y700895D01*
X297033Y699943D01*
X299500Y699618D01*
X301967Y699943D01*
X304266Y700895D01*
X306240Y702410D01*
X307754Y704384D01*
X308707Y706683D01*
X309032Y709150D01*
X308707Y711617D01*
X307754Y713916D01*
X306240Y715890D01*
X304266Y717404D01*
X301967Y718357D01*
X299500Y718681D01*
D02*
G37*
G36*
X480000Y713573D02*
X477781Y713281D01*
X475713Y712425D01*
X473938Y711062D01*
X472575Y709287D01*
X471719Y707219D01*
X471427Y705000D01*
X471719Y702781D01*
X472575Y700713D01*
X473938Y698938D01*
X475713Y697575D01*
X477781Y696719D01*
X480000Y696427D01*
X482219Y696719D01*
X484287Y697575D01*
X486062Y698938D01*
X487425Y700713D01*
X488281Y702781D01*
X488573Y705000D01*
X488281Y707219D01*
X487425Y709287D01*
X486062Y711062D01*
X484287Y712425D01*
X482219Y713281D01*
X480000Y713573D01*
D02*
G37*
G36*
X413250Y707108D02*
X411104Y706681D01*
X409285Y705465D01*
X408069Y703646D01*
X407642Y701500D01*
X408069Y699354D01*
X409285Y697535D01*
X411104Y696319D01*
X413250Y695892D01*
X415396Y696319D01*
X417215Y697535D01*
X418431Y699354D01*
X418858Y701500D01*
X418431Y703646D01*
X417215Y705465D01*
X415396Y706681D01*
X413250Y707108D01*
D02*
G37*
G36*
X180200Y738704D02*
X175985Y738289D01*
X171933Y737059D01*
X168197Y735063D01*
X164924Y732376D01*
X162237Y729102D01*
X160240Y725368D01*
X159011Y721315D01*
X158596Y717100D01*
X159011Y712885D01*
X160240Y708832D01*
X162237Y705097D01*
X164924Y701824D01*
X168197Y699137D01*
X171933Y697141D01*
X175985Y695911D01*
X180200Y695496D01*
X184415Y695911D01*
X188468Y697141D01*
X192202Y699137D01*
X195476Y701824D01*
X198163Y705097D01*
X200159Y708832D01*
X201389Y712885D01*
X201804Y717100D01*
X201389Y721315D01*
X200159Y725368D01*
X198163Y729102D01*
X195476Y732376D01*
X192202Y735063D01*
X188468Y737059D01*
X184415Y738289D01*
X180200Y738704D01*
D02*
G37*
G36*
X59800D02*
X55585Y738289D01*
X51533Y737059D01*
X47797Y735063D01*
X44524Y732376D01*
X41837Y729102D01*
X39840Y725368D01*
X38611Y721315D01*
X38196Y717100D01*
X38611Y712885D01*
X39840Y708832D01*
X41837Y705097D01*
X44524Y701824D01*
X47797Y699137D01*
X51533Y697141D01*
X55585Y695911D01*
X59800Y695496D01*
X64015Y695911D01*
X68067Y697141D01*
X71803Y699137D01*
X75076Y701824D01*
X77763Y705097D01*
X79759Y708832D01*
X80989Y712885D01*
X81404Y717100D01*
X80989Y721315D01*
X79759Y725368D01*
X77763Y729102D01*
X75076Y732376D01*
X71803Y735063D01*
X68067Y737059D01*
X64015Y738289D01*
X59800Y738704D01*
D02*
G37*
G36*
X390500Y706108D02*
X388354Y705681D01*
X386535Y704465D01*
X385319Y702646D01*
X384892Y700500D01*
X385319Y698354D01*
X386535Y696535D01*
X388354Y695319D01*
X390500Y694892D01*
X392646Y695319D01*
X394465Y696535D01*
X395681Y698354D01*
X396108Y700500D01*
X395681Y702646D01*
X394465Y704465D01*
X392646Y705681D01*
X390500Y706108D01*
D02*
G37*
G36*
X552899Y697750D02*
X549000D01*
Y693851D01*
X549951Y694040D01*
X551605Y695145D01*
X552710Y696799D01*
X552899Y697750D01*
D02*
G37*
G36*
X547000D02*
X543101D01*
X543290Y696799D01*
X544395Y695145D01*
X546049Y694040D01*
X547000Y693851D01*
Y697750D01*
D02*
G37*
G36*
X444000Y704858D02*
X441854Y704431D01*
X440035Y703215D01*
X438819Y701396D01*
X438392Y699250D01*
X438819Y697104D01*
X440035Y695285D01*
X441854Y694069D01*
X444000Y693642D01*
X446146Y694069D01*
X447965Y695285D01*
X449181Y697104D01*
X449608Y699250D01*
X449181Y701396D01*
X447965Y703215D01*
X446146Y704431D01*
X444000Y704858D01*
D02*
G37*
G36*
X107500Y700591D02*
X104759Y700230D01*
X102205Y699172D01*
X100011Y697489D01*
X98328Y695295D01*
X97270Y692741D01*
X96909Y690000D01*
X97270Y687259D01*
X98328Y684705D01*
X100011Y682511D01*
X101629Y681270D01*
X101198Y680000D01*
X97500D01*
Y671000D01*
X107500D01*
X117500D01*
Y680000D01*
X113802D01*
X113371Y681270D01*
X114989Y682511D01*
X116672Y684705D01*
X117730Y687259D01*
X118090Y690000D01*
X117730Y692741D01*
X116672Y695295D01*
X114989Y697489D01*
X112795Y699172D01*
X110241Y700230D01*
X107500Y700591D01*
D02*
G37*
G36*
X52000Y675108D02*
X49854Y674681D01*
X48035Y673465D01*
X46819Y671646D01*
X46392Y669500D01*
X46819Y667354D01*
X48035Y665535D01*
X49854Y664319D01*
X52000Y663892D01*
X54146Y664319D01*
X55965Y665535D01*
X57181Y667354D01*
X57608Y669500D01*
X57181Y671646D01*
X55965Y673465D01*
X54146Y674681D01*
X52000Y675108D01*
D02*
G37*
G36*
X117500Y669000D02*
X108500D01*
Y660000D01*
X117500D01*
Y669000D01*
D02*
G37*
G36*
X106500D02*
X97500D01*
Y660000D01*
X106500D01*
Y669000D01*
D02*
G37*
G36*
X132500Y700591D02*
X129759Y700230D01*
X127205Y699172D01*
X125011Y697489D01*
X123328Y695295D01*
X122270Y692741D01*
X121909Y690000D01*
X122270Y687259D01*
X123328Y684705D01*
X125011Y682511D01*
X127205Y680828D01*
X127671Y680635D01*
Y679365D01*
X127205Y679172D01*
X125011Y677489D01*
X123328Y675295D01*
X122270Y672741D01*
X121909Y670000D01*
X122270Y667259D01*
X123328Y664705D01*
X125011Y662511D01*
X127205Y660828D01*
X129759Y659770D01*
X132500Y659409D01*
X135241Y659770D01*
X137795Y660828D01*
X139989Y662511D01*
X141672Y664705D01*
X142730Y667259D01*
X143090Y670000D01*
X142730Y672741D01*
X141672Y675295D01*
X139989Y677489D01*
X137795Y679172D01*
X137329Y679365D01*
Y680635D01*
X137795Y680828D01*
X139989Y682511D01*
X141672Y684705D01*
X142730Y687259D01*
X143090Y690000D01*
X142730Y692741D01*
X141672Y695295D01*
X139989Y697489D01*
X137795Y699172D01*
X135241Y700230D01*
X132500Y700591D01*
D02*
G37*
G36*
X191750Y662399D02*
Y658500D01*
X195649D01*
X195460Y659451D01*
X194355Y661105D01*
X192701Y662210D01*
X191750Y662399D01*
D02*
G37*
G36*
X189750D02*
X188799Y662210D01*
X187145Y661105D01*
X186040Y659451D01*
X185851Y658500D01*
X189750D01*
Y662399D01*
D02*
G37*
G36*
X195649Y656500D02*
X191750D01*
Y652601D01*
X192701Y652790D01*
X194355Y653895D01*
X195460Y655549D01*
X195649Y656500D01*
D02*
G37*
G36*
X189750D02*
X185851D01*
X186040Y655549D01*
X187145Y653895D01*
X188799Y652790D01*
X189750Y652601D01*
Y656500D01*
D02*
G37*
G36*
X178500Y650437D02*
Y643500D01*
X185437D01*
X185294Y644588D01*
X184488Y646535D01*
X183206Y648206D01*
X181535Y649488D01*
X179588Y650294D01*
X178500Y650437D01*
D02*
G37*
G36*
X176500D02*
X175412Y650294D01*
X173465Y649488D01*
X171794Y648206D01*
X170512Y646535D01*
X169706Y644588D01*
X169563Y643500D01*
X176500D01*
Y650437D01*
D02*
G37*
G36*
X185437Y641500D02*
X178500D01*
Y634563D01*
X179588Y634706D01*
X181535Y635512D01*
X183206Y636794D01*
X184488Y638465D01*
X185294Y640412D01*
X185437Y641500D01*
D02*
G37*
G36*
X176500D02*
X169563D01*
X169706Y640412D01*
X170512Y638465D01*
X171794Y636794D01*
X173465Y635512D01*
X175412Y634706D01*
X176500Y634563D01*
Y641500D01*
D02*
G37*
G36*
X90000Y635608D02*
X87854Y635181D01*
X86035Y633965D01*
X84819Y632146D01*
X84392Y630000D01*
X84819Y627854D01*
X86035Y626035D01*
X87854Y624819D01*
X90000Y624392D01*
X92146Y624819D01*
X93965Y626035D01*
X95181Y627854D01*
X95608Y630000D01*
X95181Y632146D01*
X93965Y633965D01*
X92146Y635181D01*
X90000Y635608D01*
D02*
G37*
G36*
X776250Y582649D02*
Y578750D01*
X780149D01*
X779960Y579701D01*
X778855Y581355D01*
X777201Y582460D01*
X776250Y582649D01*
D02*
G37*
G36*
X774250D02*
X773299Y582460D01*
X771645Y581355D01*
X770540Y579701D01*
X770351Y578750D01*
X774250D01*
Y582649D01*
D02*
G37*
G36*
X286500Y576899D02*
Y573000D01*
X290399D01*
X290210Y573951D01*
X289105Y575605D01*
X287451Y576710D01*
X286500Y576899D01*
D02*
G37*
G36*
X284500D02*
X283549Y576710D01*
X281895Y575605D01*
X280790Y573951D01*
X280601Y573000D01*
X284500D01*
Y576899D01*
D02*
G37*
G36*
X780149Y576750D02*
X776250D01*
Y572851D01*
X777201Y573040D01*
X778855Y574145D01*
X779960Y575799D01*
X780149Y576750D01*
D02*
G37*
G36*
X774250D02*
X770351D01*
X770540Y575799D01*
X771645Y574145D01*
X773299Y573040D01*
X774250Y572851D01*
Y576750D01*
D02*
G37*
G36*
X290399Y571000D02*
X286500D01*
Y567101D01*
X287451Y567290D01*
X289105Y568395D01*
X290210Y570049D01*
X290399Y571000D01*
D02*
G37*
G36*
X284500D02*
X280601D01*
X280790Y570049D01*
X281895Y568395D01*
X283549Y567290D01*
X284500Y567101D01*
Y571000D01*
D02*
G37*
G36*
X278750Y563649D02*
Y559750D01*
X282649D01*
X282460Y560701D01*
X281355Y562355D01*
X279701Y563460D01*
X278750Y563649D01*
D02*
G37*
G36*
X276750D02*
X275799Y563460D01*
X274145Y562355D01*
X273040Y560701D01*
X272851Y559750D01*
X276750D01*
Y563649D01*
D02*
G37*
G36*
X282649Y557750D02*
X278750D01*
Y553851D01*
X279701Y554040D01*
X281355Y555145D01*
X282460Y556799D01*
X282649Y557750D01*
D02*
G37*
G36*
X276750D02*
X272851D01*
X273040Y556799D01*
X274145Y555145D01*
X275799Y554040D01*
X276750Y553851D01*
Y557750D01*
D02*
G37*
G36*
X776000Y557149D02*
Y553250D01*
X779899D01*
X779710Y554201D01*
X778605Y555855D01*
X776951Y556960D01*
X776000Y557149D01*
D02*
G37*
G36*
X774000D02*
X773049Y556960D01*
X771395Y555855D01*
X770290Y554201D01*
X770101Y553250D01*
X774000D01*
Y557149D01*
D02*
G37*
G36*
X779899Y551250D02*
X776000D01*
Y547351D01*
X776951Y547540D01*
X778605Y548645D01*
X779710Y550299D01*
X779899Y551250D01*
D02*
G37*
G36*
X774000D02*
X770101D01*
X770290Y550299D01*
X771395Y548645D01*
X773049Y547540D01*
X774000Y547351D01*
Y551250D01*
D02*
G37*
G36*
X785000Y342149D02*
Y338250D01*
X788899D01*
X788710Y339201D01*
X787605Y340855D01*
X785951Y341960D01*
X785000Y342149D01*
D02*
G37*
G36*
X783000D02*
X782049Y341960D01*
X780395Y340855D01*
X779290Y339201D01*
X779101Y338250D01*
X783000D01*
Y342149D01*
D02*
G37*
G36*
X788899Y336250D02*
X785000D01*
Y332351D01*
X785951Y332540D01*
X787605Y333645D01*
X788710Y335299D01*
X788899Y336250D01*
D02*
G37*
G36*
X783000D02*
X779101D01*
X779290Y335299D01*
X780395Y333645D01*
X782049Y332540D01*
X783000Y332351D01*
Y336250D01*
D02*
G37*
G36*
X749000Y114450D02*
Y106000D01*
X757450D01*
X757255Y107480D01*
X756298Y109791D01*
X754775Y111775D01*
X752791Y113298D01*
X750480Y114255D01*
X749000Y114450D01*
D02*
G37*
G36*
X747000Y114450D02*
X745520Y114255D01*
X743209Y113298D01*
X741225Y111775D01*
X739702Y109791D01*
X738745Y107480D01*
X738550Y106000D01*
X747000D01*
Y114450D01*
D02*
G37*
G36*
Y104000D02*
X738550D01*
X738745Y102520D01*
X739702Y100209D01*
X741225Y98224D01*
X743209Y96702D01*
X745520Y95744D01*
X747000Y95550D01*
Y104000D01*
D02*
G37*
G36*
X757450D02*
X749000D01*
Y95550D01*
X750480Y95744D01*
X752791Y96702D01*
X754775Y98224D01*
X756298Y100209D01*
X757255Y102520D01*
X757450Y104000D01*
D02*
G37*
G36*
X759610Y26649D02*
X748612D01*
Y26402D01*
X736362D01*
Y14027D01*
X748612Y14027D01*
Y13152D01*
X759610D01*
Y14027D01*
X765112Y14027D01*
X765112Y26402D01*
X759610D01*
Y26649D01*
D02*
G37*
G36*
X557399Y-711800D02*
X543699D01*
X531300Y-771300D01*
X545600D01*
X546399Y-771200D01*
X547399D01*
X548400Y-771100D01*
X550700Y-770900D01*
X553200Y-770700D01*
X555700Y-770300D01*
X558200Y-769800D01*
X558400D01*
X558899Y-769600D01*
X559599Y-769400D01*
X560499Y-769100D01*
X561600Y-768700D01*
X562700Y-768300D01*
X565000Y-767100D01*
X565200Y-767000D01*
X565600Y-766700D01*
X566300Y-766100D01*
X567199Y-765400D01*
X568299Y-764500D01*
X569399Y-763400D01*
X570599Y-762200D01*
X571799Y-760800D01*
Y-760700D01*
X571999Y-760600D01*
X572199Y-760300D01*
X572499Y-759900D01*
X573199Y-758800D01*
X574099Y-757400D01*
X575099Y-755700D01*
X576199Y-753700D01*
X577199Y-751500D01*
X578199Y-749100D01*
Y-749000D01*
X578299Y-748800D01*
X578399Y-748400D01*
X578599Y-747900D01*
X578799Y-747300D01*
X578999Y-746600D01*
X579199Y-745700D01*
X579399Y-744700D01*
X579799Y-742500D01*
X580199Y-740000D01*
X580499Y-737200D01*
X580599Y-734100D01*
Y-734000D01*
Y-733700D01*
Y-733200D01*
Y-732500D01*
X580499Y-731800D01*
X580399Y-730900D01*
X580199Y-728800D01*
X579799Y-726500D01*
X579199Y-724100D01*
X578399Y-721800D01*
X577899Y-720700D01*
X577299Y-719700D01*
Y-719600D01*
X577199Y-719500D01*
X576699Y-718900D01*
X575999Y-718000D01*
X574999Y-717000D01*
X573799Y-715900D01*
X572399Y-714800D01*
X570799Y-713800D01*
X568999Y-713100D01*
X568799Y-713000D01*
X568299Y-712900D01*
X567399Y-712700D01*
X566100Y-712400D01*
X564500Y-712200D01*
X562500Y-712000D01*
X560099Y-711900D01*
X557399Y-711800D01*
D02*
G37*
G36*
X345800Y-711500D02*
Y-711600D01*
X345700Y-711800D01*
X345500Y-712200D01*
X345300Y-712700D01*
X345000Y-713300D01*
X344700Y-714100D01*
X344300Y-715000D01*
X343900Y-716000D01*
X343400Y-717100D01*
X342800Y-718300D01*
X341500Y-720900D01*
X339900Y-723900D01*
X338100Y-727200D01*
X325500Y-750000D01*
X351000D01*
X348000Y-730700D01*
Y-730600D01*
X347900Y-730200D01*
X347800Y-729600D01*
X347700Y-728800D01*
X347600Y-727800D01*
X347400Y-726700D01*
X347200Y-725400D01*
X347100Y-724000D01*
X346700Y-721000D01*
X346300Y-717700D01*
X346000Y-714500D01*
X345800Y-711500D01*
D02*
G37*
%LPD*%
D11*
X1620069Y-763933D02*
Y-777262D01*
X1626734Y-783927D01*
X1633398Y-777262D01*
Y-763933D01*
X1640063Y-783927D02*
X1646727D01*
X1643395D01*
Y-763933D01*
X1640063Y-767266D01*
X751069Y-689933D02*
Y-709927D01*
X761066D01*
X764398Y-706595D01*
Y-693266D01*
X761066Y-689933D01*
X751069D01*
X771063Y-709927D02*
Y-696598D01*
X777727Y-689933D01*
X784392Y-696598D01*
Y-709927D01*
Y-699930D01*
X771063D01*
X791056Y-709927D02*
Y-689933D01*
X801053D01*
X804385Y-693266D01*
Y-699930D01*
X801053Y-703262D01*
X791056D01*
X797721D02*
X804385Y-709927D01*
X749069Y-613933D02*
Y-633927D01*
X759066D01*
X762398Y-630595D01*
Y-617266D01*
X759066Y-613933D01*
X749069D01*
X769063Y-633927D02*
Y-620598D01*
X775727Y-613933D01*
X782392Y-620598D01*
Y-633927D01*
Y-623930D01*
X769063D01*
X789056Y-633927D02*
Y-613933D01*
X799053D01*
X802385Y-617266D01*
Y-623930D01*
X799053Y-627262D01*
X789056D01*
X795721D02*
X802385Y-633927D01*
X1089069Y-640927D02*
Y-620933D01*
X1095733Y-627598D01*
X1102398Y-620933D01*
Y-640927D01*
X1109063Y-620933D02*
Y-640927D01*
X1119059D01*
X1122392Y-637595D01*
Y-634263D01*
X1119059Y-630930D01*
X1109063D01*
X1119059D01*
X1122392Y-627598D01*
Y-624266D01*
X1119059Y-620933D01*
X1109063D01*
X1142385Y-640927D02*
X1129056D01*
X1142385Y-627598D01*
Y-624266D01*
X1139053Y-620933D01*
X1132388D01*
X1129056Y-624266D01*
X1149050Y-620933D02*
Y-640927D01*
Y-634263D01*
X1162379Y-620933D01*
X1152382Y-630930D01*
X1162379Y-640927D01*
X1182372D02*
X1169043D01*
X1182372Y-627598D01*
Y-624266D01*
X1179040Y-620933D01*
X1172375D01*
X1169043Y-624266D01*
X1209030Y-620933D02*
Y-634263D01*
X1215695Y-640927D01*
X1222359Y-634263D01*
Y-620933D01*
X1229024Y-640927D02*
X1235688D01*
X1232356D01*
Y-620933D01*
X1229024Y-624266D01*
X1245685Y-640927D02*
Y-627598D01*
X1252350Y-620933D01*
X1259014Y-627598D01*
Y-640927D01*
Y-630930D01*
X1245685D01*
D14*
X390655Y-30268D02*
Y-20271D01*
X393987Y-23603D01*
X397319Y-20271D01*
Y-30268D01*
X400652D02*
X403984D01*
X402318D01*
Y-23603D01*
X400652D01*
X415647Y-20271D02*
Y-30268D01*
X410649D01*
X408982Y-28602D01*
Y-25270D01*
X410649Y-23603D01*
X415647D01*
X428976Y-20271D02*
Y-30268D01*
X435640D01*
X440639Y-23603D02*
X443971D01*
X445637Y-25270D01*
Y-30268D01*
X440639D01*
X438973Y-28602D01*
X440639Y-26936D01*
X445637D01*
X448969Y-23603D02*
Y-28602D01*
X450636Y-30268D01*
X455634D01*
Y-31934D01*
X453968Y-33600D01*
X452302D01*
X455634Y-30268D02*
Y-23603D01*
X463965Y-30268D02*
X460633D01*
X458966Y-28602D01*
Y-25270D01*
X460633Y-23603D01*
X463965D01*
X465631Y-25270D01*
Y-26936D01*
X458966D01*
X468963Y-23603D02*
Y-30268D01*
Y-26936D01*
X470629Y-25270D01*
X472295Y-23603D01*
X473961D01*
X495621Y-30268D02*
X488957D01*
X495621Y-23603D01*
Y-21937D01*
X493955Y-20271D01*
X490623D01*
X488957Y-21937D01*
D16*
X751612Y22400D02*
X752862Y23649D01*
X755361D01*
X756610Y22400D01*
Y21150D01*
X755361Y19901D01*
X754111D01*
X755361D01*
X756610Y18651D01*
Y17401D01*
X755361Y16152D01*
X752862D01*
X751612Y17401D01*
D22*
X1084129Y-939377D02*
Y-888577D01*
X1001579D02*
Y-736177D01*
X1534979Y-888577D02*
Y-736177D01*
X620579Y-888577D02*
Y-583777D01*
X1763579Y-888577D02*
Y-583777D01*
X1001579D02*
X1763579D01*
X1001579Y-736177D02*
Y-583777D01*
X620579D02*
X1001579D01*
X620579Y-736177D02*
X1763579D01*
X620579Y-812377D02*
X1763579D01*
X620579Y-888577D02*
X1763579D01*
X620579Y-659977D02*
X1001579D01*
X264979Y-583777D02*
X620579D01*
X264979Y-888577D02*
Y-583777D01*
Y-888577D02*
X620579D01*
X353879Y-939377D02*
Y-888577D01*
X-376371Y-939377D02*
Y-888577D01*
X-1106621Y-456777D02*
X-1055821D01*
X-1106621Y25823D02*
X-1055821D01*
X-1106621Y508423D02*
X-1055821D01*
X-1106621Y-939377D02*
Y991023D01*
X1763579Y-456777D02*
X1814379D01*
X353879Y940223D02*
Y991023D01*
X-376371Y940223D02*
Y991023D01*
X-1055821Y940223D02*
X1763579D01*
Y-888577D02*
Y940223D01*
X-1055821Y-888577D02*
X1763579D01*
X-1055821D02*
Y940223D01*
X-1106621Y991023D02*
X1814379D01*
Y-939377D02*
Y991023D01*
X-1106621Y-939377D02*
X1814379D01*
X1555297Y-827982D02*
X1554209Y-826894D01*
X1552576Y-826349D01*
X1550400D01*
X1548767Y-826894D01*
X1547679Y-827982D01*
Y-829070D01*
X1548223Y-830159D01*
X1548767Y-830703D01*
X1549856Y-831247D01*
X1553121Y-832335D01*
X1554209Y-832879D01*
X1554753Y-833424D01*
X1555297Y-834512D01*
Y-836144D01*
X1554209Y-837233D01*
X1552576Y-837777D01*
X1550400D01*
X1548767Y-837233D01*
X1547679Y-836144D01*
X1566017Y-829070D02*
X1565473Y-827982D01*
X1564385Y-826894D01*
X1563297Y-826349D01*
X1561120D01*
X1560032Y-826894D01*
X1558943Y-827982D01*
X1558399Y-829070D01*
X1557855Y-830703D01*
Y-833424D01*
X1558399Y-835056D01*
X1558943Y-836144D01*
X1560032Y-837233D01*
X1561120Y-837777D01*
X1563297D01*
X1564385Y-837233D01*
X1565473Y-836144D01*
X1566017Y-835056D01*
X1577935Y-837777D02*
X1573582Y-826349D01*
X1569228Y-837777D01*
X1570861Y-833968D02*
X1576302D01*
X1580601Y-826349D02*
Y-837777D01*
X1587131D01*
X1595457Y-826349D02*
X1588383D01*
Y-837777D01*
X1595457D01*
X1588383Y-831791D02*
X1592736D01*
X1597906Y-830159D02*
X1597362Y-830703D01*
X1597906Y-831247D01*
X1598450Y-830703D01*
X1597906Y-830159D01*
Y-836689D02*
X1597362Y-837233D01*
X1597906Y-837777D01*
X1598450Y-837233D01*
X1597906Y-836689D01*
X633279Y-826349D02*
Y-837777D01*
Y-826349D02*
X640353D01*
X633279Y-831791D02*
X637632D01*
X641659Y-826349D02*
Y-837777D01*
X644054Y-826349D02*
Y-837777D01*
X650584D01*
X658909Y-826349D02*
X651835D01*
Y-837777D01*
X658909D01*
X651835Y-831791D02*
X656189D01*
X669793Y-826349D02*
Y-837777D01*
Y-826349D02*
X677411Y-837777D01*
Y-826349D02*
Y-837777D01*
X689274D02*
X684921Y-826349D01*
X680567Y-837777D01*
X682200Y-833968D02*
X687642D01*
X691941Y-826349D02*
Y-837777D01*
Y-826349D02*
X696294Y-837777D01*
X700647Y-826349D02*
X696294Y-837777D01*
X700647Y-826349D02*
Y-837777D01*
X710986Y-826349D02*
X703912D01*
Y-837777D01*
X710986D01*
X703912Y-831791D02*
X708266D01*
X713435Y-830159D02*
X712891Y-830703D01*
X713435Y-831247D01*
X713979Y-830703D01*
X713435Y-830159D01*
Y-836689D02*
X712891Y-837233D01*
X713435Y-837777D01*
X713979Y-837233D01*
X713435Y-836689D01*
X633279Y-678665D02*
X638176D01*
X639809Y-678121D01*
X640353Y-677577D01*
X640897Y-676489D01*
Y-674856D01*
X640353Y-673768D01*
X639809Y-673224D01*
X638176Y-672680D01*
X633279D01*
Y-684107D01*
X651618Y-675400D02*
X651073Y-674312D01*
X649985Y-673224D01*
X648897Y-672680D01*
X646720D01*
X645632Y-673224D01*
X644543Y-674312D01*
X643999Y-675400D01*
X643455Y-677033D01*
Y-679754D01*
X643999Y-681386D01*
X644543Y-682475D01*
X645632Y-683563D01*
X646720Y-684107D01*
X648897D01*
X649985Y-683563D01*
X651073Y-682475D01*
X651618Y-681386D01*
X654828Y-672680D02*
Y-684107D01*
Y-672680D02*
X659726D01*
X661358Y-673224D01*
X661902Y-673768D01*
X662447Y-674856D01*
Y-675945D01*
X661902Y-677033D01*
X661358Y-677577D01*
X659726Y-678121D01*
X654828D02*
X659726D01*
X661358Y-678665D01*
X661902Y-679210D01*
X662447Y-680298D01*
Y-681930D01*
X661902Y-683019D01*
X661358Y-683563D01*
X659726Y-684107D01*
X654828D01*
X673983Y-672680D02*
Y-684107D01*
Y-672680D02*
X677792D01*
X679425Y-673224D01*
X680513Y-674312D01*
X681057Y-675400D01*
X681601Y-677033D01*
Y-679754D01*
X681057Y-681386D01*
X680513Y-682475D01*
X679425Y-683563D01*
X677792Y-684107D01*
X673983D01*
X691233Y-672680D02*
X684159D01*
Y-684107D01*
X691233D01*
X684159Y-678121D02*
X688512D01*
X700756Y-674312D02*
X699668Y-673224D01*
X698035Y-672680D01*
X695859D01*
X694226Y-673224D01*
X693138Y-674312D01*
Y-675400D01*
X693682Y-676489D01*
X694226Y-677033D01*
X695314Y-677577D01*
X698579Y-678665D01*
X699668Y-679210D01*
X700212Y-679754D01*
X700756Y-680842D01*
Y-682475D01*
X699668Y-683563D01*
X698035Y-684107D01*
X695859D01*
X694226Y-683563D01*
X693138Y-682475D01*
X703314Y-672680D02*
Y-684107D01*
X713870Y-675400D02*
X713326Y-674312D01*
X712238Y-673224D01*
X711150Y-672680D01*
X708973D01*
X707885Y-673224D01*
X706796Y-674312D01*
X706252Y-675400D01*
X705708Y-677033D01*
Y-679754D01*
X706252Y-681386D01*
X706796Y-682475D01*
X707885Y-683563D01*
X708973Y-684107D01*
X711150D01*
X712238Y-683563D01*
X713326Y-682475D01*
X713870Y-681386D01*
Y-679754D01*
X711150D02*
X713870D01*
X716482Y-672680D02*
Y-684107D01*
Y-672680D02*
X724101Y-684107D01*
Y-672680D02*
Y-684107D01*
X734331Y-672680D02*
X727257D01*
Y-684107D01*
X734331D01*
X727257Y-678121D02*
X731610D01*
X736236Y-672680D02*
Y-684107D01*
Y-672680D02*
X741133D01*
X742766Y-673224D01*
X743310Y-673768D01*
X743854Y-674856D01*
Y-675945D01*
X743310Y-677033D01*
X742766Y-677577D01*
X741133Y-678121D01*
X736236D01*
X740045D02*
X743854Y-684107D01*
X746956Y-676489D02*
X746412Y-677033D01*
X746956Y-677577D01*
X747500Y-677033D01*
X746956Y-676489D01*
Y-683019D02*
X746412Y-683563D01*
X746956Y-684107D01*
X747500Y-683563D01*
X746956Y-683019D01*
X1018088Y-597749D02*
Y-609177D01*
X1014279Y-597749D02*
X1021897D01*
X1023258D02*
Y-609177D01*
X1029461Y-597749D02*
Y-609177D01*
X1025652Y-597749D02*
X1033271D01*
X1034631D02*
Y-609177D01*
X1041161D01*
X1049487Y-597749D02*
X1042413D01*
Y-609177D01*
X1049487D01*
X1042413Y-603191D02*
X1046766D01*
X1051936Y-601559D02*
X1051391Y-602103D01*
X1051936Y-602647D01*
X1052480Y-602103D01*
X1051936Y-601559D01*
Y-608089D02*
X1051391Y-608633D01*
X1051936Y-609177D01*
X1052480Y-608633D01*
X1051936Y-608089D01*
X1014279Y-756135D02*
X1019176D01*
X1020809Y-755591D01*
X1021353Y-755047D01*
X1021897Y-753959D01*
Y-752326D01*
X1021353Y-751238D01*
X1020809Y-750694D01*
X1019176Y-750150D01*
X1014279D01*
Y-761577D01*
X1033162D02*
X1028808Y-750150D01*
X1024455Y-761577D01*
X1026087Y-757768D02*
X1031529D01*
X1035828Y-750150D02*
Y-761577D01*
Y-750150D02*
X1040726D01*
X1042358Y-750694D01*
X1042902Y-751238D01*
X1043447Y-752326D01*
Y-753415D01*
X1042902Y-754503D01*
X1042358Y-755047D01*
X1040726Y-755591D01*
X1035828D01*
X1039637D02*
X1043447Y-761577D01*
X1049813Y-750150D02*
Y-761577D01*
X1046004Y-750150D02*
X1053622D01*
X1063962D02*
Y-761577D01*
Y-750150D02*
X1071580Y-761577D01*
Y-750150D02*
Y-761577D01*
X1078001Y-750150D02*
X1076913Y-750694D01*
X1075825Y-751782D01*
X1075280Y-752870D01*
X1074736Y-754503D01*
Y-757224D01*
X1075280Y-758856D01*
X1075825Y-759945D01*
X1076913Y-761033D01*
X1078001Y-761577D01*
X1080178D01*
X1081266Y-761033D01*
X1082355Y-759945D01*
X1082899Y-758856D01*
X1083443Y-757224D01*
Y-754503D01*
X1082899Y-752870D01*
X1082355Y-751782D01*
X1081266Y-750694D01*
X1080178Y-750150D01*
X1078001D01*
X1086654Y-760489D02*
X1086109Y-761033D01*
X1086654Y-761577D01*
X1087198Y-761033D01*
X1086654Y-760489D01*
X1090245Y-753959D02*
X1089701Y-754503D01*
X1090245Y-755047D01*
X1090789Y-754503D01*
X1090245Y-753959D01*
Y-760489D02*
X1089701Y-761033D01*
X1090245Y-761577D01*
X1090789Y-761033D01*
X1090245Y-760489D01*
X640353Y-597749D02*
X633279D01*
Y-609177D01*
X640353D01*
X633279Y-603191D02*
X637632D01*
X642258Y-597749D02*
Y-609177D01*
Y-597749D02*
X649876Y-609177D01*
Y-597749D02*
Y-609177D01*
X661195Y-600470D02*
X660651Y-599382D01*
X659562Y-598294D01*
X658474Y-597749D01*
X656297D01*
X655209Y-598294D01*
X654121Y-599382D01*
X653577Y-600470D01*
X653032Y-602103D01*
Y-604824D01*
X653577Y-606456D01*
X654121Y-607545D01*
X655209Y-608633D01*
X656297Y-609177D01*
X658474D01*
X659562Y-608633D01*
X660651Y-607545D01*
X661195Y-606456D01*
Y-604824D01*
X658474D02*
X661195D01*
X663807Y-597749D02*
Y-609177D01*
X666201Y-597749D02*
Y-609177D01*
Y-597749D02*
X673820Y-609177D01*
Y-597749D02*
Y-609177D01*
X684050Y-597749D02*
X676976D01*
Y-609177D01*
X684050D01*
X676976Y-603191D02*
X681329D01*
X693029Y-597749D02*
X685955D01*
Y-609177D01*
X693029D01*
X685955Y-603191D02*
X690308D01*
X694933Y-597749D02*
Y-609177D01*
Y-597749D02*
X699831D01*
X701463Y-598294D01*
X702008Y-598838D01*
X702552Y-599926D01*
Y-601015D01*
X702008Y-602103D01*
X701463Y-602647D01*
X699831Y-603191D01*
X694933D01*
X698743D02*
X702552Y-609177D01*
X705654Y-601559D02*
X705109Y-602103D01*
X705654Y-602647D01*
X706198Y-602103D01*
X705654Y-601559D01*
Y-608089D02*
X705109Y-608633D01*
X705654Y-609177D01*
X706198Y-608633D01*
X705654Y-608089D01*
X1014279Y-826349D02*
Y-837777D01*
Y-826349D02*
X1018088D01*
X1019721Y-826894D01*
X1020809Y-827982D01*
X1021353Y-829070D01*
X1021897Y-830703D01*
Y-833424D01*
X1021353Y-835056D01*
X1020809Y-836144D01*
X1019721Y-837233D01*
X1018088Y-837777D01*
X1014279D01*
X1024455Y-826349D02*
X1027176Y-837777D01*
X1029897Y-826349D02*
X1027176Y-837777D01*
X1029897Y-826349D02*
X1032617Y-837777D01*
X1035338Y-826349D02*
X1032617Y-837777D01*
X1045786Y-829070D02*
X1045242Y-827982D01*
X1044154Y-826894D01*
X1043066Y-826349D01*
X1040889D01*
X1039800Y-826894D01*
X1038712Y-827982D01*
X1038168Y-829070D01*
X1037624Y-830703D01*
Y-833424D01*
X1038168Y-835056D01*
X1038712Y-836144D01*
X1039800Y-837233D01*
X1040889Y-837777D01*
X1043066D01*
X1044154Y-837233D01*
X1045242Y-836144D01*
X1045786Y-835056D01*
Y-833424D01*
X1043066D02*
X1045786D01*
X1057377Y-826349D02*
Y-837777D01*
Y-826349D02*
X1064996Y-837777D01*
Y-826349D02*
Y-837777D01*
X1071417Y-826349D02*
X1070328Y-826894D01*
X1069240Y-827982D01*
X1068696Y-829070D01*
X1068152Y-830703D01*
Y-833424D01*
X1068696Y-835056D01*
X1069240Y-836144D01*
X1070328Y-837233D01*
X1071417Y-837777D01*
X1073594D01*
X1074682Y-837233D01*
X1075770Y-836144D01*
X1076314Y-835056D01*
X1076859Y-833424D01*
Y-830703D01*
X1076314Y-829070D01*
X1075770Y-827982D01*
X1074682Y-826894D01*
X1073594Y-826349D01*
X1071417D01*
X1080069Y-830159D02*
X1079525Y-830703D01*
X1080069Y-831247D01*
X1080613Y-830703D01*
X1080069Y-830159D01*
Y-836689D02*
X1079525Y-837233D01*
X1080069Y-837777D01*
X1080613Y-837233D01*
X1080069Y-836689D01*
X1547679Y-750150D02*
Y-761577D01*
Y-750150D02*
X1552576D01*
X1554209Y-750694D01*
X1554753Y-751238D01*
X1555297Y-752326D01*
Y-753415D01*
X1554753Y-754503D01*
X1554209Y-755047D01*
X1552576Y-755591D01*
X1547679D01*
X1551488D02*
X1555297Y-761577D01*
X1564929Y-750150D02*
X1557855D01*
Y-761577D01*
X1564929D01*
X1557855Y-755591D02*
X1562208D01*
X1566834Y-750150D02*
X1571187Y-761577D01*
X1575540Y-750150D02*
X1571187Y-761577D01*
X1577554Y-753959D02*
X1577010Y-754503D01*
X1577554Y-755047D01*
X1578098Y-754503D01*
X1577554Y-753959D01*
Y-760489D02*
X1577010Y-761033D01*
X1577554Y-761577D01*
X1578098Y-761033D01*
X1577554Y-760489D01*
X633279Y-750150D02*
Y-761577D01*
Y-750150D02*
X637088D01*
X638721Y-750694D01*
X639809Y-751782D01*
X640353Y-752870D01*
X640897Y-754503D01*
Y-757224D01*
X640353Y-758856D01*
X639809Y-759945D01*
X638721Y-761033D01*
X637088Y-761577D01*
X633279D01*
X652162D02*
X647808Y-750150D01*
X643455Y-761577D01*
X645088Y-757768D02*
X650529D01*
X658637Y-750150D02*
Y-761577D01*
X654828Y-750150D02*
X662447D01*
X670881D02*
X663807D01*
Y-761577D01*
X670881D01*
X663807Y-755591D02*
X668160D01*
X673330Y-753959D02*
X672786Y-754503D01*
X673330Y-755047D01*
X673874Y-754503D01*
X673330Y-753959D01*
Y-760489D02*
X672786Y-761033D01*
X673330Y-761577D01*
X673874Y-761033D01*
X673330Y-760489D01*
D23*
X645979Y-850481D02*
Y-868257D01*
Y-850481D02*
X652751Y-868257D01*
X659523Y-850481D02*
X652751Y-868257D01*
X659523Y-850481D02*
Y-868257D01*
X664602Y-850481D02*
Y-868257D01*
Y-850481D02*
X672220D01*
X674760Y-851327D01*
X675606Y-852174D01*
X676452Y-853867D01*
Y-855560D01*
X675606Y-857253D01*
X674760Y-858099D01*
X672220Y-858946D01*
X664602D02*
X672220D01*
X674760Y-859792D01*
X675606Y-860639D01*
X676452Y-862332D01*
Y-864871D01*
X675606Y-866564D01*
X674760Y-867411D01*
X672220Y-868257D01*
X664602D01*
X681277Y-854713D02*
Y-853867D01*
X682124Y-852174D01*
X682970Y-851327D01*
X684663Y-850481D01*
X688049D01*
X689742Y-851327D01*
X690589Y-852174D01*
X691435Y-853867D01*
Y-855560D01*
X690589Y-857253D01*
X688896Y-859792D01*
X680431Y-868257D01*
X692282D01*
X696260Y-850481D02*
Y-868257D01*
X708111Y-850481D02*
X696260Y-862332D01*
X700493Y-858099D02*
X708111Y-868257D01*
X712936Y-854713D02*
Y-853867D01*
X713783Y-852174D01*
X714629Y-851327D01*
X716322Y-850481D01*
X719708D01*
X721401Y-851327D01*
X722247Y-852174D01*
X723094Y-853867D01*
Y-855560D01*
X722247Y-857253D01*
X720554Y-859792D01*
X712089Y-868257D01*
X723940D01*
X727919Y-874182D02*
X741463D01*
X743748Y-850481D02*
X750520Y-868257D01*
X757292Y-850481D02*
X750520Y-868257D01*
X759577Y-853867D02*
X761270Y-853020D01*
X763810Y-850481D01*
Y-868257D01*
X773460Y-866564D02*
X772613Y-867411D01*
X773460Y-868257D01*
X774306Y-867411D01*
X773460Y-866564D01*
X778200Y-859792D02*
X785818D01*
X788358Y-858946D01*
X789204Y-858099D01*
X790051Y-856406D01*
Y-853867D01*
X789204Y-852174D01*
X788358Y-851327D01*
X785818Y-850481D01*
X778200D01*
Y-868257D01*
X804187Y-858946D02*
X802494Y-857253D01*
X800801Y-856406D01*
X798262D01*
X796569Y-857253D01*
X794876Y-858946D01*
X794029Y-861485D01*
Y-863178D01*
X794876Y-865717D01*
X796569Y-867411D01*
X798262Y-868257D01*
X800801D01*
X802494Y-867411D01*
X804187Y-865717D01*
X807996Y-850481D02*
Y-868257D01*
Y-858946D02*
X809689Y-857253D01*
X811382Y-856406D01*
X813922D01*
X815615Y-857253D01*
X817308Y-858946D01*
X818154Y-861485D01*
Y-863178D01*
X817308Y-865717D01*
X815615Y-867411D01*
X813922Y-868257D01*
X811382D01*
X809689Y-867411D01*
X807996Y-865717D01*
X821963Y-850481D02*
Y-868257D01*
Y-850481D02*
X827889D01*
X830428Y-851327D01*
X832121Y-853020D01*
X832968Y-854713D01*
X833814Y-857253D01*
Y-861485D01*
X832968Y-864025D01*
X832121Y-865717D01*
X830428Y-867411D01*
X827889Y-868257D01*
X821963D01*
X842025Y-856406D02*
X840332Y-857253D01*
X838639Y-858946D01*
X837793Y-861485D01*
Y-863178D01*
X838639Y-865717D01*
X840332Y-867411D01*
X842025Y-868257D01*
X844565D01*
X846257Y-867411D01*
X847950Y-865717D01*
X848797Y-863178D01*
Y-861485D01*
X847950Y-858946D01*
X846257Y-857253D01*
X844565Y-856406D01*
X842025D01*
X862849Y-858946D02*
X861156Y-857253D01*
X859463Y-856406D01*
X856923D01*
X855230Y-857253D01*
X853537Y-858946D01*
X852691Y-861485D01*
Y-863178D01*
X853537Y-865717D01*
X855230Y-867411D01*
X856923Y-868257D01*
X859463D01*
X861156Y-867411D01*
X862849Y-865717D01*
X656137Y-774281D02*
X647672D01*
X646825Y-781899D01*
X647672Y-781053D01*
X650211Y-780206D01*
X652751D01*
X655290Y-781053D01*
X656983Y-782746D01*
X657830Y-785285D01*
Y-786978D01*
X656983Y-789518D01*
X655290Y-791210D01*
X652751Y-792057D01*
X650211D01*
X647672Y-791210D01*
X646825Y-790364D01*
X645979Y-788671D01*
X661808Y-794596D02*
X673659Y-774281D01*
X685002Y-776820D02*
X684156Y-775127D01*
X681616Y-774281D01*
X679923D01*
X677384Y-775127D01*
X675691Y-777667D01*
X674844Y-781899D01*
Y-786132D01*
X675691Y-789518D01*
X677384Y-791210D01*
X679923Y-792057D01*
X680770D01*
X683309Y-791210D01*
X685002Y-789518D01*
X685848Y-786978D01*
Y-786132D01*
X685002Y-783592D01*
X683309Y-781899D01*
X680770Y-781053D01*
X679923D01*
X677384Y-781899D01*
X675691Y-783592D01*
X674844Y-786132D01*
X689742Y-794596D02*
X701593Y-774281D01*
X703625Y-778513D02*
Y-777667D01*
X704471Y-775974D01*
X705318Y-775127D01*
X707011Y-774281D01*
X710396D01*
X712089Y-775127D01*
X712936Y-775974D01*
X713783Y-777667D01*
Y-779360D01*
X712936Y-781053D01*
X711243Y-783592D01*
X702778Y-792057D01*
X714629D01*
X723686Y-774281D02*
X721147Y-775127D01*
X719454Y-777667D01*
X718607Y-781899D01*
Y-784439D01*
X719454Y-788671D01*
X721147Y-791210D01*
X723686Y-792057D01*
X725379D01*
X727919Y-791210D01*
X729612Y-788671D01*
X730458Y-784439D01*
Y-781899D01*
X729612Y-777667D01*
X727919Y-775127D01*
X725379Y-774281D01*
X723686D01*
X735283Y-778513D02*
Y-777667D01*
X736130Y-775974D01*
X736976Y-775127D01*
X738669Y-774281D01*
X742055D01*
X743748Y-775127D01*
X744594Y-775974D01*
X745441Y-777667D01*
Y-779360D01*
X744594Y-781053D01*
X742902Y-783592D01*
X734437Y-792057D01*
X746288D01*
X755345Y-774281D02*
X752805Y-775127D01*
X751113Y-777667D01*
X750266Y-781899D01*
Y-784439D01*
X751113Y-788671D01*
X752805Y-791210D01*
X755345Y-792057D01*
X757038D01*
X759577Y-791210D01*
X761270Y-788671D01*
X762117Y-784439D01*
Y-781899D01*
X761270Y-777667D01*
X759577Y-775127D01*
X757038Y-774281D01*
X755345D01*
X1451664Y-922867D02*
Y-905093D01*
X1442777Y-913980D01*
X1454626D01*
X713797Y-908055D02*
X716759Y-905093D01*
X722684D01*
X725647Y-908055D01*
Y-911018D01*
X722684Y-913980D01*
X719722D01*
X722684D01*
X725647Y-916942D01*
Y-919905D01*
X722684Y-922867D01*
X716759D01*
X713797Y-919905D01*
X-5874Y-922867D02*
X-17723D01*
X-5874Y-911018D01*
Y-908055D01*
X-8836Y-905093D01*
X-14761D01*
X-17723Y-908055D01*
X-744163Y-908477D02*
X-742470Y-907630D01*
X-739930Y-905091D01*
Y-922867D01*
X715490Y974509D02*
X724801D01*
X719722Y967737D01*
X722262D01*
X723955Y966891D01*
X724801Y966044D01*
X725648Y963505D01*
Y961812D01*
X724801Y959273D01*
X723108Y957579D01*
X720569Y956733D01*
X718029D01*
X715490Y957579D01*
X714643Y958426D01*
X713797Y960119D01*
X-16876Y970277D02*
Y971123D01*
X-16030Y972816D01*
X-15184Y973663D01*
X-13491Y974509D01*
X-10105D01*
X-8412Y973663D01*
X-7565Y972816D01*
X-6719Y971123D01*
Y969430D01*
X-7565Y967737D01*
X-9258Y965198D01*
X-17723Y956733D01*
X-5872D01*
X-744163Y971123D02*
X-742470Y971970D01*
X-739930Y974509D01*
Y956733D01*
X-1087571Y-701383D02*
Y-719159D01*
Y-701383D02*
X-1081646D01*
X-1079106Y-702229D01*
X-1077413Y-703922D01*
X-1076567Y-705615D01*
X-1075720Y-708155D01*
Y-712387D01*
X-1076567Y-714927D01*
X-1077413Y-716619D01*
X-1079106Y-718313D01*
X-1081646Y-719159D01*
X-1087571D01*
X-1074874Y-225555D02*
X-1075720Y-223862D01*
X-1077413Y-222169D01*
X-1079106Y-221323D01*
X-1082492D01*
X-1084185Y-222169D01*
X-1085878Y-223862D01*
X-1086724Y-225555D01*
X-1087571Y-228095D01*
Y-232327D01*
X-1086724Y-234867D01*
X-1085878Y-236560D01*
X-1084185Y-238253D01*
X-1082492Y-239099D01*
X-1079106D01*
X-1077413Y-238253D01*
X-1075720Y-236560D01*
X-1074874Y-234867D01*
X-1087571Y263817D02*
Y246041D01*
Y263817D02*
X-1079953D01*
X-1077413Y262971D01*
X-1076567Y262124D01*
X-1075720Y260431D01*
Y258738D01*
X-1076567Y257045D01*
X-1077413Y256199D01*
X-1079953Y255352D01*
X-1087571D02*
X-1079953D01*
X-1077413Y254506D01*
X-1076567Y253659D01*
X-1075720Y251966D01*
Y249427D01*
X-1076567Y247734D01*
X-1077413Y246887D01*
X-1079953Y246041D01*
X-1087571D01*
X-1074027Y726609D02*
X-1080799Y744385D01*
X-1087571Y726609D01*
X-1085032Y732534D02*
X-1076567D01*
X1782629Y-701383D02*
Y-719159D01*
Y-701383D02*
X1788554D01*
X1791094Y-702229D01*
X1792787Y-703922D01*
X1793633Y-705615D01*
X1794480Y-708155D01*
Y-712387D01*
X1793633Y-714927D01*
X1792787Y-716619D01*
X1791094Y-718313D01*
X1788554Y-719159D01*
X1782629D01*
D75*
X366500Y734050D02*
D03*
D98*
X250000Y323500D02*
D03*
X365500Y499250D02*
D03*
X177500Y642500D02*
D03*
D105*
X748000Y105000D02*
D03*
D110*
X107500Y670000D02*
D03*
D114*
X525250Y43000D02*
D03*
X96250Y306000D02*
D03*
X345250Y403250D02*
D03*
X345500Y381000D02*
D03*
X317250Y391250D02*
D03*
X227750Y505750D02*
D03*
X615000Y346750D02*
D03*
X616750Y610750D02*
D03*
X273250Y260750D02*
D03*
X245750Y619500D02*
D03*
X231250Y631500D02*
D03*
X187750Y195500D02*
D03*
X293250Y269500D02*
D03*
X383000Y290000D02*
D03*
X450500Y444500D02*
D03*
X378500Y444250D02*
D03*
X354500D02*
D03*
X345250Y351250D02*
D03*
X358500Y318000D02*
D03*
X378500D02*
D03*
X410500D02*
D03*
X438500D02*
D03*
X454500D02*
D03*
X471250Y351250D02*
D03*
Y383000D02*
D03*
Y407250D02*
D03*
X438500Y472250D02*
D03*
X414500D02*
D03*
X317250Y371250D02*
D03*
Y331250D02*
D03*
X422500Y290000D02*
D03*
X499750Y371250D02*
D03*
Y391250D02*
D03*
X775000Y552250D02*
D03*
X775250Y577750D02*
D03*
X497000Y594000D02*
D03*
X546250Y527000D02*
D03*
X784000Y337250D02*
D03*
X671750Y607000D02*
D03*
X662750Y517500D02*
D03*
X672250Y538000D02*
D03*
X500500Y327000D02*
D03*
X390250Y249000D02*
D03*
X190750Y657500D02*
D03*
X285500Y572000D02*
D03*
X277750Y558750D02*
D03*
X590250Y502250D02*
D03*
X499500Y427250D02*
D03*
X317500Y596500D02*
D03*
X154500Y246500D02*
D03*
X317750Y425500D02*
D03*
X548000Y698750D02*
D03*
X450750Y643000D02*
D03*
X605500Y193000D02*
D03*
D118*
X106125Y667875D02*
D03*
M02*
