G04*
G04 #@! TF.GenerationSoftware,Altium Limited,Altium Designer,20.1.7 (139)*
G04*
G04 Layer_Color=32896*
%FSLAX44Y44*%
%MOMM*%
G71*
G04*
G04 #@! TF.SameCoordinates,35BF2D9B-2704-4646-8845-34ABFBBC40B6*
G04*
G04*
G04 #@! TF.FilePolarity,Positive*
G04*
G01*
G75*
%ADD11C,0.2500*%
%ADD14C,0.2000*%
%ADD18C,0.1600*%
%ADD22C,0.1270*%
%ADD23C,0.1778*%
G36*
X410400Y-780000D02*
X399300D01*
X384600Y-703100D01*
X394500D01*
X403300Y-749000D01*
Y-749100D01*
X403400Y-749500D01*
X403500Y-750200D01*
X403700Y-751100D01*
X403900Y-752100D01*
X404100Y-753400D01*
X404400Y-754700D01*
X404700Y-756200D01*
X405200Y-759400D01*
X405800Y-762700D01*
X406200Y-766100D01*
X406400Y-767600D01*
X406600Y-769100D01*
X406700Y-769000D01*
X406800Y-768700D01*
X407100Y-768200D01*
X407400Y-767500D01*
X407800Y-766600D01*
X408300Y-765700D01*
X408800Y-764600D01*
X409400Y-763500D01*
X410600Y-761000D01*
X412000Y-758400D01*
X413300Y-755800D01*
X414500Y-753500D01*
X441900Y-703100D01*
X452400D01*
X410400Y-780000D01*
D02*
G37*
G36*
X561399Y-703200D02*
X563200Y-703300D01*
X565299Y-703400D01*
X567399Y-703600D01*
X569399Y-704000D01*
X571199Y-704400D01*
X571299D01*
X571499Y-704500D01*
X571799Y-704600D01*
X572299Y-704700D01*
X573399Y-705100D01*
X574899Y-705700D01*
X576599Y-706500D01*
X578399Y-707500D01*
X580199Y-708700D01*
X581899Y-710200D01*
X581999D01*
X582099Y-710400D01*
X582599Y-710900D01*
X583399Y-711800D01*
X584399Y-713000D01*
X585499Y-714500D01*
X586699Y-716300D01*
X587799Y-718300D01*
X588699Y-720600D01*
Y-720700D01*
X588799Y-720900D01*
X588899Y-721200D01*
X589099Y-721700D01*
X589199Y-722300D01*
X589399Y-723000D01*
X589599Y-723800D01*
X589899Y-724700D01*
X590299Y-726700D01*
X590599Y-729100D01*
X590899Y-731800D01*
X590999Y-734600D01*
Y-734700D01*
Y-735000D01*
Y-735500D01*
Y-736200D01*
X590899Y-737000D01*
Y-737900D01*
X590799Y-739000D01*
X590599Y-740200D01*
X590299Y-742800D01*
X589799Y-745600D01*
X589099Y-748600D01*
X588099Y-751500D01*
Y-751600D01*
X587999Y-751800D01*
X587799Y-752200D01*
X587599Y-752800D01*
X587299Y-753400D01*
X586999Y-754200D01*
X586099Y-756000D01*
X585099Y-758100D01*
X583799Y-760400D01*
X582399Y-762700D01*
X580799Y-764900D01*
Y-765000D01*
X580599Y-765200D01*
X580399Y-765500D01*
X579999Y-765900D01*
X579099Y-766900D01*
X577899Y-768200D01*
X576499Y-769700D01*
X574899Y-771200D01*
X573099Y-772700D01*
X571299Y-774000D01*
X571199D01*
X571099Y-774100D01*
X570799Y-774300D01*
X570399Y-774500D01*
X569399Y-775100D01*
X567999Y-775800D01*
X566300Y-776600D01*
X564300Y-777400D01*
X562099Y-778200D01*
X559599Y-778800D01*
X559399D01*
X559100Y-778900D01*
X558699Y-779000D01*
X558200Y-779100D01*
X557599Y-779200D01*
X556100Y-779400D01*
X554199Y-779600D01*
X552099Y-779800D01*
X549599Y-779900D01*
X546899Y-780000D01*
X519300D01*
X535299Y-703100D01*
X560600D01*
X561399Y-703200D01*
D02*
G37*
G36*
X517500Y-711800D02*
X471900D01*
X466900Y-735800D01*
X511600D01*
X509800Y-744500D01*
X465100D01*
X459500Y-771300D01*
X508100D01*
X506300Y-780000D01*
X447500D01*
X463600Y-703100D01*
X519300D01*
X517500Y-711800D01*
D02*
G37*
G36*
X365900Y-780000D02*
X355900D01*
X352200Y-757900D01*
X321100D01*
X308800Y-780000D01*
X297500D01*
X340900Y-703100D01*
X353200D01*
X365900Y-780000D01*
D02*
G37*
%LPC*%
G36*
X557399Y-711800D02*
X543699D01*
X531300Y-771300D01*
X545600D01*
X546399Y-771200D01*
X547399D01*
X548400Y-771100D01*
X550700Y-770900D01*
X553200Y-770700D01*
X555700Y-770300D01*
X558200Y-769800D01*
X558400D01*
X558899Y-769600D01*
X559599Y-769400D01*
X560499Y-769100D01*
X561600Y-768700D01*
X562700Y-768300D01*
X565000Y-767100D01*
X565200Y-767000D01*
X565600Y-766700D01*
X566300Y-766100D01*
X567199Y-765400D01*
X568299Y-764500D01*
X569399Y-763400D01*
X570599Y-762200D01*
X571799Y-760800D01*
Y-760700D01*
X571999Y-760600D01*
X572199Y-760300D01*
X572499Y-759900D01*
X573199Y-758800D01*
X574099Y-757400D01*
X575099Y-755700D01*
X576199Y-753700D01*
X577199Y-751500D01*
X578199Y-749100D01*
Y-749000D01*
X578299Y-748800D01*
X578399Y-748400D01*
X578599Y-747900D01*
X578799Y-747300D01*
X578999Y-746600D01*
X579199Y-745700D01*
X579399Y-744700D01*
X579799Y-742500D01*
X580199Y-740000D01*
X580499Y-737200D01*
X580599Y-734100D01*
Y-734000D01*
Y-733700D01*
Y-733200D01*
Y-732500D01*
X580499Y-731800D01*
X580399Y-730900D01*
X580199Y-728800D01*
X579799Y-726500D01*
X579199Y-724100D01*
X578399Y-721800D01*
X577899Y-720700D01*
X577299Y-719700D01*
Y-719600D01*
X577199Y-719500D01*
X576699Y-718900D01*
X575999Y-718000D01*
X574999Y-717000D01*
X573799Y-715900D01*
X572399Y-714800D01*
X570799Y-713800D01*
X568999Y-713100D01*
X568799Y-713000D01*
X568299Y-712900D01*
X567399Y-712700D01*
X566100Y-712400D01*
X564500Y-712200D01*
X562500Y-712000D01*
X560099Y-711900D01*
X557399Y-711800D01*
D02*
G37*
G36*
X345800Y-711500D02*
Y-711600D01*
X345700Y-711800D01*
X345500Y-712200D01*
X345300Y-712700D01*
X345000Y-713300D01*
X344700Y-714100D01*
X344300Y-715000D01*
X343900Y-716000D01*
X343400Y-717100D01*
X342800Y-718300D01*
X341500Y-720900D01*
X339900Y-723900D01*
X338100Y-727200D01*
X325500Y-750000D01*
X351000D01*
X348000Y-730700D01*
Y-730600D01*
X347900Y-730200D01*
X347800Y-729600D01*
X347700Y-728800D01*
X347600Y-727800D01*
X347400Y-726700D01*
X347200Y-725400D01*
X347100Y-724000D01*
X346700Y-721000D01*
X346300Y-717700D01*
X346000Y-714500D01*
X345800Y-711500D01*
D02*
G37*
%LPD*%
D11*
X1620069Y-763933D02*
Y-777262D01*
X1626734Y-783927D01*
X1633398Y-777262D01*
Y-763933D01*
X1640063Y-783927D02*
X1646727D01*
X1643395D01*
Y-763933D01*
X1640063Y-767266D01*
X751069Y-689933D02*
Y-709927D01*
X761066D01*
X764398Y-706595D01*
Y-693266D01*
X761066Y-689933D01*
X751069D01*
X771063Y-709927D02*
Y-696598D01*
X777727Y-689933D01*
X784392Y-696598D01*
Y-709927D01*
Y-699930D01*
X771063D01*
X791056Y-709927D02*
Y-689933D01*
X801053D01*
X804385Y-693266D01*
Y-699930D01*
X801053Y-703262D01*
X791056D01*
X797721D02*
X804385Y-709927D01*
X749069Y-613933D02*
Y-633927D01*
X759066D01*
X762398Y-630595D01*
Y-617266D01*
X759066Y-613933D01*
X749069D01*
X769063Y-633927D02*
Y-620598D01*
X775727Y-613933D01*
X782392Y-620598D01*
Y-633927D01*
Y-623930D01*
X769063D01*
X789056Y-633927D02*
Y-613933D01*
X799053D01*
X802385Y-617266D01*
Y-623930D01*
X799053Y-627262D01*
X789056D01*
X795721D02*
X802385Y-633927D01*
X1089069Y-640927D02*
Y-620933D01*
X1095733Y-627598D01*
X1102398Y-620933D01*
Y-640927D01*
X1109063Y-620933D02*
Y-640927D01*
X1119059D01*
X1122392Y-637595D01*
Y-634263D01*
X1119059Y-630930D01*
X1109063D01*
X1119059D01*
X1122392Y-627598D01*
Y-624266D01*
X1119059Y-620933D01*
X1109063D01*
X1142385Y-640927D02*
X1129056D01*
X1142385Y-627598D01*
Y-624266D01*
X1139053Y-620933D01*
X1132388D01*
X1129056Y-624266D01*
X1149050Y-620933D02*
Y-640927D01*
Y-634263D01*
X1162379Y-620933D01*
X1152382Y-630930D01*
X1162379Y-640927D01*
X1182372D02*
X1169043D01*
X1182372Y-627598D01*
Y-624266D01*
X1179040Y-620933D01*
X1172375D01*
X1169043Y-624266D01*
X1209030Y-620933D02*
Y-634263D01*
X1215695Y-640927D01*
X1222359Y-634263D01*
Y-620933D01*
X1229024Y-640927D02*
X1235688D01*
X1232356D01*
Y-620933D01*
X1229024Y-624266D01*
X1245685Y-640927D02*
Y-627598D01*
X1252350Y-620933D01*
X1259014Y-627598D01*
Y-640927D01*
Y-630930D01*
X1245685D01*
D14*
X292000Y396750D02*
X300000D01*
X292000Y385750D02*
X300000D01*
X534500Y731250D02*
Y739250D01*
X545500Y731250D02*
Y739250D01*
X554000Y731250D02*
Y739250D01*
X565000Y731250D02*
Y739250D01*
X575000Y731250D02*
Y739250D01*
X586000Y731250D02*
Y739250D01*
X674750Y724750D02*
X682750D01*
X674750Y735750D02*
X682750D01*
X515250Y731250D02*
Y739250D01*
X526250Y731250D02*
Y739250D01*
X138750Y723750D02*
Y731750D01*
X127750Y723750D02*
Y731750D01*
X101250Y724250D02*
Y731250D01*
X113250Y724250D02*
Y731250D01*
X419250Y719500D02*
Y726500D01*
X407250Y719500D02*
Y726500D01*
X396500Y719500D02*
Y726500D01*
X384500Y719500D02*
Y726500D01*
X71500Y664000D02*
X78500D01*
X71500Y676000D02*
X78500D01*
X195500Y176250D02*
X202500D01*
X195500Y188250D02*
X202500D01*
X300750Y261750D02*
X307750D01*
X300750Y249750D02*
X307750D01*
X607750Y332500D02*
Y339500D01*
X595750Y332500D02*
Y339500D01*
X609750Y596500D02*
Y603500D01*
X597750Y596500D02*
Y603500D01*
X512500Y617750D02*
Y624750D01*
X524500Y617750D02*
Y624750D01*
X352000Y358250D02*
Y365250D01*
X364000Y358250D02*
Y365250D01*
X445750Y336750D02*
X452750D01*
X445750Y324750D02*
X452750D01*
X372500Y334500D02*
Y341500D01*
X384500Y334500D02*
Y341500D01*
X447250Y345000D02*
X454250D01*
X447250Y357000D02*
X454250D01*
X457000Y421250D02*
Y428250D01*
X445000Y421250D02*
Y428250D01*
X384500Y420750D02*
Y427750D01*
X372500Y420750D02*
Y427750D01*
X362250Y404500D02*
X369250D01*
X362250Y392500D02*
X369250D01*
X404250Y334250D02*
Y341250D01*
X416250Y334250D02*
Y341250D01*
X447000Y377000D02*
X454000D01*
X447000Y389000D02*
X454000D01*
X759750Y331750D02*
X767750D01*
X759750Y342750D02*
X767750D01*
X760250Y534000D02*
X768250D01*
X760250Y545000D02*
X768250D01*
X760250Y559500D02*
X768250D01*
X760250Y570500D02*
X768250D01*
X760500Y585000D02*
X768500D01*
X760500Y596000D02*
X768500D01*
X325500Y704000D02*
Y712000D01*
X314500Y704000D02*
Y712000D01*
X172000Y252000D02*
X180000D01*
X172000Y241000D02*
X180000D01*
X287000Y694500D02*
Y702500D01*
X276000Y694500D02*
Y702500D01*
X296750Y178750D02*
X304750D01*
X296750Y167750D02*
X304750D01*
X296500Y154250D02*
X304500D01*
X296500Y143250D02*
X304500D01*
X591000Y157250D02*
X599000D01*
X591000Y146250D02*
X599000D01*
X591000Y131500D02*
X599000D01*
X591000Y120500D02*
X599000D01*
X591000Y182500D02*
X599000D01*
X591000Y171500D02*
X599000D01*
X591000Y95250D02*
X599000D01*
X591000Y106250D02*
X599000D01*
X436000Y598250D02*
X444000D01*
X436000Y609250D02*
X444000D01*
X436000Y623750D02*
X444000D01*
X436000Y634750D02*
X444000D01*
X296500Y129250D02*
X304500D01*
X296500Y118250D02*
X304500D01*
X296500Y104000D02*
X304500D01*
X296500Y93000D02*
X304500D01*
X290000Y464500D02*
Y472500D01*
X301000Y464500D02*
Y472500D01*
X61750Y491000D02*
Y499000D01*
X72750Y491000D02*
Y499000D01*
X308000Y464500D02*
Y472500D01*
X319000Y464500D02*
Y472500D01*
X60750Y343250D02*
Y351250D01*
X71750Y343250D02*
Y351250D01*
X326250Y464500D02*
Y472500D01*
X337250Y464500D02*
Y472500D01*
X515000Y699500D02*
Y707500D01*
X526000Y699500D02*
Y707500D01*
X641500Y724750D02*
X649500D01*
X641500Y735750D02*
X649500D01*
X675500Y354750D02*
X683500D01*
X675500Y343750D02*
X683500D01*
X296750Y70000D02*
X304750D01*
X296750Y59000D02*
X304750D01*
X296500Y45250D02*
X304500D01*
X296500Y34250D02*
X304500D01*
X296750Y20250D02*
X304750D01*
X296750Y9250D02*
X304750D01*
X101750Y323500D02*
Y331500D01*
X90750Y323500D02*
Y331500D01*
X555000Y691750D02*
X562000D01*
X555000Y679750D02*
X562000D01*
X292250Y414500D02*
X300250D01*
X292250Y403500D02*
X300250D01*
D18*
X308579Y370502D02*
Y380498D01*
X303581D01*
X301915Y378832D01*
Y375500D01*
X303581Y373834D01*
X308579D01*
X305247D02*
X301915Y370502D01*
X291918Y380498D02*
X298582D01*
Y375500D01*
X295250Y377166D01*
X293584D01*
X291918Y375500D01*
Y372168D01*
X293584Y370502D01*
X296916D01*
X298582Y372168D01*
X288585D02*
X286919Y370502D01*
X283587D01*
X281921Y372168D01*
Y378832D01*
X283587Y380498D01*
X286919D01*
X288585Y378832D01*
Y377166D01*
X286919Y375500D01*
X281921D01*
X277329Y403502D02*
Y413498D01*
X272331D01*
X270665Y411832D01*
Y408500D01*
X272331Y406834D01*
X277329D01*
X273997D02*
X270665Y403502D01*
X260668Y413498D02*
X267332D01*
Y408500D01*
X264000Y410166D01*
X262334D01*
X260668Y408500D01*
Y405168D01*
X262334Y403502D01*
X265666D01*
X267332Y405168D01*
X257335Y411832D02*
X255669Y413498D01*
X252337D01*
X250671Y411832D01*
Y410166D01*
X252337Y408500D01*
X250671Y406834D01*
Y405168D01*
X252337Y403502D01*
X255669D01*
X257335Y405168D01*
Y406834D01*
X255669Y408500D01*
X257335Y410166D01*
Y411832D01*
X255669Y408500D02*
X252337D01*
X565586Y673331D02*
X567252Y674997D01*
X570584D01*
X572250Y673331D01*
Y666666D01*
X570584Y665000D01*
X567252D01*
X565586Y666666D01*
X562253Y673331D02*
X560587Y674997D01*
X557255D01*
X555589Y673331D01*
Y671665D01*
X557255Y669998D01*
X558921D01*
X557255D01*
X555589Y668332D01*
Y666666D01*
X557255Y665000D01*
X560587D01*
X562253Y666666D01*
X547258Y665000D02*
Y674997D01*
X552257Y669998D01*
X545592D01*
X85000Y345500D02*
X94997D01*
Y350498D01*
X93331Y352164D01*
X89998D01*
X88332Y350498D01*
Y345500D01*
Y348832D02*
X85000Y352164D01*
Y360495D02*
X94997D01*
X89998Y355497D01*
Y362161D01*
X85000Y370492D02*
X94997D01*
X89998Y365494D01*
Y372158D01*
X350079Y9752D02*
Y19748D01*
X345081D01*
X343414Y18082D01*
Y14750D01*
X345081Y13084D01*
X350079D01*
X346747D02*
X343414Y9752D01*
X335084D02*
Y19748D01*
X340082Y14750D01*
X333418D01*
X323421Y9752D02*
X330085D01*
X323421Y16416D01*
Y18082D01*
X325087Y19748D01*
X328419D01*
X330085Y18082D01*
X349329Y35252D02*
Y45248D01*
X344331D01*
X342664Y43582D01*
Y40250D01*
X344331Y38584D01*
X349329D01*
X345997D02*
X342664Y35252D01*
X334334D02*
Y45248D01*
X339332Y40250D01*
X332668D01*
X329336Y43582D02*
X327669Y45248D01*
X324337D01*
X322671Y43582D01*
Y36918D01*
X324337Y35252D01*
X327669D01*
X329336Y36918D01*
Y43582D01*
X350079Y59752D02*
Y69748D01*
X345081D01*
X343414Y68082D01*
Y64750D01*
X345081Y63084D01*
X350079D01*
X346747D02*
X343414Y59752D01*
X340082Y68082D02*
X338416Y69748D01*
X335084D01*
X333418Y68082D01*
Y66416D01*
X335084Y64750D01*
X336750D01*
X335084D01*
X333418Y63084D01*
Y61418D01*
X335084Y59752D01*
X338416D01*
X340082Y61418D01*
X330085D02*
X328419Y59752D01*
X325087D01*
X323421Y61418D01*
Y68082D01*
X325087Y69748D01*
X328419D01*
X330085Y68082D01*
Y66416D01*
X328419Y64750D01*
X323421D01*
X692500Y360250D02*
Y370247D01*
X687502D01*
X685835Y368581D01*
Y365248D01*
X687502Y363582D01*
X692500D01*
X689168D02*
X685835Y360250D01*
X682503Y368581D02*
X680837Y370247D01*
X677505D01*
X675839Y368581D01*
Y366914D01*
X677505Y365248D01*
X679171D01*
X677505D01*
X675839Y363582D01*
Y361916D01*
X677505Y360250D01*
X680837D01*
X682503Y361916D01*
X672506Y370247D02*
X665842D01*
Y368581D01*
X672506Y361916D01*
Y360250D01*
X658750Y709750D02*
Y719747D01*
X653752D01*
X652085Y718081D01*
Y714748D01*
X653752Y713082D01*
X658750D01*
X655418D02*
X652085Y709750D01*
X648753Y718081D02*
X647087Y719747D01*
X643755D01*
X642089Y718081D01*
Y716414D01*
X643755Y714748D01*
X645421D01*
X643755D01*
X642089Y713082D01*
Y711416D01*
X643755Y709750D01*
X647087D01*
X648753Y711416D01*
X632092Y719747D02*
X635424Y718081D01*
X638756Y714748D01*
Y711416D01*
X637090Y709750D01*
X633758D01*
X632092Y711416D01*
Y713082D01*
X633758Y714748D01*
X638756D01*
X499500Y690250D02*
X509497D01*
Y695248D01*
X507831Y696915D01*
X504498D01*
X502832Y695248D01*
Y690250D01*
Y693582D02*
X499500Y696915D01*
X507831Y700247D02*
X509497Y701913D01*
Y705245D01*
X507831Y706911D01*
X506165D01*
X504498Y705245D01*
Y703579D01*
Y705245D01*
X502832Y706911D01*
X501166D01*
X499500Y705245D01*
Y701913D01*
X501166Y700247D01*
X499500Y715242D02*
X509497D01*
X504498Y710244D01*
Y716908D01*
X372000Y461500D02*
Y471497D01*
X367002D01*
X365336Y469831D01*
Y466498D01*
X367002Y464832D01*
X372000D01*
X368668D02*
X365336Y461500D01*
X362003Y469831D02*
X360337Y471497D01*
X357005D01*
X355339Y469831D01*
Y468164D01*
X357005Y466498D01*
X358671D01*
X357005D01*
X355339Y464832D01*
Y463166D01*
X357005Y461500D01*
X360337D01*
X362003Y463166D01*
X352006Y469831D02*
X350340Y471497D01*
X347008D01*
X345342Y469831D01*
Y468164D01*
X347008Y466498D01*
X348674D01*
X347008D01*
X345342Y464832D01*
Y463166D01*
X347008Y461500D01*
X350340D01*
X352006Y463166D01*
X45500Y333750D02*
X55497D01*
Y338748D01*
X53831Y340415D01*
X50498D01*
X48832Y338748D01*
Y333750D01*
Y337082D02*
X45500Y340415D01*
X53831Y343747D02*
X55497Y345413D01*
Y348745D01*
X53831Y350411D01*
X52165D01*
X50498Y348745D01*
Y347079D01*
Y348745D01*
X48832Y350411D01*
X47166D01*
X45500Y348745D01*
Y345413D01*
X47166Y343747D01*
X45500Y360408D02*
Y353744D01*
X52165Y360408D01*
X53831D01*
X55497Y358742D01*
Y355410D01*
X53831Y353744D01*
X307750Y489250D02*
X317747D01*
Y494248D01*
X316081Y495914D01*
X312748D01*
X311082Y494248D01*
Y489250D01*
Y492582D02*
X307750Y495914D01*
X316081Y499247D02*
X317747Y500913D01*
Y504245D01*
X316081Y505911D01*
X314415D01*
X312748Y504245D01*
Y502579D01*
Y504245D01*
X311082Y505911D01*
X309416D01*
X307750Y504245D01*
Y500913D01*
X309416Y499247D01*
X307750Y509244D02*
Y512576D01*
Y510910D01*
X317747D01*
X316081Y509244D01*
X79000Y482000D02*
X88997D01*
Y486998D01*
X87331Y488665D01*
X83998D01*
X82332Y486998D01*
Y482000D01*
Y485332D02*
X79000Y488665D01*
X87331Y491997D02*
X88997Y493663D01*
Y496995D01*
X87331Y498661D01*
X85665D01*
X83998Y496995D01*
Y495329D01*
Y496995D01*
X82332Y498661D01*
X80666D01*
X79000Y496995D01*
Y493663D01*
X80666Y491997D01*
X87331Y501994D02*
X88997Y503660D01*
Y506992D01*
X87331Y508658D01*
X80666D01*
X79000Y506992D01*
Y503660D01*
X80666Y501994D01*
X87331D01*
X273250Y455000D02*
X283247D01*
Y459998D01*
X281581Y461665D01*
X278248D01*
X276582Y459998D01*
Y455000D01*
Y458332D02*
X273250Y461665D01*
Y471661D02*
Y464997D01*
X279914Y471661D01*
X281581D01*
X283247Y469995D01*
Y466663D01*
X281581Y464997D01*
X274916Y474994D02*
X273250Y476660D01*
Y479992D01*
X274916Y481658D01*
X281581D01*
X283247Y479992D01*
Y476660D01*
X281581Y474994D01*
X279914D01*
X278248Y476660D01*
Y481658D01*
X348079Y93502D02*
Y103498D01*
X343081D01*
X341414Y101832D01*
Y98500D01*
X343081Y96834D01*
X348079D01*
X344747D02*
X341414Y93502D01*
X331418D02*
X338082D01*
X331418Y100166D01*
Y101832D01*
X333084Y103498D01*
X336416D01*
X338082Y101832D01*
X328085D02*
X326419Y103498D01*
X323087D01*
X321421Y101832D01*
Y100166D01*
X323087Y98500D01*
X321421Y96834D01*
Y95168D01*
X323087Y93502D01*
X326419D01*
X328085Y95168D01*
Y96834D01*
X326419Y98500D01*
X328085Y100166D01*
Y101832D01*
X326419Y98500D02*
X323087D01*
X347829Y118502D02*
Y128498D01*
X342831D01*
X341165Y126832D01*
Y123500D01*
X342831Y121834D01*
X347829D01*
X344497D02*
X341165Y118502D01*
X331168D02*
X337832D01*
X331168Y125166D01*
Y126832D01*
X332834Y128498D01*
X336166D01*
X337832Y126832D01*
X327835Y128498D02*
X321171D01*
Y126832D01*
X327835Y120168D01*
Y118502D01*
X485000Y624250D02*
Y634247D01*
X480002D01*
X478335Y632581D01*
Y629248D01*
X480002Y627582D01*
X485000D01*
X481668D02*
X478335Y624250D01*
X468339D02*
X475003D01*
X468339Y630914D01*
Y632581D01*
X470005Y634247D01*
X473337D01*
X475003Y632581D01*
X458342Y634247D02*
X461674Y632581D01*
X465006Y629248D01*
Y625916D01*
X463340Y624250D01*
X460008D01*
X458342Y625916D01*
Y627582D01*
X460008Y629248D01*
X465006D01*
X453500Y581250D02*
Y591247D01*
X448502D01*
X446836Y589581D01*
Y586248D01*
X448502Y584582D01*
X453500D01*
X450168D02*
X446836Y581250D01*
X436839D02*
X443503D01*
X436839Y587915D01*
Y589581D01*
X438505Y591247D01*
X441837D01*
X443503Y589581D01*
X426842Y591247D02*
X433506D01*
Y586248D01*
X430174Y587915D01*
X428508D01*
X426842Y586248D01*
Y582916D01*
X428508Y581250D01*
X431840D01*
X433506Y582916D01*
X641000Y95500D02*
Y105497D01*
X636002D01*
X634336Y103831D01*
Y100498D01*
X636002Y98832D01*
X641000D01*
X637668D02*
X634336Y95500D01*
X624339D02*
X631003D01*
X624339Y102164D01*
Y103831D01*
X626005Y105497D01*
X629337D01*
X631003Y103831D01*
X616008Y95500D02*
Y105497D01*
X621006Y100498D01*
X614342D01*
X640500Y171750D02*
Y181747D01*
X635502D01*
X633835Y180081D01*
Y176748D01*
X635502Y175082D01*
X640500D01*
X637168D02*
X633835Y171750D01*
X623839D02*
X630503D01*
X623839Y178414D01*
Y180081D01*
X625505Y181747D01*
X628837D01*
X630503Y180081D01*
X620506D02*
X618840Y181747D01*
X615508D01*
X613842Y180081D01*
Y178414D01*
X615508Y176748D01*
X617174D01*
X615508D01*
X613842Y175082D01*
Y173416D01*
X615508Y171750D01*
X618840D01*
X620506Y173416D01*
X640500Y120750D02*
Y130747D01*
X635502D01*
X633835Y129081D01*
Y125748D01*
X635502Y124082D01*
X640500D01*
X637168D02*
X633835Y120750D01*
X623839D02*
X630503D01*
X623839Y127415D01*
Y129081D01*
X625505Y130747D01*
X628837D01*
X630503Y129081D01*
X613842Y120750D02*
X620506D01*
X613842Y127415D01*
Y129081D01*
X615508Y130747D01*
X618840D01*
X620506Y129081D01*
X636500Y147000D02*
Y156997D01*
X631502D01*
X629836Y155331D01*
Y151998D01*
X631502Y150332D01*
X636500D01*
X633168D02*
X629836Y147000D01*
X619839D02*
X626503D01*
X619839Y153665D01*
Y155331D01*
X621505Y156997D01*
X624837D01*
X626503Y155331D01*
X616506Y147000D02*
X613174D01*
X614840D01*
Y156997D01*
X616506Y155331D01*
X347996Y144252D02*
Y154248D01*
X342998D01*
X341331Y152582D01*
Y149250D01*
X342998Y147584D01*
X347996D01*
X344664D02*
X341331Y144252D01*
X337999D02*
X334667D01*
X336333D01*
Y154248D01*
X337999Y152582D01*
X329669D02*
X328002Y154248D01*
X324670D01*
X323004Y152582D01*
Y150916D01*
X324670Y149250D01*
X323004Y147584D01*
Y145918D01*
X324670Y144252D01*
X328002D01*
X329669Y145918D01*
Y147584D01*
X328002Y149250D01*
X329669Y150916D01*
Y152582D01*
X328002Y149250D02*
X324670D01*
X345996Y168252D02*
Y178248D01*
X340998D01*
X339331Y176582D01*
Y173250D01*
X340998Y171584D01*
X345996D01*
X342664D02*
X339331Y168252D01*
X335999D02*
X332667D01*
X334333D01*
Y178248D01*
X335999Y176582D01*
X327668Y178248D02*
X321004D01*
Y176582D01*
X327668Y169918D01*
Y168252D01*
X289162Y721908D02*
Y731904D01*
X284163D01*
X282497Y730238D01*
Y726906D01*
X284163Y725240D01*
X289162D01*
X285830D02*
X282497Y721908D01*
X279165D02*
X275833D01*
X277499D01*
Y731904D01*
X279165Y730238D01*
X265836Y721908D02*
Y731904D01*
X270834Y726906D01*
X264170D01*
X188500Y257000D02*
Y266997D01*
X183502D01*
X181835Y265331D01*
Y261998D01*
X183502Y260332D01*
X188500D01*
X185168D02*
X181835Y257000D01*
X178503D02*
X175171D01*
X176837D01*
Y266997D01*
X178503Y265331D01*
X170173D02*
X168506Y266997D01*
X165174D01*
X163508Y265331D01*
Y258666D01*
X165174Y257000D01*
X168506D01*
X170173Y258666D01*
Y265331D01*
X348500Y703500D02*
Y713497D01*
X343502D01*
X341836Y711831D01*
Y708498D01*
X343502Y706832D01*
X348500D01*
X345168D02*
X341836Y703500D01*
X338503Y705166D02*
X336837Y703500D01*
X333505D01*
X331839Y705166D01*
Y711831D01*
X333505Y713497D01*
X336837D01*
X338503Y711831D01*
Y710164D01*
X336837Y708498D01*
X331839D01*
X771500Y600500D02*
Y610497D01*
X766502D01*
X764836Y608831D01*
Y605498D01*
X766502Y603832D01*
X771500D01*
X768168D02*
X764836Y600500D01*
X756505D02*
Y610497D01*
X761503Y605498D01*
X754839D01*
X783750Y556500D02*
X793747D01*
Y561498D01*
X792081Y563164D01*
X788748D01*
X787082Y561498D01*
Y556500D01*
Y559832D02*
X783750Y563164D01*
X792081Y566497D02*
X793747Y568163D01*
Y571495D01*
X792081Y573161D01*
X790415D01*
X788748Y571495D01*
Y569829D01*
Y571495D01*
X787082Y573161D01*
X785416D01*
X783750Y571495D01*
Y568163D01*
X785416Y566497D01*
X771500Y517500D02*
Y527497D01*
X766502D01*
X764836Y525831D01*
Y522498D01*
X766502Y520832D01*
X771500D01*
X768168D02*
X764836Y517500D01*
X754839D02*
X761503D01*
X754839Y524165D01*
Y525831D01*
X756505Y527497D01*
X759837D01*
X761503Y525831D01*
X770750Y313750D02*
Y323747D01*
X765752D01*
X764085Y322081D01*
Y318748D01*
X765752Y317082D01*
X770750D01*
X767418D02*
X764085Y313750D01*
X760753D02*
X757421D01*
X759087D01*
Y323747D01*
X760753Y322081D01*
X457585Y401581D02*
X459252Y403247D01*
X462584D01*
X464250Y401581D01*
Y394916D01*
X462584Y393250D01*
X459252D01*
X457585Y394916D01*
X454253Y401581D02*
X452587Y403247D01*
X449255D01*
X447589Y401581D01*
Y399915D01*
X449255Y398248D01*
X450921D01*
X449255D01*
X447589Y396582D01*
Y394916D01*
X449255Y393250D01*
X452587D01*
X454253Y394916D01*
X444256Y401581D02*
X442590Y403247D01*
X439258D01*
X437592Y401581D01*
Y394916D01*
X439258Y393250D01*
X442590D01*
X444256Y394916D01*
Y401581D01*
X417336Y309331D02*
X419002Y310997D01*
X422334D01*
X424000Y309331D01*
Y302666D01*
X422334Y301000D01*
X419002D01*
X417336Y302666D01*
X407339Y301000D02*
X414003D01*
X407339Y307665D01*
Y309331D01*
X409005Y310997D01*
X412337D01*
X414003Y309331D01*
X404006Y302666D02*
X402340Y301000D01*
X399008D01*
X397342Y302666D01*
Y309331D01*
X399008Y310997D01*
X402340D01*
X404006Y309331D01*
Y307665D01*
X402340Y305998D01*
X397342D01*
X359585Y418081D02*
X361252Y419747D01*
X364584D01*
X366250Y418081D01*
Y411416D01*
X364584Y409750D01*
X361252D01*
X359585Y411416D01*
X349589Y409750D02*
X356253D01*
X349589Y416414D01*
Y418081D01*
X351255Y419747D01*
X354587D01*
X356253Y418081D01*
X346256D02*
X344590Y419747D01*
X341258D01*
X339592Y418081D01*
Y416414D01*
X341258Y414748D01*
X339592Y413082D01*
Y411416D01*
X341258Y409750D01*
X344590D01*
X346256Y411416D01*
Y413082D01*
X344590Y414748D01*
X346256Y416414D01*
Y418081D01*
X344590Y414748D02*
X341258D01*
X410085Y429331D02*
X411752Y430997D01*
X415084D01*
X416750Y429331D01*
Y422666D01*
X415084Y421000D01*
X411752D01*
X410085Y422666D01*
X400089Y421000D02*
X406753D01*
X400089Y427664D01*
Y429331D01*
X401755Y430997D01*
X405087D01*
X406753Y429331D01*
X396756Y430997D02*
X390092D01*
Y429331D01*
X396756Y422666D01*
Y421000D01*
X481836Y428331D02*
X483502Y429997D01*
X486834D01*
X488500Y428331D01*
Y421666D01*
X486834Y420000D01*
X483502D01*
X481836Y421666D01*
X471839Y420000D02*
X478503D01*
X471839Y426665D01*
Y428331D01*
X473505Y429997D01*
X476837D01*
X478503Y428331D01*
X461842Y429997D02*
X465174Y428331D01*
X468506Y424998D01*
Y421666D01*
X466840Y420000D01*
X463508D01*
X461842Y421666D01*
Y423332D01*
X463508Y424998D01*
X468506D01*
X457336Y369331D02*
X459002Y370997D01*
X462334D01*
X464000Y369331D01*
Y362666D01*
X462334Y361000D01*
X459002D01*
X457336Y362666D01*
X447339Y361000D02*
X454003D01*
X447339Y367664D01*
Y369331D01*
X449005Y370997D01*
X452337D01*
X454003Y369331D01*
X437342Y370997D02*
X444006D01*
Y365998D01*
X440674Y367664D01*
X439008D01*
X437342Y365998D01*
Y362666D01*
X439008Y361000D01*
X442340D01*
X444006Y362666D01*
X360085Y341331D02*
X361752Y342997D01*
X365084D01*
X366750Y341331D01*
Y334666D01*
X365084Y333000D01*
X361752D01*
X360085Y334666D01*
X350089Y333000D02*
X356753D01*
X350089Y339664D01*
Y341331D01*
X351755Y342997D01*
X355087D01*
X356753Y341331D01*
X341758Y333000D02*
Y342997D01*
X346756Y337998D01*
X340092D01*
X455085Y310331D02*
X456752Y311997D01*
X460084D01*
X461750Y310331D01*
Y303666D01*
X460084Y302000D01*
X456752D01*
X455085Y303666D01*
X445089Y302000D02*
X451753D01*
X445089Y308664D01*
Y310331D01*
X446755Y311997D01*
X450087D01*
X451753Y310331D01*
X441756D02*
X440090Y311997D01*
X436758D01*
X435092Y310331D01*
Y308664D01*
X436758Y306998D01*
X438424D01*
X436758D01*
X435092Y305332D01*
Y303666D01*
X436758Y302000D01*
X440090D01*
X441756Y303666D01*
X341086Y365831D02*
X342752Y367497D01*
X346084D01*
X347750Y365831D01*
Y359166D01*
X346084Y357500D01*
X342752D01*
X341086Y359166D01*
X331089Y357500D02*
X337753D01*
X331089Y364165D01*
Y365831D01*
X332755Y367497D01*
X336087D01*
X337753Y365831D01*
X321092Y357500D02*
X327756D01*
X321092Y364165D01*
Y365831D01*
X322758Y367497D01*
X326090D01*
X327756Y365831D01*
X505581Y615415D02*
X507247Y613748D01*
Y610416D01*
X505581Y608750D01*
X498916D01*
X497250Y610416D01*
Y613748D01*
X498916Y615415D01*
X497250Y618747D02*
Y622079D01*
Y620413D01*
X507247D01*
X505581Y618747D01*
X507247Y633742D02*
X505581Y630410D01*
X502248Y627077D01*
X498916D01*
X497250Y628744D01*
Y632076D01*
X498916Y633742D01*
X500582D01*
X502248Y632076D01*
Y627077D01*
X633086Y603081D02*
X634752Y604747D01*
X638084D01*
X639750Y603081D01*
Y596416D01*
X638084Y594750D01*
X634752D01*
X633086Y596416D01*
X629753Y594750D02*
X626421D01*
X628087D01*
Y604747D01*
X629753Y603081D01*
X616424Y594750D02*
Y604747D01*
X621423Y599748D01*
X614758D01*
X581586Y339331D02*
X583252Y340997D01*
X586584D01*
X588250Y339331D01*
Y332666D01*
X586584Y331000D01*
X583252D01*
X581586Y332666D01*
X578253Y331000D02*
X574921D01*
X576587D01*
Y340997D01*
X578253Y339331D01*
X569923D02*
X568256Y340997D01*
X564924D01*
X563258Y339331D01*
Y337664D01*
X564924Y335998D01*
X566590D01*
X564924D01*
X563258Y334332D01*
Y332666D01*
X564924Y331000D01*
X568256D01*
X569923Y332666D01*
X309086Y242081D02*
X310752Y243747D01*
X314084D01*
X315750Y242081D01*
Y235416D01*
X314084Y233750D01*
X310752D01*
X309086Y235416D01*
X305753Y233750D02*
X302421D01*
X304087D01*
Y243747D01*
X305753Y242081D01*
X297423D02*
X295756Y243747D01*
X292424D01*
X290758Y242081D01*
Y235416D01*
X292424Y233750D01*
X295756D01*
X297423Y235416D01*
Y242081D01*
X169335Y184831D02*
X171002Y186497D01*
X174334D01*
X176000Y184831D01*
Y178166D01*
X174334Y176500D01*
X171002D01*
X169335Y178166D01*
X166003D02*
X164337Y176500D01*
X161005D01*
X159339Y178166D01*
Y184831D01*
X161005Y186497D01*
X164337D01*
X166003Y184831D01*
Y183165D01*
X164337Y181498D01*
X159339D01*
X76835Y657081D02*
X78502Y658747D01*
X81834D01*
X83500Y657081D01*
Y650416D01*
X81834Y648750D01*
X78502D01*
X76835Y650416D01*
X73503Y658747D02*
X66839D01*
Y657081D01*
X73503Y650416D01*
Y648750D01*
X392336Y690831D02*
X394002Y692497D01*
X397334D01*
X399000Y690831D01*
Y684166D01*
X397334Y682500D01*
X394002D01*
X392336Y684166D01*
X382339Y682500D02*
X389003D01*
X382339Y689165D01*
Y690831D01*
X384005Y692497D01*
X387337D01*
X389003Y690831D01*
X413335D02*
X415002Y692497D01*
X418334D01*
X420000Y690831D01*
Y684166D01*
X418334Y682500D01*
X415002D01*
X413335Y684166D01*
X410003Y682500D02*
X406671D01*
X408337D01*
Y692497D01*
X410003Y690831D01*
X93332Y720585D02*
X94998Y718919D01*
Y715587D01*
X93332Y713921D01*
X86668D01*
X85002Y715587D01*
Y718919D01*
X86668Y720585D01*
X93332Y723918D02*
X94998Y725584D01*
Y728916D01*
X93332Y730582D01*
X91666D01*
X90000Y728916D01*
Y727250D01*
Y728916D01*
X88334Y730582D01*
X86668D01*
X85002Y728916D01*
Y725584D01*
X86668Y723918D01*
X93332Y733914D02*
X94998Y735581D01*
Y738913D01*
X93332Y740579D01*
X91666D01*
X90000Y738913D01*
Y737247D01*
Y738913D01*
X88334Y740579D01*
X86668D01*
X85002Y738913D01*
Y735581D01*
X86668Y733914D01*
X144502Y716587D02*
X154498D01*
Y721585D01*
X152832Y723252D01*
X149500D01*
X147834Y721585D01*
Y716587D01*
Y719919D02*
X144502Y723252D01*
X154498Y733248D02*
Y726584D01*
X149500D01*
X151166Y729916D01*
Y731582D01*
X149500Y733248D01*
X146168D01*
X144502Y731582D01*
Y728250D01*
X146168Y726584D01*
X144502Y736581D02*
Y739913D01*
Y738247D01*
X154498D01*
X152832Y736581D01*
X500500Y721250D02*
X510497D01*
Y726248D01*
X508831Y727915D01*
X505498D01*
X503832Y726248D01*
Y721250D01*
Y724582D02*
X500500Y727915D01*
X510497Y737911D02*
Y731247D01*
X505498D01*
X507164Y734579D01*
Y736245D01*
X505498Y737911D01*
X502166D01*
X500500Y736245D01*
Y732913D01*
X502166Y731247D01*
X500500Y747908D02*
Y741244D01*
X507164Y747908D01*
X508831D01*
X510497Y746242D01*
Y742910D01*
X508831Y741244D01*
X692500Y740750D02*
Y750747D01*
X687502D01*
X685835Y749081D01*
Y745748D01*
X687502Y744082D01*
X692500D01*
X689168D02*
X685835Y740750D01*
X675839Y750747D02*
X682503D01*
Y745748D01*
X679171Y747414D01*
X677505D01*
X675839Y745748D01*
Y742416D01*
X677505Y740750D01*
X680837D01*
X682503Y742416D01*
X667508Y740750D02*
Y750747D01*
X672506Y745748D01*
X665842D01*
X582002Y690421D02*
X591998D01*
Y695419D01*
X590332Y697085D01*
X587000D01*
X585334Y695419D01*
Y690421D01*
Y693753D02*
X582002Y697085D01*
X591998Y707082D02*
Y700418D01*
X587000D01*
X588666Y703750D01*
Y705416D01*
X587000Y707082D01*
X583668D01*
X582002Y705416D01*
Y702084D01*
X583668Y700418D01*
X591998Y717079D02*
Y710415D01*
X587000D01*
X588666Y713747D01*
Y715413D01*
X587000Y717079D01*
X583668D01*
X582002Y715413D01*
Y712081D01*
X583668Y710415D01*
X572329Y707002D02*
Y716998D01*
X567331D01*
X565664Y715332D01*
Y712000D01*
X567331Y710334D01*
X572329D01*
X568997D02*
X565664Y707002D01*
X555668Y716998D02*
X562332D01*
Y712000D01*
X559000Y713666D01*
X557334D01*
X555668Y712000D01*
Y708668D01*
X557334Y707002D01*
X560666D01*
X562332Y708668D01*
X545671Y716998D02*
X549003Y715332D01*
X552336Y712000D01*
Y708668D01*
X550669Y707002D01*
X547337D01*
X545671Y708668D01*
Y710334D01*
X547337Y712000D01*
X552336D01*
X542002Y753671D02*
X551998D01*
Y758669D01*
X550332Y760335D01*
X547000D01*
X545334Y758669D01*
Y753671D01*
Y757003D02*
X542002Y760335D01*
X551998Y770332D02*
Y763668D01*
X547000D01*
X548666Y767000D01*
Y768666D01*
X547000Y770332D01*
X543668D01*
X542002Y768666D01*
Y765334D01*
X543668Y763668D01*
X551998Y773664D02*
Y780329D01*
X550332D01*
X543668Y773664D01*
X542002D01*
D22*
X1084129Y-939377D02*
Y-888577D01*
X1001579D02*
Y-736177D01*
X1534979Y-888577D02*
Y-736177D01*
X620579Y-888577D02*
Y-583777D01*
X1763579Y-888577D02*
Y-583777D01*
X1001579D02*
X1763579D01*
X1001579Y-736177D02*
Y-583777D01*
X620579D02*
X1001579D01*
X620579Y-736177D02*
X1763579D01*
X620579Y-812377D02*
X1763579D01*
X620579Y-888577D02*
X1763579D01*
X620579Y-659977D02*
X1001579D01*
X264979Y-583777D02*
X620579D01*
X264979Y-888577D02*
Y-583777D01*
Y-888577D02*
X620579D01*
X353879Y-939377D02*
Y-888577D01*
X-376371Y-939377D02*
Y-888577D01*
X-1106621Y-456777D02*
X-1055821D01*
X-1106621Y25823D02*
X-1055821D01*
X-1106621Y508423D02*
X-1055821D01*
X-1106621Y-939377D02*
Y991023D01*
X1763579Y-456777D02*
X1814379D01*
X353879Y940223D02*
Y991023D01*
X-376371Y940223D02*
Y991023D01*
X-1055821Y940223D02*
X1763579D01*
Y-888577D02*
Y940223D01*
X-1055821Y-888577D02*
X1763579D01*
X-1055821D02*
Y940223D01*
X-1106621Y991023D02*
X1814379D01*
Y-939377D02*
Y991023D01*
X-1106621Y-939377D02*
X1814379D01*
X1555297Y-827982D02*
X1554209Y-826894D01*
X1552576Y-826349D01*
X1550400D01*
X1548767Y-826894D01*
X1547679Y-827982D01*
Y-829070D01*
X1548223Y-830159D01*
X1548767Y-830703D01*
X1549856Y-831247D01*
X1553121Y-832335D01*
X1554209Y-832879D01*
X1554753Y-833424D01*
X1555297Y-834512D01*
Y-836144D01*
X1554209Y-837233D01*
X1552576Y-837777D01*
X1550400D01*
X1548767Y-837233D01*
X1547679Y-836144D01*
X1566017Y-829070D02*
X1565473Y-827982D01*
X1564385Y-826894D01*
X1563297Y-826349D01*
X1561120D01*
X1560032Y-826894D01*
X1558943Y-827982D01*
X1558399Y-829070D01*
X1557855Y-830703D01*
Y-833424D01*
X1558399Y-835056D01*
X1558943Y-836144D01*
X1560032Y-837233D01*
X1561120Y-837777D01*
X1563297D01*
X1564385Y-837233D01*
X1565473Y-836144D01*
X1566017Y-835056D01*
X1577935Y-837777D02*
X1573582Y-826349D01*
X1569228Y-837777D01*
X1570861Y-833968D02*
X1576302D01*
X1580601Y-826349D02*
Y-837777D01*
X1587131D01*
X1595457Y-826349D02*
X1588383D01*
Y-837777D01*
X1595457D01*
X1588383Y-831791D02*
X1592736D01*
X1597906Y-830159D02*
X1597362Y-830703D01*
X1597906Y-831247D01*
X1598450Y-830703D01*
X1597906Y-830159D01*
Y-836689D02*
X1597362Y-837233D01*
X1597906Y-837777D01*
X1598450Y-837233D01*
X1597906Y-836689D01*
X633279Y-826349D02*
Y-837777D01*
Y-826349D02*
X640353D01*
X633279Y-831791D02*
X637632D01*
X641659Y-826349D02*
Y-837777D01*
X644054Y-826349D02*
Y-837777D01*
X650584D01*
X658909Y-826349D02*
X651835D01*
Y-837777D01*
X658909D01*
X651835Y-831791D02*
X656189D01*
X669793Y-826349D02*
Y-837777D01*
Y-826349D02*
X677411Y-837777D01*
Y-826349D02*
Y-837777D01*
X689274D02*
X684921Y-826349D01*
X680567Y-837777D01*
X682200Y-833968D02*
X687642D01*
X691941Y-826349D02*
Y-837777D01*
Y-826349D02*
X696294Y-837777D01*
X700647Y-826349D02*
X696294Y-837777D01*
X700647Y-826349D02*
Y-837777D01*
X710986Y-826349D02*
X703912D01*
Y-837777D01*
X710986D01*
X703912Y-831791D02*
X708266D01*
X713435Y-830159D02*
X712891Y-830703D01*
X713435Y-831247D01*
X713979Y-830703D01*
X713435Y-830159D01*
Y-836689D02*
X712891Y-837233D01*
X713435Y-837777D01*
X713979Y-837233D01*
X713435Y-836689D01*
X633279Y-678665D02*
X638176D01*
X639809Y-678121D01*
X640353Y-677577D01*
X640897Y-676489D01*
Y-674856D01*
X640353Y-673768D01*
X639809Y-673224D01*
X638176Y-672680D01*
X633279D01*
Y-684107D01*
X651618Y-675400D02*
X651073Y-674312D01*
X649985Y-673224D01*
X648897Y-672680D01*
X646720D01*
X645632Y-673224D01*
X644543Y-674312D01*
X643999Y-675400D01*
X643455Y-677033D01*
Y-679754D01*
X643999Y-681386D01*
X644543Y-682475D01*
X645632Y-683563D01*
X646720Y-684107D01*
X648897D01*
X649985Y-683563D01*
X651073Y-682475D01*
X651618Y-681386D01*
X654828Y-672680D02*
Y-684107D01*
Y-672680D02*
X659726D01*
X661358Y-673224D01*
X661902Y-673768D01*
X662447Y-674856D01*
Y-675945D01*
X661902Y-677033D01*
X661358Y-677577D01*
X659726Y-678121D01*
X654828D02*
X659726D01*
X661358Y-678665D01*
X661902Y-679210D01*
X662447Y-680298D01*
Y-681930D01*
X661902Y-683019D01*
X661358Y-683563D01*
X659726Y-684107D01*
X654828D01*
X673983Y-672680D02*
Y-684107D01*
Y-672680D02*
X677792D01*
X679425Y-673224D01*
X680513Y-674312D01*
X681057Y-675400D01*
X681601Y-677033D01*
Y-679754D01*
X681057Y-681386D01*
X680513Y-682475D01*
X679425Y-683563D01*
X677792Y-684107D01*
X673983D01*
X691233Y-672680D02*
X684159D01*
Y-684107D01*
X691233D01*
X684159Y-678121D02*
X688512D01*
X700756Y-674312D02*
X699668Y-673224D01*
X698035Y-672680D01*
X695859D01*
X694226Y-673224D01*
X693138Y-674312D01*
Y-675400D01*
X693682Y-676489D01*
X694226Y-677033D01*
X695314Y-677577D01*
X698579Y-678665D01*
X699668Y-679210D01*
X700212Y-679754D01*
X700756Y-680842D01*
Y-682475D01*
X699668Y-683563D01*
X698035Y-684107D01*
X695859D01*
X694226Y-683563D01*
X693138Y-682475D01*
X703314Y-672680D02*
Y-684107D01*
X713870Y-675400D02*
X713326Y-674312D01*
X712238Y-673224D01*
X711150Y-672680D01*
X708973D01*
X707885Y-673224D01*
X706796Y-674312D01*
X706252Y-675400D01*
X705708Y-677033D01*
Y-679754D01*
X706252Y-681386D01*
X706796Y-682475D01*
X707885Y-683563D01*
X708973Y-684107D01*
X711150D01*
X712238Y-683563D01*
X713326Y-682475D01*
X713870Y-681386D01*
Y-679754D01*
X711150D02*
X713870D01*
X716482Y-672680D02*
Y-684107D01*
Y-672680D02*
X724101Y-684107D01*
Y-672680D02*
Y-684107D01*
X734331Y-672680D02*
X727257D01*
Y-684107D01*
X734331D01*
X727257Y-678121D02*
X731610D01*
X736236Y-672680D02*
Y-684107D01*
Y-672680D02*
X741133D01*
X742766Y-673224D01*
X743310Y-673768D01*
X743854Y-674856D01*
Y-675945D01*
X743310Y-677033D01*
X742766Y-677577D01*
X741133Y-678121D01*
X736236D01*
X740045D02*
X743854Y-684107D01*
X746956Y-676489D02*
X746412Y-677033D01*
X746956Y-677577D01*
X747500Y-677033D01*
X746956Y-676489D01*
Y-683019D02*
X746412Y-683563D01*
X746956Y-684107D01*
X747500Y-683563D01*
X746956Y-683019D01*
X1018088Y-597749D02*
Y-609177D01*
X1014279Y-597749D02*
X1021897D01*
X1023258D02*
Y-609177D01*
X1029461Y-597749D02*
Y-609177D01*
X1025652Y-597749D02*
X1033271D01*
X1034631D02*
Y-609177D01*
X1041161D01*
X1049487Y-597749D02*
X1042413D01*
Y-609177D01*
X1049487D01*
X1042413Y-603191D02*
X1046766D01*
X1051936Y-601559D02*
X1051391Y-602103D01*
X1051936Y-602647D01*
X1052480Y-602103D01*
X1051936Y-601559D01*
Y-608089D02*
X1051391Y-608633D01*
X1051936Y-609177D01*
X1052480Y-608633D01*
X1051936Y-608089D01*
X1014279Y-756135D02*
X1019176D01*
X1020809Y-755591D01*
X1021353Y-755047D01*
X1021897Y-753959D01*
Y-752326D01*
X1021353Y-751238D01*
X1020809Y-750694D01*
X1019176Y-750150D01*
X1014279D01*
Y-761577D01*
X1033162D02*
X1028808Y-750150D01*
X1024455Y-761577D01*
X1026087Y-757768D02*
X1031529D01*
X1035828Y-750150D02*
Y-761577D01*
Y-750150D02*
X1040726D01*
X1042358Y-750694D01*
X1042902Y-751238D01*
X1043447Y-752326D01*
Y-753415D01*
X1042902Y-754503D01*
X1042358Y-755047D01*
X1040726Y-755591D01*
X1035828D01*
X1039637D02*
X1043447Y-761577D01*
X1049813Y-750150D02*
Y-761577D01*
X1046004Y-750150D02*
X1053622D01*
X1063962D02*
Y-761577D01*
Y-750150D02*
X1071580Y-761577D01*
Y-750150D02*
Y-761577D01*
X1078001Y-750150D02*
X1076913Y-750694D01*
X1075825Y-751782D01*
X1075280Y-752870D01*
X1074736Y-754503D01*
Y-757224D01*
X1075280Y-758856D01*
X1075825Y-759945D01*
X1076913Y-761033D01*
X1078001Y-761577D01*
X1080178D01*
X1081266Y-761033D01*
X1082355Y-759945D01*
X1082899Y-758856D01*
X1083443Y-757224D01*
Y-754503D01*
X1082899Y-752870D01*
X1082355Y-751782D01*
X1081266Y-750694D01*
X1080178Y-750150D01*
X1078001D01*
X1086654Y-760489D02*
X1086109Y-761033D01*
X1086654Y-761577D01*
X1087198Y-761033D01*
X1086654Y-760489D01*
X1090245Y-753959D02*
X1089701Y-754503D01*
X1090245Y-755047D01*
X1090789Y-754503D01*
X1090245Y-753959D01*
Y-760489D02*
X1089701Y-761033D01*
X1090245Y-761577D01*
X1090789Y-761033D01*
X1090245Y-760489D01*
X640353Y-597749D02*
X633279D01*
Y-609177D01*
X640353D01*
X633279Y-603191D02*
X637632D01*
X642258Y-597749D02*
Y-609177D01*
Y-597749D02*
X649876Y-609177D01*
Y-597749D02*
Y-609177D01*
X661195Y-600470D02*
X660651Y-599382D01*
X659562Y-598294D01*
X658474Y-597749D01*
X656297D01*
X655209Y-598294D01*
X654121Y-599382D01*
X653577Y-600470D01*
X653032Y-602103D01*
Y-604824D01*
X653577Y-606456D01*
X654121Y-607545D01*
X655209Y-608633D01*
X656297Y-609177D01*
X658474D01*
X659562Y-608633D01*
X660651Y-607545D01*
X661195Y-606456D01*
Y-604824D01*
X658474D02*
X661195D01*
X663807Y-597749D02*
Y-609177D01*
X666201Y-597749D02*
Y-609177D01*
Y-597749D02*
X673820Y-609177D01*
Y-597749D02*
Y-609177D01*
X684050Y-597749D02*
X676976D01*
Y-609177D01*
X684050D01*
X676976Y-603191D02*
X681329D01*
X693029Y-597749D02*
X685955D01*
Y-609177D01*
X693029D01*
X685955Y-603191D02*
X690308D01*
X694933Y-597749D02*
Y-609177D01*
Y-597749D02*
X699831D01*
X701463Y-598294D01*
X702008Y-598838D01*
X702552Y-599926D01*
Y-601015D01*
X702008Y-602103D01*
X701463Y-602647D01*
X699831Y-603191D01*
X694933D01*
X698743D02*
X702552Y-609177D01*
X705654Y-601559D02*
X705109Y-602103D01*
X705654Y-602647D01*
X706198Y-602103D01*
X705654Y-601559D01*
Y-608089D02*
X705109Y-608633D01*
X705654Y-609177D01*
X706198Y-608633D01*
X705654Y-608089D01*
X1014279Y-826349D02*
Y-837777D01*
Y-826349D02*
X1018088D01*
X1019721Y-826894D01*
X1020809Y-827982D01*
X1021353Y-829070D01*
X1021897Y-830703D01*
Y-833424D01*
X1021353Y-835056D01*
X1020809Y-836144D01*
X1019721Y-837233D01*
X1018088Y-837777D01*
X1014279D01*
X1024455Y-826349D02*
X1027176Y-837777D01*
X1029897Y-826349D02*
X1027176Y-837777D01*
X1029897Y-826349D02*
X1032617Y-837777D01*
X1035338Y-826349D02*
X1032617Y-837777D01*
X1045786Y-829070D02*
X1045242Y-827982D01*
X1044154Y-826894D01*
X1043066Y-826349D01*
X1040889D01*
X1039800Y-826894D01*
X1038712Y-827982D01*
X1038168Y-829070D01*
X1037624Y-830703D01*
Y-833424D01*
X1038168Y-835056D01*
X1038712Y-836144D01*
X1039800Y-837233D01*
X1040889Y-837777D01*
X1043066D01*
X1044154Y-837233D01*
X1045242Y-836144D01*
X1045786Y-835056D01*
Y-833424D01*
X1043066D02*
X1045786D01*
X1057377Y-826349D02*
Y-837777D01*
Y-826349D02*
X1064996Y-837777D01*
Y-826349D02*
Y-837777D01*
X1071417Y-826349D02*
X1070328Y-826894D01*
X1069240Y-827982D01*
X1068696Y-829070D01*
X1068152Y-830703D01*
Y-833424D01*
X1068696Y-835056D01*
X1069240Y-836144D01*
X1070328Y-837233D01*
X1071417Y-837777D01*
X1073594D01*
X1074682Y-837233D01*
X1075770Y-836144D01*
X1076314Y-835056D01*
X1076859Y-833424D01*
Y-830703D01*
X1076314Y-829070D01*
X1075770Y-827982D01*
X1074682Y-826894D01*
X1073594Y-826349D01*
X1071417D01*
X1080069Y-830159D02*
X1079525Y-830703D01*
X1080069Y-831247D01*
X1080613Y-830703D01*
X1080069Y-830159D01*
Y-836689D02*
X1079525Y-837233D01*
X1080069Y-837777D01*
X1080613Y-837233D01*
X1080069Y-836689D01*
X1547679Y-750150D02*
Y-761577D01*
Y-750150D02*
X1552576D01*
X1554209Y-750694D01*
X1554753Y-751238D01*
X1555297Y-752326D01*
Y-753415D01*
X1554753Y-754503D01*
X1554209Y-755047D01*
X1552576Y-755591D01*
X1547679D01*
X1551488D02*
X1555297Y-761577D01*
X1564929Y-750150D02*
X1557855D01*
Y-761577D01*
X1564929D01*
X1557855Y-755591D02*
X1562208D01*
X1566834Y-750150D02*
X1571187Y-761577D01*
X1575540Y-750150D02*
X1571187Y-761577D01*
X1577554Y-753959D02*
X1577010Y-754503D01*
X1577554Y-755047D01*
X1578098Y-754503D01*
X1577554Y-753959D01*
Y-760489D02*
X1577010Y-761033D01*
X1577554Y-761577D01*
X1578098Y-761033D01*
X1577554Y-760489D01*
X633279Y-750150D02*
Y-761577D01*
Y-750150D02*
X637088D01*
X638721Y-750694D01*
X639809Y-751782D01*
X640353Y-752870D01*
X640897Y-754503D01*
Y-757224D01*
X640353Y-758856D01*
X639809Y-759945D01*
X638721Y-761033D01*
X637088Y-761577D01*
X633279D01*
X652162D02*
X647808Y-750150D01*
X643455Y-761577D01*
X645088Y-757768D02*
X650529D01*
X658637Y-750150D02*
Y-761577D01*
X654828Y-750150D02*
X662447D01*
X670881D02*
X663807D01*
Y-761577D01*
X670881D01*
X663807Y-755591D02*
X668160D01*
X673330Y-753959D02*
X672786Y-754503D01*
X673330Y-755047D01*
X673874Y-754503D01*
X673330Y-753959D01*
Y-760489D02*
X672786Y-761033D01*
X673330Y-761577D01*
X673874Y-761033D01*
X673330Y-760489D01*
D23*
X645979Y-850481D02*
Y-868257D01*
Y-850481D02*
X652751Y-868257D01*
X659523Y-850481D02*
X652751Y-868257D01*
X659523Y-850481D02*
Y-868257D01*
X664602Y-850481D02*
Y-868257D01*
Y-850481D02*
X672220D01*
X674760Y-851327D01*
X675606Y-852174D01*
X676452Y-853867D01*
Y-855560D01*
X675606Y-857253D01*
X674760Y-858099D01*
X672220Y-858946D01*
X664602D02*
X672220D01*
X674760Y-859792D01*
X675606Y-860639D01*
X676452Y-862332D01*
Y-864871D01*
X675606Y-866564D01*
X674760Y-867411D01*
X672220Y-868257D01*
X664602D01*
X681277Y-854713D02*
Y-853867D01*
X682124Y-852174D01*
X682970Y-851327D01*
X684663Y-850481D01*
X688049D01*
X689742Y-851327D01*
X690589Y-852174D01*
X691435Y-853867D01*
Y-855560D01*
X690589Y-857253D01*
X688896Y-859792D01*
X680431Y-868257D01*
X692282D01*
X696260Y-850481D02*
Y-868257D01*
X708111Y-850481D02*
X696260Y-862332D01*
X700493Y-858099D02*
X708111Y-868257D01*
X712936Y-854713D02*
Y-853867D01*
X713783Y-852174D01*
X714629Y-851327D01*
X716322Y-850481D01*
X719708D01*
X721401Y-851327D01*
X722247Y-852174D01*
X723094Y-853867D01*
Y-855560D01*
X722247Y-857253D01*
X720554Y-859792D01*
X712089Y-868257D01*
X723940D01*
X727919Y-874182D02*
X741463D01*
X743748Y-850481D02*
X750520Y-868257D01*
X757292Y-850481D02*
X750520Y-868257D01*
X759577Y-853867D02*
X761270Y-853020D01*
X763810Y-850481D01*
Y-868257D01*
X773460Y-866564D02*
X772613Y-867411D01*
X773460Y-868257D01*
X774306Y-867411D01*
X773460Y-866564D01*
X778200Y-859792D02*
X785818D01*
X788358Y-858946D01*
X789204Y-858099D01*
X790051Y-856406D01*
Y-853867D01*
X789204Y-852174D01*
X788358Y-851327D01*
X785818Y-850481D01*
X778200D01*
Y-868257D01*
X804187Y-858946D02*
X802494Y-857253D01*
X800801Y-856406D01*
X798262D01*
X796569Y-857253D01*
X794876Y-858946D01*
X794029Y-861485D01*
Y-863178D01*
X794876Y-865717D01*
X796569Y-867411D01*
X798262Y-868257D01*
X800801D01*
X802494Y-867411D01*
X804187Y-865717D01*
X807996Y-850481D02*
Y-868257D01*
Y-858946D02*
X809689Y-857253D01*
X811382Y-856406D01*
X813922D01*
X815615Y-857253D01*
X817308Y-858946D01*
X818154Y-861485D01*
Y-863178D01*
X817308Y-865717D01*
X815615Y-867411D01*
X813922Y-868257D01*
X811382D01*
X809689Y-867411D01*
X807996Y-865717D01*
X821963Y-850481D02*
Y-868257D01*
Y-850481D02*
X827889D01*
X830428Y-851327D01*
X832121Y-853020D01*
X832968Y-854713D01*
X833814Y-857253D01*
Y-861485D01*
X832968Y-864025D01*
X832121Y-865717D01*
X830428Y-867411D01*
X827889Y-868257D01*
X821963D01*
X842025Y-856406D02*
X840332Y-857253D01*
X838639Y-858946D01*
X837793Y-861485D01*
Y-863178D01*
X838639Y-865717D01*
X840332Y-867411D01*
X842025Y-868257D01*
X844565D01*
X846257Y-867411D01*
X847950Y-865717D01*
X848797Y-863178D01*
Y-861485D01*
X847950Y-858946D01*
X846257Y-857253D01*
X844565Y-856406D01*
X842025D01*
X862849Y-858946D02*
X861156Y-857253D01*
X859463Y-856406D01*
X856923D01*
X855230Y-857253D01*
X853537Y-858946D01*
X852691Y-861485D01*
Y-863178D01*
X853537Y-865717D01*
X855230Y-867411D01*
X856923Y-868257D01*
X859463D01*
X861156Y-867411D01*
X862849Y-865717D01*
X656137Y-774281D02*
X647672D01*
X646825Y-781899D01*
X647672Y-781053D01*
X650211Y-780206D01*
X652751D01*
X655290Y-781053D01*
X656983Y-782746D01*
X657830Y-785285D01*
Y-786978D01*
X656983Y-789518D01*
X655290Y-791210D01*
X652751Y-792057D01*
X650211D01*
X647672Y-791210D01*
X646825Y-790364D01*
X645979Y-788671D01*
X661808Y-794596D02*
X673659Y-774281D01*
X685002Y-776820D02*
X684156Y-775127D01*
X681616Y-774281D01*
X679923D01*
X677384Y-775127D01*
X675691Y-777667D01*
X674844Y-781899D01*
Y-786132D01*
X675691Y-789518D01*
X677384Y-791210D01*
X679923Y-792057D01*
X680770D01*
X683309Y-791210D01*
X685002Y-789518D01*
X685848Y-786978D01*
Y-786132D01*
X685002Y-783592D01*
X683309Y-781899D01*
X680770Y-781053D01*
X679923D01*
X677384Y-781899D01*
X675691Y-783592D01*
X674844Y-786132D01*
X689742Y-794596D02*
X701593Y-774281D01*
X703625Y-778513D02*
Y-777667D01*
X704471Y-775974D01*
X705318Y-775127D01*
X707011Y-774281D01*
X710396D01*
X712089Y-775127D01*
X712936Y-775974D01*
X713783Y-777667D01*
Y-779360D01*
X712936Y-781053D01*
X711243Y-783592D01*
X702778Y-792057D01*
X714629D01*
X723686Y-774281D02*
X721147Y-775127D01*
X719454Y-777667D01*
X718607Y-781899D01*
Y-784439D01*
X719454Y-788671D01*
X721147Y-791210D01*
X723686Y-792057D01*
X725379D01*
X727919Y-791210D01*
X729612Y-788671D01*
X730458Y-784439D01*
Y-781899D01*
X729612Y-777667D01*
X727919Y-775127D01*
X725379Y-774281D01*
X723686D01*
X735283Y-778513D02*
Y-777667D01*
X736130Y-775974D01*
X736976Y-775127D01*
X738669Y-774281D01*
X742055D01*
X743748Y-775127D01*
X744594Y-775974D01*
X745441Y-777667D01*
Y-779360D01*
X744594Y-781053D01*
X742902Y-783592D01*
X734437Y-792057D01*
X746288D01*
X755345Y-774281D02*
X752805Y-775127D01*
X751113Y-777667D01*
X750266Y-781899D01*
Y-784439D01*
X751113Y-788671D01*
X752805Y-791210D01*
X755345Y-792057D01*
X757038D01*
X759577Y-791210D01*
X761270Y-788671D01*
X762117Y-784439D01*
Y-781899D01*
X761270Y-777667D01*
X759577Y-775127D01*
X757038Y-774281D01*
X755345D01*
X1451664Y-922867D02*
Y-905093D01*
X1442777Y-913980D01*
X1454626D01*
X713797Y-908055D02*
X716759Y-905093D01*
X722684D01*
X725647Y-908055D01*
Y-911018D01*
X722684Y-913980D01*
X719722D01*
X722684D01*
X725647Y-916942D01*
Y-919905D01*
X722684Y-922867D01*
X716759D01*
X713797Y-919905D01*
X-5874Y-922867D02*
X-17723D01*
X-5874Y-911018D01*
Y-908055D01*
X-8836Y-905093D01*
X-14761D01*
X-17723Y-908055D01*
X-744163Y-908477D02*
X-742470Y-907630D01*
X-739930Y-905091D01*
Y-922867D01*
X715490Y974509D02*
X724801D01*
X719722Y967737D01*
X722262D01*
X723955Y966891D01*
X724801Y966044D01*
X725648Y963505D01*
Y961812D01*
X724801Y959273D01*
X723108Y957579D01*
X720569Y956733D01*
X718029D01*
X715490Y957579D01*
X714643Y958426D01*
X713797Y960119D01*
X-16876Y970277D02*
Y971123D01*
X-16030Y972816D01*
X-15184Y973663D01*
X-13491Y974509D01*
X-10105D01*
X-8412Y973663D01*
X-7565Y972816D01*
X-6719Y971123D01*
Y969430D01*
X-7565Y967737D01*
X-9258Y965198D01*
X-17723Y956733D01*
X-5872D01*
X-744163Y971123D02*
X-742470Y971970D01*
X-739930Y974509D01*
Y956733D01*
X-1087571Y-701383D02*
Y-719159D01*
Y-701383D02*
X-1081646D01*
X-1079106Y-702229D01*
X-1077413Y-703922D01*
X-1076567Y-705615D01*
X-1075720Y-708155D01*
Y-712387D01*
X-1076567Y-714927D01*
X-1077413Y-716619D01*
X-1079106Y-718313D01*
X-1081646Y-719159D01*
X-1087571D01*
X-1074874Y-225555D02*
X-1075720Y-223862D01*
X-1077413Y-222169D01*
X-1079106Y-221323D01*
X-1082492D01*
X-1084185Y-222169D01*
X-1085878Y-223862D01*
X-1086724Y-225555D01*
X-1087571Y-228095D01*
Y-232327D01*
X-1086724Y-234867D01*
X-1085878Y-236560D01*
X-1084185Y-238253D01*
X-1082492Y-239099D01*
X-1079106D01*
X-1077413Y-238253D01*
X-1075720Y-236560D01*
X-1074874Y-234867D01*
X-1087571Y263817D02*
Y246041D01*
Y263817D02*
X-1079953D01*
X-1077413Y262971D01*
X-1076567Y262124D01*
X-1075720Y260431D01*
Y258738D01*
X-1076567Y257045D01*
X-1077413Y256199D01*
X-1079953Y255352D01*
X-1087571D02*
X-1079953D01*
X-1077413Y254506D01*
X-1076567Y253659D01*
X-1075720Y251966D01*
Y249427D01*
X-1076567Y247734D01*
X-1077413Y246887D01*
X-1079953Y246041D01*
X-1087571D01*
X-1074027Y726609D02*
X-1080799Y744385D01*
X-1087571Y726609D01*
X-1085032Y732534D02*
X-1076567D01*
X1782629Y-701383D02*
Y-719159D01*
Y-701383D02*
X1788554D01*
X1791094Y-702229D01*
X1792787Y-703922D01*
X1793633Y-705615D01*
X1794480Y-708155D01*
Y-712387D01*
X1793633Y-714927D01*
X1792787Y-716619D01*
X1791094Y-718313D01*
X1788554Y-719159D01*
X1782629D01*
M02*
