G04*
G04 #@! TF.GenerationSoftware,Altium Limited,Altium Designer,20.1.7 (139)*
G04*
G04 Layer_Color=8421504*
%FSLAX44Y44*%
%MOMM*%
G71*
G04*
G04 #@! TF.SameCoordinates,35BF2D9B-2704-4646-8845-34ABFBBC40B6*
G04*
G04*
G04 #@! TF.FilePolarity,Positive*
G04*
G01*
G75*
%ADD11C,0.2500*%
%ADD22C,0.1270*%
%ADD23C,0.1778*%
%ADD24R,0.6000X0.5000*%
%ADD25R,0.6000X0.9000*%
%ADD26R,1.0000X1.8000*%
%ADD27R,3.6000X1.5000*%
%ADD28R,1.4500X0.2000*%
%ADD29R,0.2000X1.4500*%
%ADD30R,1.4000X1.0000*%
%ADD31R,1.0500X0.6000*%
%ADD32R,1.1500X0.6000*%
%ADD33R,0.6500X1.5250*%
%ADD34R,1.5250X0.6500*%
%ADD35R,1.2600X1.1700*%
%ADD36R,1.2000X1.4000*%
%ADD37R,1.2500X1.1000*%
%ADD38O,0.8000X0.4000*%
%ADD39R,1.6500X2.4000*%
%ADD40R,0.7000X1.4000*%
%ADD41R,1.3000X0.6000*%
%ADD42R,0.6000X1.1500*%
%ADD43R,1.4000X0.7000*%
%ADD44R,0.6000X1.3000*%
G36*
X429500Y390250D02*
X417500D01*
Y402250D01*
X429500D01*
Y390250D01*
D02*
G37*
G36*
X414500D02*
X402500D01*
Y402250D01*
X414500D01*
Y390250D01*
D02*
G37*
G36*
X399500D02*
X387500D01*
Y402250D01*
X399500D01*
Y390250D01*
D02*
G37*
G36*
X429500Y375250D02*
X417500D01*
Y387250D01*
X429500D01*
Y375250D01*
D02*
G37*
G36*
X414500D02*
X402500D01*
Y387250D01*
X414500D01*
Y375250D01*
D02*
G37*
G36*
X399500D02*
X387500D01*
Y387250D01*
X399500D01*
Y375250D01*
D02*
G37*
G36*
X429500Y360250D02*
X417500D01*
Y372250D01*
X429500D01*
Y360250D01*
D02*
G37*
G36*
X414500D02*
X402500D01*
Y372250D01*
X414500D01*
Y360250D01*
D02*
G37*
G36*
X399500D02*
X387500D01*
Y372250D01*
X399500D01*
Y360250D01*
D02*
G37*
G36*
X410400Y-780000D02*
X399300D01*
X384600Y-703100D01*
X394500D01*
X403300Y-749000D01*
Y-749100D01*
X403400Y-749500D01*
X403500Y-750200D01*
X403700Y-751100D01*
X403900Y-752100D01*
X404100Y-753400D01*
X404400Y-754700D01*
X404700Y-756200D01*
X405200Y-759400D01*
X405800Y-762700D01*
X406200Y-766100D01*
X406400Y-767600D01*
X406600Y-769100D01*
X406700Y-769000D01*
X406800Y-768700D01*
X407100Y-768200D01*
X407400Y-767500D01*
X407800Y-766600D01*
X408300Y-765700D01*
X408800Y-764600D01*
X409400Y-763500D01*
X410600Y-761000D01*
X412000Y-758400D01*
X413300Y-755800D01*
X414500Y-753500D01*
X441900Y-703100D01*
X452400D01*
X410400Y-780000D01*
D02*
G37*
G36*
X561399Y-703200D02*
X563200Y-703300D01*
X565299Y-703400D01*
X567399Y-703600D01*
X569399Y-704000D01*
X571199Y-704400D01*
X571299D01*
X571499Y-704500D01*
X571799Y-704600D01*
X572299Y-704700D01*
X573399Y-705100D01*
X574899Y-705700D01*
X576599Y-706500D01*
X578399Y-707500D01*
X580199Y-708700D01*
X581899Y-710200D01*
X581999D01*
X582099Y-710400D01*
X582599Y-710900D01*
X583399Y-711800D01*
X584399Y-713000D01*
X585499Y-714500D01*
X586699Y-716300D01*
X587799Y-718300D01*
X588699Y-720600D01*
Y-720700D01*
X588799Y-720900D01*
X588899Y-721200D01*
X589099Y-721700D01*
X589199Y-722300D01*
X589399Y-723000D01*
X589599Y-723800D01*
X589899Y-724700D01*
X590299Y-726700D01*
X590599Y-729100D01*
X590899Y-731800D01*
X590999Y-734600D01*
Y-734700D01*
Y-735000D01*
Y-735500D01*
Y-736200D01*
X590899Y-737000D01*
Y-737900D01*
X590799Y-739000D01*
X590599Y-740200D01*
X590299Y-742800D01*
X589799Y-745600D01*
X589099Y-748600D01*
X588099Y-751500D01*
Y-751600D01*
X587999Y-751800D01*
X587799Y-752200D01*
X587599Y-752800D01*
X587299Y-753400D01*
X586999Y-754200D01*
X586099Y-756000D01*
X585099Y-758100D01*
X583799Y-760400D01*
X582399Y-762700D01*
X580799Y-764900D01*
Y-765000D01*
X580599Y-765200D01*
X580399Y-765500D01*
X579999Y-765900D01*
X579099Y-766900D01*
X577899Y-768200D01*
X576499Y-769700D01*
X574899Y-771200D01*
X573099Y-772700D01*
X571299Y-774000D01*
X571199D01*
X571099Y-774100D01*
X570799Y-774300D01*
X570399Y-774500D01*
X569399Y-775100D01*
X567999Y-775800D01*
X566300Y-776600D01*
X564300Y-777400D01*
X562099Y-778200D01*
X559599Y-778800D01*
X559399D01*
X559100Y-778900D01*
X558699Y-779000D01*
X558200Y-779100D01*
X557599Y-779200D01*
X556100Y-779400D01*
X554199Y-779600D01*
X552099Y-779800D01*
X549599Y-779900D01*
X546899Y-780000D01*
X519300D01*
X535299Y-703100D01*
X560600D01*
X561399Y-703200D01*
D02*
G37*
G36*
X517500Y-711800D02*
X471900D01*
X466900Y-735800D01*
X511600D01*
X509800Y-744500D01*
X465100D01*
X459500Y-771300D01*
X508100D01*
X506300Y-780000D01*
X447500D01*
X463600Y-703100D01*
X519300D01*
X517500Y-711800D01*
D02*
G37*
G36*
X365900Y-780000D02*
X355900D01*
X352200Y-757900D01*
X321100D01*
X308800Y-780000D01*
X297500D01*
X340900Y-703100D01*
X353200D01*
X365900Y-780000D01*
D02*
G37*
%LPC*%
G36*
X557399Y-711800D02*
X543699D01*
X531300Y-771300D01*
X545600D01*
X546399Y-771200D01*
X547399D01*
X548400Y-771100D01*
X550700Y-770900D01*
X553200Y-770700D01*
X555700Y-770300D01*
X558200Y-769800D01*
X558400D01*
X558899Y-769600D01*
X559599Y-769400D01*
X560499Y-769100D01*
X561600Y-768700D01*
X562700Y-768300D01*
X565000Y-767100D01*
X565200Y-767000D01*
X565600Y-766700D01*
X566300Y-766100D01*
X567199Y-765400D01*
X568299Y-764500D01*
X569399Y-763400D01*
X570599Y-762200D01*
X571799Y-760800D01*
Y-760700D01*
X571999Y-760600D01*
X572199Y-760300D01*
X572499Y-759900D01*
X573199Y-758800D01*
X574099Y-757400D01*
X575099Y-755700D01*
X576199Y-753700D01*
X577199Y-751500D01*
X578199Y-749100D01*
Y-749000D01*
X578299Y-748800D01*
X578399Y-748400D01*
X578599Y-747900D01*
X578799Y-747300D01*
X578999Y-746600D01*
X579199Y-745700D01*
X579399Y-744700D01*
X579799Y-742500D01*
X580199Y-740000D01*
X580499Y-737200D01*
X580599Y-734100D01*
Y-734000D01*
Y-733700D01*
Y-733200D01*
Y-732500D01*
X580499Y-731800D01*
X580399Y-730900D01*
X580199Y-728800D01*
X579799Y-726500D01*
X579199Y-724100D01*
X578399Y-721800D01*
X577899Y-720700D01*
X577299Y-719700D01*
Y-719600D01*
X577199Y-719500D01*
X576699Y-718900D01*
X575999Y-718000D01*
X574999Y-717000D01*
X573799Y-715900D01*
X572399Y-714800D01*
X570799Y-713800D01*
X568999Y-713100D01*
X568799Y-713000D01*
X568299Y-712900D01*
X567399Y-712700D01*
X566100Y-712400D01*
X564500Y-712200D01*
X562500Y-712000D01*
X560099Y-711900D01*
X557399Y-711800D01*
D02*
G37*
G36*
X345800Y-711500D02*
Y-711600D01*
X345700Y-711800D01*
X345500Y-712200D01*
X345300Y-712700D01*
X345000Y-713300D01*
X344700Y-714100D01*
X344300Y-715000D01*
X343900Y-716000D01*
X343400Y-717100D01*
X342800Y-718300D01*
X341500Y-720900D01*
X339900Y-723900D01*
X338100Y-727200D01*
X325500Y-750000D01*
X351000D01*
X348000Y-730700D01*
Y-730600D01*
X347900Y-730200D01*
X347800Y-729600D01*
X347700Y-728800D01*
X347600Y-727800D01*
X347400Y-726700D01*
X347200Y-725400D01*
X347100Y-724000D01*
X346700Y-721000D01*
X346300Y-717700D01*
X346000Y-714500D01*
X345800Y-711500D01*
D02*
G37*
%LPD*%
D11*
X1620069Y-763933D02*
Y-777262D01*
X1626734Y-783927D01*
X1633398Y-777262D01*
Y-763933D01*
X1640063Y-783927D02*
X1646727D01*
X1643395D01*
Y-763933D01*
X1640063Y-767266D01*
X751069Y-689933D02*
Y-709927D01*
X761066D01*
X764398Y-706595D01*
Y-693266D01*
X761066Y-689933D01*
X751069D01*
X771063Y-709927D02*
Y-696598D01*
X777727Y-689933D01*
X784392Y-696598D01*
Y-709927D01*
Y-699930D01*
X771063D01*
X791056Y-709927D02*
Y-689933D01*
X801053D01*
X804385Y-693266D01*
Y-699930D01*
X801053Y-703262D01*
X791056D01*
X797721D02*
X804385Y-709927D01*
X749069Y-613933D02*
Y-633927D01*
X759066D01*
X762398Y-630595D01*
Y-617266D01*
X759066Y-613933D01*
X749069D01*
X769063Y-633927D02*
Y-620598D01*
X775727Y-613933D01*
X782392Y-620598D01*
Y-633927D01*
Y-623930D01*
X769063D01*
X789056Y-633927D02*
Y-613933D01*
X799053D01*
X802385Y-617266D01*
Y-623930D01*
X799053Y-627262D01*
X789056D01*
X795721D02*
X802385Y-633927D01*
X1089069Y-640927D02*
Y-620933D01*
X1095733Y-627598D01*
X1102398Y-620933D01*
Y-640927D01*
X1109063Y-620933D02*
Y-640927D01*
X1119059D01*
X1122392Y-637595D01*
Y-634263D01*
X1119059Y-630930D01*
X1109063D01*
X1119059D01*
X1122392Y-627598D01*
Y-624266D01*
X1119059Y-620933D01*
X1109063D01*
X1142385Y-640927D02*
X1129056D01*
X1142385Y-627598D01*
Y-624266D01*
X1139053Y-620933D01*
X1132388D01*
X1129056Y-624266D01*
X1149050Y-620933D02*
Y-640927D01*
Y-634263D01*
X1162379Y-620933D01*
X1152382Y-630930D01*
X1162379Y-640927D01*
X1182372D02*
X1169043D01*
X1182372Y-627598D01*
Y-624266D01*
X1179040Y-620933D01*
X1172375D01*
X1169043Y-624266D01*
X1209030Y-620933D02*
Y-634263D01*
X1215695Y-640927D01*
X1222359Y-634263D01*
Y-620933D01*
X1229024Y-640927D02*
X1235688D01*
X1232356D01*
Y-620933D01*
X1229024Y-624266D01*
X1245685Y-640927D02*
Y-627598D01*
X1252350Y-620933D01*
X1259014Y-627598D01*
Y-640927D01*
Y-630930D01*
X1245685D01*
D22*
X1084129Y-939377D02*
Y-888577D01*
X1001579D02*
Y-736177D01*
X1534979Y-888577D02*
Y-736177D01*
X620579Y-888577D02*
Y-583777D01*
X1763579Y-888577D02*
Y-583777D01*
X1001579D02*
X1763579D01*
X1001579Y-736177D02*
Y-583777D01*
X620579D02*
X1001579D01*
X620579Y-736177D02*
X1763579D01*
X620579Y-812377D02*
X1763579D01*
X620579Y-888577D02*
X1763579D01*
X620579Y-659977D02*
X1001579D01*
X264979Y-583777D02*
X620579D01*
X264979Y-888577D02*
Y-583777D01*
Y-888577D02*
X620579D01*
X353879Y-939377D02*
Y-888577D01*
X-376371Y-939377D02*
Y-888577D01*
X-1106621Y-456777D02*
X-1055821D01*
X-1106621Y25823D02*
X-1055821D01*
X-1106621Y508423D02*
X-1055821D01*
X-1106621Y-939377D02*
Y991023D01*
X1763579Y-456777D02*
X1814379D01*
X353879Y940223D02*
Y991023D01*
X-376371Y940223D02*
Y991023D01*
X-1055821Y940223D02*
X1763579D01*
Y-888577D02*
Y940223D01*
X-1055821Y-888577D02*
X1763579D01*
X-1055821D02*
Y940223D01*
X-1106621Y991023D02*
X1814379D01*
Y-939377D02*
Y991023D01*
X-1106621Y-939377D02*
X1814379D01*
X1555297Y-827982D02*
X1554209Y-826894D01*
X1552576Y-826349D01*
X1550400D01*
X1548767Y-826894D01*
X1547679Y-827982D01*
Y-829070D01*
X1548223Y-830159D01*
X1548767Y-830703D01*
X1549856Y-831247D01*
X1553121Y-832335D01*
X1554209Y-832879D01*
X1554753Y-833424D01*
X1555297Y-834512D01*
Y-836144D01*
X1554209Y-837233D01*
X1552576Y-837777D01*
X1550400D01*
X1548767Y-837233D01*
X1547679Y-836144D01*
X1566017Y-829070D02*
X1565473Y-827982D01*
X1564385Y-826894D01*
X1563297Y-826349D01*
X1561120D01*
X1560032Y-826894D01*
X1558943Y-827982D01*
X1558399Y-829070D01*
X1557855Y-830703D01*
Y-833424D01*
X1558399Y-835056D01*
X1558943Y-836144D01*
X1560032Y-837233D01*
X1561120Y-837777D01*
X1563297D01*
X1564385Y-837233D01*
X1565473Y-836144D01*
X1566017Y-835056D01*
X1577935Y-837777D02*
X1573582Y-826349D01*
X1569228Y-837777D01*
X1570861Y-833968D02*
X1576302D01*
X1580601Y-826349D02*
Y-837777D01*
X1587131D01*
X1595457Y-826349D02*
X1588383D01*
Y-837777D01*
X1595457D01*
X1588383Y-831791D02*
X1592736D01*
X1597906Y-830159D02*
X1597362Y-830703D01*
X1597906Y-831247D01*
X1598450Y-830703D01*
X1597906Y-830159D01*
Y-836689D02*
X1597362Y-837233D01*
X1597906Y-837777D01*
X1598450Y-837233D01*
X1597906Y-836689D01*
X633279Y-826349D02*
Y-837777D01*
Y-826349D02*
X640353D01*
X633279Y-831791D02*
X637632D01*
X641659Y-826349D02*
Y-837777D01*
X644054Y-826349D02*
Y-837777D01*
X650584D01*
X658909Y-826349D02*
X651835D01*
Y-837777D01*
X658909D01*
X651835Y-831791D02*
X656189D01*
X669793Y-826349D02*
Y-837777D01*
Y-826349D02*
X677411Y-837777D01*
Y-826349D02*
Y-837777D01*
X689274D02*
X684921Y-826349D01*
X680567Y-837777D01*
X682200Y-833968D02*
X687642D01*
X691941Y-826349D02*
Y-837777D01*
Y-826349D02*
X696294Y-837777D01*
X700647Y-826349D02*
X696294Y-837777D01*
X700647Y-826349D02*
Y-837777D01*
X710986Y-826349D02*
X703912D01*
Y-837777D01*
X710986D01*
X703912Y-831791D02*
X708266D01*
X713435Y-830159D02*
X712891Y-830703D01*
X713435Y-831247D01*
X713979Y-830703D01*
X713435Y-830159D01*
Y-836689D02*
X712891Y-837233D01*
X713435Y-837777D01*
X713979Y-837233D01*
X713435Y-836689D01*
X633279Y-678665D02*
X638176D01*
X639809Y-678121D01*
X640353Y-677577D01*
X640897Y-676489D01*
Y-674856D01*
X640353Y-673768D01*
X639809Y-673224D01*
X638176Y-672680D01*
X633279D01*
Y-684107D01*
X651618Y-675400D02*
X651073Y-674312D01*
X649985Y-673224D01*
X648897Y-672680D01*
X646720D01*
X645632Y-673224D01*
X644543Y-674312D01*
X643999Y-675400D01*
X643455Y-677033D01*
Y-679754D01*
X643999Y-681386D01*
X644543Y-682475D01*
X645632Y-683563D01*
X646720Y-684107D01*
X648897D01*
X649985Y-683563D01*
X651073Y-682475D01*
X651618Y-681386D01*
X654828Y-672680D02*
Y-684107D01*
Y-672680D02*
X659726D01*
X661358Y-673224D01*
X661902Y-673768D01*
X662447Y-674856D01*
Y-675945D01*
X661902Y-677033D01*
X661358Y-677577D01*
X659726Y-678121D01*
X654828D02*
X659726D01*
X661358Y-678665D01*
X661902Y-679210D01*
X662447Y-680298D01*
Y-681930D01*
X661902Y-683019D01*
X661358Y-683563D01*
X659726Y-684107D01*
X654828D01*
X673983Y-672680D02*
Y-684107D01*
Y-672680D02*
X677792D01*
X679425Y-673224D01*
X680513Y-674312D01*
X681057Y-675400D01*
X681601Y-677033D01*
Y-679754D01*
X681057Y-681386D01*
X680513Y-682475D01*
X679425Y-683563D01*
X677792Y-684107D01*
X673983D01*
X691233Y-672680D02*
X684159D01*
Y-684107D01*
X691233D01*
X684159Y-678121D02*
X688512D01*
X700756Y-674312D02*
X699668Y-673224D01*
X698035Y-672680D01*
X695859D01*
X694226Y-673224D01*
X693138Y-674312D01*
Y-675400D01*
X693682Y-676489D01*
X694226Y-677033D01*
X695314Y-677577D01*
X698579Y-678665D01*
X699668Y-679210D01*
X700212Y-679754D01*
X700756Y-680842D01*
Y-682475D01*
X699668Y-683563D01*
X698035Y-684107D01*
X695859D01*
X694226Y-683563D01*
X693138Y-682475D01*
X703314Y-672680D02*
Y-684107D01*
X713870Y-675400D02*
X713326Y-674312D01*
X712238Y-673224D01*
X711150Y-672680D01*
X708973D01*
X707885Y-673224D01*
X706796Y-674312D01*
X706252Y-675400D01*
X705708Y-677033D01*
Y-679754D01*
X706252Y-681386D01*
X706796Y-682475D01*
X707885Y-683563D01*
X708973Y-684107D01*
X711150D01*
X712238Y-683563D01*
X713326Y-682475D01*
X713870Y-681386D01*
Y-679754D01*
X711150D02*
X713870D01*
X716482Y-672680D02*
Y-684107D01*
Y-672680D02*
X724101Y-684107D01*
Y-672680D02*
Y-684107D01*
X734331Y-672680D02*
X727257D01*
Y-684107D01*
X734331D01*
X727257Y-678121D02*
X731610D01*
X736236Y-672680D02*
Y-684107D01*
Y-672680D02*
X741133D01*
X742766Y-673224D01*
X743310Y-673768D01*
X743854Y-674856D01*
Y-675945D01*
X743310Y-677033D01*
X742766Y-677577D01*
X741133Y-678121D01*
X736236D01*
X740045D02*
X743854Y-684107D01*
X746956Y-676489D02*
X746412Y-677033D01*
X746956Y-677577D01*
X747500Y-677033D01*
X746956Y-676489D01*
Y-683019D02*
X746412Y-683563D01*
X746956Y-684107D01*
X747500Y-683563D01*
X746956Y-683019D01*
X1018088Y-597749D02*
Y-609177D01*
X1014279Y-597749D02*
X1021897D01*
X1023258D02*
Y-609177D01*
X1029461Y-597749D02*
Y-609177D01*
X1025652Y-597749D02*
X1033271D01*
X1034631D02*
Y-609177D01*
X1041161D01*
X1049487Y-597749D02*
X1042413D01*
Y-609177D01*
X1049487D01*
X1042413Y-603191D02*
X1046766D01*
X1051936Y-601559D02*
X1051391Y-602103D01*
X1051936Y-602647D01*
X1052480Y-602103D01*
X1051936Y-601559D01*
Y-608089D02*
X1051391Y-608633D01*
X1051936Y-609177D01*
X1052480Y-608633D01*
X1051936Y-608089D01*
X1014279Y-756135D02*
X1019176D01*
X1020809Y-755591D01*
X1021353Y-755047D01*
X1021897Y-753959D01*
Y-752326D01*
X1021353Y-751238D01*
X1020809Y-750694D01*
X1019176Y-750150D01*
X1014279D01*
Y-761577D01*
X1033162D02*
X1028808Y-750150D01*
X1024455Y-761577D01*
X1026087Y-757768D02*
X1031529D01*
X1035828Y-750150D02*
Y-761577D01*
Y-750150D02*
X1040726D01*
X1042358Y-750694D01*
X1042902Y-751238D01*
X1043447Y-752326D01*
Y-753415D01*
X1042902Y-754503D01*
X1042358Y-755047D01*
X1040726Y-755591D01*
X1035828D01*
X1039637D02*
X1043447Y-761577D01*
X1049813Y-750150D02*
Y-761577D01*
X1046004Y-750150D02*
X1053622D01*
X1063962D02*
Y-761577D01*
Y-750150D02*
X1071580Y-761577D01*
Y-750150D02*
Y-761577D01*
X1078001Y-750150D02*
X1076913Y-750694D01*
X1075825Y-751782D01*
X1075280Y-752870D01*
X1074736Y-754503D01*
Y-757224D01*
X1075280Y-758856D01*
X1075825Y-759945D01*
X1076913Y-761033D01*
X1078001Y-761577D01*
X1080178D01*
X1081266Y-761033D01*
X1082355Y-759945D01*
X1082899Y-758856D01*
X1083443Y-757224D01*
Y-754503D01*
X1082899Y-752870D01*
X1082355Y-751782D01*
X1081266Y-750694D01*
X1080178Y-750150D01*
X1078001D01*
X1086654Y-760489D02*
X1086109Y-761033D01*
X1086654Y-761577D01*
X1087198Y-761033D01*
X1086654Y-760489D01*
X1090245Y-753959D02*
X1089701Y-754503D01*
X1090245Y-755047D01*
X1090789Y-754503D01*
X1090245Y-753959D01*
Y-760489D02*
X1089701Y-761033D01*
X1090245Y-761577D01*
X1090789Y-761033D01*
X1090245Y-760489D01*
X640353Y-597749D02*
X633279D01*
Y-609177D01*
X640353D01*
X633279Y-603191D02*
X637632D01*
X642258Y-597749D02*
Y-609177D01*
Y-597749D02*
X649876Y-609177D01*
Y-597749D02*
Y-609177D01*
X661195Y-600470D02*
X660651Y-599382D01*
X659562Y-598294D01*
X658474Y-597749D01*
X656297D01*
X655209Y-598294D01*
X654121Y-599382D01*
X653577Y-600470D01*
X653032Y-602103D01*
Y-604824D01*
X653577Y-606456D01*
X654121Y-607545D01*
X655209Y-608633D01*
X656297Y-609177D01*
X658474D01*
X659562Y-608633D01*
X660651Y-607545D01*
X661195Y-606456D01*
Y-604824D01*
X658474D02*
X661195D01*
X663807Y-597749D02*
Y-609177D01*
X666201Y-597749D02*
Y-609177D01*
Y-597749D02*
X673820Y-609177D01*
Y-597749D02*
Y-609177D01*
X684050Y-597749D02*
X676976D01*
Y-609177D01*
X684050D01*
X676976Y-603191D02*
X681329D01*
X693029Y-597749D02*
X685955D01*
Y-609177D01*
X693029D01*
X685955Y-603191D02*
X690308D01*
X694933Y-597749D02*
Y-609177D01*
Y-597749D02*
X699831D01*
X701463Y-598294D01*
X702008Y-598838D01*
X702552Y-599926D01*
Y-601015D01*
X702008Y-602103D01*
X701463Y-602647D01*
X699831Y-603191D01*
X694933D01*
X698743D02*
X702552Y-609177D01*
X705654Y-601559D02*
X705109Y-602103D01*
X705654Y-602647D01*
X706198Y-602103D01*
X705654Y-601559D01*
Y-608089D02*
X705109Y-608633D01*
X705654Y-609177D01*
X706198Y-608633D01*
X705654Y-608089D01*
X1014279Y-826349D02*
Y-837777D01*
Y-826349D02*
X1018088D01*
X1019721Y-826894D01*
X1020809Y-827982D01*
X1021353Y-829070D01*
X1021897Y-830703D01*
Y-833424D01*
X1021353Y-835056D01*
X1020809Y-836144D01*
X1019721Y-837233D01*
X1018088Y-837777D01*
X1014279D01*
X1024455Y-826349D02*
X1027176Y-837777D01*
X1029897Y-826349D02*
X1027176Y-837777D01*
X1029897Y-826349D02*
X1032617Y-837777D01*
X1035338Y-826349D02*
X1032617Y-837777D01*
X1045786Y-829070D02*
X1045242Y-827982D01*
X1044154Y-826894D01*
X1043066Y-826349D01*
X1040889D01*
X1039800Y-826894D01*
X1038712Y-827982D01*
X1038168Y-829070D01*
X1037624Y-830703D01*
Y-833424D01*
X1038168Y-835056D01*
X1038712Y-836144D01*
X1039800Y-837233D01*
X1040889Y-837777D01*
X1043066D01*
X1044154Y-837233D01*
X1045242Y-836144D01*
X1045786Y-835056D01*
Y-833424D01*
X1043066D02*
X1045786D01*
X1057377Y-826349D02*
Y-837777D01*
Y-826349D02*
X1064996Y-837777D01*
Y-826349D02*
Y-837777D01*
X1071417Y-826349D02*
X1070328Y-826894D01*
X1069240Y-827982D01*
X1068696Y-829070D01*
X1068152Y-830703D01*
Y-833424D01*
X1068696Y-835056D01*
X1069240Y-836144D01*
X1070328Y-837233D01*
X1071417Y-837777D01*
X1073594D01*
X1074682Y-837233D01*
X1075770Y-836144D01*
X1076314Y-835056D01*
X1076859Y-833424D01*
Y-830703D01*
X1076314Y-829070D01*
X1075770Y-827982D01*
X1074682Y-826894D01*
X1073594Y-826349D01*
X1071417D01*
X1080069Y-830159D02*
X1079525Y-830703D01*
X1080069Y-831247D01*
X1080613Y-830703D01*
X1080069Y-830159D01*
Y-836689D02*
X1079525Y-837233D01*
X1080069Y-837777D01*
X1080613Y-837233D01*
X1080069Y-836689D01*
X1547679Y-750150D02*
Y-761577D01*
Y-750150D02*
X1552576D01*
X1554209Y-750694D01*
X1554753Y-751238D01*
X1555297Y-752326D01*
Y-753415D01*
X1554753Y-754503D01*
X1554209Y-755047D01*
X1552576Y-755591D01*
X1547679D01*
X1551488D02*
X1555297Y-761577D01*
X1564929Y-750150D02*
X1557855D01*
Y-761577D01*
X1564929D01*
X1557855Y-755591D02*
X1562208D01*
X1566834Y-750150D02*
X1571187Y-761577D01*
X1575540Y-750150D02*
X1571187Y-761577D01*
X1577554Y-753959D02*
X1577010Y-754503D01*
X1577554Y-755047D01*
X1578098Y-754503D01*
X1577554Y-753959D01*
Y-760489D02*
X1577010Y-761033D01*
X1577554Y-761577D01*
X1578098Y-761033D01*
X1577554Y-760489D01*
X633279Y-750150D02*
Y-761577D01*
Y-750150D02*
X637088D01*
X638721Y-750694D01*
X639809Y-751782D01*
X640353Y-752870D01*
X640897Y-754503D01*
Y-757224D01*
X640353Y-758856D01*
X639809Y-759945D01*
X638721Y-761033D01*
X637088Y-761577D01*
X633279D01*
X652162D02*
X647808Y-750150D01*
X643455Y-761577D01*
X645088Y-757768D02*
X650529D01*
X658637Y-750150D02*
Y-761577D01*
X654828Y-750150D02*
X662447D01*
X670881D02*
X663807D01*
Y-761577D01*
X670881D01*
X663807Y-755591D02*
X668160D01*
X673330Y-753959D02*
X672786Y-754503D01*
X673330Y-755047D01*
X673874Y-754503D01*
X673330Y-753959D01*
Y-760489D02*
X672786Y-761033D01*
X673330Y-761577D01*
X673874Y-761033D01*
X673330Y-760489D01*
D23*
X645979Y-850481D02*
Y-868257D01*
Y-850481D02*
X652751Y-868257D01*
X659523Y-850481D02*
X652751Y-868257D01*
X659523Y-850481D02*
Y-868257D01*
X664602Y-850481D02*
Y-868257D01*
Y-850481D02*
X672220D01*
X674760Y-851327D01*
X675606Y-852174D01*
X676452Y-853867D01*
Y-855560D01*
X675606Y-857253D01*
X674760Y-858099D01*
X672220Y-858946D01*
X664602D02*
X672220D01*
X674760Y-859792D01*
X675606Y-860639D01*
X676452Y-862332D01*
Y-864871D01*
X675606Y-866564D01*
X674760Y-867411D01*
X672220Y-868257D01*
X664602D01*
X681277Y-854713D02*
Y-853867D01*
X682124Y-852174D01*
X682970Y-851327D01*
X684663Y-850481D01*
X688049D01*
X689742Y-851327D01*
X690589Y-852174D01*
X691435Y-853867D01*
Y-855560D01*
X690589Y-857253D01*
X688896Y-859792D01*
X680431Y-868257D01*
X692282D01*
X696260Y-850481D02*
Y-868257D01*
X708111Y-850481D02*
X696260Y-862332D01*
X700493Y-858099D02*
X708111Y-868257D01*
X712936Y-854713D02*
Y-853867D01*
X713783Y-852174D01*
X714629Y-851327D01*
X716322Y-850481D01*
X719708D01*
X721401Y-851327D01*
X722247Y-852174D01*
X723094Y-853867D01*
Y-855560D01*
X722247Y-857253D01*
X720554Y-859792D01*
X712089Y-868257D01*
X723940D01*
X727919Y-874182D02*
X741463D01*
X743748Y-850481D02*
X750520Y-868257D01*
X757292Y-850481D02*
X750520Y-868257D01*
X759577Y-853867D02*
X761270Y-853020D01*
X763810Y-850481D01*
Y-868257D01*
X773460Y-866564D02*
X772613Y-867411D01*
X773460Y-868257D01*
X774306Y-867411D01*
X773460Y-866564D01*
X778200Y-859792D02*
X785818D01*
X788358Y-858946D01*
X789204Y-858099D01*
X790051Y-856406D01*
Y-853867D01*
X789204Y-852174D01*
X788358Y-851327D01*
X785818Y-850481D01*
X778200D01*
Y-868257D01*
X804187Y-858946D02*
X802494Y-857253D01*
X800801Y-856406D01*
X798262D01*
X796569Y-857253D01*
X794876Y-858946D01*
X794029Y-861485D01*
Y-863178D01*
X794876Y-865717D01*
X796569Y-867411D01*
X798262Y-868257D01*
X800801D01*
X802494Y-867411D01*
X804187Y-865717D01*
X807996Y-850481D02*
Y-868257D01*
Y-858946D02*
X809689Y-857253D01*
X811382Y-856406D01*
X813922D01*
X815615Y-857253D01*
X817308Y-858946D01*
X818154Y-861485D01*
Y-863178D01*
X817308Y-865717D01*
X815615Y-867411D01*
X813922Y-868257D01*
X811382D01*
X809689Y-867411D01*
X807996Y-865717D01*
X821963Y-850481D02*
Y-868257D01*
Y-850481D02*
X827889D01*
X830428Y-851327D01*
X832121Y-853020D01*
X832968Y-854713D01*
X833814Y-857253D01*
Y-861485D01*
X832968Y-864025D01*
X832121Y-865717D01*
X830428Y-867411D01*
X827889Y-868257D01*
X821963D01*
X842025Y-856406D02*
X840332Y-857253D01*
X838639Y-858946D01*
X837793Y-861485D01*
Y-863178D01*
X838639Y-865717D01*
X840332Y-867411D01*
X842025Y-868257D01*
X844565D01*
X846257Y-867411D01*
X847950Y-865717D01*
X848797Y-863178D01*
Y-861485D01*
X847950Y-858946D01*
X846257Y-857253D01*
X844565Y-856406D01*
X842025D01*
X862849Y-858946D02*
X861156Y-857253D01*
X859463Y-856406D01*
X856923D01*
X855230Y-857253D01*
X853537Y-858946D01*
X852691Y-861485D01*
Y-863178D01*
X853537Y-865717D01*
X855230Y-867411D01*
X856923Y-868257D01*
X859463D01*
X861156Y-867411D01*
X862849Y-865717D01*
X656137Y-774281D02*
X647672D01*
X646825Y-781899D01*
X647672Y-781053D01*
X650211Y-780206D01*
X652751D01*
X655290Y-781053D01*
X656983Y-782746D01*
X657830Y-785285D01*
Y-786978D01*
X656983Y-789518D01*
X655290Y-791210D01*
X652751Y-792057D01*
X650211D01*
X647672Y-791210D01*
X646825Y-790364D01*
X645979Y-788671D01*
X661808Y-794596D02*
X673659Y-774281D01*
X685002Y-776820D02*
X684156Y-775127D01*
X681616Y-774281D01*
X679923D01*
X677384Y-775127D01*
X675691Y-777667D01*
X674844Y-781899D01*
Y-786132D01*
X675691Y-789518D01*
X677384Y-791210D01*
X679923Y-792057D01*
X680770D01*
X683309Y-791210D01*
X685002Y-789518D01*
X685848Y-786978D01*
Y-786132D01*
X685002Y-783592D01*
X683309Y-781899D01*
X680770Y-781053D01*
X679923D01*
X677384Y-781899D01*
X675691Y-783592D01*
X674844Y-786132D01*
X689742Y-794596D02*
X701593Y-774281D01*
X703625Y-778513D02*
Y-777667D01*
X704471Y-775974D01*
X705318Y-775127D01*
X707011Y-774281D01*
X710396D01*
X712089Y-775127D01*
X712936Y-775974D01*
X713783Y-777667D01*
Y-779360D01*
X712936Y-781053D01*
X711243Y-783592D01*
X702778Y-792057D01*
X714629D01*
X723686Y-774281D02*
X721147Y-775127D01*
X719454Y-777667D01*
X718607Y-781899D01*
Y-784439D01*
X719454Y-788671D01*
X721147Y-791210D01*
X723686Y-792057D01*
X725379D01*
X727919Y-791210D01*
X729612Y-788671D01*
X730458Y-784439D01*
Y-781899D01*
X729612Y-777667D01*
X727919Y-775127D01*
X725379Y-774281D01*
X723686D01*
X735283Y-778513D02*
Y-777667D01*
X736130Y-775974D01*
X736976Y-775127D01*
X738669Y-774281D01*
X742055D01*
X743748Y-775127D01*
X744594Y-775974D01*
X745441Y-777667D01*
Y-779360D01*
X744594Y-781053D01*
X742902Y-783592D01*
X734437Y-792057D01*
X746288D01*
X755345Y-774281D02*
X752805Y-775127D01*
X751113Y-777667D01*
X750266Y-781899D01*
Y-784439D01*
X751113Y-788671D01*
X752805Y-791210D01*
X755345Y-792057D01*
X757038D01*
X759577Y-791210D01*
X761270Y-788671D01*
X762117Y-784439D01*
Y-781899D01*
X761270Y-777667D01*
X759577Y-775127D01*
X757038Y-774281D01*
X755345D01*
X1451664Y-922867D02*
Y-905093D01*
X1442777Y-913980D01*
X1454626D01*
X713797Y-908055D02*
X716759Y-905093D01*
X722684D01*
X725647Y-908055D01*
Y-911018D01*
X722684Y-913980D01*
X719722D01*
X722684D01*
X725647Y-916942D01*
Y-919905D01*
X722684Y-922867D01*
X716759D01*
X713797Y-919905D01*
X-5874Y-922867D02*
X-17723D01*
X-5874Y-911018D01*
Y-908055D01*
X-8836Y-905093D01*
X-14761D01*
X-17723Y-908055D01*
X-744163Y-908477D02*
X-742470Y-907630D01*
X-739930Y-905091D01*
Y-922867D01*
X715490Y974509D02*
X724801D01*
X719722Y967737D01*
X722262D01*
X723955Y966891D01*
X724801Y966044D01*
X725648Y963505D01*
Y961812D01*
X724801Y959273D01*
X723108Y957579D01*
X720569Y956733D01*
X718029D01*
X715490Y957579D01*
X714643Y958426D01*
X713797Y960119D01*
X-16876Y970277D02*
Y971123D01*
X-16030Y972816D01*
X-15184Y973663D01*
X-13491Y974509D01*
X-10105D01*
X-8412Y973663D01*
X-7565Y972816D01*
X-6719Y971123D01*
Y969430D01*
X-7565Y967737D01*
X-9258Y965198D01*
X-17723Y956733D01*
X-5872D01*
X-744163Y971123D02*
X-742470Y971970D01*
X-739930Y974509D01*
Y956733D01*
X-1087571Y-701383D02*
Y-719159D01*
Y-701383D02*
X-1081646D01*
X-1079106Y-702229D01*
X-1077413Y-703922D01*
X-1076567Y-705615D01*
X-1075720Y-708155D01*
Y-712387D01*
X-1076567Y-714927D01*
X-1077413Y-716619D01*
X-1079106Y-718313D01*
X-1081646Y-719159D01*
X-1087571D01*
X-1074874Y-225555D02*
X-1075720Y-223862D01*
X-1077413Y-222169D01*
X-1079106Y-221323D01*
X-1082492D01*
X-1084185Y-222169D01*
X-1085878Y-223862D01*
X-1086724Y-225555D01*
X-1087571Y-228095D01*
Y-232327D01*
X-1086724Y-234867D01*
X-1085878Y-236560D01*
X-1084185Y-238253D01*
X-1082492Y-239099D01*
X-1079106D01*
X-1077413Y-238253D01*
X-1075720Y-236560D01*
X-1074874Y-234867D01*
X-1087571Y263817D02*
Y246041D01*
Y263817D02*
X-1079953D01*
X-1077413Y262971D01*
X-1076567Y262124D01*
X-1075720Y260431D01*
Y258738D01*
X-1076567Y257045D01*
X-1077413Y256199D01*
X-1079953Y255352D01*
X-1087571D02*
X-1079953D01*
X-1077413Y254506D01*
X-1076567Y253659D01*
X-1075720Y251966D01*
Y249427D01*
X-1076567Y247734D01*
X-1077413Y246887D01*
X-1079953Y246041D01*
X-1087571D01*
X-1074027Y726609D02*
X-1080799Y744385D01*
X-1087571Y726609D01*
X-1085032Y732534D02*
X-1076567D01*
X1782629Y-701383D02*
Y-719159D01*
Y-701383D02*
X1788554D01*
X1791094Y-702229D01*
X1792787Y-703922D01*
X1793633Y-705615D01*
X1794480Y-708155D01*
Y-712387D01*
X1793633Y-714927D01*
X1792787Y-716619D01*
X1791094Y-718313D01*
X1788554Y-719159D01*
X1782629D01*
D24*
X220255Y676499D02*
D03*
X200256Y676500D02*
D03*
X200255Y657501D02*
D03*
D25*
X220249Y659500D02*
D03*
D26*
X180250Y132500D02*
D03*
X207750D02*
D03*
D27*
X346500Y520500D02*
D03*
Y556500D02*
D03*
D28*
X331500Y443250D02*
D03*
Y439250D02*
D03*
Y435250D02*
D03*
Y431250D02*
D03*
Y427250D02*
D03*
Y423250D02*
D03*
Y419250D02*
D03*
Y415250D02*
D03*
Y411250D02*
D03*
Y407250D02*
D03*
Y403250D02*
D03*
Y399250D02*
D03*
Y395250D02*
D03*
Y391250D02*
D03*
Y387250D02*
D03*
Y383250D02*
D03*
Y379250D02*
D03*
Y375250D02*
D03*
Y371250D02*
D03*
Y367250D02*
D03*
Y363250D02*
D03*
Y359250D02*
D03*
Y355250D02*
D03*
Y351250D02*
D03*
Y347250D02*
D03*
Y343250D02*
D03*
Y339250D02*
D03*
Y335250D02*
D03*
Y331250D02*
D03*
Y327250D02*
D03*
Y323250D02*
D03*
Y319250D02*
D03*
X485500D02*
D03*
Y323250D02*
D03*
Y327250D02*
D03*
Y331250D02*
D03*
Y335250D02*
D03*
Y339250D02*
D03*
Y343250D02*
D03*
Y347250D02*
D03*
Y351250D02*
D03*
Y355250D02*
D03*
Y359250D02*
D03*
Y363250D02*
D03*
Y367250D02*
D03*
Y371250D02*
D03*
Y375250D02*
D03*
Y379250D02*
D03*
Y383250D02*
D03*
Y387250D02*
D03*
Y391250D02*
D03*
Y395250D02*
D03*
Y399250D02*
D03*
Y403250D02*
D03*
Y407250D02*
D03*
Y411250D02*
D03*
Y415250D02*
D03*
Y419250D02*
D03*
Y423250D02*
D03*
Y427250D02*
D03*
Y431250D02*
D03*
Y435250D02*
D03*
Y439250D02*
D03*
Y443250D02*
D03*
D29*
X346500Y304250D02*
D03*
X350500D02*
D03*
X354500D02*
D03*
X358500D02*
D03*
X362500D02*
D03*
X366500D02*
D03*
X370500D02*
D03*
X374500D02*
D03*
X378500D02*
D03*
X382500D02*
D03*
X386500D02*
D03*
X390500D02*
D03*
X394500D02*
D03*
X406500D02*
D03*
X410500D02*
D03*
X414500D02*
D03*
X418500D02*
D03*
X422500D02*
D03*
X426500D02*
D03*
X430500D02*
D03*
X434500D02*
D03*
X438500D02*
D03*
X442500D02*
D03*
X446500D02*
D03*
X450500D02*
D03*
X454500D02*
D03*
X458500D02*
D03*
X462500D02*
D03*
X466500D02*
D03*
X470500D02*
D03*
Y458250D02*
D03*
X466500D02*
D03*
X462500D02*
D03*
X458500D02*
D03*
X454500D02*
D03*
X450500D02*
D03*
X446500D02*
D03*
X442500D02*
D03*
X438500D02*
D03*
X434500D02*
D03*
X430500D02*
D03*
X426500D02*
D03*
X422500D02*
D03*
X418500D02*
D03*
X414500D02*
D03*
X410500D02*
D03*
X406500D02*
D03*
X402500D02*
D03*
X398500D02*
D03*
X394500D02*
D03*
X390500D02*
D03*
X386500D02*
D03*
X382500D02*
D03*
X378500D02*
D03*
X374500D02*
D03*
X370500D02*
D03*
X366500D02*
D03*
X362500D02*
D03*
X358500D02*
D03*
X354500D02*
D03*
X350500D02*
D03*
X346500D02*
D03*
X398500Y304250D02*
D03*
X402500D02*
D03*
D30*
X562000Y28500D02*
D03*
Y11500D02*
D03*
X618000Y28500D02*
D03*
Y11500D02*
D03*
D31*
X532000Y610750D02*
D03*
Y620250D02*
D03*
Y629750D02*
D03*
X505000D02*
D03*
Y610750D02*
D03*
X186500Y619500D02*
D03*
Y610000D02*
D03*
Y600500D02*
D03*
X213500D02*
D03*
Y619500D02*
D03*
D32*
X637500Y104500D02*
D03*
X615000Y95000D02*
D03*
Y114000D02*
D03*
D33*
X293450Y283370D02*
D03*
X306150D02*
D03*
X318850D02*
D03*
X331550D02*
D03*
Y229130D02*
D03*
X318850D02*
D03*
X306150D02*
D03*
X293450D02*
D03*
X547900Y714370D02*
D03*
X560600D02*
D03*
X573300D02*
D03*
X586000D02*
D03*
X598700D02*
D03*
X611400D02*
D03*
X624100D02*
D03*
Y660130D02*
D03*
X611400D02*
D03*
X598700D02*
D03*
X586000D02*
D03*
X573300D02*
D03*
X560600D02*
D03*
X547900D02*
D03*
X187700Y154880D02*
D03*
X200400D02*
D03*
X213100D02*
D03*
X225800D02*
D03*
Y209120D02*
D03*
X213100D02*
D03*
X200400D02*
D03*
X187700D02*
D03*
D34*
X577130Y610850D02*
D03*
Y598150D02*
D03*
Y585450D02*
D03*
Y572750D02*
D03*
Y560050D02*
D03*
Y547350D02*
D03*
Y534650D02*
D03*
X631370D02*
D03*
Y547350D02*
D03*
Y560050D02*
D03*
Y572750D02*
D03*
Y585450D02*
D03*
Y598150D02*
D03*
Y610850D02*
D03*
X629620Y346600D02*
D03*
Y333900D02*
D03*
Y321200D02*
D03*
Y308500D02*
D03*
Y295800D02*
D03*
Y283100D02*
D03*
Y270400D02*
D03*
X575380D02*
D03*
Y283100D02*
D03*
Y295800D02*
D03*
Y308500D02*
D03*
Y321200D02*
D03*
Y333900D02*
D03*
Y346600D02*
D03*
D35*
X134000Y211500D02*
D03*
X164500D02*
D03*
D36*
X205000Y493700D02*
D03*
Y468300D02*
D03*
X227000D02*
D03*
Y493700D02*
D03*
D37*
X562000Y430750D02*
D03*
X538500D02*
D03*
X288750Y65000D02*
D03*
X312250D02*
D03*
X288750Y40000D02*
D03*
X312250D02*
D03*
X288750Y15000D02*
D03*
X312250D02*
D03*
X289000Y173750D02*
D03*
X312500D02*
D03*
X289000Y148750D02*
D03*
X312500D02*
D03*
X289000Y123750D02*
D03*
X312500D02*
D03*
X289000Y98750D02*
D03*
X312500D02*
D03*
D38*
X315750Y520000D02*
D03*
Y529500D02*
D03*
Y539000D02*
D03*
X286250D02*
D03*
Y529500D02*
D03*
Y520000D02*
D03*
D39*
X301000Y529500D02*
D03*
D40*
X169000Y161750D02*
D03*
X147500D02*
D03*
X307250Y558750D02*
D03*
X285750D02*
D03*
X186750Y582500D02*
D03*
X208250D02*
D03*
X656000Y28750D02*
D03*
X634500D02*
D03*
X285250Y391250D02*
D03*
X306750D02*
D03*
X508250Y381000D02*
D03*
X529750D02*
D03*
X442000Y505750D02*
D03*
X463500D02*
D03*
X227000Y519000D02*
D03*
X205500D02*
D03*
D41*
X663750Y678000D02*
D03*
Y699500D02*
D03*
X273250Y250500D02*
D03*
Y229000D02*
D03*
X169250Y196750D02*
D03*
Y175250D02*
D03*
X658500Y538250D02*
D03*
Y559750D02*
D03*
Y607000D02*
D03*
Y585500D02*
D03*
X643000Y699500D02*
D03*
Y678000D02*
D03*
X615000Y128750D02*
D03*
Y150250D02*
D03*
X546250Y537500D02*
D03*
Y559000D02*
D03*
X390250Y258250D02*
D03*
Y279750D02*
D03*
X408750Y260000D02*
D03*
Y281500D02*
D03*
D42*
X317500Y627000D02*
D03*
X336500D02*
D03*
X327000Y649500D02*
D03*
X282250Y627000D02*
D03*
X301250D02*
D03*
X291750Y649500D02*
D03*
D43*
X162500Y606000D02*
D03*
Y627500D02*
D03*
X231250Y598000D02*
D03*
Y619500D02*
D03*
X380750Y536500D02*
D03*
Y515000D02*
D03*
X231000Y111250D02*
D03*
Y132750D02*
D03*
X157000Y111000D02*
D03*
Y132500D02*
D03*
X426250Y480250D02*
D03*
Y501750D02*
D03*
X427750Y281000D02*
D03*
Y259500D02*
D03*
X368500Y288750D02*
D03*
Y267250D02*
D03*
D44*
X328000Y499000D02*
D03*
X349500D02*
D03*
X294000D02*
D03*
X315500D02*
D03*
X317500Y610000D02*
D03*
X339000D02*
D03*
X560250Y412250D02*
D03*
X538750D02*
D03*
X279500Y609500D02*
D03*
X301000D02*
D03*
X590500Y517500D02*
D03*
X612000D02*
D03*
X652750Y517500D02*
D03*
X631250D02*
D03*
X546750Y28500D02*
D03*
X525250D02*
D03*
X507750Y594000D02*
D03*
X529250D02*
D03*
X375500Y480000D02*
D03*
X354000D02*
D03*
X463000Y487250D02*
D03*
X441500D02*
D03*
X261750Y468500D02*
D03*
X240250D02*
D03*
M02*
