G04*
G04 #@! TF.GenerationSoftware,Altium Limited,Altium Designer,20.1.7 (139)*
G04*
G04 Layer_Physical_Order=2*
G04 Layer_Color=36540*
%FSLAX44Y44*%
%MOMM*%
G71*
G04*
G04 #@! TF.SameCoordinates,35BF2D9B-2704-4646-8845-34ABFBBC40B6*
G04*
G04*
G04 #@! TF.FilePolarity,Positive*
G04*
G01*
G75*
%ADD11C,0.2500*%
%ADD14C,0.2000*%
%ADD16C,0.1500*%
%ADD22C,0.1270*%
%ADD23C,0.1778*%
%ADD69R,1.7000X1.7000*%
%ADD75C,1.3900*%
%ADD98C,1.2000*%
%ADD99C,2.0000*%
%ADD100R,1.8000X1.8000*%
%ADD101C,1.8000*%
%ADD102C,1.5240*%
%ADD107C,2.8950*%
%ADD109C,1.6000*%
%ADD110R,1.6000X1.6000*%
%ADD112C,1.3000*%
%ADD113C,4.0000*%
%ADD114C,0.6000*%
%ADD115C,1.6500*%
%ADD116C,0.3000*%
%ADD117R,2.3000X1.9750*%
G36*
X796156Y3844D02*
X3844D01*
Y613810D01*
X5114Y613935D01*
X5290Y613049D01*
X6395Y611395D01*
X8049Y610290D01*
X9000Y610101D01*
Y615000D01*
Y619899D01*
X8049Y619710D01*
X6395Y618605D01*
X5290Y616951D01*
X5114Y616065D01*
X3844Y616190D01*
Y796156D01*
X796156D01*
Y3844D01*
D02*
G37*
G36*
X410400Y-780000D02*
X399300D01*
X384600Y-703100D01*
X394500D01*
X403300Y-749000D01*
Y-749100D01*
X403400Y-749500D01*
X403500Y-750200D01*
X403700Y-751100D01*
X403900Y-752100D01*
X404100Y-753400D01*
X404400Y-754700D01*
X404700Y-756200D01*
X405200Y-759400D01*
X405800Y-762700D01*
X406200Y-766100D01*
X406400Y-767600D01*
X406600Y-769100D01*
X406700Y-769000D01*
X406800Y-768700D01*
X407100Y-768200D01*
X407400Y-767500D01*
X407800Y-766600D01*
X408300Y-765700D01*
X408800Y-764600D01*
X409400Y-763500D01*
X410600Y-761000D01*
X412000Y-758400D01*
X413300Y-755800D01*
X414500Y-753500D01*
X441900Y-703100D01*
X452400D01*
X410400Y-780000D01*
D02*
G37*
G36*
X561399Y-703200D02*
X563200Y-703300D01*
X565299Y-703400D01*
X567399Y-703600D01*
X569399Y-704000D01*
X571199Y-704400D01*
X571299D01*
X571499Y-704500D01*
X571799Y-704600D01*
X572299Y-704700D01*
X573399Y-705100D01*
X574899Y-705700D01*
X576599Y-706500D01*
X578399Y-707500D01*
X580199Y-708700D01*
X581899Y-710200D01*
X581999D01*
X582099Y-710400D01*
X582599Y-710900D01*
X583399Y-711800D01*
X584399Y-713000D01*
X585499Y-714500D01*
X586699Y-716300D01*
X587799Y-718300D01*
X588699Y-720600D01*
Y-720700D01*
X588799Y-720900D01*
X588899Y-721200D01*
X589099Y-721700D01*
X589199Y-722300D01*
X589399Y-723000D01*
X589599Y-723800D01*
X589899Y-724700D01*
X590299Y-726700D01*
X590599Y-729100D01*
X590899Y-731800D01*
X590999Y-734600D01*
Y-734700D01*
Y-735000D01*
Y-735500D01*
Y-736200D01*
X590899Y-737000D01*
Y-737900D01*
X590799Y-739000D01*
X590599Y-740200D01*
X590299Y-742800D01*
X589799Y-745600D01*
X589099Y-748600D01*
X588099Y-751500D01*
Y-751600D01*
X587999Y-751800D01*
X587799Y-752200D01*
X587599Y-752800D01*
X587299Y-753400D01*
X586999Y-754200D01*
X586099Y-756000D01*
X585099Y-758100D01*
X583799Y-760400D01*
X582399Y-762700D01*
X580799Y-764900D01*
Y-765000D01*
X580599Y-765200D01*
X580399Y-765500D01*
X579999Y-765900D01*
X579099Y-766900D01*
X577899Y-768200D01*
X576499Y-769700D01*
X574899Y-771200D01*
X573099Y-772700D01*
X571299Y-774000D01*
X571199D01*
X571099Y-774100D01*
X570799Y-774300D01*
X570399Y-774500D01*
X569399Y-775100D01*
X567999Y-775800D01*
X566300Y-776600D01*
X564300Y-777400D01*
X562099Y-778200D01*
X559599Y-778800D01*
X559399D01*
X559100Y-778900D01*
X558699Y-779000D01*
X558200Y-779100D01*
X557599Y-779200D01*
X556100Y-779400D01*
X554199Y-779600D01*
X552099Y-779800D01*
X549599Y-779900D01*
X546899Y-780000D01*
X519300D01*
X535299Y-703100D01*
X560600D01*
X561399Y-703200D01*
D02*
G37*
G36*
X517500Y-711800D02*
X471900D01*
X466900Y-735800D01*
X511600D01*
X509800Y-744500D01*
X465100D01*
X459500Y-771300D01*
X508100D01*
X506300Y-780000D01*
X447500D01*
X463600Y-703100D01*
X519300D01*
X517500Y-711800D01*
D02*
G37*
G36*
X365900Y-780000D02*
X355900D01*
X352200Y-757900D01*
X321100D01*
X308800Y-780000D01*
X297500D01*
X340900Y-703100D01*
X353200D01*
X365900Y-780000D01*
D02*
G37*
%LPC*%
G36*
X645500Y786573D02*
X643281Y786281D01*
X641213Y785425D01*
X639438Y784062D01*
X638700Y783101D01*
X637100D01*
X636362Y784062D01*
X634587Y785425D01*
X632519Y786281D01*
X630300Y786573D01*
X628081Y786281D01*
X626013Y785425D01*
X624238Y784062D01*
X623144Y782637D01*
X623138Y782634D01*
X621961Y782533D01*
X621639Y782620D01*
X620806Y783706D01*
X619134Y784988D01*
X617188Y785794D01*
X616100Y785937D01*
Y778000D01*
X614100D01*
Y785937D01*
X613012Y785794D01*
X611065Y784988D01*
X609394Y783706D01*
X608561Y782620D01*
X608239Y782533D01*
X607062Y782634D01*
X607056Y782637D01*
X605962Y784062D01*
X604187Y785425D01*
X602119Y786281D01*
X599900Y786573D01*
X597681Y786281D01*
X595613Y785425D01*
X594470Y784547D01*
X593200Y785174D01*
Y786500D01*
X576200D01*
Y784330D01*
X574930Y783917D01*
X573535Y784988D01*
X571588Y785794D01*
X570500Y785937D01*
Y778000D01*
Y769714D01*
X570549Y769654D01*
X570859Y768829D01*
X569675Y767287D01*
X568819Y765219D01*
X568527Y763000D01*
X568819Y760781D01*
X569675Y758713D01*
X571038Y756938D01*
X572813Y755575D01*
X574881Y754719D01*
X577100Y754427D01*
X579319Y754719D01*
X581387Y755575D01*
X583162Y756938D01*
X584255Y758363D01*
X584262Y758366D01*
X585439Y758467D01*
X585761Y758380D01*
X586594Y757294D01*
X588265Y756012D01*
X590212Y755206D01*
X591300Y755063D01*
Y763000D01*
X593300D01*
Y755063D01*
X594388Y755206D01*
X596334Y756012D01*
X598006Y757294D01*
X598839Y758380D01*
X599161Y758467D01*
X600338Y758366D01*
X600344Y758363D01*
X601438Y756938D01*
X603213Y755575D01*
X605281Y754719D01*
X607500Y754427D01*
X609719Y754719D01*
X611787Y755575D01*
X613562Y756938D01*
X614300Y757899D01*
X615900D01*
X616638Y756938D01*
X618413Y755575D01*
X620481Y754719D01*
X622700Y754427D01*
X624919Y754719D01*
X626987Y755575D01*
X628762Y756938D01*
X629500Y757899D01*
X631100D01*
X631838Y756938D01*
X633613Y755575D01*
X635681Y754719D01*
X637900Y754427D01*
X640119Y754719D01*
X642187Y755575D01*
X643962Y756938D01*
X644700Y757899D01*
X646300D01*
X647038Y756938D01*
X648813Y755575D01*
X650881Y754719D01*
X653100Y754427D01*
X655319Y754719D01*
X657387Y755575D01*
X659162Y756938D01*
X659900Y757899D01*
X661500D01*
X662238Y756938D01*
X664013Y755575D01*
X666081Y754719D01*
X668300Y754427D01*
X670519Y754719D01*
X672587Y755575D01*
X674362Y756938D01*
X675725Y758713D01*
X676581Y760781D01*
X676873Y763000D01*
X676581Y765219D01*
X675725Y767287D01*
X674541Y768829D01*
X674851Y769654D01*
X674900Y769714D01*
Y778000D01*
Y785937D01*
X673812Y785794D01*
X671865Y784988D01*
X670194Y783706D01*
X669010Y782162D01*
X668300Y782086D01*
X667590Y782162D01*
X666406Y783706D01*
X664734Y784988D01*
X662788Y785794D01*
X661700Y785937D01*
Y778000D01*
X659700D01*
Y785937D01*
X658612Y785794D01*
X656665Y784988D01*
X654994Y783706D01*
X654161Y782620D01*
X653839Y782533D01*
X652662Y782634D01*
X652656Y782637D01*
X651562Y784062D01*
X649787Y785425D01*
X647719Y786281D01*
X645500Y786573D01*
D02*
G37*
G36*
X676900Y785937D02*
Y779000D01*
X683837D01*
X683694Y780088D01*
X682888Y782035D01*
X681606Y783706D01*
X679934Y784988D01*
X677988Y785794D01*
X676900Y785937D01*
D02*
G37*
G36*
X568500D02*
X567412Y785794D01*
X565466Y784988D01*
X563794Y783706D01*
X562512Y782035D01*
X561706Y780088D01*
X561563Y779000D01*
X568500D01*
Y785937D01*
D02*
G37*
G36*
X683837Y777000D02*
X676900D01*
Y770063D01*
X677988Y770206D01*
X679934Y771012D01*
X681606Y772294D01*
X682888Y773966D01*
X683694Y775912D01*
X683837Y777000D01*
D02*
G37*
G36*
X568500D02*
X561563D01*
X561706Y775912D01*
X562512Y773966D01*
X563794Y772294D01*
X565466Y771012D01*
X567412Y770206D01*
X568500Y770063D01*
Y777000D01*
D02*
G37*
G36*
X717930Y785155D02*
X714758Y784737D01*
X711803Y783513D01*
X709265Y781565D01*
X707317Y779027D01*
X706093Y776072D01*
X705675Y772900D01*
X706093Y769728D01*
X707317Y766773D01*
X709265Y764234D01*
X711803Y762287D01*
X714758Y761063D01*
X717930Y760645D01*
X721102Y761063D01*
X724057Y762287D01*
X726596Y764234D01*
X728543Y766773D01*
X729767Y769728D01*
X730185Y772900D01*
X729767Y776072D01*
X728543Y779027D01*
X726596Y781565D01*
X724057Y783513D01*
X721102Y784737D01*
X717930Y785155D01*
D02*
G37*
G36*
X527470D02*
X524298Y784737D01*
X521343Y783513D01*
X518805Y781565D01*
X516857Y779027D01*
X515633Y776072D01*
X515215Y772900D01*
X515633Y769728D01*
X516857Y766773D01*
X518805Y764234D01*
X521343Y762287D01*
X524298Y761063D01*
X527470Y760645D01*
X530642Y761063D01*
X533597Y762287D01*
X536135Y764234D01*
X538083Y766773D01*
X539307Y769728D01*
X539725Y772900D01*
X539307Y776072D01*
X538083Y779027D01*
X536135Y781565D01*
X533597Y783513D01*
X530642Y784737D01*
X527470Y785155D01*
D02*
G37*
G36*
X521750Y760399D02*
Y756500D01*
X525649D01*
X525460Y757451D01*
X524355Y759105D01*
X522701Y760210D01*
X521750Y760399D01*
D02*
G37*
G36*
X519750D02*
X518799Y760210D01*
X517145Y759105D01*
X516040Y757451D01*
X515851Y756500D01*
X519750D01*
Y760399D01*
D02*
G37*
G36*
X333000Y792197D02*
X329089Y791811D01*
X325328Y790670D01*
X321863Y788818D01*
X318825Y786325D01*
X316332Y783287D01*
X314479Y779821D01*
X313339Y776061D01*
X312953Y772150D01*
X313339Y768239D01*
X314479Y764479D01*
X316332Y761013D01*
X318825Y757975D01*
X321863Y755482D01*
X325328Y753629D01*
X329089Y752489D01*
X333000Y752103D01*
X336911Y752489D01*
X340671Y753629D01*
X344137Y755482D01*
X347175Y757975D01*
X349668Y761013D01*
X351521Y764479D01*
X352661Y768239D01*
X353046Y772150D01*
X352661Y776061D01*
X351521Y779821D01*
X349668Y783287D01*
X347175Y786325D01*
X344137Y788818D01*
X340671Y790670D01*
X336911Y791811D01*
X333000Y792197D01*
D02*
G37*
G36*
X525649Y754500D02*
X521750D01*
Y750601D01*
X522701Y750790D01*
X524355Y751895D01*
X525460Y753549D01*
X525649Y754500D01*
D02*
G37*
G36*
X519750D02*
X515851D01*
X516040Y753549D01*
X517145Y751895D01*
X518799Y750790D01*
X519750Y750601D01*
Y754500D01*
D02*
G37*
G36*
X134250Y753399D02*
Y749500D01*
X138149D01*
X137960Y750451D01*
X136855Y752105D01*
X135201Y753210D01*
X134250Y753399D01*
D02*
G37*
G36*
X132250D02*
X131299Y753210D01*
X129645Y752105D01*
X128540Y750451D01*
X128351Y749500D01*
X132250D01*
Y753399D01*
D02*
G37*
G36*
X108250D02*
Y749500D01*
X112149D01*
X111960Y750451D01*
X110855Y752105D01*
X109201Y753210D01*
X108250Y753399D01*
D02*
G37*
G36*
X106250D02*
X105299Y753210D01*
X103645Y752105D01*
X102540Y750451D01*
X102351Y749500D01*
X106250D01*
Y753399D01*
D02*
G37*
G36*
X400600Y784097D02*
X396689Y783711D01*
X392929Y782570D01*
X389463Y780718D01*
X386425Y778225D01*
X383932Y775187D01*
X382079Y771721D01*
X380939Y767961D01*
X380553Y764050D01*
X380939Y760139D01*
X382079Y756378D01*
X383932Y752913D01*
X386425Y749875D01*
X389463Y747382D01*
X392929Y745529D01*
X396689Y744389D01*
X400600Y744003D01*
X404511Y744389D01*
X408271Y745529D01*
X411737Y747382D01*
X414775Y749875D01*
X417268Y752913D01*
X419120Y756378D01*
X420261Y760139D01*
X420647Y764050D01*
X420261Y767961D01*
X419120Y771721D01*
X417268Y775187D01*
X414775Y778225D01*
X411737Y780718D01*
X408271Y782570D01*
X404511Y783711D01*
X400600Y784097D01*
D02*
G37*
G36*
X265400D02*
X261489Y783711D01*
X257729Y782570D01*
X254263Y780718D01*
X251225Y778225D01*
X248732Y775187D01*
X246879Y771721D01*
X245739Y767961D01*
X245354Y764050D01*
X245739Y760139D01*
X246879Y756378D01*
X248732Y752913D01*
X251225Y749875D01*
X254263Y747382D01*
X257729Y745529D01*
X261489Y744389D01*
X265400Y744003D01*
X269311Y744389D01*
X273071Y745529D01*
X276537Y747382D01*
X279575Y749875D01*
X282068Y752913D01*
X283920Y756378D01*
X285061Y760139D01*
X285446Y764050D01*
X285061Y767961D01*
X283920Y771721D01*
X282068Y775187D01*
X279575Y778225D01*
X276537Y780718D01*
X273071Y782570D01*
X269311Y783711D01*
X265400Y784097D01*
D02*
G37*
G36*
X138149Y747500D02*
X134250D01*
Y743601D01*
X135201Y743790D01*
X136855Y744895D01*
X137960Y746549D01*
X138149Y747500D01*
D02*
G37*
G36*
X132250D02*
X128351D01*
X128540Y746549D01*
X129645Y744895D01*
X131299Y743790D01*
X132250Y743601D01*
Y747500D01*
D02*
G37*
G36*
X112149D02*
X108250D01*
Y743601D01*
X109201Y743790D01*
X110855Y744895D01*
X111960Y746549D01*
X112149Y747500D01*
D02*
G37*
G36*
X106250D02*
X102351D01*
X102540Y746549D01*
X103645Y744895D01*
X105299Y743790D01*
X106250Y743601D01*
Y747500D01*
D02*
G37*
G36*
X777350Y756356D02*
Y740900D01*
X792806D01*
X792587Y743130D01*
X791645Y746235D01*
X790115Y749097D01*
X788056Y751606D01*
X785547Y753665D01*
X782685Y755194D01*
X779580Y756137D01*
X777350Y756356D01*
D02*
G37*
G36*
X775350D02*
X773120Y756137D01*
X770015Y755194D01*
X767153Y753665D01*
X764644Y751606D01*
X762585Y749097D01*
X761055Y746235D01*
X760113Y743130D01*
X759894Y740900D01*
X775350D01*
Y756356D01*
D02*
G37*
G36*
X470050D02*
Y740900D01*
X485506D01*
X485287Y743130D01*
X484344Y746235D01*
X482815Y749097D01*
X480756Y751606D01*
X478247Y753665D01*
X475385Y755194D01*
X472280Y756137D01*
X470050Y756356D01*
D02*
G37*
G36*
X468050D02*
X465820Y756137D01*
X462715Y755194D01*
X459853Y753665D01*
X457344Y751606D01*
X455285Y749097D01*
X453755Y746235D01*
X452813Y743130D01*
X452594Y740900D01*
X468050D01*
Y756356D01*
D02*
G37*
G36*
X300500Y742946D02*
Y735050D01*
X308396D01*
X308220Y736386D01*
X307318Y738564D01*
X305883Y740433D01*
X304014Y741868D01*
X301836Y742770D01*
X300500Y742946D01*
D02*
G37*
G36*
X298500D02*
X297164Y742770D01*
X294986Y741868D01*
X293117Y740433D01*
X291682Y738564D01*
X290780Y736386D01*
X290604Y735050D01*
X298500D01*
Y742946D01*
D02*
G37*
G36*
X599750Y733899D02*
Y730000D01*
X603649D01*
X603460Y730951D01*
X602355Y732605D01*
X600701Y733710D01*
X599750Y733899D01*
D02*
G37*
G36*
X597750D02*
X596799Y733710D01*
X595145Y732605D01*
X594040Y730951D01*
X593851Y730000D01*
X597750D01*
Y733899D01*
D02*
G37*
G36*
X725750Y731399D02*
Y727500D01*
X729649D01*
X729460Y728451D01*
X728355Y730105D01*
X726701Y731210D01*
X725750Y731399D01*
D02*
G37*
G36*
X723750D02*
X722799Y731210D01*
X721145Y730105D01*
X720040Y728451D01*
X719851Y727500D01*
X723750D01*
Y731399D01*
D02*
G37*
G36*
X308396Y733050D02*
X300500D01*
Y725154D01*
X301836Y725330D01*
X304014Y726232D01*
X305883Y727667D01*
X307318Y729536D01*
X308220Y731713D01*
X308396Y733050D01*
D02*
G37*
G36*
X298500D02*
X290604D01*
X290780Y731713D01*
X291682Y729536D01*
X293117Y727667D01*
X294986Y726232D01*
X297164Y725330D01*
X298500Y725154D01*
Y733050D01*
D02*
G37*
G36*
X624000Y735858D02*
X621854Y735431D01*
X620035Y734215D01*
X618819Y732396D01*
X618392Y730250D01*
X618819Y728104D01*
X620035Y726285D01*
X621854Y725069D01*
X624000Y724642D01*
X626146Y725069D01*
X627965Y726285D01*
X629181Y728104D01*
X629608Y730250D01*
X629181Y732396D01*
X627965Y734215D01*
X626146Y735431D01*
X624000Y735858D01*
D02*
G37*
G36*
X329450Y743500D02*
X310550D01*
Y724600D01*
X329450D01*
Y743500D01*
D02*
G37*
G36*
X366500Y743581D02*
X364033Y743257D01*
X361734Y742305D01*
X359760Y740790D01*
X358245Y738816D01*
X357293Y736517D01*
X356968Y734050D01*
X357293Y731583D01*
X358245Y729284D01*
X359760Y727310D01*
X361734Y725795D01*
X364033Y724843D01*
X366500Y724518D01*
X368967Y724843D01*
X371266Y725795D01*
X373240Y727310D01*
X374754Y729284D01*
X375707Y731583D01*
X376031Y734050D01*
X375707Y736517D01*
X374754Y738816D01*
X373240Y740790D01*
X371266Y742305D01*
X368967Y743257D01*
X366500Y743581D01*
D02*
G37*
G36*
X346000D02*
X343533Y743257D01*
X341234Y742305D01*
X339260Y740790D01*
X337745Y738816D01*
X336793Y736517D01*
X336468Y734050D01*
X336793Y731583D01*
X337745Y729284D01*
X339260Y727310D01*
X341234Y725795D01*
X343533Y724843D01*
X346000Y724518D01*
X348467Y724843D01*
X350766Y725795D01*
X352740Y727310D01*
X354254Y729284D01*
X355207Y731583D01*
X355532Y734050D01*
X355207Y736517D01*
X354254Y738816D01*
X352740Y740790D01*
X350766Y742305D01*
X348467Y743257D01*
X346000Y743581D01*
D02*
G37*
G36*
X603649Y728000D02*
X599750D01*
Y724101D01*
X600701Y724290D01*
X602355Y725395D01*
X603460Y727049D01*
X603649Y728000D01*
D02*
G37*
G36*
X597750D02*
X593851D01*
X594040Y727049D01*
X595145Y725395D01*
X596799Y724290D01*
X597750Y724101D01*
Y728000D01*
D02*
G37*
G36*
X792806Y738900D02*
X777350D01*
Y723444D01*
X779580Y723663D01*
X782685Y724605D01*
X785547Y726135D01*
X788056Y728194D01*
X790115Y730703D01*
X791645Y733565D01*
X792587Y736670D01*
X792806Y738900D01*
D02*
G37*
G36*
X775350D02*
X759894D01*
X760113Y736670D01*
X761055Y733565D01*
X762585Y730703D01*
X764644Y728194D01*
X767153Y726135D01*
X770015Y724605D01*
X773120Y723663D01*
X775350Y723444D01*
Y738900D01*
D02*
G37*
G36*
X485506D02*
X470050D01*
Y723444D01*
X472280Y723663D01*
X475385Y724605D01*
X478247Y726135D01*
X480756Y728194D01*
X482815Y730703D01*
X484344Y733565D01*
X485287Y736670D01*
X485506Y738900D01*
D02*
G37*
G36*
X468050D02*
X452594D01*
X452813Y736670D01*
X453755Y733565D01*
X455285Y730703D01*
X457344Y728194D01*
X459853Y726135D01*
X462715Y724605D01*
X465820Y723663D01*
X468050Y723444D01*
Y738900D01*
D02*
G37*
G36*
X237750Y725649D02*
Y721750D01*
X241649D01*
X241460Y722701D01*
X240355Y724355D01*
X238701Y725460D01*
X237750Y725649D01*
D02*
G37*
G36*
X235750D02*
X234799Y725460D01*
X233145Y724355D01*
X232040Y722701D01*
X231851Y721750D01*
X235750D01*
Y725649D01*
D02*
G37*
G36*
X729649Y725500D02*
X725750D01*
Y721601D01*
X726701Y721790D01*
X728355Y722895D01*
X729460Y724549D01*
X729649Y725500D01*
D02*
G37*
G36*
X723750D02*
X719851D01*
X720040Y724549D01*
X721145Y722895D01*
X722799Y721790D01*
X723750Y721601D01*
Y725500D01*
D02*
G37*
G36*
X241649Y719750D02*
X237750D01*
Y715851D01*
X238701Y716040D01*
X240355Y717145D01*
X241460Y718799D01*
X241649Y719750D01*
D02*
G37*
G36*
X235750D02*
X231851D01*
X232040Y718799D01*
X233145Y717145D01*
X234799Y716040D01*
X235750Y715851D01*
Y719750D01*
D02*
G37*
G36*
X414250Y706399D02*
Y702500D01*
X418149D01*
X417960Y703451D01*
X416855Y705105D01*
X415201Y706210D01*
X414250Y706399D01*
D02*
G37*
G36*
X412250D02*
X411299Y706210D01*
X409645Y705105D01*
X408540Y703451D01*
X408351Y702500D01*
X412250D01*
Y706399D01*
D02*
G37*
G36*
X391500Y705399D02*
Y701500D01*
X395399D01*
X395210Y702451D01*
X394105Y704105D01*
X392451Y705210D01*
X391500Y705399D01*
D02*
G37*
G36*
X389500D02*
X388549Y705210D01*
X386895Y704105D01*
X385790Y702451D01*
X385601Y701500D01*
X389500D01*
Y705399D01*
D02*
G37*
G36*
X445000Y704149D02*
Y700250D01*
X448899D01*
X448710Y701201D01*
X447605Y702855D01*
X445951Y703960D01*
X445000Y704149D01*
D02*
G37*
G36*
X443000D02*
X442049Y703960D01*
X440395Y702855D01*
X439290Y701201D01*
X439101Y700250D01*
X443000D01*
Y704149D01*
D02*
G37*
G36*
X366500Y718681D02*
X364033Y718357D01*
X361734Y717404D01*
X359760Y715890D01*
X358245Y713916D01*
X357293Y711617D01*
X356968Y709150D01*
X357293Y706683D01*
X358245Y704384D01*
X359760Y702410D01*
X361734Y700895D01*
X364033Y699943D01*
X366500Y699618D01*
X368967Y699943D01*
X371266Y700895D01*
X373240Y702410D01*
X374754Y704384D01*
X375707Y706683D01*
X376031Y709150D01*
X375707Y711617D01*
X374754Y713916D01*
X373240Y715890D01*
X371266Y717404D01*
X368967Y718357D01*
X366500Y718681D01*
D02*
G37*
G36*
X299500D02*
X297033Y718357D01*
X294734Y717404D01*
X292760Y715890D01*
X291245Y713916D01*
X290293Y711617D01*
X289968Y709150D01*
X290293Y706683D01*
X291245Y704384D01*
X292760Y702410D01*
X294734Y700895D01*
X297033Y699943D01*
X299500Y699618D01*
X301967Y699943D01*
X304266Y700895D01*
X306240Y702410D01*
X307754Y704384D01*
X308707Y706683D01*
X309032Y709150D01*
X308707Y711617D01*
X307754Y713916D01*
X306240Y715890D01*
X304266Y717404D01*
X301967Y718357D01*
X299500Y718681D01*
D02*
G37*
G36*
X418149Y700500D02*
X414250D01*
Y696601D01*
X415201Y696790D01*
X416855Y697895D01*
X417960Y699549D01*
X418149Y700500D01*
D02*
G37*
G36*
X412250D02*
X408351D01*
X408540Y699549D01*
X409645Y697895D01*
X411299Y696790D01*
X412250Y696601D01*
Y700500D01*
D02*
G37*
G36*
X480000Y713573D02*
X477781Y713281D01*
X475713Y712425D01*
X473938Y711062D01*
X472575Y709287D01*
X471719Y707219D01*
X471427Y705000D01*
X471719Y702781D01*
X472575Y700713D01*
X473938Y698938D01*
X475713Y697575D01*
X477781Y696719D01*
X480000Y696427D01*
X482219Y696719D01*
X484287Y697575D01*
X486062Y698938D01*
X487425Y700713D01*
X488281Y702781D01*
X488573Y705000D01*
X488281Y707219D01*
X487425Y709287D01*
X486062Y711062D01*
X484287Y712425D01*
X482219Y713281D01*
X480000Y713573D01*
D02*
G37*
G36*
X395399Y699500D02*
X391500D01*
Y695601D01*
X392451Y695790D01*
X394105Y696895D01*
X395210Y698549D01*
X395399Y699500D01*
D02*
G37*
G36*
X389500D02*
X385601D01*
X385790Y698549D01*
X386895Y696895D01*
X388549Y695790D01*
X389500Y695601D01*
Y699500D01*
D02*
G37*
G36*
X180200Y738704D02*
X175985Y738289D01*
X171933Y737059D01*
X168197Y735063D01*
X164924Y732376D01*
X162237Y729102D01*
X160240Y725368D01*
X159011Y721315D01*
X158596Y717100D01*
X159011Y712885D01*
X160240Y708832D01*
X162237Y705097D01*
X164924Y701824D01*
X168197Y699137D01*
X171933Y697141D01*
X175985Y695911D01*
X180200Y695496D01*
X184415Y695911D01*
X188468Y697141D01*
X192202Y699137D01*
X195476Y701824D01*
X198163Y705097D01*
X200159Y708832D01*
X201389Y712885D01*
X201804Y717100D01*
X201389Y721315D01*
X200159Y725368D01*
X198163Y729102D01*
X195476Y732376D01*
X192202Y735063D01*
X188468Y737059D01*
X184415Y738289D01*
X180200Y738704D01*
D02*
G37*
G36*
X59800D02*
X55585Y738289D01*
X51533Y737059D01*
X47797Y735063D01*
X44524Y732376D01*
X41837Y729102D01*
X39840Y725368D01*
X38611Y721315D01*
X38196Y717100D01*
X38611Y712885D01*
X39840Y708832D01*
X41837Y705097D01*
X44524Y701824D01*
X47797Y699137D01*
X51533Y697141D01*
X55585Y695911D01*
X59800Y695496D01*
X64015Y695911D01*
X68067Y697141D01*
X71803Y699137D01*
X75076Y701824D01*
X77763Y705097D01*
X79759Y708832D01*
X80989Y712885D01*
X81404Y717100D01*
X80989Y721315D01*
X79759Y725368D01*
X77763Y729102D01*
X75076Y732376D01*
X71803Y735063D01*
X68067Y737059D01*
X64015Y738289D01*
X59800Y738704D01*
D02*
G37*
G36*
X448899Y698250D02*
X445000D01*
Y694351D01*
X445951Y694540D01*
X447605Y695645D01*
X448710Y697299D01*
X448899Y698250D01*
D02*
G37*
G36*
X443000D02*
X439101D01*
X439290Y697299D01*
X440395Y695645D01*
X442049Y694540D01*
X443000Y694351D01*
Y698250D01*
D02*
G37*
G36*
X548000Y704358D02*
X545854Y703931D01*
X544035Y702715D01*
X542819Y700896D01*
X542392Y698750D01*
X542819Y696604D01*
X544035Y694785D01*
X545854Y693569D01*
X548000Y693142D01*
X550146Y693569D01*
X551965Y694785D01*
X553181Y696604D01*
X553608Y698750D01*
X553181Y700896D01*
X551965Y702715D01*
X550146Y703931D01*
X548000Y704358D01*
D02*
G37*
G36*
X108500Y699955D02*
Y691000D01*
X117455D01*
X117242Y692610D01*
X116235Y695043D01*
X114632Y697132D01*
X112543Y698735D01*
X110111Y699743D01*
X108500Y699955D01*
D02*
G37*
G36*
X106500Y699955D02*
X104889Y699743D01*
X102457Y698735D01*
X100368Y697132D01*
X98765Y695043D01*
X97757Y692610D01*
X97545Y691000D01*
X106500D01*
Y699955D01*
D02*
G37*
G36*
X579000Y690649D02*
Y686750D01*
X582899D01*
X582710Y687701D01*
X581605Y689355D01*
X579951Y690460D01*
X579000Y690649D01*
D02*
G37*
G36*
X577000D02*
X576049Y690460D01*
X574395Y689355D01*
X573290Y687701D01*
X573101Y686750D01*
X577000D01*
Y690649D01*
D02*
G37*
G36*
X582899Y684750D02*
X579000D01*
Y680851D01*
X579951Y681040D01*
X581605Y682145D01*
X582710Y683799D01*
X582899Y684750D01*
D02*
G37*
G36*
X577000D02*
X573101D01*
X573290Y683799D01*
X574395Y682145D01*
X576049Y681040D01*
X577000Y680851D01*
Y684750D01*
D02*
G37*
G36*
X679000Y682649D02*
Y678750D01*
X682899D01*
X682710Y679701D01*
X681605Y681355D01*
X679951Y682460D01*
X679000Y682649D01*
D02*
G37*
G36*
X677000D02*
X676049Y682460D01*
X674395Y681355D01*
X673290Y679701D01*
X673101Y678750D01*
X677000D01*
Y682649D01*
D02*
G37*
G36*
X625000Y682399D02*
Y678500D01*
X628899D01*
X628710Y679451D01*
X627605Y681105D01*
X625951Y682210D01*
X625000Y682399D01*
D02*
G37*
G36*
X623000D02*
X622049Y682210D01*
X620395Y681105D01*
X619290Y679451D01*
X619101Y678500D01*
X623000D01*
Y682399D01*
D02*
G37*
G36*
X682899Y676750D02*
X679000D01*
Y672851D01*
X679951Y673040D01*
X681605Y674145D01*
X682710Y675799D01*
X682899Y676750D01*
D02*
G37*
G36*
X677000D02*
X673101D01*
X673290Y675799D01*
X674395Y674145D01*
X676049Y673040D01*
X677000Y672851D01*
Y676750D01*
D02*
G37*
G36*
X628899Y676500D02*
X625000D01*
Y672601D01*
X625951Y672790D01*
X627605Y673895D01*
X628710Y675549D01*
X628899Y676500D01*
D02*
G37*
G36*
X623000D02*
X619101D01*
X619290Y675549D01*
X620395Y673895D01*
X622049Y672790D01*
X623000Y672601D01*
Y676500D01*
D02*
G37*
G36*
X480000Y688573D02*
X477781Y688281D01*
X475713Y687425D01*
X473938Y686062D01*
X472575Y684287D01*
X471719Y682219D01*
X471427Y680000D01*
X471719Y677781D01*
X472575Y675713D01*
X473938Y673938D01*
X475713Y672575D01*
X477781Y671719D01*
X480000Y671427D01*
X482219Y671719D01*
X484287Y672575D01*
X486062Y673938D01*
X487425Y675713D01*
X488281Y677781D01*
X488573Y680000D01*
X488281Y682219D01*
X487425Y684287D01*
X486062Y686062D01*
X484287Y687425D01*
X482219Y688281D01*
X480000Y688573D01*
D02*
G37*
G36*
X53000Y674399D02*
Y670500D01*
X56899D01*
X56710Y671451D01*
X55605Y673105D01*
X53951Y674210D01*
X53000Y674399D01*
D02*
G37*
G36*
X51000D02*
X50049Y674210D01*
X48395Y673105D01*
X47290Y671451D01*
X47101Y670500D01*
X51000D01*
Y674399D01*
D02*
G37*
G36*
X56899Y668500D02*
X53000D01*
Y664601D01*
X53951Y664790D01*
X55605Y665895D01*
X56710Y667549D01*
X56899Y668500D01*
D02*
G37*
G36*
X51000D02*
X47101D01*
X47290Y667549D01*
X48395Y665895D01*
X50049Y664790D01*
X51000Y664601D01*
Y668500D01*
D02*
G37*
G36*
X231000Y664399D02*
Y660500D01*
X234899D01*
X234710Y661451D01*
X233605Y663105D01*
X231951Y664210D01*
X231000Y664399D01*
D02*
G37*
G36*
X229000D02*
X228049Y664210D01*
X226395Y663105D01*
X225290Y661451D01*
X225101Y660500D01*
X229000D01*
Y664399D01*
D02*
G37*
G36*
X107500Y690000D02*
D01*
Y689000D01*
X97545D01*
X97757Y687390D01*
X98765Y684957D01*
X100368Y682868D01*
X101799Y681770D01*
X101368Y680500D01*
X97000D01*
Y659500D01*
X118000D01*
Y680500D01*
X113632D01*
X113201Y681770D01*
X114632Y682868D01*
X116235Y684957D01*
X117242Y687390D01*
X117455Y689000D01*
X107500D01*
Y690000D01*
D02*
G37*
G36*
X325120Y676593D02*
X322901Y676301D01*
X320833Y675445D01*
X319058Y674082D01*
X317695Y672307D01*
X316839Y670239D01*
X316547Y668020D01*
X316839Y665801D01*
X317695Y663733D01*
X319058Y661958D01*
X320833Y660595D01*
X322901Y659739D01*
X325120Y659447D01*
X327339Y659739D01*
X329407Y660595D01*
X331182Y661958D01*
X332545Y663733D01*
X333401Y665801D01*
X333693Y668020D01*
X333401Y670239D01*
X332545Y672307D01*
X331182Y674082D01*
X329407Y675445D01*
X327339Y676301D01*
X325120Y676593D01*
D02*
G37*
G36*
X299720D02*
X297501Y676301D01*
X295433Y675445D01*
X293658Y674082D01*
X292295Y672307D01*
X291439Y670239D01*
X291147Y668020D01*
X291439Y665801D01*
X292295Y663733D01*
X293658Y661958D01*
X295433Y660595D01*
X297501Y659739D01*
X299720Y659447D01*
X301939Y659739D01*
X304007Y660595D01*
X305782Y661958D01*
X307145Y663733D01*
X308001Y665801D01*
X308293Y668020D01*
X308001Y670239D01*
X307145Y672307D01*
X305782Y674082D01*
X304007Y675445D01*
X301939Y676301D01*
X299720Y676593D01*
D02*
G37*
G36*
X132500Y700591D02*
X129759Y700230D01*
X127205Y699172D01*
X125011Y697489D01*
X123328Y695295D01*
X122270Y692741D01*
X121909Y690000D01*
X122270Y687259D01*
X123328Y684705D01*
X125011Y682511D01*
X127205Y680828D01*
X127671Y680635D01*
Y679365D01*
X127205Y679172D01*
X125011Y677489D01*
X123328Y675295D01*
X122270Y672741D01*
X121909Y670000D01*
X122270Y667259D01*
X123328Y664705D01*
X125011Y662511D01*
X127205Y660828D01*
X129759Y659770D01*
X132500Y659409D01*
X135241Y659770D01*
X137795Y660828D01*
X139989Y662511D01*
X141672Y664705D01*
X142730Y667259D01*
X143090Y670000D01*
X142730Y672741D01*
X141672Y675295D01*
X139989Y677489D01*
X137795Y679172D01*
X137329Y679365D01*
Y680635D01*
X137795Y680828D01*
X139989Y682511D01*
X141672Y684705D01*
X142730Y687259D01*
X143090Y690000D01*
X142730Y692741D01*
X141672Y695295D01*
X139989Y697489D01*
X137795Y699172D01*
X135241Y700230D01*
X132500Y700591D01*
D02*
G37*
G36*
X735900Y665413D02*
Y655450D01*
X745863D01*
X745617Y657321D01*
X744508Y659997D01*
X742745Y662295D01*
X740447Y664058D01*
X737772Y665167D01*
X735900Y665413D01*
D02*
G37*
G36*
X733900Y665413D02*
X732028Y665167D01*
X729352Y664058D01*
X727055Y662295D01*
X725292Y659997D01*
X724183Y657321D01*
X723937Y655450D01*
X733900D01*
Y665413D01*
D02*
G37*
G36*
X234899Y658500D02*
X231000D01*
Y654601D01*
X231951Y654790D01*
X233605Y655895D01*
X234710Y657549D01*
X234899Y658500D01*
D02*
G37*
G36*
X229000D02*
X225101D01*
X225290Y657549D01*
X226395Y655895D01*
X228049Y654790D01*
X229000Y654601D01*
Y658500D01*
D02*
G37*
G36*
X190750Y663108D02*
X188604Y662681D01*
X186785Y661465D01*
X185569Y659646D01*
X185142Y657500D01*
X185569Y655354D01*
X186785Y653535D01*
X188604Y652319D01*
X190750Y651892D01*
X192896Y652319D01*
X194715Y653535D01*
X195931Y655354D01*
X196358Y657500D01*
X195931Y659646D01*
X194715Y661465D01*
X192896Y662681D01*
X190750Y663108D01*
D02*
G37*
G36*
X548750Y651399D02*
Y647500D01*
X552649D01*
X552460Y648451D01*
X551355Y650105D01*
X549701Y651210D01*
X548750Y651399D01*
D02*
G37*
G36*
X546750D02*
X545799Y651210D01*
X544145Y650105D01*
X543040Y648451D01*
X542851Y647500D01*
X546750D01*
Y651399D01*
D02*
G37*
G36*
X587000Y651149D02*
Y647250D01*
X590899D01*
X590710Y648201D01*
X589605Y649855D01*
X587951Y650960D01*
X587000Y651149D01*
D02*
G37*
G36*
X585000D02*
X584049Y650960D01*
X582395Y649855D01*
X581290Y648201D01*
X581101Y647250D01*
X585000D01*
Y651149D01*
D02*
G37*
G36*
X480000Y663573D02*
X477781Y663281D01*
X475713Y662425D01*
X473938Y661062D01*
X472575Y659287D01*
X471719Y657219D01*
X471427Y655000D01*
X471719Y652781D01*
X472575Y650713D01*
X473938Y648938D01*
X475713Y647575D01*
X477781Y646719D01*
X480000Y646427D01*
X482219Y646719D01*
X484287Y647575D01*
X486062Y648938D01*
X487425Y650713D01*
X488281Y652781D01*
X488573Y655000D01*
X488281Y657219D01*
X487425Y659287D01*
X486062Y661062D01*
X484287Y662425D01*
X482219Y663281D01*
X480000Y663573D01*
D02*
G37*
G36*
X745863Y653450D02*
X735900D01*
Y643487D01*
X737772Y643733D01*
X740447Y644842D01*
X742745Y646605D01*
X744508Y648903D01*
X745617Y651578D01*
X745863Y653450D01*
D02*
G37*
G36*
X733900D02*
X723937D01*
X724183Y651578D01*
X725292Y648903D01*
X727055Y646605D01*
X729352Y644842D01*
X732028Y643733D01*
X733900Y643487D01*
Y653450D01*
D02*
G37*
G36*
X519500Y647149D02*
Y643250D01*
X523399D01*
X523210Y644201D01*
X522105Y645855D01*
X520451Y646960D01*
X519500Y647149D01*
D02*
G37*
G36*
X517500D02*
X516549Y646960D01*
X514895Y645855D01*
X513790Y644201D01*
X513601Y643250D01*
X517500D01*
Y647149D01*
D02*
G37*
G36*
X709500Y666049D02*
X706498Y665654D01*
X703700Y664495D01*
X701298Y662652D01*
X699455Y660250D01*
X698296Y657452D01*
X697901Y654450D01*
X698296Y651448D01*
X699455Y648650D01*
X701298Y646248D01*
X703700Y644405D01*
X706498Y643246D01*
X709500Y642851D01*
X712502Y643246D01*
X715300Y644405D01*
X717702Y646248D01*
X719545Y648650D01*
X720704Y651448D01*
X721099Y654450D01*
X720704Y657452D01*
X719545Y660250D01*
X717702Y662652D01*
X715300Y664495D01*
X712502Y665654D01*
X709500Y666049D01*
D02*
G37*
G36*
X552649Y645500D02*
X548750D01*
Y641601D01*
X549701Y641790D01*
X551355Y642895D01*
X552460Y644549D01*
X552649Y645500D01*
D02*
G37*
G36*
X546750D02*
X542851D01*
X543040Y644549D01*
X544145Y642895D01*
X545799Y641790D01*
X546750Y641601D01*
Y645500D01*
D02*
G37*
G36*
X590899Y645250D02*
X587000D01*
Y641351D01*
X587951Y641540D01*
X589605Y642645D01*
X590710Y644299D01*
X590899Y645250D01*
D02*
G37*
G36*
X585000D02*
X581101D01*
X581290Y644299D01*
X582395Y642645D01*
X584049Y641540D01*
X585000Y641351D01*
Y645250D01*
D02*
G37*
G36*
X573250Y651608D02*
X571104Y651181D01*
X569285Y649965D01*
X568069Y648146D01*
X567642Y646000D01*
X568069Y643854D01*
X569285Y642035D01*
X571104Y640819D01*
X573250Y640392D01*
X575396Y640819D01*
X577215Y642035D01*
X578431Y643854D01*
X578858Y646000D01*
X578431Y648146D01*
X577215Y649965D01*
X575396Y651181D01*
X573250Y651608D01*
D02*
G37*
G36*
X450750Y648608D02*
X448604Y648181D01*
X446785Y646965D01*
X445569Y645146D01*
X445142Y643000D01*
X445569Y640854D01*
X446785Y639035D01*
X448604Y637819D01*
X450750Y637392D01*
X452896Y637819D01*
X454715Y639035D01*
X455931Y640854D01*
X456358Y643000D01*
X455931Y645146D01*
X454715Y646965D01*
X452896Y648181D01*
X450750Y648608D01*
D02*
G37*
G36*
X523399Y641250D02*
X519500D01*
Y637351D01*
X520451Y637540D01*
X522105Y638645D01*
X523210Y640299D01*
X523399Y641250D01*
D02*
G37*
G36*
X517500D02*
X513601D01*
X513790Y640299D01*
X514895Y638645D01*
X516549Y637540D01*
X517500Y637351D01*
Y641250D01*
D02*
G37*
G36*
X177500Y651073D02*
X175281Y650781D01*
X173213Y649925D01*
X171438Y648562D01*
X170075Y646787D01*
X169219Y644719D01*
X168927Y642500D01*
X169219Y640281D01*
X170075Y638213D01*
X171438Y636438D01*
X173213Y635075D01*
X175281Y634219D01*
X177500Y633927D01*
X179719Y634219D01*
X181787Y635075D01*
X183562Y636438D01*
X184925Y638213D01*
X185781Y640281D01*
X186073Y642500D01*
X185781Y644719D01*
X184925Y646787D01*
X183562Y648562D01*
X181787Y649925D01*
X179719Y650781D01*
X177500Y651073D01*
D02*
G37*
G36*
X91000Y634899D02*
Y631000D01*
X94899D01*
X94710Y631951D01*
X93605Y633605D01*
X91951Y634710D01*
X91000Y634899D01*
D02*
G37*
G36*
X89000D02*
X88049Y634710D01*
X86395Y633605D01*
X85290Y631951D01*
X85101Y631000D01*
X89000D01*
Y634899D01*
D02*
G37*
G36*
X71000D02*
Y631000D01*
X74899D01*
X74710Y631951D01*
X73605Y633605D01*
X71951Y634710D01*
X71000Y634899D01*
D02*
G37*
G36*
X69000D02*
X68049Y634710D01*
X66395Y633605D01*
X65290Y631951D01*
X65101Y631000D01*
X69000D01*
Y634899D01*
D02*
G37*
G36*
X41000D02*
Y631000D01*
X44899D01*
X44710Y631951D01*
X43605Y633605D01*
X41951Y634710D01*
X41000Y634899D01*
D02*
G37*
G36*
X39000D02*
X38049Y634710D01*
X36395Y633605D01*
X35290Y631951D01*
X35101Y631000D01*
X39000D01*
Y634899D01*
D02*
G37*
G36*
X21000D02*
Y631000D01*
X24899D01*
X24710Y631951D01*
X23605Y633605D01*
X21951Y634710D01*
X21000Y634899D01*
D02*
G37*
G36*
X19000D02*
X18049Y634710D01*
X16395Y633605D01*
X15290Y631951D01*
X15101Y631000D01*
X19000D01*
Y634899D01*
D02*
G37*
G36*
X546000Y634649D02*
Y630750D01*
X549899D01*
X549710Y631701D01*
X548605Y633355D01*
X546951Y634460D01*
X546000Y634649D01*
D02*
G37*
G36*
X544000D02*
X543049Y634460D01*
X541395Y633355D01*
X540290Y631701D01*
X540101Y630750D01*
X544000D01*
Y634649D01*
D02*
G37*
G36*
X735900Y640013D02*
Y630050D01*
X745863D01*
X745617Y631922D01*
X744508Y634597D01*
X742745Y636895D01*
X740447Y638658D01*
X737772Y639767D01*
X735900Y640013D01*
D02*
G37*
G36*
X733900Y640013D02*
X732028Y639767D01*
X729352Y638658D01*
X727055Y636895D01*
X725292Y634597D01*
X724183Y631922D01*
X723937Y630050D01*
X733900D01*
Y640013D01*
D02*
G37*
G36*
X231250Y637108D02*
X229104Y636681D01*
X227285Y635465D01*
X226069Y633646D01*
X225642Y631500D01*
X226069Y629354D01*
X227285Y627535D01*
X229104Y626319D01*
X231250Y625892D01*
X233396Y626319D01*
X235215Y627535D01*
X236431Y629354D01*
X236858Y631500D01*
X236431Y633646D01*
X235215Y635465D01*
X233396Y636681D01*
X231250Y637108D01*
D02*
G37*
G36*
X94899Y629000D02*
X91000D01*
Y625101D01*
X91951Y625290D01*
X93605Y626395D01*
X94710Y628049D01*
X94899Y629000D01*
D02*
G37*
G36*
X89000D02*
X85101D01*
X85290Y628049D01*
X86395Y626395D01*
X88049Y625290D01*
X89000Y625101D01*
Y629000D01*
D02*
G37*
G36*
X74899D02*
X71000D01*
Y625101D01*
X71951Y625290D01*
X73605Y626395D01*
X74710Y628049D01*
X74899Y629000D01*
D02*
G37*
G36*
X69000D02*
X65101D01*
X65290Y628049D01*
X66395Y626395D01*
X68049Y625290D01*
X69000Y625101D01*
Y629000D01*
D02*
G37*
G36*
X44899D02*
X41000D01*
Y625101D01*
X41951Y625290D01*
X43605Y626395D01*
X44710Y628049D01*
X44899Y629000D01*
D02*
G37*
G36*
X39000D02*
X35101D01*
X35290Y628049D01*
X36395Y626395D01*
X38049Y625290D01*
X39000Y625101D01*
Y629000D01*
D02*
G37*
G36*
X24899D02*
X21000D01*
Y625101D01*
X21951Y625290D01*
X23605Y626395D01*
X24710Y628049D01*
X24899Y629000D01*
D02*
G37*
G36*
X19000D02*
X15101D01*
X15290Y628049D01*
X16395Y626395D01*
X18049Y625290D01*
X19000Y625101D01*
Y629000D01*
D02*
G37*
G36*
X549899Y628750D02*
X546000D01*
Y624851D01*
X546951Y625040D01*
X548605Y626145D01*
X549710Y627799D01*
X549899Y628750D01*
D02*
G37*
G36*
X544000D02*
X540101D01*
X540290Y627799D01*
X541395Y626145D01*
X543049Y625040D01*
X544000Y624851D01*
Y628750D01*
D02*
G37*
G36*
X407750Y640745D02*
X404878Y640367D01*
X402202Y639258D01*
X399905Y637495D01*
X398142Y635197D01*
X397033Y632522D01*
X396655Y629650D01*
X397033Y626778D01*
X398142Y624103D01*
X399905Y621805D01*
X402202Y620042D01*
X404878Y618933D01*
X407750Y618555D01*
X410621Y618933D01*
X413297Y620042D01*
X415595Y621805D01*
X417358Y624103D01*
X418467Y626778D01*
X418845Y629650D01*
X418467Y632522D01*
X417358Y635197D01*
X415595Y637495D01*
X413297Y639258D01*
X410621Y640367D01*
X407750Y640745D01*
D02*
G37*
G36*
X745863Y628050D02*
X735900D01*
Y618087D01*
X737772Y618333D01*
X740447Y619441D01*
X742745Y621205D01*
X744508Y623503D01*
X745617Y626178D01*
X745863Y628050D01*
D02*
G37*
G36*
X733900D02*
X723937D01*
X724183Y626178D01*
X725292Y623503D01*
X727055Y621205D01*
X729352Y619441D01*
X732028Y618333D01*
X733900Y618087D01*
Y628050D01*
D02*
G37*
G36*
X709500Y640649D02*
X706498Y640254D01*
X703700Y639095D01*
X701298Y637252D01*
X699455Y634850D01*
X698296Y632052D01*
X697901Y629050D01*
X698296Y626048D01*
X699455Y623250D01*
X701298Y620848D01*
X703700Y619005D01*
X706498Y617846D01*
X709500Y617451D01*
X712502Y617846D01*
X715300Y619005D01*
X717702Y620848D01*
X719545Y623250D01*
X720704Y626048D01*
X721099Y629050D01*
X720704Y632052D01*
X719545Y634850D01*
X717702Y637252D01*
X715300Y639095D01*
X712502Y640254D01*
X709500Y640649D01*
D02*
G37*
G36*
X55750Y626972D02*
Y616000D01*
X66722D01*
X66441Y618133D01*
X65232Y621052D01*
X63309Y623559D01*
X60802Y625482D01*
X57883Y626691D01*
X55750Y626972D01*
D02*
G37*
G36*
X53750Y626972D02*
X51617Y626691D01*
X48698Y625482D01*
X46192Y623559D01*
X44268Y621052D01*
X43059Y618133D01*
X42778Y616000D01*
X53750D01*
Y626972D01*
D02*
G37*
G36*
X101000Y619899D02*
Y616000D01*
X104899D01*
X104710Y616951D01*
X103605Y618605D01*
X101951Y619710D01*
X101000Y619899D01*
D02*
G37*
G36*
X99000D02*
X98049Y619710D01*
X96395Y618605D01*
X95290Y616951D01*
X95101Y616000D01*
X99000D01*
Y619899D01*
D02*
G37*
G36*
X81000D02*
Y616000D01*
X84899D01*
X84710Y616951D01*
X83605Y618605D01*
X81951Y619710D01*
X81000Y619899D01*
D02*
G37*
G36*
X79000D02*
X78049Y619710D01*
X76395Y618605D01*
X75290Y616951D01*
X75101Y616000D01*
X79000D01*
Y619899D01*
D02*
G37*
G36*
X31000D02*
Y616000D01*
X34899D01*
X34710Y616951D01*
X33605Y618605D01*
X31951Y619710D01*
X31000Y619899D01*
D02*
G37*
G36*
X29000D02*
X28049Y619710D01*
X26395Y618605D01*
X25290Y616951D01*
X25101Y616000D01*
X29000D01*
Y619899D01*
D02*
G37*
G36*
X11000D02*
Y616000D01*
X14899D01*
X14710Y616951D01*
X13605Y618605D01*
X11951Y619710D01*
X11000Y619899D01*
D02*
G37*
G36*
X245750Y625108D02*
X243604Y624681D01*
X241785Y623465D01*
X240569Y621646D01*
X240142Y619500D01*
X240569Y617354D01*
X241785Y615535D01*
X243604Y614319D01*
X245750Y613892D01*
X247896Y614319D01*
X249715Y615535D01*
X250931Y617354D01*
X251358Y619500D01*
X250931Y621646D01*
X249715Y623465D01*
X247896Y624681D01*
X245750Y625108D01*
D02*
G37*
G36*
X104899Y614000D02*
X101000D01*
Y610101D01*
X101951Y610290D01*
X103605Y611395D01*
X104710Y613049D01*
X104899Y614000D01*
D02*
G37*
G36*
X99000D02*
X95101D01*
X95290Y613049D01*
X96395Y611395D01*
X98049Y610290D01*
X99000Y610101D01*
Y614000D01*
D02*
G37*
G36*
X84899D02*
X81000D01*
Y610101D01*
X81951Y610290D01*
X83605Y611395D01*
X84710Y613049D01*
X84899Y614000D01*
D02*
G37*
G36*
X79000D02*
X75101D01*
X75290Y613049D01*
X76395Y611395D01*
X78049Y610290D01*
X79000Y610101D01*
Y614000D01*
D02*
G37*
G36*
X34899D02*
X31000D01*
Y610101D01*
X31951Y610290D01*
X33605Y611395D01*
X34710Y613049D01*
X34899Y614000D01*
D02*
G37*
G36*
X29000D02*
X25101D01*
X25290Y613049D01*
X26395Y611395D01*
X28049Y610290D01*
X29000Y610101D01*
Y614000D01*
D02*
G37*
G36*
X14899D02*
X11000D01*
Y610101D01*
X11951Y610290D01*
X13605Y611395D01*
X14710Y613049D01*
X14899Y614000D01*
D02*
G37*
G36*
X176500Y611149D02*
Y607250D01*
X180399D01*
X180210Y608201D01*
X179105Y609855D01*
X177451Y610960D01*
X176500Y611149D01*
D02*
G37*
G36*
X174500D02*
X173549Y610960D01*
X171895Y609855D01*
X170790Y608201D01*
X170601Y607250D01*
X174500D01*
Y611149D01*
D02*
G37*
G36*
X492250Y616608D02*
X490104Y616181D01*
X488285Y614965D01*
X487069Y613146D01*
X486642Y611000D01*
X487069Y608854D01*
X488285Y607035D01*
X490104Y605819D01*
X492250Y605392D01*
X494396Y605819D01*
X496215Y607035D01*
X497431Y608854D01*
X497858Y611000D01*
X497431Y613146D01*
X496215Y614965D01*
X494396Y616181D01*
X492250Y616608D01*
D02*
G37*
G36*
X616750Y616358D02*
X614604Y615931D01*
X612785Y614715D01*
X611569Y612896D01*
X611142Y610750D01*
X611569Y608604D01*
X612785Y606785D01*
X614604Y605569D01*
X616750Y605142D01*
X618896Y605569D01*
X620715Y606785D01*
X621931Y608604D01*
X622358Y610750D01*
X621931Y612896D01*
X620715Y614715D01*
X618896Y615931D01*
X616750Y616358D01*
D02*
G37*
G36*
X735900Y614613D02*
Y604650D01*
X745863D01*
X745617Y606521D01*
X744508Y609197D01*
X742745Y611495D01*
X740447Y613258D01*
X737772Y614367D01*
X735900Y614613D01*
D02*
G37*
G36*
X733900Y614613D02*
X732028Y614367D01*
X729352Y613258D01*
X727055Y611495D01*
X725292Y609197D01*
X724183Y606521D01*
X723937Y604650D01*
X733900D01*
Y614613D01*
D02*
G37*
G36*
X309000Y615108D02*
X306854Y614681D01*
X305035Y613465D01*
X303819Y611646D01*
X303392Y609500D01*
X303819Y607354D01*
X305035Y605535D01*
X306854Y604319D01*
X309000Y603892D01*
X311146Y604319D01*
X312965Y605535D01*
X314181Y607354D01*
X314608Y609500D01*
X314181Y611646D01*
X312965Y613465D01*
X311146Y614681D01*
X309000Y615108D01*
D02*
G37*
G36*
X347500Y614608D02*
X345354Y614181D01*
X343535Y612965D01*
X342319Y611146D01*
X341892Y609000D01*
X342319Y606854D01*
X343535Y605035D01*
X345354Y603819D01*
X347500Y603392D01*
X349646Y603819D01*
X351465Y605035D01*
X352681Y606854D01*
X353108Y609000D01*
X352681Y611146D01*
X351465Y612965D01*
X349646Y614181D01*
X347500Y614608D01*
D02*
G37*
G36*
X53750Y614000D02*
X42778D01*
X43059Y611867D01*
X44268Y608948D01*
X46192Y606441D01*
X48698Y604518D01*
X51617Y603309D01*
X53750Y603028D01*
Y614000D01*
D02*
G37*
G36*
X66722D02*
X55750D01*
Y603028D01*
X57883Y603309D01*
X60802Y604518D01*
X63309Y606441D01*
X65232Y608948D01*
X66441Y611867D01*
X66722Y614000D01*
D02*
G37*
G36*
X671750Y612608D02*
X669604Y612181D01*
X667785Y610965D01*
X666569Y609146D01*
X666142Y607000D01*
X666569Y604854D01*
X667785Y603035D01*
X669604Y601819D01*
X671750Y601392D01*
X673896Y601819D01*
X675715Y603035D01*
X676931Y604854D01*
X677358Y607000D01*
X676931Y609146D01*
X675715Y610965D01*
X673896Y612181D01*
X671750Y612608D01*
D02*
G37*
G36*
X180399Y605250D02*
X176500D01*
Y601351D01*
X177451Y601540D01*
X179105Y602645D01*
X180210Y604299D01*
X180399Y605250D01*
D02*
G37*
G36*
X174500D02*
X170601D01*
X170790Y604299D01*
X171895Y602645D01*
X173549Y601540D01*
X174500Y601351D01*
Y605250D01*
D02*
G37*
G36*
X91000Y604899D02*
Y601000D01*
X94899D01*
X94710Y601951D01*
X93605Y603605D01*
X91951Y604710D01*
X91000Y604899D01*
D02*
G37*
G36*
X89000D02*
X88049Y604710D01*
X86395Y603605D01*
X85290Y601951D01*
X85101Y601000D01*
X89000D01*
Y604899D01*
D02*
G37*
G36*
X71000D02*
Y601000D01*
X74899D01*
X74710Y601951D01*
X73605Y603605D01*
X71951Y604710D01*
X71000Y604899D01*
D02*
G37*
G36*
X69000D02*
X68049Y604710D01*
X66395Y603605D01*
X65290Y601951D01*
X65101Y601000D01*
X69000D01*
Y604899D01*
D02*
G37*
G36*
X41000D02*
Y601000D01*
X44899D01*
X44710Y601951D01*
X43605Y603605D01*
X41951Y604710D01*
X41000Y604899D01*
D02*
G37*
G36*
X39000D02*
X38049Y604710D01*
X36395Y603605D01*
X35290Y601951D01*
X35101Y601000D01*
X39000D01*
Y604899D01*
D02*
G37*
G36*
X21000D02*
Y601000D01*
X24899D01*
X24710Y601951D01*
X23605Y603605D01*
X21951Y604710D01*
X21000Y604899D01*
D02*
G37*
G36*
X19000D02*
X18049Y604710D01*
X16395Y603605D01*
X15290Y601951D01*
X15101Y601000D01*
X19000D01*
Y604899D01*
D02*
G37*
G36*
X247000Y603149D02*
Y599250D01*
X250899D01*
X250710Y600201D01*
X249605Y601855D01*
X247951Y602960D01*
X247000Y603149D01*
D02*
G37*
G36*
X245000D02*
X244049Y602960D01*
X242395Y601855D01*
X241290Y600201D01*
X241101Y599250D01*
X245000D01*
Y603149D01*
D02*
G37*
G36*
X163500Y599149D02*
Y595250D01*
X167399D01*
X167210Y596201D01*
X166105Y597855D01*
X164451Y598960D01*
X163500Y599149D01*
D02*
G37*
G36*
X161500D02*
X160549Y598960D01*
X158895Y597855D01*
X157790Y596201D01*
X157601Y595250D01*
X161500D01*
Y599149D01*
D02*
G37*
G36*
X94899Y599000D02*
X91000D01*
Y595101D01*
X91951Y595290D01*
X93605Y596395D01*
X94710Y598049D01*
X94899Y599000D01*
D02*
G37*
G36*
X89000D02*
X85101D01*
X85290Y598049D01*
X86395Y596395D01*
X88049Y595290D01*
X89000Y595101D01*
Y599000D01*
D02*
G37*
G36*
X74899D02*
X71000D01*
Y595101D01*
X71951Y595290D01*
X73605Y596395D01*
X74710Y598049D01*
X74899Y599000D01*
D02*
G37*
G36*
X69000D02*
X65101D01*
X65290Y598049D01*
X66395Y596395D01*
X68049Y595290D01*
X69000Y595101D01*
Y599000D01*
D02*
G37*
G36*
X44899D02*
X41000D01*
Y595101D01*
X41951Y595290D01*
X43605Y596395D01*
X44710Y598049D01*
X44899Y599000D01*
D02*
G37*
G36*
X39000D02*
X35101D01*
X35290Y598049D01*
X36395Y596395D01*
X38049Y595290D01*
X39000Y595101D01*
Y599000D01*
D02*
G37*
G36*
X24899D02*
X21000D01*
Y595101D01*
X21951Y595290D01*
X23605Y596395D01*
X24710Y598049D01*
X24899Y599000D01*
D02*
G37*
G36*
X19000D02*
X15101D01*
X15290Y598049D01*
X16395Y596395D01*
X18049Y595290D01*
X19000Y595101D01*
Y599000D01*
D02*
G37*
G36*
X250899Y597250D02*
X247000D01*
Y593351D01*
X247951Y593540D01*
X249605Y594645D01*
X250710Y596299D01*
X250899Y597250D01*
D02*
G37*
G36*
X245000D02*
X241101D01*
X241290Y596299D01*
X242395Y594645D01*
X244049Y593540D01*
X245000Y593351D01*
Y597250D01*
D02*
G37*
G36*
X407750Y615345D02*
X404878Y614967D01*
X402202Y613858D01*
X399905Y612095D01*
X398142Y609797D01*
X397033Y607122D01*
X396655Y604250D01*
X397033Y601378D01*
X398142Y598703D01*
X399905Y596405D01*
X402202Y594641D01*
X404878Y593533D01*
X407750Y593155D01*
X410621Y593533D01*
X413297Y594641D01*
X415595Y596405D01*
X417358Y598703D01*
X418467Y601378D01*
X418845Y604250D01*
X418467Y607122D01*
X417358Y609797D01*
X415595Y612095D01*
X413297Y613858D01*
X410621Y614967D01*
X407750Y615345D01*
D02*
G37*
G36*
X745863Y602650D02*
X735900D01*
Y592687D01*
X737772Y592933D01*
X740447Y594041D01*
X742745Y595805D01*
X744508Y598102D01*
X745617Y600778D01*
X745863Y602650D01*
D02*
G37*
G36*
X733900D02*
X723937D01*
X724183Y600778D01*
X725292Y598102D01*
X727055Y595805D01*
X729352Y594041D01*
X732028Y592933D01*
X733900Y592687D01*
Y602650D01*
D02*
G37*
G36*
X709500Y615249D02*
X706498Y614854D01*
X703700Y613695D01*
X701298Y611852D01*
X699455Y609450D01*
X698296Y606652D01*
X697901Y603650D01*
X698296Y600648D01*
X699455Y597850D01*
X701298Y595448D01*
X703700Y593605D01*
X706498Y592446D01*
X709500Y592051D01*
X712502Y592446D01*
X715300Y593605D01*
X717702Y595448D01*
X719545Y597850D01*
X720704Y600648D01*
X721099Y603650D01*
X720704Y606652D01*
X719545Y609450D01*
X717702Y611852D01*
X715300Y613695D01*
X712502Y614854D01*
X709500Y615249D01*
D02*
G37*
G36*
X317500Y602108D02*
X315354Y601681D01*
X313535Y600465D01*
X312319Y598646D01*
X311892Y596500D01*
X312319Y594354D01*
X313535Y592535D01*
X315354Y591319D01*
X317500Y590892D01*
X319646Y591319D01*
X321465Y592535D01*
X322681Y594354D01*
X323108Y596500D01*
X322681Y598646D01*
X321465Y600465D01*
X319646Y601681D01*
X317500Y602108D01*
D02*
G37*
G36*
X167399Y593250D02*
X163500D01*
Y589351D01*
X164451Y589540D01*
X166105Y590645D01*
X167210Y592299D01*
X167399Y593250D01*
D02*
G37*
G36*
X161500D02*
X157601D01*
X157790Y592299D01*
X158895Y590645D01*
X160549Y589540D01*
X161500Y589351D01*
Y593250D01*
D02*
G37*
G36*
X497000Y599608D02*
X494854Y599181D01*
X493035Y597965D01*
X491819Y596146D01*
X491392Y594000D01*
X491819Y591854D01*
X493035Y590035D01*
X494854Y588819D01*
X497000Y588392D01*
X499146Y588819D01*
X500965Y590035D01*
X502181Y591854D01*
X502608Y594000D01*
X502181Y596146D01*
X500965Y597965D01*
X499146Y599181D01*
X497000Y599608D01*
D02*
G37*
G36*
X232500Y590649D02*
Y586750D01*
X236399D01*
X236210Y587701D01*
X235105Y589355D01*
X233451Y590460D01*
X232500Y590649D01*
D02*
G37*
G36*
X230500D02*
X229549Y590460D01*
X227895Y589355D01*
X226790Y587701D01*
X226601Y586750D01*
X230500D01*
Y590649D01*
D02*
G37*
G36*
X178250Y587399D02*
Y583500D01*
X182149D01*
X181960Y584451D01*
X180855Y586105D01*
X179201Y587210D01*
X178250Y587399D01*
D02*
G37*
G36*
X176250D02*
X175299Y587210D01*
X173645Y586105D01*
X172540Y584451D01*
X172351Y583500D01*
X176250D01*
Y587399D01*
D02*
G37*
G36*
X236399Y584750D02*
X232500D01*
Y580851D01*
X233451Y581040D01*
X235105Y582145D01*
X236210Y583799D01*
X236399Y584750D01*
D02*
G37*
G36*
X230500D02*
X226601D01*
X226790Y583799D01*
X227895Y582145D01*
X229549Y581040D01*
X230500Y580851D01*
Y584750D01*
D02*
G37*
G36*
X605000Y584649D02*
Y580750D01*
X608899D01*
X608710Y581701D01*
X607605Y583355D01*
X605951Y584460D01*
X605000Y584649D01*
D02*
G37*
G36*
X603000D02*
X602049Y584460D01*
X600395Y583355D01*
X599290Y581701D01*
X599101Y580750D01*
X603000D01*
Y584649D01*
D02*
G37*
G36*
X563750Y591108D02*
X561604Y590681D01*
X559785Y589465D01*
X558569Y587646D01*
X558142Y585500D01*
X558569Y583354D01*
X559785Y581535D01*
X561604Y580319D01*
X563750Y579892D01*
X565896Y580319D01*
X567715Y581535D01*
X568931Y583354D01*
X569358Y585500D01*
X568931Y587646D01*
X567715Y589465D01*
X565896Y590681D01*
X563750Y591108D01*
D02*
G37*
G36*
X418250Y589350D02*
X408750D01*
Y579850D01*
X418250D01*
Y589350D01*
D02*
G37*
G36*
X406750D02*
X397250D01*
Y579850D01*
X406750D01*
Y589350D01*
D02*
G37*
G36*
X735900Y589213D02*
Y579250D01*
X745863D01*
X745617Y581121D01*
X744508Y583797D01*
X742745Y586095D01*
X740447Y587858D01*
X737772Y588967D01*
X735900Y589213D01*
D02*
G37*
G36*
X733900Y589213D02*
X732028Y588967D01*
X729352Y587858D01*
X727055Y586095D01*
X725292Y583797D01*
X724183Y581121D01*
X723937Y579250D01*
X733900D01*
Y589213D01*
D02*
G37*
G36*
X182149Y581500D02*
X178250D01*
Y577601D01*
X179201Y577790D01*
X180855Y578895D01*
X181960Y580549D01*
X182149Y581500D01*
D02*
G37*
G36*
X176250D02*
X172351D01*
X172540Y580549D01*
X173645Y578895D01*
X175299Y577790D01*
X176250Y577601D01*
Y581500D01*
D02*
G37*
G36*
X608899Y578750D02*
X605000D01*
Y574851D01*
X605951Y575040D01*
X607605Y576145D01*
X608710Y577799D01*
X608899Y578750D01*
D02*
G37*
G36*
X603000D02*
X599101D01*
X599290Y577799D01*
X600395Y576145D01*
X602049Y575040D01*
X603000Y574851D01*
Y578750D01*
D02*
G37*
G36*
X775250Y583358D02*
X773104Y582931D01*
X771285Y581715D01*
X770069Y579896D01*
X769642Y577750D01*
X770069Y575604D01*
X771285Y573785D01*
X773104Y572569D01*
X775250Y572142D01*
X777396Y572569D01*
X779215Y573785D01*
X780431Y575604D01*
X780858Y577750D01*
X780431Y579896D01*
X779215Y581715D01*
X777396Y582931D01*
X775250Y583358D01*
D02*
G37*
G36*
X418250Y577850D02*
X408750D01*
Y568350D01*
X418250D01*
Y577850D01*
D02*
G37*
G36*
X406750D02*
X397250D01*
Y568350D01*
X406750D01*
Y577850D01*
D02*
G37*
G36*
X745863Y577250D02*
X735900D01*
Y567287D01*
X737772Y567533D01*
X740447Y568642D01*
X742745Y570405D01*
X744508Y572702D01*
X745617Y575378D01*
X745863Y577250D01*
D02*
G37*
G36*
X733900D02*
X723937D01*
X724183Y575378D01*
X725292Y572702D01*
X727055Y570405D01*
X729352Y568642D01*
X732028Y567533D01*
X733900Y567287D01*
Y577250D01*
D02*
G37*
G36*
X709500Y589849D02*
X706498Y589454D01*
X703700Y588295D01*
X701298Y586452D01*
X699455Y584050D01*
X698296Y581252D01*
X697901Y578250D01*
X698296Y575248D01*
X699455Y572450D01*
X701298Y570048D01*
X703700Y568205D01*
X706498Y567046D01*
X709500Y566651D01*
X712502Y567046D01*
X715300Y568205D01*
X717702Y570048D01*
X719545Y572450D01*
X720704Y575248D01*
X721099Y578250D01*
X720704Y581252D01*
X719545Y584050D01*
X717702Y586452D01*
X715300Y588295D01*
X712502Y589454D01*
X709500Y589849D01*
D02*
G37*
G36*
X285500Y577608D02*
X283354Y577181D01*
X281535Y575965D01*
X280319Y574146D01*
X279892Y572000D01*
X280319Y569854D01*
X281535Y568035D01*
X283354Y566819D01*
X285500Y566392D01*
X287646Y566819D01*
X289465Y568035D01*
X290681Y569854D01*
X291108Y572000D01*
X290681Y574146D01*
X289465Y575965D01*
X287646Y577181D01*
X285500Y577608D01*
D02*
G37*
G36*
X546500Y581323D02*
X544281Y581031D01*
X542213Y580175D01*
X540438Y578812D01*
X539075Y577037D01*
X538219Y574969D01*
X537927Y572750D01*
X538219Y570531D01*
X539075Y568463D01*
X540438Y566688D01*
X542213Y565325D01*
X544281Y564469D01*
X546500Y564177D01*
X548719Y564469D01*
X550787Y565325D01*
X552562Y566688D01*
X553925Y568463D01*
X554781Y570531D01*
X555073Y572750D01*
X554781Y574969D01*
X553925Y577037D01*
X552562Y578812D01*
X550787Y580175D01*
X548719Y581031D01*
X546500Y581323D01*
D02*
G37*
G36*
X735900Y563813D02*
Y553850D01*
X745863D01*
X745617Y555722D01*
X744508Y558397D01*
X742745Y560695D01*
X740447Y562458D01*
X737772Y563567D01*
X735900Y563813D01*
D02*
G37*
G36*
X733900Y563813D02*
X732028Y563567D01*
X729352Y562458D01*
X727055Y560695D01*
X725292Y558397D01*
X724183Y555722D01*
X723937Y553850D01*
X733900D01*
Y563813D01*
D02*
G37*
G36*
X132250Y557149D02*
Y553250D01*
X136149D01*
X135960Y554201D01*
X134855Y555855D01*
X133201Y556960D01*
X132250Y557149D01*
D02*
G37*
G36*
X130250D02*
X129299Y556960D01*
X127645Y555855D01*
X126540Y554201D01*
X126351Y553250D01*
X130250D01*
Y557149D01*
D02*
G37*
G36*
X277750Y564358D02*
X275604Y563931D01*
X273785Y562715D01*
X272569Y560896D01*
X272142Y558750D01*
X272569Y556604D01*
X273785Y554785D01*
X275604Y553569D01*
X277750Y553142D01*
X279896Y553569D01*
X281715Y554785D01*
X282931Y556604D01*
X283358Y558750D01*
X282931Y560896D01*
X281715Y562715D01*
X279896Y563931D01*
X277750Y564358D01*
D02*
G37*
G36*
X381750Y552149D02*
Y548250D01*
X385649D01*
X385460Y549201D01*
X384355Y550855D01*
X382701Y551960D01*
X381750Y552149D01*
D02*
G37*
G36*
X379750D02*
X378799Y551960D01*
X377145Y550855D01*
X376040Y549201D01*
X375851Y548250D01*
X379750D01*
Y552149D01*
D02*
G37*
G36*
X136149Y551250D02*
X132250D01*
Y547351D01*
X133201Y547540D01*
X134855Y548645D01*
X135960Y550299D01*
X136149Y551250D01*
D02*
G37*
G36*
X130250D02*
X126351D01*
X126540Y550299D01*
X127645Y548645D01*
X129299Y547540D01*
X130250Y547351D01*
Y551250D01*
D02*
G37*
G36*
X775000Y557858D02*
X772854Y557431D01*
X771035Y556215D01*
X769819Y554396D01*
X769392Y552250D01*
X769819Y550104D01*
X771035Y548285D01*
X772854Y547069D01*
X775000Y546642D01*
X777146Y547069D01*
X778965Y548285D01*
X780181Y550104D01*
X780608Y552250D01*
X780181Y554396D01*
X778965Y556215D01*
X777146Y557431D01*
X775000Y557858D01*
D02*
G37*
G36*
X44750Y554300D02*
X35750D01*
Y545300D01*
X44750D01*
Y554300D01*
D02*
G37*
G36*
X33750D02*
X24750D01*
Y545300D01*
X33750D01*
Y554300D01*
D02*
G37*
G36*
X385649Y546250D02*
X381750D01*
Y542351D01*
X382701Y542540D01*
X384355Y543645D01*
X385460Y545299D01*
X385649Y546250D01*
D02*
G37*
G36*
X379750D02*
X375851D01*
X376040Y545299D01*
X377145Y543645D01*
X378799Y542540D01*
X379750Y542351D01*
Y546250D01*
D02*
G37*
G36*
X745863Y551850D02*
X735900D01*
Y541887D01*
X737772Y542133D01*
X740447Y543242D01*
X742745Y545005D01*
X744508Y547303D01*
X745617Y549978D01*
X745863Y551850D01*
D02*
G37*
G36*
X733900D02*
X723937D01*
X724183Y549978D01*
X725292Y547303D01*
X727055Y545005D01*
X729352Y543242D01*
X732028Y542133D01*
X733900Y541887D01*
Y551850D01*
D02*
G37*
G36*
X709500Y564449D02*
X706498Y564054D01*
X703700Y562895D01*
X701298Y561052D01*
X699455Y558650D01*
X698296Y555852D01*
X697901Y552850D01*
X698296Y549848D01*
X699455Y547050D01*
X701298Y544648D01*
X703700Y542805D01*
X706498Y541646D01*
X709500Y541251D01*
X712502Y541646D01*
X715300Y542805D01*
X717702Y544648D01*
X719545Y547050D01*
X720704Y549848D01*
X721099Y552850D01*
X720704Y555852D01*
X719545Y558650D01*
X717702Y561052D01*
X715300Y562895D01*
X712502Y564054D01*
X709500Y564449D01*
D02*
G37*
G36*
X450750Y544899D02*
Y541000D01*
X454649D01*
X454460Y541951D01*
X453355Y543605D01*
X451701Y544710D01*
X450750Y544899D01*
D02*
G37*
G36*
X448750D02*
X447799Y544710D01*
X446145Y543605D01*
X445040Y541951D01*
X444851Y541000D01*
X448750D01*
Y544899D01*
D02*
G37*
G36*
X592750Y539399D02*
Y535500D01*
X596649D01*
X596460Y536451D01*
X595355Y538105D01*
X593701Y539210D01*
X592750Y539399D01*
D02*
G37*
G36*
X590750D02*
X589799Y539210D01*
X588145Y538105D01*
X587040Y536451D01*
X586851Y535500D01*
X590750D01*
Y539399D01*
D02*
G37*
G36*
X264910Y536608D02*
X262764Y536181D01*
X261160Y535109D01*
X259556Y536181D01*
X257410Y536608D01*
X255264Y536181D01*
X253445Y534965D01*
X252229Y533146D01*
X251802Y531000D01*
X252229Y528854D01*
X253445Y527035D01*
X255264Y525819D01*
X257410Y525392D01*
X259556Y525819D01*
X261160Y526891D01*
X262764Y525819D01*
X264910Y525392D01*
X267056Y525819D01*
X268875Y527035D01*
X270091Y528854D01*
X270518Y531000D01*
X270091Y533146D01*
X268875Y534965D01*
X267056Y536181D01*
X264910Y536608D01*
D02*
G37*
G36*
X454649Y539000D02*
X450750D01*
Y535101D01*
X451701Y535290D01*
X453355Y536395D01*
X454460Y538049D01*
X454649Y539000D01*
D02*
G37*
G36*
X448750D02*
X444851D01*
X445040Y538049D01*
X446145Y536395D01*
X447799Y535290D01*
X448750Y535101D01*
Y539000D01*
D02*
G37*
G36*
X44750Y543300D02*
X35750D01*
Y534300D01*
X44750D01*
Y543300D01*
D02*
G37*
G36*
X33750D02*
X24750D01*
Y534300D01*
X33750D01*
Y543300D01*
D02*
G37*
G36*
X672250Y543608D02*
X670104Y543181D01*
X668285Y541965D01*
X667069Y540146D01*
X666642Y538000D01*
X667069Y535854D01*
X668285Y534035D01*
X670104Y532819D01*
X672250Y532392D01*
X674396Y532819D01*
X676215Y534035D01*
X677431Y535854D01*
X677858Y538000D01*
X677431Y540146D01*
X676215Y541965D01*
X674396Y543181D01*
X672250Y543608D01*
D02*
G37*
G36*
X302000Y539707D02*
Y530500D01*
X311207D01*
X310986Y532176D01*
X309953Y534669D01*
X308310Y536810D01*
X306169Y538453D01*
X303676Y539486D01*
X302000Y539707D01*
D02*
G37*
G36*
X300000D02*
X298324Y539486D01*
X295831Y538453D01*
X293690Y536810D01*
X292047Y534669D01*
X291014Y532176D01*
X290793Y530500D01*
X300000D01*
Y539707D01*
D02*
G37*
G36*
X596649Y533500D02*
X592750D01*
Y529601D01*
X593701Y529790D01*
X595355Y530895D01*
X596460Y532549D01*
X596649Y533500D01*
D02*
G37*
G36*
X590750D02*
X586851D01*
X587040Y532549D01*
X588145Y530895D01*
X589799Y529790D01*
X590750Y529601D01*
Y533500D01*
D02*
G37*
G36*
X735900Y538413D02*
Y528450D01*
X745863D01*
X745617Y530322D01*
X744508Y532997D01*
X742745Y535295D01*
X740447Y537058D01*
X737772Y538167D01*
X735900Y538413D01*
D02*
G37*
G36*
X733900Y538413D02*
X732028Y538167D01*
X729352Y537058D01*
X727055Y535295D01*
X725292Y532997D01*
X724183Y530322D01*
X723937Y528450D01*
X733900D01*
Y538413D01*
D02*
G37*
G36*
X546250Y532608D02*
X544104Y532181D01*
X542285Y530965D01*
X541069Y529146D01*
X540642Y527000D01*
X541069Y524854D01*
X542285Y523035D01*
X544104Y521819D01*
X546250Y521392D01*
X548396Y521819D01*
X550215Y523035D01*
X551431Y524854D01*
X551858Y527000D01*
X551431Y529146D01*
X550215Y530965D01*
X548396Y532181D01*
X546250Y532608D01*
D02*
G37*
G36*
X194750Y523899D02*
Y520000D01*
X198649D01*
X198460Y520951D01*
X197355Y522605D01*
X195701Y523710D01*
X194750Y523899D01*
D02*
G37*
G36*
X192750D02*
X191799Y523710D01*
X190145Y522605D01*
X189040Y520951D01*
X188851Y520000D01*
X192750D01*
Y523899D01*
D02*
G37*
G36*
X311207Y528500D02*
X302000D01*
Y519293D01*
X303676Y519514D01*
X306169Y520547D01*
X308310Y522190D01*
X309953Y524331D01*
X310986Y526824D01*
X311207Y528500D01*
D02*
G37*
G36*
X300000D02*
X290793D01*
X291014Y526824D01*
X292047Y524331D01*
X293690Y522190D01*
X295831Y520547D01*
X298324Y519514D01*
X300000Y519293D01*
Y528500D01*
D02*
G37*
G36*
X745863Y526450D02*
X735900D01*
Y516487D01*
X737772Y516733D01*
X740447Y517841D01*
X742745Y519605D01*
X744508Y521903D01*
X745617Y524578D01*
X745863Y526450D01*
D02*
G37*
G36*
X733900D02*
X723937D01*
X724183Y524578D01*
X725292Y521903D01*
X727055Y519605D01*
X729352Y517841D01*
X732028Y516733D01*
X733900Y516487D01*
Y526450D01*
D02*
G37*
G36*
X709500Y539049D02*
X706498Y538654D01*
X703700Y537495D01*
X701298Y535652D01*
X699455Y533250D01*
X698296Y530452D01*
X697901Y527450D01*
X698296Y524448D01*
X699455Y521650D01*
X701298Y519248D01*
X703700Y517405D01*
X706498Y516246D01*
X709500Y515851D01*
X712502Y516246D01*
X715300Y517405D01*
X717702Y519248D01*
X719545Y521650D01*
X720704Y524448D01*
X721099Y527450D01*
X720704Y530452D01*
X719545Y533250D01*
X717702Y535652D01*
X715300Y537495D01*
X712502Y538654D01*
X709500Y539049D01*
D02*
G37*
G36*
X198649Y518000D02*
X194750D01*
Y514101D01*
X195701Y514290D01*
X197355Y515395D01*
X198460Y517049D01*
X198649Y518000D01*
D02*
G37*
G36*
X192750D02*
X188851D01*
X189040Y517049D01*
X190145Y515395D01*
X191799Y514290D01*
X192750Y514101D01*
Y518000D01*
D02*
G37*
G36*
X67500Y525108D02*
X65354Y524681D01*
X63535Y523465D01*
X62319Y521646D01*
X61892Y519500D01*
X62319Y517354D01*
X63535Y515535D01*
X65354Y514319D01*
X67500Y513892D01*
X69646Y514319D01*
X71465Y515535D01*
X72681Y517354D01*
X73108Y519500D01*
X72681Y521646D01*
X71465Y523465D01*
X69646Y524681D01*
X67500Y525108D01*
D02*
G37*
G36*
X662750Y523108D02*
X660604Y522681D01*
X658785Y521465D01*
X657569Y519646D01*
X657142Y517500D01*
X657569Y515354D01*
X658785Y513535D01*
X660604Y512319D01*
X662750Y511892D01*
X664896Y512319D01*
X666715Y513535D01*
X667931Y515354D01*
X668358Y517500D01*
X667931Y519646D01*
X666715Y521465D01*
X664896Y522681D01*
X662750Y523108D01*
D02*
G37*
G36*
X427250Y515649D02*
Y511750D01*
X431149D01*
X430960Y512701D01*
X429855Y514355D01*
X428201Y515460D01*
X427250Y515649D01*
D02*
G37*
G36*
X425250D02*
X424299Y515460D01*
X422645Y514355D01*
X421540Y512701D01*
X421351Y511750D01*
X425250D01*
Y515649D01*
D02*
G37*
G36*
X34750Y529491D02*
X32009Y529130D01*
X29455Y528072D01*
X27261Y526389D01*
X25578Y524195D01*
X24520Y521641D01*
X24159Y518900D01*
X24520Y516159D01*
X25578Y513605D01*
X27261Y511411D01*
X29455Y509728D01*
X32009Y508670D01*
X34750Y508309D01*
X37491Y508670D01*
X40045Y509728D01*
X42239Y511411D01*
X43922Y513605D01*
X44980Y516159D01*
X45340Y518900D01*
X44980Y521641D01*
X43922Y524195D01*
X42239Y526389D01*
X40045Y528072D01*
X37491Y529130D01*
X34750Y529491D01*
D02*
G37*
G36*
X475000Y510649D02*
Y506750D01*
X478899D01*
X478710Y507701D01*
X477605Y509355D01*
X475951Y510460D01*
X475000Y510649D01*
D02*
G37*
G36*
X473000D02*
X472049Y510460D01*
X470395Y509355D01*
X469290Y507701D01*
X469101Y506750D01*
X473000D01*
Y510649D01*
D02*
G37*
G36*
X129120Y526220D02*
X108880D01*
Y505980D01*
X129120D01*
Y526220D01*
D02*
G37*
G36*
X144400Y526307D02*
X141758Y525960D01*
X139296Y524940D01*
X137182Y523318D01*
X135560Y521204D01*
X134540Y518742D01*
X134193Y516100D01*
X134540Y513458D01*
X135560Y510996D01*
X137182Y508882D01*
X139296Y507260D01*
X141758Y506241D01*
X144400Y505893D01*
X147042Y506241D01*
X149504Y507260D01*
X151618Y508882D01*
X153240Y510996D01*
X154260Y513458D01*
X154607Y516100D01*
X154260Y518742D01*
X153240Y521204D01*
X151618Y523318D01*
X149504Y524940D01*
X147042Y525960D01*
X144400Y526307D01*
D02*
G37*
G36*
X431149Y509750D02*
X427250D01*
Y505851D01*
X428201Y506040D01*
X429855Y507145D01*
X430960Y508799D01*
X431149Y509750D01*
D02*
G37*
G36*
X425250D02*
X421351D01*
X421540Y508799D01*
X422645Y507145D01*
X424299Y506040D01*
X425250Y505851D01*
Y509750D01*
D02*
G37*
G36*
X735900Y513013D02*
Y503050D01*
X745863D01*
X745617Y504921D01*
X744508Y507597D01*
X742745Y509895D01*
X740447Y511658D01*
X737772Y512767D01*
X735900Y513013D01*
D02*
G37*
G36*
X733900Y513013D02*
X732028Y512767D01*
X729352Y511658D01*
X727055Y509895D01*
X725292Y507597D01*
X724183Y504921D01*
X723937Y503050D01*
X733900D01*
Y513013D01*
D02*
G37*
G36*
X478899Y504750D02*
X475000D01*
Y500851D01*
X475951Y501040D01*
X477605Y502145D01*
X478710Y503799D01*
X478899Y504750D01*
D02*
G37*
G36*
X473000D02*
X469101D01*
X469290Y503799D01*
X470395Y502145D01*
X472049Y501040D01*
X473000Y500851D01*
Y504750D01*
D02*
G37*
G36*
X227750Y511358D02*
X225604Y510931D01*
X223785Y509715D01*
X222569Y507896D01*
X222142Y505750D01*
X222569Y503604D01*
X223785Y501785D01*
X225604Y500569D01*
X227750Y500142D01*
X229896Y500569D01*
X231715Y501785D01*
X232931Y503604D01*
X233358Y505750D01*
X232931Y507896D01*
X231715Y509715D01*
X229896Y510931D01*
X227750Y511358D01*
D02*
G37*
G36*
X590250Y507858D02*
X588104Y507431D01*
X586285Y506215D01*
X585069Y504396D01*
X584642Y502250D01*
X585069Y500104D01*
X586285Y498285D01*
X588104Y497069D01*
X590250Y496642D01*
X592396Y497069D01*
X594215Y498285D01*
X595431Y500104D01*
X595858Y502250D01*
X595431Y504396D01*
X594215Y506215D01*
X592396Y507431D01*
X590250Y507858D01*
D02*
G37*
G36*
X145400Y500271D02*
Y491700D01*
X153971D01*
X153772Y493211D01*
X152803Y495551D01*
X151261Y497561D01*
X149251Y499103D01*
X146911Y500072D01*
X145400Y500271D01*
D02*
G37*
G36*
X143400Y500271D02*
X141889Y500072D01*
X139549Y499103D01*
X137539Y497561D01*
X135997Y495551D01*
X135028Y493211D01*
X134829Y491700D01*
X143400D01*
Y500271D01*
D02*
G37*
G36*
X745863Y501050D02*
X735900D01*
Y491087D01*
X737772Y491333D01*
X740447Y492441D01*
X742745Y494205D01*
X744508Y496502D01*
X745617Y499178D01*
X745863Y501050D01*
D02*
G37*
G36*
X733900D02*
X723937D01*
X724183Y499178D01*
X725292Y496502D01*
X727055Y494205D01*
X729352Y492441D01*
X732028Y491333D01*
X733900Y491087D01*
Y501050D01*
D02*
G37*
G36*
X365500Y507823D02*
X363281Y507531D01*
X361213Y506675D01*
X359438Y505312D01*
X358075Y503537D01*
X357219Y501469D01*
X356927Y499250D01*
X357219Y497031D01*
X358075Y494963D01*
X359438Y493188D01*
X361213Y491825D01*
X363281Y490969D01*
X365500Y490677D01*
X367719Y490969D01*
X369787Y491825D01*
X371562Y493188D01*
X372925Y494963D01*
X373781Y497031D01*
X374073Y499250D01*
X373781Y501469D01*
X372925Y503537D01*
X371562Y505312D01*
X369787Y506675D01*
X367719Y507531D01*
X365500Y507823D01*
D02*
G37*
G36*
X709500Y513649D02*
X706498Y513254D01*
X703700Y512095D01*
X701298Y510252D01*
X699455Y507850D01*
X698296Y505052D01*
X697901Y502050D01*
X698296Y499048D01*
X699455Y496250D01*
X701298Y493848D01*
X703700Y492005D01*
X706498Y490846D01*
X709500Y490451D01*
X712502Y490846D01*
X715300Y492005D01*
X717702Y493848D01*
X719545Y496250D01*
X720704Y499048D01*
X721099Y502050D01*
X720704Y505052D01*
X719545Y507850D01*
X717702Y510252D01*
X715300Y512095D01*
X712502Y513254D01*
X709500Y513649D01*
D02*
G37*
G36*
X34750Y504091D02*
X32009Y503730D01*
X29455Y502672D01*
X27261Y500989D01*
X25578Y498795D01*
X24520Y496241D01*
X24159Y493500D01*
X24520Y490759D01*
X25578Y488205D01*
X27261Y486011D01*
X29455Y484328D01*
X32009Y483270D01*
X34750Y482909D01*
X37491Y483270D01*
X40045Y484328D01*
X42239Y486011D01*
X43922Y488205D01*
X44980Y490759D01*
X45340Y493500D01*
X44980Y496241D01*
X43922Y498795D01*
X42239Y500989D01*
X40045Y502672D01*
X37491Y503730D01*
X34750Y504091D01*
D02*
G37*
G36*
X515500Y485399D02*
Y481500D01*
X519399D01*
X519210Y482451D01*
X518105Y484105D01*
X516451Y485210D01*
X515500Y485399D01*
D02*
G37*
G36*
X513500D02*
X512549Y485210D01*
X510895Y484105D01*
X509790Y482451D01*
X509601Y481500D01*
X513500D01*
Y485399D01*
D02*
G37*
G36*
X143400Y489700D02*
X134829D01*
X135028Y488189D01*
X135997Y485849D01*
X137539Y483839D01*
X139549Y482297D01*
X141889Y481328D01*
X143400Y481129D01*
Y489700D01*
D02*
G37*
G36*
X153971D02*
X145400D01*
Y481129D01*
X146911Y481328D01*
X149251Y482297D01*
X151261Y483839D01*
X152803Y485849D01*
X153772Y488189D01*
X153971Y489700D01*
D02*
G37*
G36*
X119000Y500907D02*
X116358Y500560D01*
X113896Y499540D01*
X111782Y497918D01*
X110160Y495804D01*
X109140Y493342D01*
X108793Y490700D01*
X109140Y488058D01*
X110160Y485596D01*
X111782Y483482D01*
X113896Y481860D01*
X116358Y480840D01*
X119000Y480493D01*
X121642Y480840D01*
X124104Y481860D01*
X126218Y483482D01*
X127840Y485596D01*
X128860Y488058D01*
X129207Y490700D01*
X128860Y493342D01*
X127840Y495804D01*
X126218Y497918D01*
X124104Y499540D01*
X121642Y500560D01*
X119000Y500907D01*
D02*
G37*
G36*
X735900Y487613D02*
Y477650D01*
X745863D01*
X745617Y479521D01*
X744508Y482197D01*
X742745Y484495D01*
X740447Y486258D01*
X737772Y487367D01*
X735900Y487613D01*
D02*
G37*
G36*
X733900Y487613D02*
X732028Y487367D01*
X729352Y486258D01*
X727055Y484495D01*
X725292Y482197D01*
X724183Y479521D01*
X723937Y477650D01*
X733900D01*
Y487613D01*
D02*
G37*
G36*
X656000Y480899D02*
Y477000D01*
X659899D01*
X659710Y477951D01*
X658605Y479605D01*
X656951Y480710D01*
X656000Y480899D01*
D02*
G37*
G36*
X654000D02*
X653049Y480710D01*
X651395Y479605D01*
X650290Y477951D01*
X650101Y477000D01*
X654000D01*
Y480899D01*
D02*
G37*
G36*
X519399Y479500D02*
X515500D01*
Y475601D01*
X516451Y475790D01*
X518105Y476895D01*
X519210Y478549D01*
X519399Y479500D01*
D02*
G37*
G36*
X513500D02*
X509601D01*
X509790Y478549D01*
X510895Y476895D01*
X512549Y475790D01*
X513500Y475601D01*
Y479500D01*
D02*
G37*
G36*
X345750Y485608D02*
X343604Y485181D01*
X341785Y483965D01*
X340569Y482146D01*
X340142Y480000D01*
X340569Y477854D01*
X341785Y476035D01*
X343604Y474819D01*
X345750Y474392D01*
X347896Y474819D01*
X349715Y476035D01*
X350931Y477854D01*
X351358Y480000D01*
X350931Y482146D01*
X349715Y483965D01*
X347896Y485181D01*
X345750Y485608D01*
D02*
G37*
G36*
X585000Y488573D02*
X582781Y488281D01*
X580713Y487425D01*
X578938Y486062D01*
X577575Y484287D01*
X576719Y482219D01*
X576427Y480000D01*
X576719Y477781D01*
X577575Y475713D01*
X578938Y473938D01*
X580713Y472575D01*
X582781Y471719D01*
X585000Y471427D01*
X587219Y471719D01*
X589287Y472575D01*
X591062Y473938D01*
X592425Y475713D01*
X593281Y477781D01*
X593573Y480000D01*
X593281Y482219D01*
X592425Y484287D01*
X591062Y486062D01*
X589287Y487425D01*
X587219Y488281D01*
X585000Y488573D01*
D02*
G37*
G36*
X659899Y475000D02*
X656000D01*
Y471101D01*
X656951Y471290D01*
X658605Y472395D01*
X659710Y474049D01*
X659899Y475000D01*
D02*
G37*
G36*
X654000D02*
X650101D01*
X650290Y474049D01*
X651395Y472395D01*
X653049Y471290D01*
X654000Y471101D01*
Y475000D01*
D02*
G37*
G36*
X194750Y473149D02*
Y469250D01*
X198649D01*
X198460Y470201D01*
X197355Y471855D01*
X195701Y472960D01*
X194750Y473149D01*
D02*
G37*
G36*
X192750D02*
X191799Y472960D01*
X190145Y471855D01*
X189040Y470201D01*
X188851Y469250D01*
X192750D01*
Y473149D01*
D02*
G37*
G36*
X438500Y477858D02*
X436354Y477431D01*
X434535Y476215D01*
X433319Y474396D01*
X432892Y472250D01*
X433319Y470104D01*
X434535Y468285D01*
X436354Y467069D01*
X438500Y466642D01*
X440646Y467069D01*
X442465Y468285D01*
X443681Y470104D01*
X444108Y472250D01*
X443681Y474396D01*
X442465Y476215D01*
X440646Y477431D01*
X438500Y477858D01*
D02*
G37*
G36*
X414500D02*
X412354Y477431D01*
X410535Y476215D01*
X409319Y474396D01*
X408892Y472250D01*
X409319Y470104D01*
X410535Y468285D01*
X412354Y467069D01*
X414500Y466642D01*
X416646Y467069D01*
X418465Y468285D01*
X419681Y470104D01*
X420108Y472250D01*
X419681Y474396D01*
X418465Y476215D01*
X416646Y477431D01*
X414500Y477858D01*
D02*
G37*
G36*
X520750Y472858D02*
X518604Y472431D01*
X516785Y471215D01*
X515569Y469396D01*
X515179Y467433D01*
X514279Y466702D01*
X514051Y466557D01*
X513346Y466799D01*
X513065Y467216D01*
X512681Y469146D01*
X511465Y470965D01*
X509646Y472181D01*
X507500Y472608D01*
X505354Y472181D01*
X503535Y470965D01*
X502319Y469146D01*
X501892Y467000D01*
X502319Y464854D01*
X503535Y463035D01*
X505354Y461819D01*
X507283Y461435D01*
X507817Y461075D01*
X508075Y460817D01*
X508435Y460283D01*
X508819Y458354D01*
X510035Y456535D01*
X511854Y455319D01*
X514000Y454892D01*
X516146Y455319D01*
X517965Y456535D01*
X519181Y458354D01*
X519608Y460500D01*
X519547Y460805D01*
X520445Y461703D01*
X520750Y461642D01*
X522896Y462069D01*
X524715Y463285D01*
X525931Y465104D01*
X526358Y467250D01*
X525931Y469396D01*
X524715Y471215D01*
X522896Y472431D01*
X520750Y472858D01*
D02*
G37*
G36*
X745863Y475650D02*
X735900D01*
Y465687D01*
X737772Y465933D01*
X740447Y467042D01*
X742745Y468805D01*
X744508Y471102D01*
X745617Y473778D01*
X745863Y475650D01*
D02*
G37*
G36*
X733900D02*
X723937D01*
X724183Y473778D01*
X725292Y471102D01*
X727055Y468805D01*
X729352Y467042D01*
X732028Y465933D01*
X733900Y465687D01*
Y475650D01*
D02*
G37*
G36*
X709500Y488249D02*
X706498Y487854D01*
X703700Y486695D01*
X701298Y484852D01*
X699455Y482450D01*
X698296Y479652D01*
X697901Y476650D01*
X698296Y473648D01*
X699455Y470850D01*
X701298Y468448D01*
X703700Y466605D01*
X706498Y465446D01*
X709500Y465051D01*
X712502Y465446D01*
X715300Y466605D01*
X717702Y468448D01*
X719545Y470850D01*
X720704Y473648D01*
X721099Y476650D01*
X720704Y479652D01*
X719545Y482450D01*
X717702Y484852D01*
X715300Y486695D01*
X712502Y487854D01*
X709500Y488249D01*
D02*
G37*
G36*
X198649Y467250D02*
X194750D01*
Y463351D01*
X195701Y463540D01*
X197355Y464645D01*
X198460Y466299D01*
X198649Y467250D01*
D02*
G37*
G36*
X192750D02*
X188851D01*
X189040Y466299D01*
X190145Y464645D01*
X191799Y463540D01*
X192750Y463351D01*
Y467250D01*
D02*
G37*
G36*
X67250Y476823D02*
X65031Y476531D01*
X62963Y475675D01*
X61188Y474312D01*
X59825Y472537D01*
X58969Y470469D01*
X58677Y468250D01*
X58969Y466031D01*
X59825Y463963D01*
X61188Y462188D01*
X62963Y460825D01*
X65031Y459969D01*
X67250Y459677D01*
X69469Y459969D01*
X71537Y460825D01*
X73312Y462188D01*
X74675Y463963D01*
X75531Y466031D01*
X75823Y468250D01*
X75531Y470469D01*
X74675Y472537D01*
X73312Y474312D01*
X71537Y475675D01*
X69469Y476531D01*
X67250Y476823D01*
D02*
G37*
G36*
X463000Y481108D02*
X460854Y480681D01*
X459035Y479465D01*
X457819Y477646D01*
X457392Y475500D01*
X457819Y473354D01*
X459035Y471535D01*
X460854Y470319D01*
X463000Y469892D01*
X464062Y470103D01*
X465510Y469151D01*
X465569Y468854D01*
X466785Y467035D01*
X468604Y465819D01*
X470750Y465392D01*
X471662Y465574D01*
X472892Y465250D01*
X473319Y463104D01*
X474535Y461285D01*
X476354Y460069D01*
X478500Y459642D01*
X480646Y460069D01*
X482465Y461285D01*
X483681Y463104D01*
X484108Y465250D01*
X483681Y467396D01*
X482465Y469215D01*
X480646Y470431D01*
X478500Y470858D01*
X477588Y470676D01*
X476358Y471000D01*
X475931Y473146D01*
X474715Y474965D01*
X472896Y476181D01*
X470750Y476608D01*
X469688Y476396D01*
X468240Y477349D01*
X468181Y477646D01*
X466965Y479465D01*
X465146Y480681D01*
X463000Y481108D01*
D02*
G37*
G36*
X34750Y478691D02*
X32009Y478330D01*
X29455Y477272D01*
X27261Y475589D01*
X25578Y473395D01*
X24520Y470841D01*
X24159Y468100D01*
X24520Y465359D01*
X25578Y462805D01*
X27261Y460611D01*
X29455Y458928D01*
X32009Y457870D01*
X34750Y457509D01*
X37491Y457870D01*
X40045Y458928D01*
X42239Y460611D01*
X43922Y462805D01*
X44980Y465359D01*
X45340Y468100D01*
X44980Y470841D01*
X43922Y473395D01*
X42239Y475589D01*
X40045Y477272D01*
X37491Y478330D01*
X34750Y478691D01*
D02*
G37*
G36*
X144400Y475507D02*
X141758Y475159D01*
X139296Y474140D01*
X137182Y472518D01*
X135560Y470404D01*
X134540Y467942D01*
X134193Y465300D01*
X134540Y462658D01*
X135560Y460196D01*
X137182Y458082D01*
X139296Y456460D01*
X141758Y455440D01*
X144400Y455093D01*
X147042Y455440D01*
X149504Y456460D01*
X151618Y458082D01*
X153240Y460196D01*
X154260Y462658D01*
X154607Y465300D01*
X154260Y467942D01*
X153240Y470404D01*
X151618Y472518D01*
X149504Y474140D01*
X147042Y475159D01*
X144400Y475507D01*
D02*
G37*
G36*
X119000D02*
X116358Y475159D01*
X113896Y474140D01*
X111782Y472518D01*
X110160Y470404D01*
X109140Y467942D01*
X108793Y465300D01*
X109140Y462658D01*
X110160Y460196D01*
X111782Y458082D01*
X113896Y456460D01*
X116358Y455440D01*
X119000Y455093D01*
X121642Y455440D01*
X124104Y456460D01*
X126218Y458082D01*
X127840Y460196D01*
X128860Y462658D01*
X129207Y465300D01*
X128860Y467942D01*
X127840Y470404D01*
X126218Y472518D01*
X124104Y474140D01*
X121642Y475159D01*
X119000Y475507D01*
D02*
G37*
G36*
X735900Y462213D02*
Y452250D01*
X745863D01*
X745617Y454122D01*
X744508Y456797D01*
X742745Y459095D01*
X740447Y460858D01*
X737772Y461967D01*
X735900Y462213D01*
D02*
G37*
G36*
X733900Y462213D02*
X732028Y461967D01*
X729352Y460858D01*
X727055Y459095D01*
X725292Y456797D01*
X724183Y454122D01*
X723937Y452250D01*
X733900D01*
Y462213D01*
D02*
G37*
G36*
X450500Y450108D02*
X448354Y449681D01*
X446535Y448465D01*
X445405Y446774D01*
X445036Y446674D01*
X444929Y446665D01*
X444037Y446710D01*
X443105Y448105D01*
X441451Y449210D01*
X440500Y449399D01*
Y444500D01*
Y439601D01*
X441451Y439790D01*
X443105Y440895D01*
X444037Y442290D01*
X444929Y442335D01*
X445036Y442326D01*
X445405Y442226D01*
X446535Y440535D01*
X448354Y439319D01*
X450500Y438892D01*
X452646Y439319D01*
X454465Y440535D01*
X455681Y442354D01*
X456108Y444500D01*
X455681Y446646D01*
X454465Y448465D01*
X452646Y449681D01*
X450500Y450108D01*
D02*
G37*
G36*
X585000Y463573D02*
X582781Y463281D01*
X580713Y462425D01*
X578938Y461062D01*
X577575Y459287D01*
X576719Y457219D01*
X576427Y455000D01*
X576719Y452781D01*
X577575Y450713D01*
X578938Y448938D01*
X580713Y447575D01*
X582781Y446719D01*
X585000Y446427D01*
X587219Y446719D01*
X589287Y447575D01*
X591062Y448938D01*
X592425Y450713D01*
X593281Y452781D01*
X593573Y455000D01*
X593281Y457219D01*
X592425Y459287D01*
X591062Y461062D01*
X589287Y462425D01*
X587219Y463281D01*
X585000Y463573D01*
D02*
G37*
G36*
X438500Y449399D02*
X437549Y449210D01*
X435895Y448105D01*
X434790Y446451D01*
X434601Y445500D01*
X438500D01*
Y449399D01*
D02*
G37*
G36*
X563000Y448649D02*
Y444750D01*
X566899D01*
X566710Y445701D01*
X565605Y447355D01*
X563951Y448460D01*
X563000Y448649D01*
D02*
G37*
G36*
X561000D02*
X560049Y448460D01*
X558395Y447355D01*
X557290Y445701D01*
X557101Y444750D01*
X561000D01*
Y448649D01*
D02*
G37*
G36*
X486250Y455858D02*
X484104Y455431D01*
X482285Y454215D01*
X481069Y452396D01*
X480642Y450250D01*
X481069Y448104D01*
X482285Y446285D01*
X484104Y445069D01*
X486250Y444642D01*
X488396Y445069D01*
X490215Y446285D01*
X491431Y448104D01*
X491858Y450250D01*
X491431Y452396D01*
X490215Y454215D01*
X488396Y455431D01*
X486250Y455858D01*
D02*
G37*
G36*
X271000Y454608D02*
X268854Y454181D01*
X267035Y452965D01*
X265819Y451146D01*
X265392Y449000D01*
X265819Y446854D01*
X267035Y445035D01*
X268854Y443819D01*
X271000Y443392D01*
X273146Y443819D01*
X274965Y445035D01*
X276181Y446854D01*
X276608Y449000D01*
X276181Y451146D01*
X274965Y452965D01*
X273146Y454181D01*
X271000Y454608D01*
D02*
G37*
G36*
X240000Y458073D02*
X237781Y457781D01*
X235713Y456925D01*
X233938Y455562D01*
X232575Y453787D01*
X231719Y451719D01*
X231427Y449500D01*
X231719Y447281D01*
X232575Y445213D01*
X233938Y443438D01*
X235713Y442075D01*
X237781Y441219D01*
X240000Y440927D01*
X242219Y441219D01*
X244287Y442075D01*
X246062Y443438D01*
X247425Y445213D01*
X248281Y447281D01*
X248573Y449500D01*
X248281Y451719D01*
X247425Y453787D01*
X246062Y455562D01*
X244287Y456925D01*
X242219Y457781D01*
X240000Y458073D01*
D02*
G37*
G36*
X145400Y449471D02*
Y440900D01*
X153971D01*
X153772Y442411D01*
X152803Y444752D01*
X151261Y446761D01*
X149251Y448303D01*
X146911Y449272D01*
X145400Y449471D01*
D02*
G37*
G36*
X143400Y449471D02*
X141889Y449272D01*
X139549Y448303D01*
X137539Y446761D01*
X135997Y444752D01*
X135028Y442411D01*
X134829Y440900D01*
X143400D01*
Y449471D01*
D02*
G37*
G36*
X745863Y450250D02*
X735900D01*
Y440287D01*
X737772Y440533D01*
X740447Y441642D01*
X742745Y443405D01*
X744508Y445703D01*
X745617Y448378D01*
X745863Y450250D01*
D02*
G37*
G36*
X733900D02*
X723937D01*
X724183Y448378D01*
X725292Y445703D01*
X727055Y443405D01*
X729352Y441642D01*
X732028Y440533D01*
X733900Y440287D01*
Y450250D01*
D02*
G37*
G36*
X709500Y462849D02*
X706498Y462454D01*
X703700Y461295D01*
X701298Y459452D01*
X699455Y457050D01*
X698296Y454252D01*
X697901Y451250D01*
X698296Y448248D01*
X699455Y445450D01*
X701298Y443048D01*
X703700Y441205D01*
X706498Y440046D01*
X709500Y439651D01*
X712502Y440046D01*
X715300Y441205D01*
X717702Y443048D01*
X719545Y445450D01*
X720704Y448248D01*
X721099Y451250D01*
X720704Y454252D01*
X719545Y457050D01*
X717702Y459452D01*
X715300Y461295D01*
X712502Y462454D01*
X709500Y462849D01*
D02*
G37*
G36*
X438500Y443500D02*
X434601D01*
X434790Y442549D01*
X435895Y440895D01*
X437549Y439790D01*
X438500Y439601D01*
Y443500D01*
D02*
G37*
G36*
X566899Y442750D02*
X563000D01*
Y438851D01*
X563951Y439040D01*
X565605Y440145D01*
X566710Y441799D01*
X566899Y442750D01*
D02*
G37*
G36*
X561000D02*
X557101D01*
X557290Y441799D01*
X558395Y440145D01*
X560049Y439040D01*
X561000Y438851D01*
Y442750D01*
D02*
G37*
G36*
X378500Y449858D02*
X376354Y449431D01*
X374535Y448215D01*
X373319Y446396D01*
X372892Y444250D01*
X373319Y442104D01*
X374535Y440285D01*
X376354Y439069D01*
X378500Y438642D01*
X380646Y439069D01*
X382465Y440285D01*
X383681Y442104D01*
X384108Y444250D01*
X383681Y446396D01*
X382465Y448215D01*
X380646Y449431D01*
X378500Y449858D01*
D02*
G37*
G36*
X354500D02*
X352354Y449431D01*
X350535Y448215D01*
X349319Y446396D01*
X348892Y444250D01*
X349319Y442104D01*
X350535Y440285D01*
X352354Y439069D01*
X354500Y438642D01*
X356646Y439069D01*
X358465Y440285D01*
X359681Y442104D01*
X360108Y444250D01*
X359681Y446396D01*
X358465Y448215D01*
X356646Y449431D01*
X354500Y449858D01*
D02*
G37*
G36*
X463750Y446108D02*
X461604Y445681D01*
X459785Y444465D01*
X458569Y442646D01*
X458142Y440500D01*
X458569Y438354D01*
X459785Y436535D01*
X461604Y435319D01*
X463750Y434892D01*
X465896Y435319D01*
X467715Y436535D01*
X468931Y438354D01*
X469358Y440500D01*
X468931Y442646D01*
X467715Y444465D01*
X465896Y445681D01*
X463750Y446108D01*
D02*
G37*
G36*
X67250Y451573D02*
X65031Y451281D01*
X62963Y450425D01*
X61188Y449062D01*
X59825Y447287D01*
X58969Y445219D01*
X58677Y443000D01*
X58969Y440781D01*
X59825Y438713D01*
X61188Y436938D01*
X62963Y435575D01*
X65031Y434719D01*
X67250Y434427D01*
X69469Y434719D01*
X71537Y435575D01*
X73312Y436938D01*
X74675Y438713D01*
X75531Y440781D01*
X75823Y443000D01*
X75531Y445219D01*
X74675Y447287D01*
X73312Y449062D01*
X71537Y450425D01*
X69469Y451281D01*
X67250Y451573D01*
D02*
G37*
G36*
X34750Y453291D02*
X32009Y452930D01*
X29455Y451872D01*
X27261Y450189D01*
X25578Y447995D01*
X24520Y445441D01*
X24159Y442700D01*
X24520Y439959D01*
X25578Y437405D01*
X27261Y435211D01*
X29455Y433528D01*
X32009Y432470D01*
X34750Y432109D01*
X37491Y432470D01*
X40045Y433528D01*
X42239Y435211D01*
X43922Y437405D01*
X44980Y439959D01*
X45340Y442700D01*
X44980Y445441D01*
X43922Y447995D01*
X42239Y450189D01*
X40045Y451872D01*
X37491Y452930D01*
X34750Y453291D01*
D02*
G37*
G36*
X143400Y438900D02*
X134829D01*
X135028Y437389D01*
X135997Y435048D01*
X137539Y433039D01*
X139549Y431497D01*
X141889Y430528D01*
X143400Y430329D01*
Y438900D01*
D02*
G37*
G36*
X153971D02*
X145400D01*
Y430329D01*
X146911Y430528D01*
X149251Y431497D01*
X151261Y433039D01*
X152803Y435048D01*
X153772Y437389D01*
X153971Y438900D01*
D02*
G37*
G36*
X119000Y450107D02*
X116358Y449759D01*
X113896Y448740D01*
X111782Y447118D01*
X110160Y445004D01*
X109140Y442542D01*
X108793Y439900D01*
X109140Y437258D01*
X110160Y434796D01*
X111782Y432682D01*
X113896Y431060D01*
X116358Y430041D01*
X119000Y429693D01*
X121642Y430041D01*
X124104Y431060D01*
X126218Y432682D01*
X127840Y434796D01*
X128860Y437258D01*
X129207Y439900D01*
X128860Y442542D01*
X127840Y445004D01*
X126218Y447118D01*
X124104Y448740D01*
X121642Y449759D01*
X119000Y450107D01*
D02*
G37*
G36*
X287250Y432149D02*
Y428250D01*
X291149D01*
X290960Y429201D01*
X289855Y430855D01*
X288201Y431960D01*
X287250Y432149D01*
D02*
G37*
G36*
X285250D02*
X284299Y431960D01*
X282645Y430855D01*
X281540Y429201D01*
X281351Y428250D01*
X285250D01*
Y432149D01*
D02*
G37*
G36*
X200250Y430899D02*
Y427000D01*
X204149D01*
X203960Y427951D01*
X202855Y429605D01*
X201201Y430710D01*
X200250Y430899D01*
D02*
G37*
G36*
X198250D02*
X197299Y430710D01*
X195645Y429605D01*
X194540Y427951D01*
X194351Y427000D01*
X198250D01*
Y430899D01*
D02*
G37*
G36*
X735900Y436813D02*
Y426850D01*
X745863D01*
X745617Y428722D01*
X744508Y431397D01*
X742745Y433695D01*
X740447Y435458D01*
X737772Y436567D01*
X735900Y436813D01*
D02*
G37*
G36*
X733900Y436813D02*
X732028Y436567D01*
X729352Y435458D01*
X727055Y433695D01*
X725292Y431397D01*
X724183Y428722D01*
X723937Y426850D01*
X733900D01*
Y436813D01*
D02*
G37*
G36*
X291149Y426250D02*
X287250D01*
Y422351D01*
X288201Y422540D01*
X289855Y423645D01*
X290960Y425299D01*
X291149Y426250D01*
D02*
G37*
G36*
X285250D02*
X281351D01*
X281540Y425299D01*
X282645Y423645D01*
X284299Y422540D01*
X285250Y422351D01*
Y426250D01*
D02*
G37*
G36*
X499500Y432858D02*
X497354Y432431D01*
X495535Y431215D01*
X494319Y429396D01*
X493892Y427250D01*
X494319Y425104D01*
X495535Y423285D01*
X497354Y422069D01*
X499500Y421642D01*
X501646Y422069D01*
X503465Y423285D01*
X504681Y425104D01*
X505108Y427250D01*
X504681Y429396D01*
X503465Y431215D01*
X501646Y432431D01*
X499500Y432858D01*
D02*
G37*
G36*
X346750Y438858D02*
X344604Y438431D01*
X342785Y437215D01*
X341569Y435396D01*
X341142Y433250D01*
X341569Y431104D01*
X342785Y429285D01*
X344604Y428069D01*
X346750Y427642D01*
X348896Y428069D01*
X349142Y428233D01*
X350197Y427528D01*
X350142Y427250D01*
X350569Y425104D01*
X351785Y423285D01*
X353604Y422069D01*
X355750Y421642D01*
X357896Y422069D01*
X359715Y423285D01*
X360931Y425104D01*
X361358Y427250D01*
X360931Y429396D01*
X359715Y431215D01*
X357896Y432431D01*
X355750Y432858D01*
X353604Y432431D01*
X353358Y432267D01*
X352303Y432972D01*
X352358Y433250D01*
X351931Y435396D01*
X350715Y437215D01*
X348896Y438431D01*
X346750Y438858D01*
D02*
G37*
G36*
X585000Y438573D02*
X582781Y438281D01*
X580713Y437425D01*
X578938Y436062D01*
X577575Y434287D01*
X576719Y432219D01*
X576427Y430000D01*
X576719Y427781D01*
X577575Y425713D01*
X578938Y423938D01*
X580713Y422575D01*
X582781Y421719D01*
X585000Y421427D01*
X587219Y421719D01*
X589287Y422575D01*
X591062Y423938D01*
X592425Y425713D01*
X593281Y427781D01*
X593573Y430000D01*
X593281Y432219D01*
X592425Y434287D01*
X591062Y436062D01*
X589287Y437425D01*
X587219Y438281D01*
X585000Y438573D01*
D02*
G37*
G36*
X204149Y425000D02*
X200250D01*
Y421101D01*
X201201Y421290D01*
X202855Y422395D01*
X203960Y424049D01*
X204149Y425000D01*
D02*
G37*
G36*
X198250D02*
X194351D01*
X194540Y424049D01*
X195645Y422395D01*
X197299Y421290D01*
X198250Y421101D01*
Y425000D01*
D02*
G37*
G36*
X315750Y440858D02*
X313604Y440431D01*
X311785Y439215D01*
X310569Y437396D01*
X310142Y435250D01*
X310569Y433104D01*
X311785Y431285D01*
X313032Y430451D01*
X313546Y429778D01*
X313356Y428824D01*
X312569Y427646D01*
X312142Y425500D01*
X312569Y423354D01*
X313785Y421535D01*
X315604Y420319D01*
X317750Y419892D01*
X319896Y420319D01*
X321715Y421535D01*
X322931Y423354D01*
X323358Y425500D01*
X322931Y427646D01*
X321715Y429465D01*
X320468Y430299D01*
X319954Y430972D01*
X320144Y431926D01*
X320931Y433104D01*
X321358Y435250D01*
X320931Y437396D01*
X319715Y439215D01*
X317896Y440431D01*
X315750Y440858D01*
D02*
G37*
G36*
X745863Y424850D02*
X735900D01*
Y414887D01*
X737772Y415133D01*
X740447Y416241D01*
X742745Y418005D01*
X744508Y420303D01*
X745617Y422978D01*
X745863Y424850D01*
D02*
G37*
G36*
X733900D02*
X723937D01*
X724183Y422978D01*
X725292Y420303D01*
X727055Y418005D01*
X729352Y416241D01*
X732028Y415133D01*
X733900Y414887D01*
Y424850D01*
D02*
G37*
G36*
X392500Y418649D02*
Y414750D01*
X396399D01*
X396210Y415701D01*
X395105Y417355D01*
X393451Y418460D01*
X392500Y418649D01*
D02*
G37*
G36*
X390500D02*
X389549Y418460D01*
X387895Y417355D01*
X386790Y415701D01*
X386601Y414750D01*
X390500D01*
Y418649D01*
D02*
G37*
G36*
X709500Y437449D02*
X706498Y437054D01*
X703700Y435895D01*
X701298Y434052D01*
X699455Y431650D01*
X698296Y428852D01*
X697901Y425850D01*
X698296Y422848D01*
X699455Y420050D01*
X701298Y417648D01*
X703700Y415805D01*
X706498Y414646D01*
X709500Y414251D01*
X712502Y414646D01*
X715300Y415805D01*
X717702Y417648D01*
X719545Y420050D01*
X720704Y422848D01*
X721099Y425850D01*
X720704Y428852D01*
X719545Y431650D01*
X717702Y434052D01*
X715300Y435895D01*
X712502Y437054D01*
X709500Y437449D01*
D02*
G37*
G36*
X509750Y415358D02*
X507604Y414931D01*
X505785Y413715D01*
X505426Y413179D01*
X504156D01*
X503965Y413465D01*
X502146Y414681D01*
X500000Y415108D01*
X497854Y414681D01*
X496035Y413465D01*
X494819Y411646D01*
X494392Y409500D01*
X494819Y407354D01*
X496035Y405535D01*
X497854Y404319D01*
X500000Y403892D01*
X502146Y404319D01*
X503965Y405535D01*
X504324Y406071D01*
X505593D01*
X505785Y405785D01*
X507604Y404569D01*
X509750Y404142D01*
X511896Y404569D01*
X513715Y405785D01*
X514931Y407604D01*
X515358Y409750D01*
X514931Y411896D01*
X513715Y413715D01*
X511896Y414931D01*
X509750Y415358D01*
D02*
G37*
G36*
X396399Y412750D02*
X392500D01*
Y408851D01*
X393451Y409040D01*
X395105Y410145D01*
X396210Y411799D01*
X396399Y412750D01*
D02*
G37*
G36*
X390500D02*
X386601D01*
X386790Y411799D01*
X387895Y410145D01*
X389549Y409040D01*
X390500Y408851D01*
Y412750D01*
D02*
G37*
G36*
X452000Y409149D02*
Y405250D01*
X455899D01*
X455710Y406201D01*
X454605Y407855D01*
X452951Y408960D01*
X452000Y409149D01*
D02*
G37*
G36*
X450000D02*
X449049Y408960D01*
X447395Y407855D01*
X446290Y406201D01*
X446101Y405250D01*
X450000D01*
Y409149D01*
D02*
G37*
G36*
X144400Y424707D02*
X141758Y424360D01*
X139296Y423340D01*
X137182Y421718D01*
X135560Y419604D01*
X134540Y417142D01*
X134193Y414500D01*
X134540Y411858D01*
X135560Y409396D01*
X137182Y407282D01*
X139296Y405660D01*
X141758Y404641D01*
X144400Y404293D01*
X147042Y404641D01*
X149504Y405660D01*
X151618Y407282D01*
X153240Y409396D01*
X154260Y411858D01*
X154607Y414500D01*
X154260Y417142D01*
X153240Y419604D01*
X151618Y421718D01*
X149504Y423340D01*
X147042Y424360D01*
X144400Y424707D01*
D02*
G37*
G36*
X119000D02*
X116358Y424360D01*
X113896Y423340D01*
X111782Y421718D01*
X110160Y419604D01*
X109140Y417142D01*
X108793Y414500D01*
X109140Y411858D01*
X110160Y409396D01*
X111782Y407282D01*
X113896Y405660D01*
X116358Y404641D01*
X119000Y404293D01*
X121642Y404641D01*
X124104Y405660D01*
X126218Y407282D01*
X127840Y409396D01*
X128860Y411858D01*
X129207Y414500D01*
X128860Y417142D01*
X127840Y419604D01*
X126218Y421718D01*
X124104Y423340D01*
X121642Y424360D01*
X119000Y424707D01*
D02*
G37*
G36*
X471250Y412858D02*
X469104Y412431D01*
X467285Y411215D01*
X466069Y409396D01*
X465642Y407250D01*
X466069Y405104D01*
X467285Y403285D01*
X469104Y402069D01*
X471250Y401642D01*
X473396Y402069D01*
X475215Y403285D01*
X476431Y405104D01*
X476858Y407250D01*
X476431Y409396D01*
X475215Y411215D01*
X473396Y412431D01*
X471250Y412858D01*
D02*
G37*
G36*
X735900Y411413D02*
Y401450D01*
X745863D01*
X745617Y403321D01*
X744508Y405997D01*
X742745Y408295D01*
X740447Y410058D01*
X737772Y411167D01*
X735900Y411413D01*
D02*
G37*
G36*
X733900Y411413D02*
X732028Y411167D01*
X729352Y410058D01*
X727055Y408295D01*
X725292Y405997D01*
X724183Y403321D01*
X723937Y401450D01*
X733900D01*
Y411413D01*
D02*
G37*
G36*
X455899Y403250D02*
X452000D01*
Y399351D01*
X452951Y399540D01*
X454605Y400645D01*
X455710Y402299D01*
X455899Y403250D01*
D02*
G37*
G36*
X450000D02*
X446101D01*
X446290Y402299D01*
X447395Y400645D01*
X449049Y399540D01*
X450000Y399351D01*
Y403250D01*
D02*
G37*
G36*
X345250Y408858D02*
X343104Y408431D01*
X341285Y407215D01*
X340069Y405396D01*
X339642Y403250D01*
X340069Y401104D01*
X341285Y399285D01*
X343104Y398069D01*
X345250Y397642D01*
X347396Y398069D01*
X349215Y399285D01*
X350431Y401104D01*
X350858Y403250D01*
X350431Y405396D01*
X349215Y407215D01*
X347396Y408431D01*
X345250Y408858D01*
D02*
G37*
G36*
X585000Y413573D02*
X582781Y413281D01*
X580713Y412425D01*
X578938Y411062D01*
X577575Y409287D01*
X576719Y407219D01*
X576427Y405000D01*
X576719Y402781D01*
X577575Y400713D01*
X578938Y398938D01*
X580713Y397575D01*
X582781Y396719D01*
X585000Y396427D01*
X587219Y396719D01*
X589287Y397575D01*
X591062Y398938D01*
X592425Y400713D01*
X593281Y402781D01*
X593573Y405000D01*
X593281Y407219D01*
X592425Y409287D01*
X591062Y411062D01*
X589287Y412425D01*
X587219Y413281D01*
X585000Y413573D01*
D02*
G37*
G36*
X277000Y396149D02*
Y392250D01*
X280899D01*
X280710Y393201D01*
X279605Y394855D01*
X277951Y395960D01*
X277000Y396149D01*
D02*
G37*
G36*
X275000D02*
X274049Y395960D01*
X272395Y394855D01*
X271290Y393201D01*
X271101Y392250D01*
X275000D01*
Y396149D01*
D02*
G37*
G36*
X145400Y398671D02*
Y390100D01*
X153971D01*
X153772Y391611D01*
X152803Y393951D01*
X151261Y395961D01*
X149251Y397503D01*
X146911Y398472D01*
X145400Y398671D01*
D02*
G37*
G36*
X143400Y398671D02*
X141889Y398472D01*
X139549Y397503D01*
X137539Y395961D01*
X135997Y393951D01*
X135028Y391611D01*
X134829Y390100D01*
X143400D01*
Y398671D01*
D02*
G37*
G36*
X745863Y399450D02*
X735900D01*
Y389487D01*
X737772Y389733D01*
X740447Y390841D01*
X742745Y392605D01*
X744508Y394902D01*
X745617Y397578D01*
X745863Y399450D01*
D02*
G37*
G36*
X733900D02*
X723937D01*
X724183Y397578D01*
X725292Y394902D01*
X727055Y392605D01*
X729352Y390841D01*
X732028Y389733D01*
X733900Y389487D01*
Y399450D01*
D02*
G37*
G36*
X709500Y412049D02*
X706498Y411654D01*
X703700Y410495D01*
X701298Y408652D01*
X699455Y406250D01*
X698296Y403452D01*
X697901Y400450D01*
X698296Y397448D01*
X699455Y394650D01*
X701298Y392248D01*
X703700Y390405D01*
X706498Y389246D01*
X709500Y388851D01*
X712502Y389246D01*
X715300Y390405D01*
X717702Y392248D01*
X719545Y394650D01*
X720704Y397448D01*
X721099Y400450D01*
X720704Y403452D01*
X719545Y406250D01*
X717702Y408652D01*
X715300Y410495D01*
X712502Y411654D01*
X709500Y412049D01*
D02*
G37*
G36*
X377500Y390899D02*
Y387000D01*
X381399D01*
X381210Y387951D01*
X380105Y389605D01*
X378451Y390710D01*
X377500Y390899D01*
D02*
G37*
G36*
X375500D02*
X374549Y390710D01*
X372895Y389605D01*
X371790Y387951D01*
X371601Y387000D01*
X375500D01*
Y390899D01*
D02*
G37*
G36*
X280899Y390250D02*
X277000D01*
Y386351D01*
X277951Y386540D01*
X279605Y387645D01*
X280710Y389299D01*
X280899Y390250D01*
D02*
G37*
G36*
X275000D02*
X271101D01*
X271290Y389299D01*
X272395Y387645D01*
X273186Y387117D01*
X272690Y385921D01*
X271750Y386108D01*
X269604Y385681D01*
X267785Y384465D01*
X266569Y382646D01*
X266142Y380500D01*
X266569Y378354D01*
X267785Y376535D01*
X269604Y375319D01*
X271750Y374892D01*
X273896Y375319D01*
X275715Y376535D01*
X276931Y378354D01*
X277358Y380500D01*
X276931Y382646D01*
X275715Y384465D01*
X274760Y385104D01*
X275000Y385684D01*
Y390250D01*
D02*
G37*
G36*
X44750Y394800D02*
X35750D01*
Y385800D01*
X44750D01*
Y394800D01*
D02*
G37*
G36*
X33750D02*
X24750D01*
Y385800D01*
X33750D01*
Y394800D01*
D02*
G37*
G36*
X499750Y396858D02*
X497604Y396431D01*
X495785Y395215D01*
X494569Y393396D01*
X494142Y391250D01*
X494569Y389104D01*
X495785Y387285D01*
X497604Y386069D01*
X499750Y385642D01*
X501896Y386069D01*
X503715Y387285D01*
X504931Y389104D01*
X505358Y391250D01*
X504931Y393396D01*
X503715Y395215D01*
X501896Y396431D01*
X499750Y396858D01*
D02*
G37*
G36*
X317250Y412858D02*
X315104Y412431D01*
X313285Y411215D01*
X312069Y409396D01*
X311642Y407250D01*
X312069Y405104D01*
X312611Y404293D01*
X313263Y403250D01*
X312611Y402207D01*
X312069Y401396D01*
X311642Y399250D01*
X312069Y397104D01*
X313285Y395285D01*
Y395215D01*
X312069Y393396D01*
X311642Y391250D01*
X312069Y389104D01*
X313285Y387285D01*
X315104Y386069D01*
X317250Y385642D01*
X319396Y386069D01*
X321215Y387285D01*
X322431Y389104D01*
X322858Y391250D01*
X322431Y393396D01*
X321215Y395215D01*
Y395285D01*
X322431Y397104D01*
X322858Y399250D01*
X322431Y401396D01*
X321889Y402207D01*
X321237Y403250D01*
X321889Y404293D01*
X322431Y405104D01*
X322858Y407250D01*
X322431Y409396D01*
X321215Y411215D01*
X319396Y412431D01*
X317250Y412858D01*
D02*
G37*
G36*
X357250Y389358D02*
X355104Y388931D01*
X353285Y387715D01*
X352069Y385896D01*
X351679Y383937D01*
X351100Y383665D01*
X350407Y383555D01*
X349465Y384965D01*
X347646Y386181D01*
X345500Y386608D01*
X343354Y386181D01*
X341535Y384965D01*
X340319Y383146D01*
X339892Y381000D01*
X340319Y378854D01*
X341535Y377035D01*
X343354Y375819D01*
X345500Y375392D01*
X347646Y375819D01*
X349465Y377035D01*
X350681Y378854D01*
X351071Y380813D01*
X351650Y381085D01*
X352343Y381194D01*
X353285Y379785D01*
X355104Y378569D01*
X357250Y378142D01*
X359396Y378569D01*
X361215Y379785D01*
X362431Y381604D01*
X362858Y383750D01*
X362431Y385896D01*
X361215Y387715D01*
X359396Y388931D01*
X357250Y389358D01*
D02*
G37*
G36*
X409500Y403258D02*
Y382250D01*
X430508D01*
X430182Y385563D01*
X428924Y389710D01*
X426881Y393532D01*
X424132Y396882D01*
X420782Y399631D01*
X416960Y401674D01*
X412813Y402932D01*
X409500Y403258D01*
D02*
G37*
G36*
X407500Y403258D02*
X404187Y402932D01*
X400040Y401674D01*
X396218Y399631D01*
X392868Y396882D01*
X390119Y393532D01*
X388076Y389710D01*
X386818Y385563D01*
X386492Y382250D01*
X407500D01*
Y403258D01*
D02*
G37*
G36*
X544500Y385899D02*
Y382000D01*
X548399D01*
X548210Y382951D01*
X547105Y384605D01*
X545451Y385710D01*
X544500Y385899D01*
D02*
G37*
G36*
X542500D02*
X541549Y385710D01*
X539895Y384605D01*
X538790Y382951D01*
X538601Y382000D01*
X542500D01*
Y385899D01*
D02*
G37*
G36*
X381399Y385000D02*
X377500D01*
Y381101D01*
X378451Y381290D01*
X380105Y382395D01*
X381210Y384049D01*
X381399Y385000D01*
D02*
G37*
G36*
X375500D02*
X371601D01*
X371790Y384049D01*
X372895Y382395D01*
X374549Y381290D01*
X375500Y381101D01*
Y385000D01*
D02*
G37*
G36*
X143400Y388100D02*
X134829D01*
X135028Y386589D01*
X135997Y384249D01*
X137539Y382239D01*
X139549Y380697D01*
X141889Y379728D01*
X143400Y379529D01*
Y388100D01*
D02*
G37*
G36*
X153971D02*
X145400D01*
Y379529D01*
X146911Y379728D01*
X149251Y380697D01*
X151261Y382239D01*
X152803Y384249D01*
X153772Y386589D01*
X153971Y388100D01*
D02*
G37*
G36*
X119000Y399307D02*
X116358Y398960D01*
X113896Y397940D01*
X111782Y396318D01*
X110160Y394204D01*
X109140Y391742D01*
X108793Y389100D01*
X109140Y386458D01*
X110160Y383996D01*
X111782Y381882D01*
X113896Y380260D01*
X116358Y379240D01*
X119000Y378893D01*
X121642Y379240D01*
X124104Y380260D01*
X126218Y381882D01*
X127840Y383996D01*
X128860Y386458D01*
X129207Y389100D01*
X128860Y391742D01*
X127840Y394204D01*
X126218Y396318D01*
X124104Y397940D01*
X121642Y398960D01*
X119000Y399307D01*
D02*
G37*
G36*
X471250Y388608D02*
X469104Y388181D01*
X467285Y386965D01*
X466069Y385146D01*
X465642Y383000D01*
X466069Y380854D01*
X467285Y379035D01*
X469104Y377819D01*
X471250Y377392D01*
X473396Y377819D01*
X475215Y379035D01*
X476431Y380854D01*
X476858Y383000D01*
X476431Y385146D01*
X475215Y386965D01*
X473396Y388181D01*
X471250Y388608D01*
D02*
G37*
G36*
X548399Y380000D02*
X544500D01*
Y376101D01*
X545451Y376290D01*
X547105Y377395D01*
X548210Y379049D01*
X548399Y380000D01*
D02*
G37*
G36*
X542500D02*
X538601D01*
X538790Y379049D01*
X539895Y377395D01*
X541549Y376290D01*
X542500Y376101D01*
Y380000D01*
D02*
G37*
G36*
X735900Y386013D02*
Y376050D01*
X745863D01*
X745617Y377921D01*
X744508Y380597D01*
X742745Y382895D01*
X740447Y384658D01*
X737772Y385767D01*
X735900Y386013D01*
D02*
G37*
G36*
X733900Y386013D02*
X732028Y385767D01*
X729352Y384658D01*
X727055Y382895D01*
X725292Y380597D01*
X724183Y377921D01*
X723937Y376050D01*
X733900D01*
Y386013D01*
D02*
G37*
G36*
X44750Y383800D02*
X35750D01*
Y374800D01*
X44750D01*
Y383800D01*
D02*
G37*
G36*
X33750D02*
X24750D01*
Y374800D01*
X33750D01*
Y383800D01*
D02*
G37*
G36*
X372250Y377399D02*
Y373500D01*
X376149D01*
X375960Y374451D01*
X374855Y376105D01*
X373201Y377210D01*
X372250Y377399D01*
D02*
G37*
G36*
X370250D02*
X369299Y377210D01*
X367645Y376105D01*
X366540Y374451D01*
X366351Y373500D01*
X370250D01*
Y377399D01*
D02*
G37*
G36*
X440750Y374649D02*
Y370750D01*
X444649D01*
X444460Y371701D01*
X443355Y373355D01*
X441701Y374460D01*
X440750Y374649D01*
D02*
G37*
G36*
X438750D02*
X437799Y374460D01*
X436145Y373355D01*
X435040Y371701D01*
X434851Y370750D01*
X438750D01*
Y374649D01*
D02*
G37*
G36*
X376149Y371500D02*
X372250D01*
Y367601D01*
X373201Y367790D01*
X374855Y368895D01*
X375960Y370549D01*
X376149Y371500D01*
D02*
G37*
G36*
X370250D02*
X366351D01*
X366540Y370549D01*
X367645Y368895D01*
X369299Y367790D01*
X370250Y367601D01*
Y371500D01*
D02*
G37*
G36*
X231500Y378358D02*
X229354Y377931D01*
X227535Y376715D01*
X226319Y374896D01*
X225892Y372750D01*
X226319Y370604D01*
X227535Y368785D01*
X229354Y367569D01*
X231500Y367142D01*
X233646Y367569D01*
X235465Y368785D01*
X236681Y370604D01*
X237108Y372750D01*
X236681Y374896D01*
X235465Y376715D01*
X233646Y377931D01*
X231500Y378358D01*
D02*
G37*
G36*
X499750Y376858D02*
X497604Y376431D01*
X495785Y375215D01*
X494569Y373396D01*
X494142Y371250D01*
X494569Y369104D01*
X495785Y367285D01*
X497604Y366069D01*
X499750Y365642D01*
X501896Y366069D01*
X503715Y367285D01*
X504931Y369104D01*
X505358Y371250D01*
X504931Y373396D01*
X503715Y375215D01*
X501896Y376431D01*
X499750Y376858D01*
D02*
G37*
G36*
X317250D02*
X315104Y376431D01*
X313285Y375215D01*
X312069Y373396D01*
X311642Y371250D01*
X312069Y369104D01*
X313285Y367285D01*
X315104Y366069D01*
X317250Y365642D01*
X319396Y366069D01*
X321215Y367285D01*
X322431Y369104D01*
X322858Y371250D01*
X322431Y373396D01*
X321215Y375215D01*
X319396Y376431D01*
X317250Y376858D01*
D02*
G37*
G36*
X66500D02*
X64354Y376431D01*
X62535Y375215D01*
X61319Y373396D01*
X60892Y371250D01*
X61319Y369104D01*
X62535Y367285D01*
X64354Y366069D01*
X66500Y365642D01*
X68646Y366069D01*
X70465Y367285D01*
X71681Y369104D01*
X72108Y371250D01*
X71681Y373396D01*
X70465Y375215D01*
X68646Y376431D01*
X66500Y376858D01*
D02*
G37*
G36*
X253000Y376358D02*
X250854Y375931D01*
X249035Y374715D01*
X247819Y372896D01*
X247392Y370750D01*
X247819Y368604D01*
X249035Y366785D01*
X250854Y365569D01*
X253000Y365142D01*
X255146Y365569D01*
X256965Y366785D01*
X258181Y368604D01*
X258608Y370750D01*
X258181Y372896D01*
X256965Y374715D01*
X255146Y375931D01*
X253000Y376358D01*
D02*
G37*
G36*
X444649Y368750D02*
X440750D01*
Y364851D01*
X441701Y365040D01*
X443355Y366145D01*
X444460Y367799D01*
X444649Y368750D01*
D02*
G37*
G36*
X438750D02*
X434851D01*
X435040Y367799D01*
X436145Y366145D01*
X437799Y365040D01*
X438750Y364851D01*
Y368750D01*
D02*
G37*
G36*
X745863Y374050D02*
X735900D01*
Y364087D01*
X737772Y364333D01*
X740447Y365442D01*
X742745Y367205D01*
X744508Y369502D01*
X745617Y372178D01*
X745863Y374050D01*
D02*
G37*
G36*
X733900D02*
X723937D01*
X724183Y372178D01*
X725292Y369502D01*
X727055Y367205D01*
X729352Y365442D01*
X732028Y364333D01*
X733900Y364087D01*
Y374050D01*
D02*
G37*
G36*
X709500Y386649D02*
X706498Y386254D01*
X703700Y385095D01*
X701298Y383252D01*
X699455Y380850D01*
X698296Y378052D01*
X697901Y375050D01*
X698296Y372048D01*
X699455Y369250D01*
X701298Y366848D01*
X703700Y365005D01*
X706498Y363846D01*
X709500Y363451D01*
X712502Y363846D01*
X715300Y365005D01*
X717702Y366848D01*
X719545Y369250D01*
X720704Y372048D01*
X721099Y375050D01*
X720704Y378052D01*
X719545Y380850D01*
X717702Y383252D01*
X715300Y385095D01*
X712502Y386254D01*
X709500Y386649D01*
D02*
G37*
G36*
X379500Y363649D02*
Y359750D01*
X383399D01*
X383210Y360701D01*
X382105Y362355D01*
X380451Y363460D01*
X379500Y363649D01*
D02*
G37*
G36*
X377500D02*
X376549Y363460D01*
X374895Y362355D01*
X373790Y360701D01*
X373601Y359750D01*
X377500D01*
Y363649D01*
D02*
G37*
G36*
X407500Y380250D02*
X386492D01*
X386818Y376937D01*
X388076Y372790D01*
X390119Y368968D01*
X392868Y365618D01*
X396218Y362869D01*
X400040Y360826D01*
X404187Y359568D01*
X407500Y359242D01*
Y380250D01*
D02*
G37*
G36*
X430508D02*
X409500D01*
Y359242D01*
X412813Y359568D01*
X416960Y360826D01*
X420782Y362869D01*
X424132Y365618D01*
X426881Y368968D01*
X428924Y372790D01*
X430182Y376937D01*
X430508Y380250D01*
D02*
G37*
G36*
X383399Y357750D02*
X379500D01*
Y353851D01*
X380451Y354040D01*
X382105Y355145D01*
X383210Y356799D01*
X383399Y357750D01*
D02*
G37*
G36*
X377500D02*
X373601D01*
X373790Y356799D01*
X374895Y355145D01*
X376549Y354040D01*
X377500Y353851D01*
Y357750D01*
D02*
G37*
G36*
X144400Y373907D02*
X141758Y373559D01*
X139296Y372540D01*
X137182Y370918D01*
X135560Y368804D01*
X134540Y366342D01*
X134193Y363700D01*
X134540Y361058D01*
X135560Y358596D01*
X137182Y356482D01*
X139296Y354860D01*
X141758Y353840D01*
X144400Y353493D01*
X147042Y353840D01*
X149504Y354860D01*
X151618Y356482D01*
X153240Y358596D01*
X154260Y361058D01*
X154607Y363700D01*
X154260Y366342D01*
X153240Y368804D01*
X151618Y370918D01*
X149504Y372540D01*
X147042Y373559D01*
X144400Y373907D01*
D02*
G37*
G36*
X119000D02*
X116358Y373559D01*
X113896Y372540D01*
X111782Y370918D01*
X110160Y368804D01*
X109140Y366342D01*
X108793Y363700D01*
X109140Y361058D01*
X110160Y358596D01*
X111782Y356482D01*
X113896Y354860D01*
X116358Y353840D01*
X119000Y353493D01*
X121642Y353840D01*
X124104Y354860D01*
X126218Y356482D01*
X127840Y358596D01*
X128860Y361058D01*
X129207Y363700D01*
X128860Y366342D01*
X127840Y368804D01*
X126218Y370918D01*
X124104Y372540D01*
X121642Y373559D01*
X119000Y373907D01*
D02*
G37*
G36*
X431000Y356149D02*
Y352250D01*
X434899D01*
X434710Y353201D01*
X433605Y354855D01*
X431951Y355960D01*
X431000Y356149D01*
D02*
G37*
G36*
X429000D02*
X428049Y355960D01*
X426395Y354855D01*
X425290Y353201D01*
X425101Y352250D01*
X429000D01*
Y356149D01*
D02*
G37*
G36*
X307750Y362858D02*
X305604Y362431D01*
X303785Y361215D01*
X302569Y359396D01*
X302142Y357250D01*
X302569Y355104D01*
X303785Y353285D01*
X305604Y352069D01*
X307750Y351642D01*
X309896Y352069D01*
X311715Y353285D01*
X312931Y355104D01*
X313358Y357250D01*
X312931Y359396D01*
X311715Y361215D01*
X309896Y362431D01*
X307750Y362858D01*
D02*
G37*
G36*
X735900Y360613D02*
Y350650D01*
X745863D01*
X745617Y352522D01*
X744508Y355197D01*
X742745Y357495D01*
X740447Y359258D01*
X737772Y360367D01*
X735900Y360613D01*
D02*
G37*
G36*
X733900Y360613D02*
X732028Y360367D01*
X729352Y359258D01*
X727055Y357495D01*
X725292Y355197D01*
X724183Y352522D01*
X723937Y350650D01*
X733900D01*
Y360613D01*
D02*
G37*
G36*
X660250Y354149D02*
Y350250D01*
X664149D01*
X663960Y351201D01*
X662855Y352855D01*
X661201Y353960D01*
X660250Y354149D01*
D02*
G37*
G36*
X658250D02*
X657299Y353960D01*
X655645Y352855D01*
X654540Y351201D01*
X654351Y350250D01*
X658250D01*
Y354149D01*
D02*
G37*
G36*
X34750Y369991D02*
X32009Y369630D01*
X29455Y368572D01*
X27261Y366889D01*
X25578Y364695D01*
X24520Y362141D01*
X24159Y359400D01*
X24520Y356659D01*
X25578Y354105D01*
X27261Y351911D01*
X29455Y350228D01*
X32009Y349170D01*
X34750Y348809D01*
X37491Y349170D01*
X40045Y350228D01*
X42239Y351911D01*
X43922Y354105D01*
X44980Y356659D01*
X45340Y359400D01*
X44980Y362141D01*
X43922Y364695D01*
X42239Y366889D01*
X40045Y368572D01*
X37491Y369630D01*
X34750Y369991D01*
D02*
G37*
G36*
X471250Y356858D02*
X469104Y356431D01*
X467285Y355215D01*
X466069Y353396D01*
X465642Y351250D01*
X466069Y349104D01*
X467285Y347285D01*
X469104Y346069D01*
X471250Y345642D01*
X473396Y346069D01*
X475215Y347285D01*
X476431Y349104D01*
X476858Y351250D01*
X476431Y353396D01*
X475215Y355215D01*
X473396Y356431D01*
X471250Y356858D01*
D02*
G37*
G36*
X345250D02*
X343104Y356431D01*
X341285Y355215D01*
X340069Y353396D01*
X339642Y351250D01*
X340069Y349104D01*
X341285Y347285D01*
X343104Y346069D01*
X345250Y345642D01*
X347396Y346069D01*
X349215Y347285D01*
X350431Y349104D01*
X350858Y351250D01*
X350431Y353396D01*
X349215Y355215D01*
X347396Y356431D01*
X345250Y356858D01*
D02*
G37*
G36*
X664149Y348250D02*
X660250D01*
Y344351D01*
X661201Y344540D01*
X662855Y345645D01*
X663960Y347299D01*
X664149Y348250D01*
D02*
G37*
G36*
X658250D02*
X654351D01*
X654540Y347299D01*
X655645Y345645D01*
X657299Y344540D01*
X658250Y344351D01*
Y348250D01*
D02*
G37*
G36*
X615000Y352358D02*
X612854Y351931D01*
X611035Y350715D01*
X609819Y348896D01*
X609392Y346750D01*
X609819Y344604D01*
X611035Y342785D01*
X612854Y341569D01*
X615000Y341142D01*
X617146Y341569D01*
X618965Y342785D01*
X620181Y344604D01*
X620608Y346750D01*
X620181Y348896D01*
X618965Y350715D01*
X617146Y351931D01*
X615000Y352358D01*
D02*
G37*
G36*
X145400Y347871D02*
Y339300D01*
X153971D01*
X153772Y340811D01*
X152803Y343152D01*
X151261Y345161D01*
X149251Y346703D01*
X146911Y347672D01*
X145400Y347871D01*
D02*
G37*
G36*
X143400Y347871D02*
X141889Y347672D01*
X139549Y346703D01*
X137539Y345161D01*
X135997Y343152D01*
X135028Y340811D01*
X134829Y339300D01*
X143400D01*
Y347871D01*
D02*
G37*
G36*
X745863Y348650D02*
X735900D01*
Y338687D01*
X737772Y338933D01*
X740447Y340042D01*
X742745Y341805D01*
X744508Y344103D01*
X745617Y346778D01*
X745863Y348650D01*
D02*
G37*
G36*
X733900D02*
X723937D01*
X724183Y346778D01*
X725292Y344103D01*
X727055Y341805D01*
X729352Y340042D01*
X732028Y338933D01*
X733900Y338687D01*
Y348650D01*
D02*
G37*
G36*
X709500Y361249D02*
X706498Y360854D01*
X703700Y359695D01*
X701298Y357852D01*
X699455Y355450D01*
X698296Y352652D01*
X697901Y349650D01*
X698296Y346648D01*
X699455Y343850D01*
X701298Y341448D01*
X703700Y339605D01*
X706498Y338446D01*
X709500Y338051D01*
X712502Y338446D01*
X715300Y339605D01*
X717702Y341448D01*
X719545Y343850D01*
X720704Y346648D01*
X721099Y349650D01*
X720704Y352652D01*
X719545Y355450D01*
X717702Y357852D01*
X715300Y359695D01*
X712502Y360854D01*
X709500Y361249D01*
D02*
G37*
G36*
X434899Y350250D02*
X425101D01*
X425290Y349299D01*
X426395Y347645D01*
X426927Y347290D01*
X426659Y345942D01*
X426604Y345931D01*
X424785Y344715D01*
X423569Y342896D01*
X423142Y340750D01*
X423569Y338604D01*
X424785Y336785D01*
X426604Y335569D01*
X428750Y335142D01*
X430896Y335569D01*
X432715Y336785D01*
X433931Y338604D01*
X434358Y340750D01*
X433931Y342896D01*
X432715Y344715D01*
X431929Y345241D01*
X431940Y345877D01*
X432110Y346647D01*
X433605Y347645D01*
X434710Y349299D01*
X434899Y350250D01*
D02*
G37*
G36*
X470250Y335899D02*
Y332000D01*
X474149D01*
X473960Y332951D01*
X472855Y334605D01*
X471201Y335710D01*
X470250Y335899D01*
D02*
G37*
G36*
X468250D02*
X467299Y335710D01*
X465645Y334605D01*
X464540Y332951D01*
X464351Y332000D01*
X468250D01*
Y335899D01*
D02*
G37*
G36*
X784000Y342858D02*
X781854Y342431D01*
X780035Y341215D01*
X778819Y339396D01*
X778392Y337250D01*
X778819Y335104D01*
X780035Y333285D01*
X781854Y332069D01*
X784000Y331642D01*
X786146Y332069D01*
X787965Y333285D01*
X789181Y335104D01*
X789608Y337250D01*
X789181Y339396D01*
X787965Y341215D01*
X786146Y342431D01*
X784000Y342858D01*
D02*
G37*
G36*
X143400Y337300D02*
X134829D01*
X135028Y335789D01*
X135997Y333448D01*
X137539Y331439D01*
X139549Y329897D01*
X141889Y328928D01*
X143400Y328729D01*
Y337300D01*
D02*
G37*
G36*
X153971D02*
X145400D01*
Y328729D01*
X146911Y328928D01*
X149251Y329897D01*
X151261Y331439D01*
X152803Y333448D01*
X153772Y335789D01*
X153971Y337300D01*
D02*
G37*
G36*
X119000Y348507D02*
X116358Y348159D01*
X113896Y347140D01*
X111782Y345518D01*
X110160Y343404D01*
X109140Y340942D01*
X108793Y338300D01*
X109140Y335658D01*
X110160Y333196D01*
X111782Y331082D01*
X113896Y329460D01*
X116358Y328441D01*
X119000Y328093D01*
X121642Y328441D01*
X124104Y329460D01*
X126218Y331082D01*
X127840Y333196D01*
X128860Y335658D01*
X129207Y338300D01*
X128860Y340942D01*
X127840Y343404D01*
X126218Y345518D01*
X124104Y347140D01*
X121642Y348159D01*
X119000Y348507D01*
D02*
G37*
G36*
X474149Y330000D02*
X470250D01*
Y326101D01*
X471201Y326290D01*
X472855Y327395D01*
X473960Y329049D01*
X474149Y330000D01*
D02*
G37*
G36*
X468250D02*
X464351D01*
X464540Y329049D01*
X465645Y327395D01*
X467299Y326290D01*
X468250Y326101D01*
Y330000D01*
D02*
G37*
G36*
X317250Y336858D02*
X315104Y336431D01*
X313285Y335215D01*
X312069Y333396D01*
X311642Y331250D01*
X312069Y329104D01*
X313285Y327285D01*
X315104Y326069D01*
X317250Y325642D01*
X319396Y326069D01*
X321215Y327285D01*
X322431Y329104D01*
X322858Y331250D01*
X322431Y333396D01*
X321215Y335215D01*
X319396Y336431D01*
X317250Y336858D01*
D02*
G37*
G36*
X735900Y335213D02*
Y325250D01*
X745863D01*
X745617Y327122D01*
X744508Y329797D01*
X742745Y332095D01*
X740447Y333858D01*
X737772Y334967D01*
X735900Y335213D01*
D02*
G37*
G36*
X733900Y335213D02*
X732028Y334967D01*
X729352Y333858D01*
X727055Y332095D01*
X725292Y329797D01*
X724183Y327122D01*
X723937Y325250D01*
X733900D01*
Y335213D01*
D02*
G37*
G36*
X399160Y325608D02*
X397014Y325181D01*
X395410Y324109D01*
X393806Y325181D01*
X391660Y325608D01*
X389514Y325181D01*
X387695Y323965D01*
X386479Y322146D01*
X386052Y320000D01*
X386479Y317854D01*
X387695Y316035D01*
X389514Y314819D01*
X391660Y314392D01*
X393806Y314819D01*
X395410Y315891D01*
X397014Y314819D01*
X399160Y314392D01*
X401306Y314819D01*
X403125Y316035D01*
X403790Y317030D01*
X405139Y316762D01*
X405319Y315854D01*
X406535Y314035D01*
X408354Y312819D01*
X410500Y312392D01*
X412646Y312819D01*
X414465Y314035D01*
X415681Y315854D01*
X416108Y318000D01*
X415681Y320146D01*
X414465Y321965D01*
X412646Y323181D01*
X410500Y323608D01*
X408354Y323181D01*
X406535Y321965D01*
X405870Y320970D01*
X404521Y321238D01*
X404341Y322146D01*
X403125Y323965D01*
X401306Y325181D01*
X399160Y325608D01*
D02*
G37*
G36*
X34750Y344590D02*
X32009Y344230D01*
X29455Y343172D01*
X27261Y341489D01*
X25578Y339295D01*
X24520Y336741D01*
X24159Y334000D01*
X24520Y331259D01*
X25578Y328705D01*
X27261Y326511D01*
X29455Y324828D01*
X32009Y323770D01*
X34750Y323409D01*
X37491Y323770D01*
X40045Y324828D01*
X42239Y326511D01*
X43922Y328705D01*
X44980Y331259D01*
X45340Y334000D01*
X44980Y336741D01*
X43922Y339295D01*
X42239Y341489D01*
X40045Y343172D01*
X37491Y344230D01*
X34750Y344590D01*
D02*
G37*
G36*
X348250Y332858D02*
X346104Y332431D01*
X344285Y331215D01*
X343069Y329396D01*
X342642Y327250D01*
X343069Y325104D01*
X344285Y323285D01*
X346104Y322069D01*
X348250Y321642D01*
X350396Y322069D01*
X352215Y323285D01*
X353431Y325104D01*
X353858Y327250D01*
X353431Y329396D01*
X352215Y331215D01*
X350396Y332431D01*
X348250Y332858D01*
D02*
G37*
G36*
X500500Y332608D02*
X498354Y332181D01*
X496535Y330965D01*
X495319Y329146D01*
X494892Y327000D01*
X495319Y324854D01*
X496535Y323035D01*
X498354Y321819D01*
X500500Y321392D01*
X502646Y321819D01*
X504465Y323035D01*
X505681Y324854D01*
X506108Y327000D01*
X505681Y329146D01*
X504465Y330965D01*
X502646Y332181D01*
X500500Y332608D01*
D02*
G37*
G36*
X424500Y328608D02*
X422354Y328181D01*
X420535Y326965D01*
X419319Y325146D01*
X418892Y323000D01*
X419319Y320854D01*
X420535Y319035D01*
X422354Y317819D01*
X424500Y317392D01*
X426646Y317819D01*
X428465Y319035D01*
X429681Y320854D01*
X430108Y323000D01*
X429681Y325146D01*
X428465Y326965D01*
X426646Y328181D01*
X424500Y328608D01*
D02*
G37*
G36*
X602750Y320899D02*
Y317000D01*
X606649D01*
X606460Y317951D01*
X605355Y319605D01*
X603701Y320710D01*
X602750Y320899D01*
D02*
G37*
G36*
X600750D02*
X599799Y320710D01*
X598145Y319605D01*
X597040Y317951D01*
X596851Y317000D01*
X600750D01*
Y320899D01*
D02*
G37*
G36*
X544500Y320399D02*
Y316500D01*
X548399D01*
X548210Y317451D01*
X547105Y319105D01*
X545451Y320210D01*
X544500Y320399D01*
D02*
G37*
G36*
X542500D02*
X541549Y320210D01*
X539895Y319105D01*
X538790Y317451D01*
X538601Y316500D01*
X542500D01*
Y320399D01*
D02*
G37*
G36*
X250000Y332073D02*
X247781Y331781D01*
X245713Y330925D01*
X243938Y329562D01*
X242575Y327787D01*
X241719Y325719D01*
X241427Y323500D01*
X241719Y321281D01*
X242575Y319213D01*
X243938Y317438D01*
X245713Y316075D01*
X247781Y315219D01*
X250000Y314927D01*
X252219Y315219D01*
X254287Y316075D01*
X256062Y317438D01*
X257425Y319213D01*
X258281Y321281D01*
X258573Y323500D01*
X258281Y325719D01*
X257425Y327787D01*
X256062Y329562D01*
X254287Y330925D01*
X252219Y331781D01*
X250000Y332073D01*
D02*
G37*
G36*
X745863Y323250D02*
X735900D01*
Y313287D01*
X737772Y313533D01*
X740447Y314641D01*
X742745Y316405D01*
X744508Y318703D01*
X745617Y321378D01*
X745863Y323250D01*
D02*
G37*
G36*
X733900D02*
X723937D01*
X724183Y321378D01*
X725292Y318703D01*
X727055Y316405D01*
X729352Y314641D01*
X732028Y313533D01*
X733900Y313287D01*
Y323250D01*
D02*
G37*
G36*
X709500Y335849D02*
X706498Y335454D01*
X703700Y334295D01*
X701298Y332452D01*
X699455Y330050D01*
X698296Y327252D01*
X697901Y324250D01*
X698296Y321248D01*
X699455Y318450D01*
X701298Y316048D01*
X703700Y314205D01*
X706498Y313046D01*
X709500Y312651D01*
X712502Y313046D01*
X715300Y314205D01*
X717702Y316048D01*
X719545Y318450D01*
X720704Y321248D01*
X721099Y324250D01*
X720704Y327252D01*
X719545Y330050D01*
X717702Y332452D01*
X715300Y334295D01*
X712502Y335454D01*
X709500Y335849D01*
D02*
G37*
G36*
X454500Y323608D02*
X452354Y323181D01*
X450535Y321965D01*
X449319Y320146D01*
X448892Y318000D01*
X449319Y315854D01*
X450535Y314035D01*
X452354Y312819D01*
X454500Y312392D01*
X456646Y312819D01*
X458465Y314035D01*
X459681Y315854D01*
X460108Y318000D01*
X459681Y320146D01*
X458465Y321965D01*
X456646Y323181D01*
X454500Y323608D01*
D02*
G37*
G36*
X438500D02*
X436354Y323181D01*
X434535Y321965D01*
X433319Y320146D01*
X432892Y318000D01*
X433319Y315854D01*
X434535Y314035D01*
X436354Y312819D01*
X438500Y312392D01*
X440646Y312819D01*
X442465Y314035D01*
X443681Y315854D01*
X444108Y318000D01*
X443681Y320146D01*
X442465Y321965D01*
X440646Y323181D01*
X438500Y323608D01*
D02*
G37*
G36*
X378500D02*
X376354Y323181D01*
X374535Y321965D01*
X373319Y320146D01*
X372892Y318000D01*
X373319Y315854D01*
X374535Y314035D01*
X376354Y312819D01*
X378500Y312392D01*
X380646Y312819D01*
X382465Y314035D01*
X383681Y315854D01*
X384108Y318000D01*
X383681Y320146D01*
X382465Y321965D01*
X380646Y323181D01*
X378500Y323608D01*
D02*
G37*
G36*
X358500D02*
X356354Y323181D01*
X354535Y321965D01*
X353319Y320146D01*
X352892Y318000D01*
X353319Y315854D01*
X354535Y314035D01*
X356354Y312819D01*
X358500Y312392D01*
X360646Y312819D01*
X362465Y314035D01*
X363681Y315854D01*
X364108Y318000D01*
X363681Y320146D01*
X362465Y321965D01*
X360646Y323181D01*
X358500Y323608D01*
D02*
G37*
G36*
X606649Y315000D02*
X602750D01*
Y311101D01*
X603701Y311290D01*
X605355Y312395D01*
X606460Y314049D01*
X606649Y315000D01*
D02*
G37*
G36*
X600750D02*
X596851D01*
X597040Y314049D01*
X598145Y312395D01*
X599799Y311290D01*
X600750Y311101D01*
Y315000D01*
D02*
G37*
G36*
X548399Y314500D02*
X544500D01*
Y310601D01*
X545451Y310790D01*
X547105Y311895D01*
X548210Y313549D01*
X548399Y314500D01*
D02*
G37*
G36*
X542500D02*
X538601D01*
X538790Y313549D01*
X539895Y311895D01*
X541549Y310790D01*
X542500Y310601D01*
Y314500D01*
D02*
G37*
G36*
X317500Y320108D02*
X315354Y319681D01*
X313535Y318465D01*
X312319Y316646D01*
X311892Y314500D01*
X312319Y312354D01*
X313535Y310535D01*
X315354Y309319D01*
X317500Y308892D01*
X319646Y309319D01*
X321465Y310535D01*
X322681Y312354D01*
X323108Y314500D01*
X322681Y316646D01*
X321465Y318465D01*
X319646Y319681D01*
X317500Y320108D01*
D02*
G37*
G36*
X505000Y318608D02*
X502854Y318181D01*
X501035Y316965D01*
X499819Y315146D01*
X499392Y313000D01*
X499819Y310854D01*
X501035Y309035D01*
X502854Y307819D01*
X505000Y307392D01*
X507146Y307819D01*
X508965Y309035D01*
X510181Y310854D01*
X510608Y313000D01*
X510181Y315146D01*
X508965Y316965D01*
X507146Y318181D01*
X505000Y318608D01*
D02*
G37*
G36*
X144400Y323107D02*
X141758Y322760D01*
X139296Y321740D01*
X137182Y320118D01*
X135560Y318004D01*
X134540Y315542D01*
X134193Y312900D01*
X134540Y310258D01*
X135560Y307796D01*
X137182Y305682D01*
X139296Y304060D01*
X141758Y303041D01*
X144400Y302693D01*
X147042Y303041D01*
X149504Y304060D01*
X151618Y305682D01*
X153240Y307796D01*
X154260Y310258D01*
X154607Y312900D01*
X154260Y315542D01*
X153240Y318004D01*
X151618Y320118D01*
X149504Y321740D01*
X147042Y322760D01*
X144400Y323107D01*
D02*
G37*
G36*
X119000D02*
X116358Y322760D01*
X113896Y321740D01*
X111782Y320118D01*
X110160Y318004D01*
X109140Y315542D01*
X108793Y312900D01*
X109140Y310258D01*
X110160Y307796D01*
X111782Y305682D01*
X113896Y304060D01*
X116358Y303041D01*
X119000Y302693D01*
X121642Y303041D01*
X124104Y304060D01*
X126218Y305682D01*
X127840Y307796D01*
X128860Y310258D01*
X129207Y312900D01*
X128860Y315542D01*
X127840Y318004D01*
X126218Y320118D01*
X124104Y321740D01*
X121642Y322760D01*
X119000Y323107D01*
D02*
G37*
G36*
X273750Y305649D02*
Y301750D01*
X277649D01*
X277460Y302701D01*
X276355Y304355D01*
X274701Y305460D01*
X273750Y305649D01*
D02*
G37*
G36*
X271750D02*
X270799Y305460D01*
X269145Y304355D01*
X268040Y302701D01*
X267851Y301750D01*
X271750D01*
Y305649D01*
D02*
G37*
G36*
X96250Y311608D02*
X94104Y311181D01*
X92285Y309965D01*
X91069Y308146D01*
X90642Y306000D01*
X91069Y303854D01*
X92285Y302035D01*
X94104Y300819D01*
X96250Y300392D01*
X98396Y300819D01*
X100215Y302035D01*
X101431Y303854D01*
X101858Y306000D01*
X101431Y308146D01*
X100215Y309965D01*
X98396Y311181D01*
X96250Y311608D01*
D02*
G37*
G36*
X66750Y317323D02*
X64531Y317031D01*
X62463Y316175D01*
X60688Y314812D01*
X59325Y313037D01*
X58469Y310969D01*
X58177Y308750D01*
X58469Y306531D01*
X59325Y304463D01*
X60688Y302688D01*
X62463Y301325D01*
X64531Y300469D01*
X66750Y300177D01*
X68969Y300469D01*
X71037Y301325D01*
X72812Y302688D01*
X74175Y304463D01*
X75031Y306531D01*
X75323Y308750D01*
X75031Y310969D01*
X74175Y313037D01*
X72812Y314812D01*
X71037Y316175D01*
X68969Y317031D01*
X66750Y317323D01*
D02*
G37*
G36*
X735900Y309813D02*
Y299850D01*
X745863D01*
X745617Y301721D01*
X744508Y304397D01*
X742745Y306695D01*
X740447Y308458D01*
X737772Y309567D01*
X735900Y309813D01*
D02*
G37*
G36*
X733900Y309813D02*
X732028Y309567D01*
X729352Y308458D01*
X727055Y306695D01*
X725292Y304397D01*
X724183Y301721D01*
X723937Y299850D01*
X733900D01*
Y309813D01*
D02*
G37*
G36*
X34750Y319191D02*
X32009Y318830D01*
X29455Y317772D01*
X27261Y316089D01*
X25578Y313895D01*
X24520Y311341D01*
X24159Y308600D01*
X24520Y305859D01*
X25578Y303305D01*
X27261Y301111D01*
X29455Y299428D01*
X32009Y298370D01*
X34750Y298009D01*
X37491Y298370D01*
X40045Y299428D01*
X42239Y301111D01*
X43922Y303305D01*
X44980Y305859D01*
X45340Y308600D01*
X44980Y311341D01*
X43922Y313895D01*
X42239Y316089D01*
X40045Y317772D01*
X37491Y318830D01*
X34750Y319191D01*
D02*
G37*
G36*
X277649Y299750D02*
X273750D01*
Y295851D01*
X274701Y296040D01*
X276355Y297145D01*
X277460Y298799D01*
X277649Y299750D01*
D02*
G37*
G36*
X271750D02*
X267851D01*
X268040Y298799D01*
X269145Y297145D01*
X270799Y296040D01*
X271750Y295851D01*
Y299750D01*
D02*
G37*
G36*
X132000Y305608D02*
X129854Y305181D01*
X128035Y303965D01*
X126819Y302146D01*
X126392Y300000D01*
X126819Y297854D01*
X128035Y296035D01*
X129854Y294819D01*
X132000Y294392D01*
X134146Y294819D01*
X135965Y296035D01*
X137181Y297854D01*
X137608Y300000D01*
X137181Y302146D01*
X135965Y303965D01*
X134146Y305181D01*
X132000Y305608D01*
D02*
G37*
G36*
X145400Y297071D02*
Y288500D01*
X153971D01*
X153772Y290011D01*
X152803Y292351D01*
X151261Y294361D01*
X149251Y295903D01*
X146911Y296872D01*
X145400Y297071D01*
D02*
G37*
G36*
X143400Y297071D02*
X141889Y296872D01*
X139549Y295903D01*
X137539Y294361D01*
X135997Y292351D01*
X135028Y290011D01*
X134829Y288500D01*
X143400D01*
Y297071D01*
D02*
G37*
G36*
X745863Y297850D02*
X735900D01*
Y287887D01*
X737772Y288133D01*
X740447Y289242D01*
X742745Y291005D01*
X744508Y293302D01*
X745617Y295978D01*
X745863Y297850D01*
D02*
G37*
G36*
X733900D02*
X723937D01*
X724183Y295978D01*
X725292Y293302D01*
X727055Y291005D01*
X729352Y289242D01*
X732028Y288133D01*
X733900Y287887D01*
Y297850D01*
D02*
G37*
G36*
X709500Y310449D02*
X706498Y310054D01*
X703700Y308895D01*
X701298Y307052D01*
X699455Y304650D01*
X698296Y301852D01*
X697901Y298850D01*
X698296Y295848D01*
X699455Y293050D01*
X701298Y290648D01*
X703700Y288805D01*
X706498Y287646D01*
X709500Y287251D01*
X712502Y287646D01*
X715300Y288805D01*
X717702Y290648D01*
X719545Y293050D01*
X720704Y295848D01*
X721099Y298850D01*
X720704Y301852D01*
X719545Y304650D01*
X717702Y307052D01*
X715300Y308895D01*
X712502Y310054D01*
X709500Y310449D01*
D02*
G37*
G36*
X238750Y296108D02*
X236604Y295681D01*
X234785Y294465D01*
X233569Y292646D01*
X233142Y290500D01*
X233569Y288354D01*
X234785Y286535D01*
X236604Y285319D01*
X238750Y284892D01*
X240896Y285319D01*
X242715Y286535D01*
X243931Y288354D01*
X244358Y290500D01*
X243931Y292646D01*
X242715Y294465D01*
X240896Y295681D01*
X238750Y296108D01*
D02*
G37*
G36*
X422500Y295608D02*
X420354Y295181D01*
X418535Y293965D01*
X417319Y292146D01*
X416892Y290000D01*
X417319Y287854D01*
X418535Y286035D01*
X420354Y284819D01*
X422500Y284392D01*
X424646Y284819D01*
X426465Y286035D01*
X427681Y287854D01*
X428108Y290000D01*
X427681Y292146D01*
X426465Y293965D01*
X424646Y295181D01*
X422500Y295608D01*
D02*
G37*
G36*
X383000D02*
X380854Y295181D01*
X379035Y293965D01*
X377819Y292146D01*
X377392Y290000D01*
X377819Y287854D01*
X379035Y286035D01*
X380854Y284819D01*
X383000Y284392D01*
X385146Y284819D01*
X386965Y286035D01*
X388181Y287854D01*
X388608Y290000D01*
X388181Y292146D01*
X386965Y293965D01*
X385146Y295181D01*
X383000Y295608D01*
D02*
G37*
G36*
X143400Y286500D02*
X134829D01*
X135028Y284989D01*
X135997Y282649D01*
X137539Y280639D01*
X139549Y279097D01*
X141889Y278128D01*
X143400Y277929D01*
Y286500D01*
D02*
G37*
G36*
X153971D02*
X145400D01*
Y277929D01*
X146911Y278128D01*
X149251Y279097D01*
X151261Y280639D01*
X152803Y282649D01*
X153772Y284989D01*
X153971Y286500D01*
D02*
G37*
G36*
X119000Y297707D02*
X116358Y297360D01*
X113896Y296340D01*
X111782Y294718D01*
X110160Y292604D01*
X109140Y290142D01*
X108793Y287500D01*
X109140Y284858D01*
X110160Y282396D01*
X111782Y280282D01*
X113896Y278660D01*
X116358Y277640D01*
X119000Y277293D01*
X121642Y277640D01*
X124104Y278660D01*
X126218Y280282D01*
X127840Y282396D01*
X128860Y284858D01*
X129207Y287500D01*
X128860Y290142D01*
X127840Y292604D01*
X126218Y294718D01*
X124104Y296340D01*
X121642Y297360D01*
X119000Y297707D01*
D02*
G37*
G36*
X735900Y284413D02*
Y274450D01*
X745863D01*
X745617Y276322D01*
X744508Y278997D01*
X742745Y281295D01*
X740447Y283058D01*
X737772Y284167D01*
X735900Y284413D01*
D02*
G37*
G36*
X733900Y284413D02*
X732028Y284167D01*
X729352Y283058D01*
X727055Y281295D01*
X725292Y278997D01*
X724183Y276322D01*
X723937Y274450D01*
X733900D01*
Y284413D01*
D02*
G37*
G36*
X67000Y291573D02*
X64781Y291281D01*
X62713Y290425D01*
X60938Y289062D01*
X59575Y287287D01*
X58719Y285219D01*
X58427Y283000D01*
X58719Y280781D01*
X59575Y278713D01*
X60938Y276938D01*
X62713Y275575D01*
X64781Y274719D01*
X67000Y274427D01*
X69219Y274719D01*
X71287Y275575D01*
X73062Y276938D01*
X74425Y278713D01*
X75281Y280781D01*
X75573Y283000D01*
X75281Y285219D01*
X74425Y287287D01*
X73062Y289062D01*
X71287Y290425D01*
X69219Y291281D01*
X67000Y291573D01*
D02*
G37*
G36*
X34750Y293790D02*
X32009Y293430D01*
X29455Y292372D01*
X27261Y290689D01*
X25578Y288495D01*
X24520Y285941D01*
X24159Y283200D01*
X24520Y280459D01*
X25578Y277905D01*
X27261Y275711D01*
X29455Y274028D01*
X32009Y272970D01*
X34750Y272609D01*
X37491Y272970D01*
X40045Y274028D01*
X42239Y275711D01*
X43922Y277905D01*
X44980Y280459D01*
X45340Y283200D01*
X44980Y285941D01*
X43922Y288495D01*
X42239Y290689D01*
X40045Y292372D01*
X37491Y293430D01*
X34750Y293790D01*
D02*
G37*
G36*
X563000Y275399D02*
Y271500D01*
X566899D01*
X566710Y272451D01*
X565605Y274105D01*
X563951Y275210D01*
X563000Y275399D01*
D02*
G37*
G36*
X561000D02*
X560049Y275210D01*
X558395Y274105D01*
X557290Y272451D01*
X557101Y271500D01*
X561000D01*
Y275399D01*
D02*
G37*
G36*
X566899Y269500D02*
X563000D01*
Y265601D01*
X563951Y265790D01*
X565605Y266895D01*
X566710Y268549D01*
X566899Y269500D01*
D02*
G37*
G36*
X561000D02*
X557101D01*
X557290Y268549D01*
X558395Y266895D01*
X560049Y265790D01*
X561000Y265601D01*
Y269500D01*
D02*
G37*
G36*
X293250Y275108D02*
X291104Y274681D01*
X289285Y273465D01*
X288069Y271646D01*
X287642Y269500D01*
X288069Y267354D01*
X289285Y265535D01*
X291104Y264319D01*
X293250Y263892D01*
X295396Y264319D01*
X297215Y265535D01*
X298431Y267354D01*
X298858Y269500D01*
X298431Y271646D01*
X297215Y273465D01*
X295396Y274681D01*
X293250Y275108D01*
D02*
G37*
G36*
X745863Y272450D02*
X735900D01*
Y262487D01*
X737772Y262733D01*
X740447Y263841D01*
X742745Y265605D01*
X744508Y267903D01*
X745617Y270578D01*
X745863Y272450D01*
D02*
G37*
G36*
X733900D02*
X723937D01*
X724183Y270578D01*
X725292Y267903D01*
X727055Y265605D01*
X729352Y263841D01*
X732028Y262733D01*
X733900Y262487D01*
Y272450D01*
D02*
G37*
G36*
X709500Y285049D02*
X706498Y284654D01*
X703700Y283495D01*
X701298Y281652D01*
X699455Y279250D01*
X698296Y276452D01*
X697901Y273450D01*
X698296Y270448D01*
X699455Y267650D01*
X701298Y265248D01*
X703700Y263405D01*
X706498Y262246D01*
X709500Y261851D01*
X712502Y262246D01*
X715300Y263405D01*
X717702Y265248D01*
X719545Y267650D01*
X720704Y270448D01*
X721099Y273450D01*
X720704Y276452D01*
X719545Y279250D01*
X717702Y281652D01*
X715300Y283495D01*
X712502Y284654D01*
X709500Y285049D01*
D02*
G37*
G36*
X369500Y262149D02*
Y258250D01*
X373399D01*
X373210Y259201D01*
X372105Y260855D01*
X370451Y261960D01*
X369500Y262149D01*
D02*
G37*
G36*
X367500D02*
X366549Y261960D01*
X364895Y260855D01*
X363790Y259201D01*
X363601Y258250D01*
X367500D01*
Y262149D01*
D02*
G37*
G36*
X325500Y260649D02*
Y256750D01*
X329399D01*
X329210Y257701D01*
X328105Y259355D01*
X326451Y260460D01*
X325500Y260649D01*
D02*
G37*
G36*
X323500D02*
X322549Y260460D01*
X320895Y259355D01*
X319790Y257701D01*
X319601Y256750D01*
X323500D01*
Y260649D01*
D02*
G37*
G36*
X273250Y266358D02*
X271104Y265931D01*
X269285Y264715D01*
X268069Y262896D01*
X267642Y260750D01*
X268069Y258604D01*
X269285Y256785D01*
X271104Y255569D01*
X273250Y255142D01*
X275396Y255569D01*
X277215Y256785D01*
X278431Y258604D01*
X278858Y260750D01*
X278431Y262896D01*
X277215Y264715D01*
X275396Y265931D01*
X273250Y266358D01*
D02*
G37*
G36*
X373399Y256250D02*
X369500D01*
Y252351D01*
X370451Y252540D01*
X372105Y253645D01*
X373210Y255299D01*
X373399Y256250D01*
D02*
G37*
G36*
X367500D02*
X363601D01*
X363790Y255299D01*
X364895Y253645D01*
X366549Y252540D01*
X367500Y252351D01*
Y256250D01*
D02*
G37*
G36*
X410250Y255149D02*
Y251250D01*
X414149D01*
X413960Y252201D01*
X412855Y253855D01*
X411201Y254960D01*
X410250Y255149D01*
D02*
G37*
G36*
X408250D02*
X407299Y254960D01*
X405645Y253855D01*
X404540Y252201D01*
X404351Y251250D01*
X408250D01*
Y255149D01*
D02*
G37*
G36*
X329399Y254750D02*
X325500D01*
Y250851D01*
X326451Y251040D01*
X328105Y252145D01*
X329210Y253799D01*
X329399Y254750D01*
D02*
G37*
G36*
X323500D02*
X319601D01*
X319790Y253799D01*
X320895Y252145D01*
X322549Y251040D01*
X323500Y250851D01*
Y254750D01*
D02*
G37*
G36*
X429000Y254649D02*
Y250750D01*
X432899D01*
X432710Y251701D01*
X431605Y253355D01*
X429951Y254460D01*
X429000Y254649D01*
D02*
G37*
G36*
X427000D02*
X426049Y254460D01*
X424395Y253355D01*
X423290Y251701D01*
X423101Y250750D01*
X427000D01*
Y254649D01*
D02*
G37*
G36*
X745900Y259050D02*
X735900D01*
Y249050D01*
X745900D01*
Y259050D01*
D02*
G37*
G36*
X733900D02*
X723900D01*
Y249050D01*
X733900D01*
Y259050D01*
D02*
G37*
G36*
X414149Y249250D02*
X410250D01*
Y245351D01*
X411201Y245540D01*
X412855Y246645D01*
X413960Y248299D01*
X414149Y249250D01*
D02*
G37*
G36*
X408250D02*
X404351D01*
X404540Y248299D01*
X405645Y246645D01*
X407299Y245540D01*
X408250Y245351D01*
Y249250D01*
D02*
G37*
G36*
X432899Y248750D02*
X429000D01*
Y244851D01*
X429951Y245040D01*
X431605Y246145D01*
X432710Y247799D01*
X432899Y248750D01*
D02*
G37*
G36*
X427000D02*
X423101D01*
X423290Y247799D01*
X424395Y246145D01*
X426049Y245040D01*
X427000Y244851D01*
Y248750D01*
D02*
G37*
G36*
X390250Y254608D02*
X388104Y254181D01*
X386285Y252965D01*
X385069Y251146D01*
X384642Y249000D01*
X385069Y246854D01*
X386285Y245035D01*
X388104Y243819D01*
X390250Y243392D01*
X392396Y243819D01*
X394215Y245035D01*
X395431Y246854D01*
X395858Y249000D01*
X395431Y251146D01*
X394215Y252965D01*
X392396Y254181D01*
X390250Y254608D01*
D02*
G37*
G36*
X154500Y252108D02*
X152354Y251681D01*
X150535Y250465D01*
X149319Y248646D01*
X148892Y246500D01*
X149319Y244354D01*
X150535Y242535D01*
X152354Y241319D01*
X154500Y240892D01*
X156646Y241319D01*
X158465Y242535D01*
X159681Y244354D01*
X160108Y246500D01*
X159681Y248646D01*
X158465Y250465D01*
X156646Y251681D01*
X154500Y252108D01*
D02*
G37*
G36*
X200250Y255073D02*
X198031Y254781D01*
X195963Y253925D01*
X194188Y252562D01*
X192825Y250787D01*
X191969Y248719D01*
X191677Y246500D01*
X191969Y244281D01*
X192825Y242213D01*
X194188Y240438D01*
X195963Y239075D01*
X198031Y238219D01*
X200250Y237927D01*
X202469Y238219D01*
X204537Y239075D01*
X206312Y240438D01*
X207675Y242213D01*
X208531Y244281D01*
X208823Y246500D01*
X208531Y248719D01*
X207675Y250787D01*
X206312Y252562D01*
X204537Y253925D01*
X202469Y254781D01*
X200250Y255073D01*
D02*
G37*
G36*
X745900Y247050D02*
X735900D01*
Y237050D01*
X745900D01*
Y247050D01*
D02*
G37*
G36*
X733900D02*
X723900D01*
Y237050D01*
X733900D01*
Y247050D01*
D02*
G37*
G36*
X709500Y259649D02*
X706498Y259254D01*
X703700Y258095D01*
X701298Y256252D01*
X699455Y253850D01*
X698296Y251052D01*
X697901Y248050D01*
X698296Y245048D01*
X699455Y242250D01*
X701298Y239848D01*
X703700Y238005D01*
X706498Y236846D01*
X709500Y236451D01*
X712502Y236846D01*
X715300Y238005D01*
X717702Y239848D01*
X719545Y242250D01*
X720704Y245048D01*
X721099Y248050D01*
X720704Y251052D01*
X719545Y253850D01*
X717702Y256252D01*
X715300Y258095D01*
X712502Y259254D01*
X709500Y259649D01*
D02*
G37*
G36*
X225750Y233108D02*
X223604Y232681D01*
X221785Y231465D01*
X220569Y229646D01*
X220142Y227500D01*
X220569Y225354D01*
X221785Y223535D01*
X223604Y222319D01*
X225750Y221892D01*
X227896Y222319D01*
X229715Y223535D01*
X230931Y225354D01*
X231358Y227500D01*
X230931Y229646D01*
X229715Y231465D01*
X227896Y232681D01*
X225750Y233108D01*
D02*
G37*
G36*
X213250D02*
X211104Y232681D01*
X209285Y231465D01*
X208069Y229646D01*
X207642Y227500D01*
X208069Y225354D01*
X209285Y223535D01*
X211104Y222319D01*
X213250Y221892D01*
X215396Y222319D01*
X217215Y223535D01*
X218431Y225354D01*
X218858Y227500D01*
X218431Y229646D01*
X217215Y231465D01*
X215396Y232681D01*
X213250Y233108D01*
D02*
G37*
G36*
X628500Y220649D02*
Y216750D01*
X632399D01*
X632210Y217701D01*
X631105Y219355D01*
X629451Y220460D01*
X628500Y220649D01*
D02*
G37*
G36*
X626500D02*
X625549Y220460D01*
X623895Y219355D01*
X622790Y217701D01*
X622601Y216750D01*
X626500D01*
Y220649D01*
D02*
G37*
G36*
X332500Y220649D02*
Y216750D01*
X336399D01*
X336210Y217701D01*
X335105Y219355D01*
X333451Y220460D01*
X332500Y220649D01*
D02*
G37*
G36*
X330500D02*
X329549Y220460D01*
X327895Y219355D01*
X326790Y217701D01*
X326601Y216750D01*
X330500D01*
Y220649D01*
D02*
G37*
G36*
X632399Y214750D02*
X628500D01*
Y210851D01*
X629451Y211040D01*
X631105Y212145D01*
X632210Y213799D01*
X632399Y214750D01*
D02*
G37*
G36*
X626500D02*
X622601D01*
X622790Y213799D01*
X623895Y212145D01*
X625549Y211040D01*
X626500Y210851D01*
Y214750D01*
D02*
G37*
G36*
X336399Y214750D02*
X332500D01*
Y210851D01*
X333451Y211040D01*
X335105Y212145D01*
X336210Y213799D01*
X336399Y214750D01*
D02*
G37*
G36*
X330500D02*
X326601D01*
X326790Y213799D01*
X327895Y212145D01*
X329549Y211040D01*
X330500Y210851D01*
Y214750D01*
D02*
G37*
G36*
X467750Y205899D02*
Y202000D01*
X471649D01*
X471460Y202951D01*
X470355Y204605D01*
X468701Y205710D01*
X467750Y205899D01*
D02*
G37*
G36*
X465750D02*
X464799Y205710D01*
X463145Y204605D01*
X462040Y202951D01*
X461851Y202000D01*
X465750D01*
Y205899D01*
D02*
G37*
G36*
X64300Y231380D02*
X61065Y231061D01*
X57955Y230118D01*
X55089Y228586D01*
X52576Y226524D01*
X50514Y224011D01*
X48982Y221145D01*
X48039Y218034D01*
X47720Y214800D01*
X48039Y211565D01*
X48982Y208455D01*
X50514Y205589D01*
X52576Y203076D01*
X55089Y201014D01*
X57955Y199482D01*
X61065Y198539D01*
X64300Y198220D01*
X67534Y198539D01*
X70645Y199482D01*
X73511Y201014D01*
X76024Y203076D01*
X78086Y205589D01*
X79618Y208455D01*
X80561Y211565D01*
X80880Y214800D01*
X80561Y218034D01*
X79618Y221145D01*
X78086Y224011D01*
X76024Y226524D01*
X73511Y228586D01*
X70645Y230118D01*
X67534Y231061D01*
X64300Y231380D01*
D02*
G37*
G36*
X471649Y200000D02*
X467750D01*
Y196101D01*
X468701Y196290D01*
X470355Y197395D01*
X471460Y199049D01*
X471649Y200000D01*
D02*
G37*
G36*
X465750D02*
X461851D01*
X462040Y199049D01*
X463145Y197395D01*
X464799Y196290D01*
X465750Y196101D01*
Y200000D01*
D02*
G37*
G36*
X187750Y201108D02*
X185604Y200681D01*
X183785Y199465D01*
X182569Y197646D01*
X182142Y195500D01*
X182569Y193354D01*
X183785Y191535D01*
X185604Y190319D01*
X187750Y189892D01*
X189896Y190319D01*
X191715Y191535D01*
X192931Y193354D01*
X193358Y195500D01*
X192931Y197646D01*
X191715Y199465D01*
X189896Y200681D01*
X187750Y201108D01*
D02*
G37*
G36*
X392000Y191649D02*
Y187750D01*
X395899D01*
X395710Y188701D01*
X394605Y190355D01*
X392951Y191460D01*
X392000Y191649D01*
D02*
G37*
G36*
X390000D02*
X389049Y191460D01*
X387395Y190355D01*
X386290Y188701D01*
X386101Y187750D01*
X390000D01*
Y191649D01*
D02*
G37*
G36*
X605500Y198608D02*
X603354Y198181D01*
X601535Y196965D01*
X600319Y195146D01*
X599892Y193000D01*
X600319Y190854D01*
X601535Y189035D01*
X603354Y187819D01*
X605500Y187392D01*
X607646Y187819D01*
X609465Y189035D01*
X610681Y190854D01*
X611108Y193000D01*
X610681Y195146D01*
X609465Y196965D01*
X607646Y198181D01*
X605500Y198608D01*
D02*
G37*
G36*
X220500Y187149D02*
Y183250D01*
X224399D01*
X224210Y184201D01*
X223105Y185855D01*
X221451Y186960D01*
X220500Y187149D01*
D02*
G37*
G36*
X218500D02*
X217549Y186960D01*
X215895Y185855D01*
X214790Y184201D01*
X214601Y183250D01*
X218500D01*
Y187149D01*
D02*
G37*
G36*
X395899Y185750D02*
X392000D01*
Y181851D01*
X392951Y182040D01*
X394605Y183145D01*
X395710Y184799D01*
X395899Y185750D01*
D02*
G37*
G36*
X390000D02*
X386101D01*
X386290Y184799D01*
X387395Y183145D01*
X389049Y182040D01*
X390000Y181851D01*
Y185750D01*
D02*
G37*
G36*
X495750Y185492D02*
Y178050D01*
X503192D01*
X503031Y179269D01*
X502175Y181337D01*
X500812Y183112D01*
X499037Y184475D01*
X496969Y185331D01*
X495750Y185492D01*
D02*
G37*
G36*
X493750D02*
X492531Y185331D01*
X490463Y184475D01*
X488688Y183112D01*
X487325Y181337D01*
X486469Y179269D01*
X486308Y178050D01*
X493750D01*
Y185492D01*
D02*
G37*
G36*
X224399Y181250D02*
X220500D01*
Y177351D01*
X221451Y177540D01*
X223105Y178645D01*
X224210Y180299D01*
X224399Y181250D01*
D02*
G37*
G36*
X218500D02*
X214601D01*
X214790Y180299D01*
X215895Y178645D01*
X217549Y177540D01*
X218500Y177351D01*
Y181250D01*
D02*
G37*
G36*
X148500Y180899D02*
Y177000D01*
X152399D01*
X152210Y177951D01*
X151105Y179605D01*
X149451Y180710D01*
X148500Y180899D01*
D02*
G37*
G36*
X146500D02*
X145549Y180710D01*
X143895Y179605D01*
X142790Y177951D01*
X142601Y177000D01*
X146500D01*
Y180899D01*
D02*
G37*
G36*
X152399Y175000D02*
X148500D01*
Y171101D01*
X149451Y171290D01*
X151105Y172395D01*
X152210Y174049D01*
X152399Y175000D01*
D02*
G37*
G36*
X146500D02*
X142601D01*
X142790Y174049D01*
X143895Y172395D01*
X145549Y171290D01*
X146500Y171101D01*
Y175000D01*
D02*
G37*
G36*
X503192Y176050D02*
X495750D01*
Y168608D01*
X496969Y168769D01*
X499037Y169625D01*
X500812Y170988D01*
X502175Y172763D01*
X503031Y174831D01*
X503192Y176050D01*
D02*
G37*
G36*
X493750D02*
X486308D01*
X486469Y174831D01*
X487325Y172763D01*
X488688Y170988D01*
X490463Y169625D01*
X492531Y168769D01*
X493750Y168608D01*
Y176050D01*
D02*
G37*
G36*
X275750Y179358D02*
X273604Y178931D01*
X271785Y177715D01*
X270569Y175896D01*
X270142Y173750D01*
X270569Y171604D01*
X271785Y169785D01*
X273604Y168569D01*
X275750Y168142D01*
X277896Y168569D01*
X279715Y169785D01*
X280931Y171604D01*
X281358Y173750D01*
X280931Y175896D01*
X279715Y177715D01*
X277896Y178931D01*
X275750Y179358D01*
D02*
G37*
G36*
X570950Y186128D02*
X568601Y185818D01*
X566411Y184911D01*
X564531Y183469D01*
X563089Y181589D01*
X562182Y179399D01*
X561872Y177050D01*
X562182Y174701D01*
X563089Y172511D01*
X564531Y170631D01*
X566411Y169188D01*
X568601Y168282D01*
X570950Y167972D01*
X573299Y168282D01*
X575489Y169188D01*
X577369Y170631D01*
X578811Y172511D01*
X579718Y174701D01*
X580028Y177050D01*
X579718Y179399D01*
X578811Y181589D01*
X577369Y183469D01*
X575489Y184911D01*
X573299Y185818D01*
X570950Y186128D01*
D02*
G37*
G36*
X495750Y160092D02*
Y152650D01*
X503192D01*
X503031Y153869D01*
X502175Y155937D01*
X500812Y157712D01*
X499037Y159075D01*
X496969Y159931D01*
X495750Y160092D01*
D02*
G37*
G36*
X493750D02*
X492531Y159931D01*
X490463Y159075D01*
X488688Y157712D01*
X487325Y155937D01*
X486469Y153869D01*
X486308Y152650D01*
X493750D01*
Y160092D01*
D02*
G37*
G36*
X647500Y156108D02*
X645354Y155681D01*
X643535Y154465D01*
X642319Y152646D01*
X641892Y150500D01*
X642319Y148354D01*
X643535Y146535D01*
X645354Y145319D01*
X647500Y144892D01*
X649646Y145319D01*
X651465Y146535D01*
X652681Y148354D01*
X653108Y150500D01*
X652681Y152646D01*
X651465Y154465D01*
X649646Y155681D01*
X647500Y156108D01*
D02*
G37*
G36*
X503192Y150650D02*
X495750D01*
Y143208D01*
X496969Y143369D01*
X499037Y144225D01*
X500812Y145588D01*
X502175Y147363D01*
X503031Y149431D01*
X503192Y150650D01*
D02*
G37*
G36*
X493750D02*
X486308D01*
X486469Y149431D01*
X487325Y147363D01*
X488688Y145588D01*
X490463Y144225D01*
X492531Y143369D01*
X493750Y143208D01*
Y150650D01*
D02*
G37*
G36*
X276000Y154108D02*
X273854Y153681D01*
X272035Y152465D01*
X270819Y150646D01*
X270392Y148500D01*
X270819Y146354D01*
X272035Y144535D01*
X273854Y143319D01*
X276000Y142892D01*
X278146Y143319D01*
X279965Y144535D01*
X281181Y146354D01*
X281608Y148500D01*
X281181Y150646D01*
X279965Y152465D01*
X278146Y153681D01*
X276000Y154108D01*
D02*
G37*
G36*
X570950Y160728D02*
X568601Y160418D01*
X566411Y159511D01*
X564531Y158069D01*
X563089Y156189D01*
X562182Y153999D01*
X561872Y151650D01*
X562182Y149300D01*
X563089Y147111D01*
X564531Y145231D01*
X566411Y143788D01*
X568601Y142882D01*
X570950Y142572D01*
X573299Y142882D01*
X575489Y143788D01*
X577369Y145231D01*
X578811Y147111D01*
X579718Y149300D01*
X580028Y151650D01*
X579718Y153999D01*
X578811Y156189D01*
X577369Y158069D01*
X575489Y159511D01*
X573299Y160418D01*
X570950Y160728D01*
D02*
G37*
G36*
X495750Y134692D02*
Y127250D01*
X503192D01*
X503031Y128469D01*
X502175Y130537D01*
X500812Y132312D01*
X499037Y133675D01*
X496969Y134531D01*
X495750Y134692D01*
D02*
G37*
G36*
X493750D02*
X492531Y134531D01*
X490463Y133675D01*
X488688Y132312D01*
X487325Y130537D01*
X486469Y128469D01*
X486308Y127250D01*
X493750D01*
Y134692D01*
D02*
G37*
G36*
X276000Y129108D02*
X273854Y128681D01*
X272035Y127465D01*
X270819Y125646D01*
X270392Y123500D01*
X270819Y121354D01*
X272035Y119535D01*
X273854Y118319D01*
X276000Y117892D01*
X278146Y118319D01*
X279965Y119535D01*
X281181Y121354D01*
X281608Y123500D01*
X281181Y125646D01*
X279965Y127465D01*
X278146Y128681D01*
X276000Y129108D01*
D02*
G37*
G36*
X503192Y125250D02*
X495750D01*
Y117808D01*
X496969Y117969D01*
X499037Y118825D01*
X500812Y120188D01*
X502175Y121963D01*
X503031Y124031D01*
X503192Y125250D01*
D02*
G37*
G36*
X493750D02*
X486308D01*
X486469Y124031D01*
X487325Y121963D01*
X488688Y120188D01*
X490463Y118825D01*
X492531Y117969D01*
X493750Y117808D01*
Y125250D01*
D02*
G37*
G36*
X570950Y135328D02*
X568601Y135018D01*
X566411Y134111D01*
X564531Y132669D01*
X563089Y130789D01*
X562182Y128599D01*
X561872Y126250D01*
X562182Y123900D01*
X563089Y121711D01*
X564531Y119831D01*
X566411Y118389D01*
X568601Y117482D01*
X570950Y117172D01*
X573299Y117482D01*
X575489Y118389D01*
X577369Y119831D01*
X578811Y121711D01*
X579718Y123900D01*
X580028Y126250D01*
X579718Y128599D01*
X578811Y130789D01*
X577369Y132669D01*
X575489Y134111D01*
X573299Y135018D01*
X570950Y135328D01*
D02*
G37*
G36*
X219500Y116149D02*
Y112250D01*
X223399D01*
X223210Y113201D01*
X222105Y114855D01*
X220451Y115960D01*
X219500Y116149D01*
D02*
G37*
G36*
X217500D02*
X216549Y115960D01*
X214895Y114855D01*
X213790Y113201D01*
X213601Y112250D01*
X217500D01*
Y116149D01*
D02*
G37*
G36*
X170250Y115899D02*
Y112000D01*
X174149D01*
X173960Y112951D01*
X172855Y114605D01*
X171201Y115710D01*
X170250Y115899D01*
D02*
G37*
G36*
X168250D02*
X167299Y115710D01*
X165645Y114605D01*
X164540Y112951D01*
X164351Y112000D01*
X168250D01*
Y115899D01*
D02*
G37*
G36*
X223399Y110250D02*
X219500D01*
Y106351D01*
X220451Y106540D01*
X222105Y107645D01*
X223210Y109299D01*
X223399Y110250D01*
D02*
G37*
G36*
X217500D02*
X213601D01*
X213790Y109299D01*
X214895Y107645D01*
X216549Y106540D01*
X217500Y106351D01*
Y110250D01*
D02*
G37*
G36*
X174149Y110000D02*
X170250D01*
Y106101D01*
X171201Y106290D01*
X172855Y107395D01*
X173960Y109049D01*
X174149Y110000D01*
D02*
G37*
G36*
X168250D02*
X164351D01*
X164540Y109049D01*
X165645Y107395D01*
X167299Y106290D01*
X168250Y106101D01*
Y110000D01*
D02*
G37*
G36*
X710000Y108649D02*
Y104750D01*
X713899D01*
X713710Y105701D01*
X712605Y107355D01*
X710951Y108460D01*
X710000Y108649D01*
D02*
G37*
G36*
X708000D02*
X707049Y108460D01*
X705395Y107355D01*
X704290Y105701D01*
X704101Y104750D01*
X708000D01*
Y108649D01*
D02*
G37*
G36*
X495750Y109292D02*
Y101850D01*
X503192D01*
X503031Y103069D01*
X502175Y105137D01*
X500812Y106912D01*
X499037Y108275D01*
X496969Y109131D01*
X495750Y109292D01*
D02*
G37*
G36*
X493750D02*
X492531Y109131D01*
X490463Y108275D01*
X488688Y106912D01*
X487325Y105137D01*
X486469Y103069D01*
X486308Y101850D01*
X493750D01*
Y109292D01*
D02*
G37*
G36*
X713899Y102750D02*
X710000D01*
Y98851D01*
X710951Y99040D01*
X712605Y100145D01*
X713710Y101799D01*
X713899Y102750D01*
D02*
G37*
G36*
X708000D02*
X704101D01*
X704290Y101799D01*
X705395Y100145D01*
X707049Y99040D01*
X708000Y98851D01*
Y102750D01*
D02*
G37*
G36*
X748000Y115086D02*
X745389Y114742D01*
X742957Y113735D01*
X740868Y112132D01*
X739265Y110043D01*
X738257Y107611D01*
X737914Y105000D01*
X738257Y102389D01*
X739265Y99957D01*
X740868Y97868D01*
X742957Y96265D01*
X745389Y95257D01*
X748000Y94914D01*
X750611Y95257D01*
X753043Y96265D01*
X755132Y97868D01*
X756735Y99957D01*
X757743Y102389D01*
X758086Y105000D01*
X757743Y107611D01*
X756735Y110043D01*
X755132Y112132D01*
X753043Y113735D01*
X750611Y114742D01*
X748000Y115086D01*
D02*
G37*
G36*
X672000D02*
X669389Y114742D01*
X666957Y113735D01*
X664868Y112132D01*
X663265Y110043D01*
X662257Y107611D01*
X661914Y105000D01*
X662257Y102389D01*
X663265Y99957D01*
X664868Y97868D01*
X666957Y96265D01*
X669389Y95257D01*
X672000Y94914D01*
X674611Y95257D01*
X677043Y96265D01*
X679132Y97868D01*
X680735Y99957D01*
X681743Y102389D01*
X682086Y105000D01*
X681743Y107611D01*
X680735Y110043D01*
X679132Y112132D01*
X677043Y113735D01*
X674611Y114742D01*
X672000Y115086D01*
D02*
G37*
G36*
X276250Y104108D02*
X274104Y103681D01*
X272285Y102465D01*
X271069Y100646D01*
X270642Y98500D01*
X271069Y96354D01*
X272285Y94535D01*
X274104Y93319D01*
X276250Y92892D01*
X278396Y93319D01*
X280215Y94535D01*
X281431Y96354D01*
X281858Y98500D01*
X281431Y100646D01*
X280215Y102465D01*
X278396Y103681D01*
X276250Y104108D01*
D02*
G37*
G36*
X503192Y99850D02*
X495750D01*
Y92408D01*
X496969Y92569D01*
X499037Y93425D01*
X500812Y94788D01*
X502175Y96563D01*
X503031Y98631D01*
X503192Y99850D01*
D02*
G37*
G36*
X493750D02*
X486308D01*
X486469Y98631D01*
X487325Y96563D01*
X488688Y94788D01*
X490463Y93425D01*
X492531Y92569D01*
X493750Y92408D01*
Y99850D01*
D02*
G37*
G36*
X570950Y109928D02*
X568601Y109618D01*
X566411Y108711D01*
X564531Y107269D01*
X563089Y105389D01*
X562182Y103199D01*
X561872Y100850D01*
X562182Y98500D01*
X563089Y96311D01*
X564531Y94431D01*
X566411Y92989D01*
X568601Y92082D01*
X570950Y91772D01*
X573299Y92082D01*
X575489Y92989D01*
X577369Y94431D01*
X578811Y96311D01*
X579718Y98500D01*
X580028Y100850D01*
X579718Y103199D01*
X578811Y105389D01*
X577369Y107269D01*
X575489Y108711D01*
X573299Y109618D01*
X570950Y109928D01*
D02*
G37*
G36*
X616000Y89149D02*
Y85250D01*
X619899D01*
X619710Y86201D01*
X618605Y87855D01*
X616951Y88960D01*
X616000Y89149D01*
D02*
G37*
G36*
X614000D02*
X613049Y88960D01*
X611395Y87855D01*
X610290Y86201D01*
X610101Y85250D01*
X614000D01*
Y89149D01*
D02*
G37*
G36*
X329500Y92608D02*
X327354Y92181D01*
X325535Y90965D01*
X324319Y89146D01*
X323892Y87000D01*
X324319Y84854D01*
X325535Y83035D01*
X327354Y81819D01*
X329500Y81392D01*
X331646Y81819D01*
X333465Y83035D01*
X334681Y84854D01*
X335108Y87000D01*
X334681Y89146D01*
X333465Y90965D01*
X331646Y92181D01*
X329500Y92608D01*
D02*
G37*
G36*
X619899Y83250D02*
X616000D01*
Y79351D01*
X616951Y79540D01*
X618605Y80645D01*
X619710Y82299D01*
X619899Y83250D01*
D02*
G37*
G36*
X614000D02*
X610101D01*
X610290Y82299D01*
X611395Y80645D01*
X613049Y79540D01*
X614000Y79351D01*
Y83250D01*
D02*
G37*
G36*
X64300Y99280D02*
X61065Y98961D01*
X57955Y98018D01*
X55089Y96486D01*
X52576Y94424D01*
X50514Y91911D01*
X48982Y89045D01*
X48039Y85934D01*
X47720Y82700D01*
X48039Y79465D01*
X48982Y76355D01*
X50514Y73489D01*
X52576Y70976D01*
X55089Y68914D01*
X57955Y67382D01*
X61065Y66439D01*
X64300Y66120D01*
X67534Y66439D01*
X70645Y67382D01*
X73511Y68914D01*
X76024Y70976D01*
X78086Y73489D01*
X79618Y76355D01*
X80561Y79465D01*
X80880Y82700D01*
X80561Y85934D01*
X79618Y89045D01*
X78086Y91911D01*
X76024Y94424D01*
X73511Y96486D01*
X70645Y98018D01*
X67534Y98961D01*
X64300Y99280D01*
D02*
G37*
G36*
X276250Y70358D02*
X274104Y69931D01*
X272285Y68715D01*
X271069Y66896D01*
X270642Y64750D01*
X271069Y62604D01*
X272285Y60785D01*
X274104Y59569D01*
X276250Y59142D01*
X278396Y59569D01*
X280215Y60785D01*
X281431Y62604D01*
X281858Y64750D01*
X281431Y66896D01*
X280215Y68715D01*
X278396Y69931D01*
X276250Y70358D01*
D02*
G37*
G36*
X152000Y60399D02*
Y56500D01*
X155899D01*
X155710Y57451D01*
X154605Y59105D01*
X152951Y60210D01*
X152000Y60399D01*
D02*
G37*
G36*
X150000D02*
X149049Y60210D01*
X147395Y59105D01*
X146290Y57451D01*
X146101Y56500D01*
X150000D01*
Y60399D01*
D02*
G37*
G36*
X155899Y54500D02*
X152000D01*
Y50601D01*
X152951Y50790D01*
X154605Y51895D01*
X155710Y53549D01*
X155899Y54500D01*
D02*
G37*
G36*
X150000D02*
X146101D01*
X146290Y53549D01*
X147395Y51895D01*
X149049Y50790D01*
X150000Y50601D01*
Y54500D01*
D02*
G37*
G36*
X404750Y45649D02*
Y41750D01*
X408649D01*
X408460Y42701D01*
X407355Y44355D01*
X405701Y45460D01*
X404750Y45649D01*
D02*
G37*
G36*
X402750D02*
X401799Y45460D01*
X400145Y44355D01*
X399040Y42701D01*
X398851Y41750D01*
X402750D01*
Y45649D01*
D02*
G37*
G36*
X525250Y48608D02*
X523104Y48181D01*
X521285Y46965D01*
X520069Y45146D01*
X519642Y43000D01*
X520069Y40854D01*
X521285Y39035D01*
X523104Y37819D01*
X525250Y37392D01*
X527396Y37819D01*
X529215Y39035D01*
X530431Y40854D01*
X530858Y43000D01*
X530431Y45146D01*
X529215Y46965D01*
X527396Y48181D01*
X525250Y48608D01*
D02*
G37*
G36*
X408649Y39750D02*
X404750D01*
Y35851D01*
X405701Y36040D01*
X407355Y37145D01*
X408460Y38799D01*
X408649Y39750D01*
D02*
G37*
G36*
X402750D02*
X398851D01*
X399040Y38799D01*
X400145Y37145D01*
X401799Y36040D01*
X402750Y35851D01*
Y39750D01*
D02*
G37*
G36*
X276500Y44858D02*
X274354Y44431D01*
X272535Y43215D01*
X271319Y41396D01*
X270892Y39250D01*
X271319Y37104D01*
X272535Y35285D01*
X274354Y34069D01*
X276500Y33642D01*
X278646Y34069D01*
X280465Y35285D01*
X281681Y37104D01*
X282108Y39250D01*
X281681Y41396D01*
X280465Y43215D01*
X278646Y44431D01*
X276500Y44858D01*
D02*
G37*
G36*
X666500Y29399D02*
Y25500D01*
X670399D01*
X670210Y26451D01*
X669105Y28105D01*
X667451Y29210D01*
X666500Y29399D01*
D02*
G37*
G36*
X664500D02*
X663549Y29210D01*
X661895Y28105D01*
X660790Y26451D01*
X660601Y25500D01*
X664500D01*
Y29399D01*
D02*
G37*
G36*
X670399Y23500D02*
X666500D01*
Y19601D01*
X667451Y19790D01*
X669105Y20895D01*
X670210Y22549D01*
X670399Y23500D01*
D02*
G37*
G36*
X664500D02*
X660601D01*
X660790Y22549D01*
X661895Y20895D01*
X663549Y19790D01*
X664500Y19601D01*
Y23500D01*
D02*
G37*
G36*
X751610Y26649D02*
X740612D01*
Y26402D01*
X736362D01*
Y14027D01*
X740612Y14027D01*
Y13152D01*
X751610D01*
Y14027D01*
X765112Y14027D01*
X765112Y26402D01*
X751610D01*
Y26649D01*
D02*
G37*
G36*
X276500Y20608D02*
X274354Y20181D01*
X272535Y18965D01*
X271319Y17146D01*
X270892Y15000D01*
X271319Y12854D01*
X272535Y11035D01*
X274354Y9819D01*
X276500Y9392D01*
X278646Y9819D01*
X280465Y11035D01*
X281681Y12854D01*
X282108Y15000D01*
X281681Y17146D01*
X280465Y18965D01*
X278646Y20181D01*
X276500Y20608D01*
D02*
G37*
G36*
X557399Y-711800D02*
X543699D01*
X531300Y-771300D01*
X545600D01*
X546399Y-771200D01*
X547399D01*
X548400Y-771100D01*
X550700Y-770900D01*
X553200Y-770700D01*
X555700Y-770300D01*
X558200Y-769800D01*
X558400D01*
X558899Y-769600D01*
X559599Y-769400D01*
X560499Y-769100D01*
X561600Y-768700D01*
X562700Y-768300D01*
X565000Y-767100D01*
X565200Y-767000D01*
X565600Y-766700D01*
X566300Y-766100D01*
X567199Y-765400D01*
X568299Y-764500D01*
X569399Y-763400D01*
X570599Y-762200D01*
X571799Y-760800D01*
Y-760700D01*
X571999Y-760600D01*
X572199Y-760300D01*
X572499Y-759900D01*
X573199Y-758800D01*
X574099Y-757400D01*
X575099Y-755700D01*
X576199Y-753700D01*
X577199Y-751500D01*
X578199Y-749100D01*
Y-749000D01*
X578299Y-748800D01*
X578399Y-748400D01*
X578599Y-747900D01*
X578799Y-747300D01*
X578999Y-746600D01*
X579199Y-745700D01*
X579399Y-744700D01*
X579799Y-742500D01*
X580199Y-740000D01*
X580499Y-737200D01*
X580599Y-734100D01*
Y-734000D01*
Y-733700D01*
Y-733200D01*
Y-732500D01*
X580499Y-731800D01*
X580399Y-730900D01*
X580199Y-728800D01*
X579799Y-726500D01*
X579199Y-724100D01*
X578399Y-721800D01*
X577899Y-720700D01*
X577299Y-719700D01*
Y-719600D01*
X577199Y-719500D01*
X576699Y-718900D01*
X575999Y-718000D01*
X574999Y-717000D01*
X573799Y-715900D01*
X572399Y-714800D01*
X570799Y-713800D01*
X568999Y-713100D01*
X568799Y-713000D01*
X568299Y-712900D01*
X567399Y-712700D01*
X566100Y-712400D01*
X564500Y-712200D01*
X562500Y-712000D01*
X560099Y-711900D01*
X557399Y-711800D01*
D02*
G37*
G36*
X345800Y-711500D02*
Y-711600D01*
X345700Y-711800D01*
X345500Y-712200D01*
X345300Y-712700D01*
X345000Y-713300D01*
X344700Y-714100D01*
X344300Y-715000D01*
X343900Y-716000D01*
X343400Y-717100D01*
X342800Y-718300D01*
X341500Y-720900D01*
X339900Y-723900D01*
X338100Y-727200D01*
X325500Y-750000D01*
X351000D01*
X348000Y-730700D01*
Y-730600D01*
X347900Y-730200D01*
X347800Y-729600D01*
X347700Y-728800D01*
X347600Y-727800D01*
X347400Y-726700D01*
X347200Y-725400D01*
X347100Y-724000D01*
X346700Y-721000D01*
X346300Y-717700D01*
X346000Y-714500D01*
X345800Y-711500D01*
D02*
G37*
%LPD*%
D11*
X1620069Y-763933D02*
Y-777262D01*
X1626734Y-783927D01*
X1633398Y-777262D01*
Y-763933D01*
X1640063Y-783927D02*
X1646727D01*
X1643395D01*
Y-763933D01*
X1640063Y-767266D01*
X751069Y-689933D02*
Y-709927D01*
X761066D01*
X764398Y-706595D01*
Y-693266D01*
X761066Y-689933D01*
X751069D01*
X771063Y-709927D02*
Y-696598D01*
X777727Y-689933D01*
X784392Y-696598D01*
Y-709927D01*
Y-699930D01*
X771063D01*
X791056Y-709927D02*
Y-689933D01*
X801053D01*
X804385Y-693266D01*
Y-699930D01*
X801053Y-703262D01*
X791056D01*
X797721D02*
X804385Y-709927D01*
X749069Y-613933D02*
Y-633927D01*
X759066D01*
X762398Y-630595D01*
Y-617266D01*
X759066Y-613933D01*
X749069D01*
X769063Y-633927D02*
Y-620598D01*
X775727Y-613933D01*
X782392Y-620598D01*
Y-633927D01*
Y-623930D01*
X769063D01*
X789056Y-633927D02*
Y-613933D01*
X799053D01*
X802385Y-617266D01*
Y-623930D01*
X799053Y-627262D01*
X789056D01*
X795721D02*
X802385Y-633927D01*
X1089069Y-640927D02*
Y-620933D01*
X1095733Y-627598D01*
X1102398Y-620933D01*
Y-640927D01*
X1109063Y-620933D02*
Y-640927D01*
X1119059D01*
X1122392Y-637595D01*
Y-634263D01*
X1119059Y-630930D01*
X1109063D01*
X1119059D01*
X1122392Y-627598D01*
Y-624266D01*
X1119059Y-620933D01*
X1109063D01*
X1142385Y-640927D02*
X1129056D01*
X1142385Y-627598D01*
Y-624266D01*
X1139053Y-620933D01*
X1132388D01*
X1129056Y-624266D01*
X1149050Y-620933D02*
Y-640927D01*
Y-634263D01*
X1162379Y-620933D01*
X1152382Y-630930D01*
X1162379Y-640927D01*
X1182372D02*
X1169043D01*
X1182372Y-627598D01*
Y-624266D01*
X1179040Y-620933D01*
X1172375D01*
X1169043Y-624266D01*
X1209030Y-620933D02*
Y-634263D01*
X1215695Y-640927D01*
X1222359Y-634263D01*
Y-620933D01*
X1229024Y-640927D02*
X1235688D01*
X1232356D01*
Y-620933D01*
X1229024Y-624266D01*
X1245685Y-640927D02*
Y-627598D01*
X1252350Y-620933D01*
X1259014Y-627598D01*
Y-640927D01*
Y-630930D01*
X1245685D01*
D14*
X260655Y-30268D02*
Y-20271D01*
X263987Y-23603D01*
X267320Y-20271D01*
Y-30268D01*
X270652D02*
X273984D01*
X272318D01*
Y-23603D01*
X270652D01*
X285647Y-20271D02*
Y-30268D01*
X280649D01*
X278982Y-28602D01*
Y-25270D01*
X280649Y-23603D01*
X285647D01*
X298976Y-20271D02*
Y-30268D01*
X305641D01*
X310639Y-23603D02*
X313971D01*
X315637Y-25270D01*
Y-30268D01*
X310639D01*
X308973Y-28602D01*
X310639Y-26936D01*
X315637D01*
X318969Y-23603D02*
Y-28602D01*
X320636Y-30268D01*
X325634D01*
Y-31934D01*
X323968Y-33600D01*
X322302D01*
X325634Y-30268D02*
Y-23603D01*
X333965Y-30268D02*
X330633D01*
X328966Y-28602D01*
Y-25270D01*
X330633Y-23603D01*
X333965D01*
X335631Y-25270D01*
Y-26936D01*
X328966D01*
X338963Y-23603D02*
Y-30268D01*
Y-26936D01*
X340629Y-25270D01*
X342295Y-23603D01*
X343961D01*
X358957Y-30268D02*
X362289D01*
X360623D01*
Y-20271D01*
X358957Y-21937D01*
D16*
X748610Y16152D02*
X743612D01*
X748610Y21150D01*
Y22400D01*
X747361Y23649D01*
X744862D01*
X743612Y22400D01*
D22*
X1084129Y-939377D02*
Y-888577D01*
X1001579D02*
Y-736177D01*
X1534979Y-888577D02*
Y-736177D01*
X620579Y-888577D02*
Y-583777D01*
X1763579Y-888577D02*
Y-583777D01*
X1001579D02*
X1763579D01*
X1001579Y-736177D02*
Y-583777D01*
X620579D02*
X1001579D01*
X620579Y-736177D02*
X1763579D01*
X620579Y-812377D02*
X1763579D01*
X620579Y-888577D02*
X1763579D01*
X620579Y-659977D02*
X1001579D01*
X264979Y-583777D02*
X620579D01*
X264979Y-888577D02*
Y-583777D01*
Y-888577D02*
X620579D01*
X353879Y-939377D02*
Y-888577D01*
X-376371Y-939377D02*
Y-888577D01*
X-1106621Y-456777D02*
X-1055821D01*
X-1106621Y25823D02*
X-1055821D01*
X-1106621Y508423D02*
X-1055821D01*
X-1106621Y-939377D02*
Y991023D01*
X1763579Y-456777D02*
X1814379D01*
X353879Y940223D02*
Y991023D01*
X-376371Y940223D02*
Y991023D01*
X-1055821Y940223D02*
X1763579D01*
Y-888577D02*
Y940223D01*
X-1055821Y-888577D02*
X1763579D01*
X-1055821D02*
Y940223D01*
X-1106621Y991023D02*
X1814379D01*
Y-939377D02*
Y991023D01*
X-1106621Y-939377D02*
X1814379D01*
X1555297Y-827982D02*
X1554209Y-826894D01*
X1552576Y-826349D01*
X1550400D01*
X1548767Y-826894D01*
X1547679Y-827982D01*
Y-829070D01*
X1548223Y-830159D01*
X1548767Y-830703D01*
X1549856Y-831247D01*
X1553121Y-832335D01*
X1554209Y-832879D01*
X1554753Y-833424D01*
X1555297Y-834512D01*
Y-836144D01*
X1554209Y-837233D01*
X1552576Y-837777D01*
X1550400D01*
X1548767Y-837233D01*
X1547679Y-836144D01*
X1566017Y-829070D02*
X1565473Y-827982D01*
X1564385Y-826894D01*
X1563297Y-826349D01*
X1561120D01*
X1560032Y-826894D01*
X1558943Y-827982D01*
X1558399Y-829070D01*
X1557855Y-830703D01*
Y-833424D01*
X1558399Y-835056D01*
X1558943Y-836144D01*
X1560032Y-837233D01*
X1561120Y-837777D01*
X1563297D01*
X1564385Y-837233D01*
X1565473Y-836144D01*
X1566017Y-835056D01*
X1577935Y-837777D02*
X1573582Y-826349D01*
X1569228Y-837777D01*
X1570861Y-833968D02*
X1576302D01*
X1580601Y-826349D02*
Y-837777D01*
X1587131D01*
X1595457Y-826349D02*
X1588383D01*
Y-837777D01*
X1595457D01*
X1588383Y-831791D02*
X1592736D01*
X1597906Y-830159D02*
X1597362Y-830703D01*
X1597906Y-831247D01*
X1598450Y-830703D01*
X1597906Y-830159D01*
Y-836689D02*
X1597362Y-837233D01*
X1597906Y-837777D01*
X1598450Y-837233D01*
X1597906Y-836689D01*
X633279Y-826349D02*
Y-837777D01*
Y-826349D02*
X640353D01*
X633279Y-831791D02*
X637632D01*
X641659Y-826349D02*
Y-837777D01*
X644054Y-826349D02*
Y-837777D01*
X650584D01*
X658909Y-826349D02*
X651835D01*
Y-837777D01*
X658909D01*
X651835Y-831791D02*
X656189D01*
X669793Y-826349D02*
Y-837777D01*
Y-826349D02*
X677411Y-837777D01*
Y-826349D02*
Y-837777D01*
X689274D02*
X684921Y-826349D01*
X680567Y-837777D01*
X682200Y-833968D02*
X687642D01*
X691941Y-826349D02*
Y-837777D01*
Y-826349D02*
X696294Y-837777D01*
X700647Y-826349D02*
X696294Y-837777D01*
X700647Y-826349D02*
Y-837777D01*
X710986Y-826349D02*
X703912D01*
Y-837777D01*
X710986D01*
X703912Y-831791D02*
X708266D01*
X713435Y-830159D02*
X712891Y-830703D01*
X713435Y-831247D01*
X713979Y-830703D01*
X713435Y-830159D01*
Y-836689D02*
X712891Y-837233D01*
X713435Y-837777D01*
X713979Y-837233D01*
X713435Y-836689D01*
X633279Y-678665D02*
X638176D01*
X639809Y-678121D01*
X640353Y-677577D01*
X640897Y-676489D01*
Y-674856D01*
X640353Y-673768D01*
X639809Y-673224D01*
X638176Y-672680D01*
X633279D01*
Y-684107D01*
X651618Y-675400D02*
X651073Y-674312D01*
X649985Y-673224D01*
X648897Y-672680D01*
X646720D01*
X645632Y-673224D01*
X644543Y-674312D01*
X643999Y-675400D01*
X643455Y-677033D01*
Y-679754D01*
X643999Y-681386D01*
X644543Y-682475D01*
X645632Y-683563D01*
X646720Y-684107D01*
X648897D01*
X649985Y-683563D01*
X651073Y-682475D01*
X651618Y-681386D01*
X654828Y-672680D02*
Y-684107D01*
Y-672680D02*
X659726D01*
X661358Y-673224D01*
X661902Y-673768D01*
X662447Y-674856D01*
Y-675945D01*
X661902Y-677033D01*
X661358Y-677577D01*
X659726Y-678121D01*
X654828D02*
X659726D01*
X661358Y-678665D01*
X661902Y-679210D01*
X662447Y-680298D01*
Y-681930D01*
X661902Y-683019D01*
X661358Y-683563D01*
X659726Y-684107D01*
X654828D01*
X673983Y-672680D02*
Y-684107D01*
Y-672680D02*
X677792D01*
X679425Y-673224D01*
X680513Y-674312D01*
X681057Y-675400D01*
X681601Y-677033D01*
Y-679754D01*
X681057Y-681386D01*
X680513Y-682475D01*
X679425Y-683563D01*
X677792Y-684107D01*
X673983D01*
X691233Y-672680D02*
X684159D01*
Y-684107D01*
X691233D01*
X684159Y-678121D02*
X688512D01*
X700756Y-674312D02*
X699668Y-673224D01*
X698035Y-672680D01*
X695859D01*
X694226Y-673224D01*
X693138Y-674312D01*
Y-675400D01*
X693682Y-676489D01*
X694226Y-677033D01*
X695314Y-677577D01*
X698579Y-678665D01*
X699668Y-679210D01*
X700212Y-679754D01*
X700756Y-680842D01*
Y-682475D01*
X699668Y-683563D01*
X698035Y-684107D01*
X695859D01*
X694226Y-683563D01*
X693138Y-682475D01*
X703314Y-672680D02*
Y-684107D01*
X713870Y-675400D02*
X713326Y-674312D01*
X712238Y-673224D01*
X711150Y-672680D01*
X708973D01*
X707885Y-673224D01*
X706796Y-674312D01*
X706252Y-675400D01*
X705708Y-677033D01*
Y-679754D01*
X706252Y-681386D01*
X706796Y-682475D01*
X707885Y-683563D01*
X708973Y-684107D01*
X711150D01*
X712238Y-683563D01*
X713326Y-682475D01*
X713870Y-681386D01*
Y-679754D01*
X711150D02*
X713870D01*
X716482Y-672680D02*
Y-684107D01*
Y-672680D02*
X724101Y-684107D01*
Y-672680D02*
Y-684107D01*
X734331Y-672680D02*
X727257D01*
Y-684107D01*
X734331D01*
X727257Y-678121D02*
X731610D01*
X736236Y-672680D02*
Y-684107D01*
Y-672680D02*
X741133D01*
X742766Y-673224D01*
X743310Y-673768D01*
X743854Y-674856D01*
Y-675945D01*
X743310Y-677033D01*
X742766Y-677577D01*
X741133Y-678121D01*
X736236D01*
X740045D02*
X743854Y-684107D01*
X746956Y-676489D02*
X746412Y-677033D01*
X746956Y-677577D01*
X747500Y-677033D01*
X746956Y-676489D01*
Y-683019D02*
X746412Y-683563D01*
X746956Y-684107D01*
X747500Y-683563D01*
X746956Y-683019D01*
X1018088Y-597749D02*
Y-609177D01*
X1014279Y-597749D02*
X1021897D01*
X1023258D02*
Y-609177D01*
X1029461Y-597749D02*
Y-609177D01*
X1025652Y-597749D02*
X1033271D01*
X1034631D02*
Y-609177D01*
X1041161D01*
X1049487Y-597749D02*
X1042413D01*
Y-609177D01*
X1049487D01*
X1042413Y-603191D02*
X1046766D01*
X1051936Y-601559D02*
X1051391Y-602103D01*
X1051936Y-602647D01*
X1052480Y-602103D01*
X1051936Y-601559D01*
Y-608089D02*
X1051391Y-608633D01*
X1051936Y-609177D01*
X1052480Y-608633D01*
X1051936Y-608089D01*
X1014279Y-756135D02*
X1019176D01*
X1020809Y-755591D01*
X1021353Y-755047D01*
X1021897Y-753959D01*
Y-752326D01*
X1021353Y-751238D01*
X1020809Y-750694D01*
X1019176Y-750150D01*
X1014279D01*
Y-761577D01*
X1033162D02*
X1028808Y-750150D01*
X1024455Y-761577D01*
X1026087Y-757768D02*
X1031529D01*
X1035828Y-750150D02*
Y-761577D01*
Y-750150D02*
X1040726D01*
X1042358Y-750694D01*
X1042902Y-751238D01*
X1043447Y-752326D01*
Y-753415D01*
X1042902Y-754503D01*
X1042358Y-755047D01*
X1040726Y-755591D01*
X1035828D01*
X1039637D02*
X1043447Y-761577D01*
X1049813Y-750150D02*
Y-761577D01*
X1046004Y-750150D02*
X1053622D01*
X1063962D02*
Y-761577D01*
Y-750150D02*
X1071580Y-761577D01*
Y-750150D02*
Y-761577D01*
X1078001Y-750150D02*
X1076913Y-750694D01*
X1075825Y-751782D01*
X1075280Y-752870D01*
X1074736Y-754503D01*
Y-757224D01*
X1075280Y-758856D01*
X1075825Y-759945D01*
X1076913Y-761033D01*
X1078001Y-761577D01*
X1080178D01*
X1081266Y-761033D01*
X1082355Y-759945D01*
X1082899Y-758856D01*
X1083443Y-757224D01*
Y-754503D01*
X1082899Y-752870D01*
X1082355Y-751782D01*
X1081266Y-750694D01*
X1080178Y-750150D01*
X1078001D01*
X1086654Y-760489D02*
X1086109Y-761033D01*
X1086654Y-761577D01*
X1087198Y-761033D01*
X1086654Y-760489D01*
X1090245Y-753959D02*
X1089701Y-754503D01*
X1090245Y-755047D01*
X1090789Y-754503D01*
X1090245Y-753959D01*
Y-760489D02*
X1089701Y-761033D01*
X1090245Y-761577D01*
X1090789Y-761033D01*
X1090245Y-760489D01*
X640353Y-597749D02*
X633279D01*
Y-609177D01*
X640353D01*
X633279Y-603191D02*
X637632D01*
X642258Y-597749D02*
Y-609177D01*
Y-597749D02*
X649876Y-609177D01*
Y-597749D02*
Y-609177D01*
X661195Y-600470D02*
X660651Y-599382D01*
X659562Y-598294D01*
X658474Y-597749D01*
X656297D01*
X655209Y-598294D01*
X654121Y-599382D01*
X653577Y-600470D01*
X653032Y-602103D01*
Y-604824D01*
X653577Y-606456D01*
X654121Y-607545D01*
X655209Y-608633D01*
X656297Y-609177D01*
X658474D01*
X659562Y-608633D01*
X660651Y-607545D01*
X661195Y-606456D01*
Y-604824D01*
X658474D02*
X661195D01*
X663807Y-597749D02*
Y-609177D01*
X666201Y-597749D02*
Y-609177D01*
Y-597749D02*
X673820Y-609177D01*
Y-597749D02*
Y-609177D01*
X684050Y-597749D02*
X676976D01*
Y-609177D01*
X684050D01*
X676976Y-603191D02*
X681329D01*
X693029Y-597749D02*
X685955D01*
Y-609177D01*
X693029D01*
X685955Y-603191D02*
X690308D01*
X694933Y-597749D02*
Y-609177D01*
Y-597749D02*
X699831D01*
X701463Y-598294D01*
X702008Y-598838D01*
X702552Y-599926D01*
Y-601015D01*
X702008Y-602103D01*
X701463Y-602647D01*
X699831Y-603191D01*
X694933D01*
X698743D02*
X702552Y-609177D01*
X705654Y-601559D02*
X705109Y-602103D01*
X705654Y-602647D01*
X706198Y-602103D01*
X705654Y-601559D01*
Y-608089D02*
X705109Y-608633D01*
X705654Y-609177D01*
X706198Y-608633D01*
X705654Y-608089D01*
X1014279Y-826349D02*
Y-837777D01*
Y-826349D02*
X1018088D01*
X1019721Y-826894D01*
X1020809Y-827982D01*
X1021353Y-829070D01*
X1021897Y-830703D01*
Y-833424D01*
X1021353Y-835056D01*
X1020809Y-836144D01*
X1019721Y-837233D01*
X1018088Y-837777D01*
X1014279D01*
X1024455Y-826349D02*
X1027176Y-837777D01*
X1029897Y-826349D02*
X1027176Y-837777D01*
X1029897Y-826349D02*
X1032617Y-837777D01*
X1035338Y-826349D02*
X1032617Y-837777D01*
X1045786Y-829070D02*
X1045242Y-827982D01*
X1044154Y-826894D01*
X1043066Y-826349D01*
X1040889D01*
X1039800Y-826894D01*
X1038712Y-827982D01*
X1038168Y-829070D01*
X1037624Y-830703D01*
Y-833424D01*
X1038168Y-835056D01*
X1038712Y-836144D01*
X1039800Y-837233D01*
X1040889Y-837777D01*
X1043066D01*
X1044154Y-837233D01*
X1045242Y-836144D01*
X1045786Y-835056D01*
Y-833424D01*
X1043066D02*
X1045786D01*
X1057377Y-826349D02*
Y-837777D01*
Y-826349D02*
X1064996Y-837777D01*
Y-826349D02*
Y-837777D01*
X1071417Y-826349D02*
X1070328Y-826894D01*
X1069240Y-827982D01*
X1068696Y-829070D01*
X1068152Y-830703D01*
Y-833424D01*
X1068696Y-835056D01*
X1069240Y-836144D01*
X1070328Y-837233D01*
X1071417Y-837777D01*
X1073594D01*
X1074682Y-837233D01*
X1075770Y-836144D01*
X1076314Y-835056D01*
X1076859Y-833424D01*
Y-830703D01*
X1076314Y-829070D01*
X1075770Y-827982D01*
X1074682Y-826894D01*
X1073594Y-826349D01*
X1071417D01*
X1080069Y-830159D02*
X1079525Y-830703D01*
X1080069Y-831247D01*
X1080613Y-830703D01*
X1080069Y-830159D01*
Y-836689D02*
X1079525Y-837233D01*
X1080069Y-837777D01*
X1080613Y-837233D01*
X1080069Y-836689D01*
X1547679Y-750150D02*
Y-761577D01*
Y-750150D02*
X1552576D01*
X1554209Y-750694D01*
X1554753Y-751238D01*
X1555297Y-752326D01*
Y-753415D01*
X1554753Y-754503D01*
X1554209Y-755047D01*
X1552576Y-755591D01*
X1547679D01*
X1551488D02*
X1555297Y-761577D01*
X1564929Y-750150D02*
X1557855D01*
Y-761577D01*
X1564929D01*
X1557855Y-755591D02*
X1562208D01*
X1566834Y-750150D02*
X1571187Y-761577D01*
X1575540Y-750150D02*
X1571187Y-761577D01*
X1577554Y-753959D02*
X1577010Y-754503D01*
X1577554Y-755047D01*
X1578098Y-754503D01*
X1577554Y-753959D01*
Y-760489D02*
X1577010Y-761033D01*
X1577554Y-761577D01*
X1578098Y-761033D01*
X1577554Y-760489D01*
X633279Y-750150D02*
Y-761577D01*
Y-750150D02*
X637088D01*
X638721Y-750694D01*
X639809Y-751782D01*
X640353Y-752870D01*
X640897Y-754503D01*
Y-757224D01*
X640353Y-758856D01*
X639809Y-759945D01*
X638721Y-761033D01*
X637088Y-761577D01*
X633279D01*
X652162D02*
X647808Y-750150D01*
X643455Y-761577D01*
X645088Y-757768D02*
X650529D01*
X658637Y-750150D02*
Y-761577D01*
X654828Y-750150D02*
X662447D01*
X670881D02*
X663807D01*
Y-761577D01*
X670881D01*
X663807Y-755591D02*
X668160D01*
X673330Y-753959D02*
X672786Y-754503D01*
X673330Y-755047D01*
X673874Y-754503D01*
X673330Y-753959D01*
Y-760489D02*
X672786Y-761033D01*
X673330Y-761577D01*
X673874Y-761033D01*
X673330Y-760489D01*
D23*
X645979Y-850481D02*
Y-868257D01*
Y-850481D02*
X652751Y-868257D01*
X659523Y-850481D02*
X652751Y-868257D01*
X659523Y-850481D02*
Y-868257D01*
X664602Y-850481D02*
Y-868257D01*
Y-850481D02*
X672220D01*
X674760Y-851327D01*
X675606Y-852174D01*
X676452Y-853867D01*
Y-855560D01*
X675606Y-857253D01*
X674760Y-858099D01*
X672220Y-858946D01*
X664602D02*
X672220D01*
X674760Y-859792D01*
X675606Y-860639D01*
X676452Y-862332D01*
Y-864871D01*
X675606Y-866564D01*
X674760Y-867411D01*
X672220Y-868257D01*
X664602D01*
X681277Y-854713D02*
Y-853867D01*
X682124Y-852174D01*
X682970Y-851327D01*
X684663Y-850481D01*
X688049D01*
X689742Y-851327D01*
X690589Y-852174D01*
X691435Y-853867D01*
Y-855560D01*
X690589Y-857253D01*
X688896Y-859792D01*
X680431Y-868257D01*
X692282D01*
X696260Y-850481D02*
Y-868257D01*
X708111Y-850481D02*
X696260Y-862332D01*
X700493Y-858099D02*
X708111Y-868257D01*
X712936Y-854713D02*
Y-853867D01*
X713783Y-852174D01*
X714629Y-851327D01*
X716322Y-850481D01*
X719708D01*
X721401Y-851327D01*
X722247Y-852174D01*
X723094Y-853867D01*
Y-855560D01*
X722247Y-857253D01*
X720554Y-859792D01*
X712089Y-868257D01*
X723940D01*
X727919Y-874182D02*
X741463D01*
X743748Y-850481D02*
X750520Y-868257D01*
X757292Y-850481D02*
X750520Y-868257D01*
X759577Y-853867D02*
X761270Y-853020D01*
X763810Y-850481D01*
Y-868257D01*
X773460Y-866564D02*
X772613Y-867411D01*
X773460Y-868257D01*
X774306Y-867411D01*
X773460Y-866564D01*
X778200Y-859792D02*
X785818D01*
X788358Y-858946D01*
X789204Y-858099D01*
X790051Y-856406D01*
Y-853867D01*
X789204Y-852174D01*
X788358Y-851327D01*
X785818Y-850481D01*
X778200D01*
Y-868257D01*
X804187Y-858946D02*
X802494Y-857253D01*
X800801Y-856406D01*
X798262D01*
X796569Y-857253D01*
X794876Y-858946D01*
X794029Y-861485D01*
Y-863178D01*
X794876Y-865717D01*
X796569Y-867411D01*
X798262Y-868257D01*
X800801D01*
X802494Y-867411D01*
X804187Y-865717D01*
X807996Y-850481D02*
Y-868257D01*
Y-858946D02*
X809689Y-857253D01*
X811382Y-856406D01*
X813922D01*
X815615Y-857253D01*
X817308Y-858946D01*
X818154Y-861485D01*
Y-863178D01*
X817308Y-865717D01*
X815615Y-867411D01*
X813922Y-868257D01*
X811382D01*
X809689Y-867411D01*
X807996Y-865717D01*
X821963Y-850481D02*
Y-868257D01*
Y-850481D02*
X827889D01*
X830428Y-851327D01*
X832121Y-853020D01*
X832968Y-854713D01*
X833814Y-857253D01*
Y-861485D01*
X832968Y-864025D01*
X832121Y-865717D01*
X830428Y-867411D01*
X827889Y-868257D01*
X821963D01*
X842025Y-856406D02*
X840332Y-857253D01*
X838639Y-858946D01*
X837793Y-861485D01*
Y-863178D01*
X838639Y-865717D01*
X840332Y-867411D01*
X842025Y-868257D01*
X844565D01*
X846257Y-867411D01*
X847950Y-865717D01*
X848797Y-863178D01*
Y-861485D01*
X847950Y-858946D01*
X846257Y-857253D01*
X844565Y-856406D01*
X842025D01*
X862849Y-858946D02*
X861156Y-857253D01*
X859463Y-856406D01*
X856923D01*
X855230Y-857253D01*
X853537Y-858946D01*
X852691Y-861485D01*
Y-863178D01*
X853537Y-865717D01*
X855230Y-867411D01*
X856923Y-868257D01*
X859463D01*
X861156Y-867411D01*
X862849Y-865717D01*
X656137Y-774281D02*
X647672D01*
X646825Y-781899D01*
X647672Y-781053D01*
X650211Y-780206D01*
X652751D01*
X655290Y-781053D01*
X656983Y-782746D01*
X657830Y-785285D01*
Y-786978D01*
X656983Y-789518D01*
X655290Y-791210D01*
X652751Y-792057D01*
X650211D01*
X647672Y-791210D01*
X646825Y-790364D01*
X645979Y-788671D01*
X661808Y-794596D02*
X673659Y-774281D01*
X685002Y-776820D02*
X684156Y-775127D01*
X681616Y-774281D01*
X679923D01*
X677384Y-775127D01*
X675691Y-777667D01*
X674844Y-781899D01*
Y-786132D01*
X675691Y-789518D01*
X677384Y-791210D01*
X679923Y-792057D01*
X680770D01*
X683309Y-791210D01*
X685002Y-789518D01*
X685848Y-786978D01*
Y-786132D01*
X685002Y-783592D01*
X683309Y-781899D01*
X680770Y-781053D01*
X679923D01*
X677384Y-781899D01*
X675691Y-783592D01*
X674844Y-786132D01*
X689742Y-794596D02*
X701593Y-774281D01*
X703625Y-778513D02*
Y-777667D01*
X704471Y-775974D01*
X705318Y-775127D01*
X707011Y-774281D01*
X710396D01*
X712089Y-775127D01*
X712936Y-775974D01*
X713783Y-777667D01*
Y-779360D01*
X712936Y-781053D01*
X711243Y-783592D01*
X702778Y-792057D01*
X714629D01*
X723686Y-774281D02*
X721147Y-775127D01*
X719454Y-777667D01*
X718607Y-781899D01*
Y-784439D01*
X719454Y-788671D01*
X721147Y-791210D01*
X723686Y-792057D01*
X725379D01*
X727919Y-791210D01*
X729612Y-788671D01*
X730458Y-784439D01*
Y-781899D01*
X729612Y-777667D01*
X727919Y-775127D01*
X725379Y-774281D01*
X723686D01*
X735283Y-778513D02*
Y-777667D01*
X736130Y-775974D01*
X736976Y-775127D01*
X738669Y-774281D01*
X742055D01*
X743748Y-775127D01*
X744594Y-775974D01*
X745441Y-777667D01*
Y-779360D01*
X744594Y-781053D01*
X742902Y-783592D01*
X734437Y-792057D01*
X746288D01*
X755345Y-774281D02*
X752805Y-775127D01*
X751113Y-777667D01*
X750266Y-781899D01*
Y-784439D01*
X751113Y-788671D01*
X752805Y-791210D01*
X755345Y-792057D01*
X757038D01*
X759577Y-791210D01*
X761270Y-788671D01*
X762117Y-784439D01*
Y-781899D01*
X761270Y-777667D01*
X759577Y-775127D01*
X757038Y-774281D01*
X755345D01*
X1451664Y-922867D02*
Y-905093D01*
X1442777Y-913980D01*
X1454626D01*
X713797Y-908055D02*
X716759Y-905093D01*
X722684D01*
X725647Y-908055D01*
Y-911018D01*
X722684Y-913980D01*
X719722D01*
X722684D01*
X725647Y-916942D01*
Y-919905D01*
X722684Y-922867D01*
X716759D01*
X713797Y-919905D01*
X-5874Y-922867D02*
X-17723D01*
X-5874Y-911018D01*
Y-908055D01*
X-8836Y-905093D01*
X-14761D01*
X-17723Y-908055D01*
X-744163Y-908477D02*
X-742470Y-907630D01*
X-739930Y-905091D01*
Y-922867D01*
X715490Y974509D02*
X724801D01*
X719722Y967737D01*
X722262D01*
X723955Y966891D01*
X724801Y966044D01*
X725648Y963505D01*
Y961812D01*
X724801Y959273D01*
X723108Y957579D01*
X720569Y956733D01*
X718029D01*
X715490Y957579D01*
X714643Y958426D01*
X713797Y960119D01*
X-16876Y970277D02*
Y971123D01*
X-16030Y972816D01*
X-15184Y973663D01*
X-13491Y974509D01*
X-10105D01*
X-8412Y973663D01*
X-7565Y972816D01*
X-6719Y971123D01*
Y969430D01*
X-7565Y967737D01*
X-9258Y965198D01*
X-17723Y956733D01*
X-5872D01*
X-744163Y971123D02*
X-742470Y971970D01*
X-739930Y974509D01*
Y956733D01*
X-1087571Y-701383D02*
Y-719159D01*
Y-701383D02*
X-1081646D01*
X-1079106Y-702229D01*
X-1077413Y-703922D01*
X-1076567Y-705615D01*
X-1075720Y-708155D01*
Y-712387D01*
X-1076567Y-714927D01*
X-1077413Y-716619D01*
X-1079106Y-718313D01*
X-1081646Y-719159D01*
X-1087571D01*
X-1074874Y-225555D02*
X-1075720Y-223862D01*
X-1077413Y-222169D01*
X-1079106Y-221323D01*
X-1082492D01*
X-1084185Y-222169D01*
X-1085878Y-223862D01*
X-1086724Y-225555D01*
X-1087571Y-228095D01*
Y-232327D01*
X-1086724Y-234867D01*
X-1085878Y-236560D01*
X-1084185Y-238253D01*
X-1082492Y-239099D01*
X-1079106D01*
X-1077413Y-238253D01*
X-1075720Y-236560D01*
X-1074874Y-234867D01*
X-1087571Y263817D02*
Y246041D01*
Y263817D02*
X-1079953D01*
X-1077413Y262971D01*
X-1076567Y262124D01*
X-1075720Y260431D01*
Y258738D01*
X-1076567Y257045D01*
X-1077413Y256199D01*
X-1079953Y255352D01*
X-1087571D02*
X-1079953D01*
X-1077413Y254506D01*
X-1076567Y253659D01*
X-1075720Y251966D01*
Y249427D01*
X-1076567Y247734D01*
X-1077413Y246887D01*
X-1079953Y246041D01*
X-1087571D01*
X-1074027Y726609D02*
X-1080799Y744385D01*
X-1087571Y726609D01*
X-1085032Y732534D02*
X-1076567D01*
X1782629Y-701383D02*
Y-719159D01*
Y-701383D02*
X1788554D01*
X1791094Y-702229D01*
X1792787Y-703922D01*
X1793633Y-705615D01*
X1794480Y-708155D01*
Y-712387D01*
X1793633Y-714927D01*
X1792787Y-716619D01*
X1791094Y-718313D01*
X1788554Y-719159D01*
X1782629D01*
D69*
X407750Y578850D02*
D03*
D75*
X299500Y734050D02*
D03*
D98*
X660700Y778000D02*
D03*
X615100D02*
D03*
X592300Y763000D02*
D03*
X569500Y778000D02*
D03*
X675900D02*
D03*
D99*
X54750Y615000D02*
D03*
D100*
X734900Y248050D02*
D03*
D101*
Y273450D02*
D03*
Y298850D02*
D03*
Y324250D02*
D03*
Y349650D02*
D03*
Y375050D02*
D03*
Y400450D02*
D03*
Y425850D02*
D03*
Y451250D02*
D03*
Y476650D02*
D03*
Y502050D02*
D03*
Y527450D02*
D03*
Y552850D02*
D03*
Y578250D02*
D03*
Y603650D02*
D03*
Y629050D02*
D03*
Y654450D02*
D03*
D102*
X144400Y287500D02*
D03*
Y338300D02*
D03*
Y389100D02*
D03*
Y439900D02*
D03*
Y490700D02*
D03*
D107*
X469050Y739900D02*
D03*
X776350D02*
D03*
D109*
X107500Y690000D02*
D03*
D110*
X34750Y544300D02*
D03*
X34750Y384800D02*
D03*
D112*
X494750Y100850D02*
D03*
Y126250D02*
D03*
Y151650D02*
D03*
Y177050D02*
D03*
D113*
X408500Y381250D02*
D03*
D114*
X665500Y24500D02*
D03*
X286250Y427250D02*
D03*
X276000Y391250D02*
D03*
X147500Y176000D02*
D03*
X598750Y729000D02*
D03*
X586000Y646250D02*
D03*
X547750Y646500D02*
D03*
X578000Y685750D02*
D03*
X193750Y468250D02*
D03*
X601750Y316000D02*
D03*
X604000Y579750D02*
D03*
X230000Y659500D02*
D03*
X219500Y182250D02*
D03*
X218500Y111250D02*
D03*
X324500Y255750D02*
D03*
X439750Y369750D02*
D03*
X451000Y404250D02*
D03*
X376500Y386000D02*
D03*
X430000Y351250D02*
D03*
X469250Y331000D02*
D03*
X378500Y358750D02*
D03*
X371250Y372500D02*
D03*
X391500Y413750D02*
D03*
X380750Y547250D02*
D03*
X390500Y700500D02*
D03*
X413250Y701500D02*
D03*
X177250Y582500D02*
D03*
X175500Y606250D02*
D03*
X52000Y669500D02*
D03*
X162500Y594250D02*
D03*
X545000Y629750D02*
D03*
X518500Y642250D02*
D03*
X193750Y519000D02*
D03*
X591750Y534500D02*
D03*
X331500Y215750D02*
D03*
X368500Y257250D02*
D03*
X428000Y249750D02*
D03*
X409250Y250250D02*
D03*
X562000Y443750D02*
D03*
X439500Y444500D02*
D03*
X107250Y748500D02*
D03*
X133250D02*
D03*
X562000Y270500D02*
D03*
X615000Y84250D02*
D03*
X474000Y505750D02*
D03*
X624000Y677500D02*
D03*
X678000Y677750D02*
D03*
X520750Y755500D02*
D03*
X659250Y349250D02*
D03*
X169250Y111000D02*
D03*
X426250Y510750D02*
D03*
X627500Y215750D02*
D03*
X151000Y55500D02*
D03*
X391000Y186750D02*
D03*
X272750Y300750D02*
D03*
X199250Y426000D02*
D03*
X449750Y540000D02*
D03*
X444000Y699250D02*
D03*
X236750Y720750D02*
D03*
X724750Y726500D02*
D03*
X466750Y201000D02*
D03*
X543500Y315500D02*
D03*
X131250Y552250D02*
D03*
X403750Y40750D02*
D03*
X709000Y103750D02*
D03*
X514500Y480500D02*
D03*
X20000Y630000D02*
D03*
X90000D02*
D03*
X70000D02*
D03*
X40000D02*
D03*
X20000Y600000D02*
D03*
X40000D02*
D03*
X70000D02*
D03*
X90000D02*
D03*
X80000Y615000D02*
D03*
X30000D02*
D03*
X10000D02*
D03*
X100000D02*
D03*
X231500Y585750D02*
D03*
X246000Y598250D02*
D03*
X543500Y381000D02*
D03*
X655000Y476000D02*
D03*
D115*
X301000Y529500D02*
D03*
D116*
X429500Y381000D02*
G03*
X429500Y381000I-21000J0D01*
G01*
X310500Y529500D02*
G03*
X310500Y529500I-9500J0D01*
G01*
D117*
X107500Y691625D02*
D03*
M02*
