G04*
G04 #@! TF.GenerationSoftware,Altium Limited,Altium Designer,20.1.7 (139)*
G04*
G04 Layer_Color=128*
%FSLAX44Y44*%
%MOMM*%
G71*
G04*
G04 #@! TF.SameCoordinates,35BF2D9B-2704-4646-8845-34ABFBBC40B6*
G04*
G04*
G04 #@! TF.FilePolarity,Positive*
G04*
G01*
G75*
%ADD11C,0.2500*%
%ADD22C,0.1270*%
%ADD23C,0.1778*%
%ADD124C,0.0508*%
G36*
X410400Y-780000D02*
X399300D01*
X384600Y-703100D01*
X394500D01*
X403300Y-749000D01*
Y-749100D01*
X403400Y-749500D01*
X403500Y-750200D01*
X403700Y-751100D01*
X403900Y-752100D01*
X404100Y-753400D01*
X404400Y-754700D01*
X404700Y-756200D01*
X405200Y-759400D01*
X405800Y-762700D01*
X406200Y-766100D01*
X406400Y-767600D01*
X406600Y-769100D01*
X406700Y-769000D01*
X406800Y-768700D01*
X407100Y-768200D01*
X407400Y-767500D01*
X407800Y-766600D01*
X408300Y-765700D01*
X408800Y-764600D01*
X409400Y-763500D01*
X410600Y-761000D01*
X412000Y-758400D01*
X413300Y-755800D01*
X414500Y-753500D01*
X441900Y-703100D01*
X452400D01*
X410400Y-780000D01*
D02*
G37*
G36*
X561399Y-703200D02*
X563200Y-703300D01*
X565299Y-703400D01*
X567399Y-703600D01*
X569399Y-704000D01*
X571199Y-704400D01*
X571299D01*
X571499Y-704500D01*
X571799Y-704600D01*
X572299Y-704700D01*
X573399Y-705100D01*
X574899Y-705700D01*
X576599Y-706500D01*
X578399Y-707500D01*
X580199Y-708700D01*
X581899Y-710200D01*
X581999D01*
X582099Y-710400D01*
X582599Y-710900D01*
X583399Y-711800D01*
X584399Y-713000D01*
X585499Y-714500D01*
X586699Y-716300D01*
X587799Y-718300D01*
X588699Y-720600D01*
Y-720700D01*
X588799Y-720900D01*
X588899Y-721200D01*
X589099Y-721700D01*
X589199Y-722300D01*
X589399Y-723000D01*
X589599Y-723800D01*
X589899Y-724700D01*
X590299Y-726700D01*
X590599Y-729100D01*
X590899Y-731800D01*
X590999Y-734600D01*
Y-734700D01*
Y-735000D01*
Y-735500D01*
Y-736200D01*
X590899Y-737000D01*
Y-737900D01*
X590799Y-739000D01*
X590599Y-740200D01*
X590299Y-742800D01*
X589799Y-745600D01*
X589099Y-748600D01*
X588099Y-751500D01*
Y-751600D01*
X587999Y-751800D01*
X587799Y-752200D01*
X587599Y-752800D01*
X587299Y-753400D01*
X586999Y-754200D01*
X586099Y-756000D01*
X585099Y-758100D01*
X583799Y-760400D01*
X582399Y-762700D01*
X580799Y-764900D01*
Y-765000D01*
X580599Y-765200D01*
X580399Y-765500D01*
X579999Y-765900D01*
X579099Y-766900D01*
X577899Y-768200D01*
X576499Y-769700D01*
X574899Y-771200D01*
X573099Y-772700D01*
X571299Y-774000D01*
X571199D01*
X571099Y-774100D01*
X570799Y-774300D01*
X570399Y-774500D01*
X569399Y-775100D01*
X567999Y-775800D01*
X566300Y-776600D01*
X564300Y-777400D01*
X562099Y-778200D01*
X559599Y-778800D01*
X559399D01*
X559100Y-778900D01*
X558699Y-779000D01*
X558200Y-779100D01*
X557599Y-779200D01*
X556100Y-779400D01*
X554199Y-779600D01*
X552099Y-779800D01*
X549599Y-779900D01*
X546899Y-780000D01*
X519300D01*
X535299Y-703100D01*
X560600D01*
X561399Y-703200D01*
D02*
G37*
G36*
X517500Y-711800D02*
X471900D01*
X466900Y-735800D01*
X511600D01*
X509800Y-744500D01*
X465100D01*
X459500Y-771300D01*
X508100D01*
X506300Y-780000D01*
X447500D01*
X463600Y-703100D01*
X519300D01*
X517500Y-711800D01*
D02*
G37*
G36*
X365900Y-780000D02*
X355900D01*
X352200Y-757900D01*
X321100D01*
X308800Y-780000D01*
X297500D01*
X340900Y-703100D01*
X353200D01*
X365900Y-780000D01*
D02*
G37*
%LPC*%
G36*
X557399Y-711800D02*
X543699D01*
X531300Y-771300D01*
X545600D01*
X546399Y-771200D01*
X547399D01*
X548400Y-771100D01*
X550700Y-770900D01*
X553200Y-770700D01*
X555700Y-770300D01*
X558200Y-769800D01*
X558400D01*
X558899Y-769600D01*
X559599Y-769400D01*
X560499Y-769100D01*
X561600Y-768700D01*
X562700Y-768300D01*
X565000Y-767100D01*
X565200Y-767000D01*
X565600Y-766700D01*
X566300Y-766100D01*
X567199Y-765400D01*
X568299Y-764500D01*
X569399Y-763400D01*
X570599Y-762200D01*
X571799Y-760800D01*
Y-760700D01*
X571999Y-760600D01*
X572199Y-760300D01*
X572499Y-759900D01*
X573199Y-758800D01*
X574099Y-757400D01*
X575099Y-755700D01*
X576199Y-753700D01*
X577199Y-751500D01*
X578199Y-749100D01*
Y-749000D01*
X578299Y-748800D01*
X578399Y-748400D01*
X578599Y-747900D01*
X578799Y-747300D01*
X578999Y-746600D01*
X579199Y-745700D01*
X579399Y-744700D01*
X579799Y-742500D01*
X580199Y-740000D01*
X580499Y-737200D01*
X580599Y-734100D01*
Y-734000D01*
Y-733700D01*
Y-733200D01*
Y-732500D01*
X580499Y-731800D01*
X580399Y-730900D01*
X580199Y-728800D01*
X579799Y-726500D01*
X579199Y-724100D01*
X578399Y-721800D01*
X577899Y-720700D01*
X577299Y-719700D01*
Y-719600D01*
X577199Y-719500D01*
X576699Y-718900D01*
X575999Y-718000D01*
X574999Y-717000D01*
X573799Y-715900D01*
X572399Y-714800D01*
X570799Y-713800D01*
X568999Y-713100D01*
X568799Y-713000D01*
X568299Y-712900D01*
X567399Y-712700D01*
X566100Y-712400D01*
X564500Y-712200D01*
X562500Y-712000D01*
X560099Y-711900D01*
X557399Y-711800D01*
D02*
G37*
G36*
X345800Y-711500D02*
Y-711600D01*
X345700Y-711800D01*
X345500Y-712200D01*
X345300Y-712700D01*
X345000Y-713300D01*
X344700Y-714100D01*
X344300Y-715000D01*
X343900Y-716000D01*
X343400Y-717100D01*
X342800Y-718300D01*
X341500Y-720900D01*
X339900Y-723900D01*
X338100Y-727200D01*
X325500Y-750000D01*
X351000D01*
X348000Y-730700D01*
Y-730600D01*
X347900Y-730200D01*
X347800Y-729600D01*
X347700Y-728800D01*
X347600Y-727800D01*
X347400Y-726700D01*
X347200Y-725400D01*
X347100Y-724000D01*
X346700Y-721000D01*
X346300Y-717700D01*
X346000Y-714500D01*
X345800Y-711500D01*
D02*
G37*
%LPD*%
D11*
X1620069Y-763933D02*
Y-777262D01*
X1626734Y-783927D01*
X1633398Y-777262D01*
Y-763933D01*
X1640063Y-783927D02*
X1646727D01*
X1643395D01*
Y-763933D01*
X1640063Y-767266D01*
X751069Y-689933D02*
Y-709927D01*
X761066D01*
X764398Y-706595D01*
Y-693266D01*
X761066Y-689933D01*
X751069D01*
X771063Y-709927D02*
Y-696598D01*
X777727Y-689933D01*
X784392Y-696598D01*
Y-709927D01*
Y-699930D01*
X771063D01*
X791056Y-709927D02*
Y-689933D01*
X801053D01*
X804385Y-693266D01*
Y-699930D01*
X801053Y-703262D01*
X791056D01*
X797721D02*
X804385Y-709927D01*
X749069Y-613933D02*
Y-633927D01*
X759066D01*
X762398Y-630595D01*
Y-617266D01*
X759066Y-613933D01*
X749069D01*
X769063Y-633927D02*
Y-620598D01*
X775727Y-613933D01*
X782392Y-620598D01*
Y-633927D01*
Y-623930D01*
X769063D01*
X789056Y-633927D02*
Y-613933D01*
X799053D01*
X802385Y-617266D01*
Y-623930D01*
X799053Y-627262D01*
X789056D01*
X795721D02*
X802385Y-633927D01*
X1089069Y-640927D02*
Y-620933D01*
X1095733Y-627598D01*
X1102398Y-620933D01*
Y-640927D01*
X1109063Y-620933D02*
Y-640927D01*
X1119059D01*
X1122392Y-637595D01*
Y-634263D01*
X1119059Y-630930D01*
X1109063D01*
X1119059D01*
X1122392Y-627598D01*
Y-624266D01*
X1119059Y-620933D01*
X1109063D01*
X1142385Y-640927D02*
X1129056D01*
X1142385Y-627598D01*
Y-624266D01*
X1139053Y-620933D01*
X1132388D01*
X1129056Y-624266D01*
X1149050Y-620933D02*
Y-640927D01*
Y-634263D01*
X1162379Y-620933D01*
X1152382Y-630930D01*
X1162379Y-640927D01*
X1182372D02*
X1169043D01*
X1182372Y-627598D01*
Y-624266D01*
X1179040Y-620933D01*
X1172375D01*
X1169043Y-624266D01*
X1209030Y-620933D02*
Y-634263D01*
X1215695Y-640927D01*
X1222359Y-634263D01*
Y-620933D01*
X1229024Y-640927D02*
X1235688D01*
X1232356D01*
Y-620933D01*
X1229024Y-624266D01*
X1245685Y-640927D02*
Y-627598D01*
X1252350Y-620933D01*
X1259014Y-627598D01*
Y-640927D01*
Y-630930D01*
X1245685D01*
D22*
X1084129Y-939377D02*
Y-888577D01*
X1001579D02*
Y-736177D01*
X1534979Y-888577D02*
Y-736177D01*
X620579Y-888577D02*
Y-583777D01*
X1763579Y-888577D02*
Y-583777D01*
X1001579D02*
X1763579D01*
X1001579Y-736177D02*
Y-583777D01*
X620579D02*
X1001579D01*
X620579Y-736177D02*
X1763579D01*
X620579Y-812377D02*
X1763579D01*
X620579Y-888577D02*
X1763579D01*
X620579Y-659977D02*
X1001579D01*
X264979Y-583777D02*
X620579D01*
X264979Y-888577D02*
Y-583777D01*
Y-888577D02*
X620579D01*
X353879Y-939377D02*
Y-888577D01*
X-376371Y-939377D02*
Y-888577D01*
X-1106621Y-456777D02*
X-1055821D01*
X-1106621Y25823D02*
X-1055821D01*
X-1106621Y508423D02*
X-1055821D01*
X-1106621Y-939377D02*
Y991023D01*
X1763579Y-456777D02*
X1814379D01*
X353879Y940223D02*
Y991023D01*
X-376371Y940223D02*
Y991023D01*
X-1055821Y940223D02*
X1763579D01*
Y-888577D02*
Y940223D01*
X-1055821Y-888577D02*
X1763579D01*
X-1055821D02*
Y940223D01*
X-1106621Y991023D02*
X1814379D01*
Y-939377D02*
Y991023D01*
X-1106621Y-939377D02*
X1814379D01*
X1555297Y-827982D02*
X1554209Y-826894D01*
X1552576Y-826349D01*
X1550400D01*
X1548767Y-826894D01*
X1547679Y-827982D01*
Y-829070D01*
X1548223Y-830159D01*
X1548767Y-830703D01*
X1549856Y-831247D01*
X1553121Y-832335D01*
X1554209Y-832879D01*
X1554753Y-833424D01*
X1555297Y-834512D01*
Y-836144D01*
X1554209Y-837233D01*
X1552576Y-837777D01*
X1550400D01*
X1548767Y-837233D01*
X1547679Y-836144D01*
X1566017Y-829070D02*
X1565473Y-827982D01*
X1564385Y-826894D01*
X1563297Y-826349D01*
X1561120D01*
X1560032Y-826894D01*
X1558943Y-827982D01*
X1558399Y-829070D01*
X1557855Y-830703D01*
Y-833424D01*
X1558399Y-835056D01*
X1558943Y-836144D01*
X1560032Y-837233D01*
X1561120Y-837777D01*
X1563297D01*
X1564385Y-837233D01*
X1565473Y-836144D01*
X1566017Y-835056D01*
X1577935Y-837777D02*
X1573582Y-826349D01*
X1569228Y-837777D01*
X1570861Y-833968D02*
X1576302D01*
X1580601Y-826349D02*
Y-837777D01*
X1587131D01*
X1595457Y-826349D02*
X1588383D01*
Y-837777D01*
X1595457D01*
X1588383Y-831791D02*
X1592736D01*
X1597906Y-830159D02*
X1597362Y-830703D01*
X1597906Y-831247D01*
X1598450Y-830703D01*
X1597906Y-830159D01*
Y-836689D02*
X1597362Y-837233D01*
X1597906Y-837777D01*
X1598450Y-837233D01*
X1597906Y-836689D01*
X633279Y-826349D02*
Y-837777D01*
Y-826349D02*
X640353D01*
X633279Y-831791D02*
X637632D01*
X641659Y-826349D02*
Y-837777D01*
X644054Y-826349D02*
Y-837777D01*
X650584D01*
X658909Y-826349D02*
X651835D01*
Y-837777D01*
X658909D01*
X651835Y-831791D02*
X656189D01*
X669793Y-826349D02*
Y-837777D01*
Y-826349D02*
X677411Y-837777D01*
Y-826349D02*
Y-837777D01*
X689274D02*
X684921Y-826349D01*
X680567Y-837777D01*
X682200Y-833968D02*
X687642D01*
X691941Y-826349D02*
Y-837777D01*
Y-826349D02*
X696294Y-837777D01*
X700647Y-826349D02*
X696294Y-837777D01*
X700647Y-826349D02*
Y-837777D01*
X710986Y-826349D02*
X703912D01*
Y-837777D01*
X710986D01*
X703912Y-831791D02*
X708266D01*
X713435Y-830159D02*
X712891Y-830703D01*
X713435Y-831247D01*
X713979Y-830703D01*
X713435Y-830159D01*
Y-836689D02*
X712891Y-837233D01*
X713435Y-837777D01*
X713979Y-837233D01*
X713435Y-836689D01*
X633279Y-678665D02*
X638176D01*
X639809Y-678121D01*
X640353Y-677577D01*
X640897Y-676489D01*
Y-674856D01*
X640353Y-673768D01*
X639809Y-673224D01*
X638176Y-672680D01*
X633279D01*
Y-684107D01*
X651618Y-675400D02*
X651073Y-674312D01*
X649985Y-673224D01*
X648897Y-672680D01*
X646720D01*
X645632Y-673224D01*
X644543Y-674312D01*
X643999Y-675400D01*
X643455Y-677033D01*
Y-679754D01*
X643999Y-681386D01*
X644543Y-682475D01*
X645632Y-683563D01*
X646720Y-684107D01*
X648897D01*
X649985Y-683563D01*
X651073Y-682475D01*
X651618Y-681386D01*
X654828Y-672680D02*
Y-684107D01*
Y-672680D02*
X659726D01*
X661358Y-673224D01*
X661902Y-673768D01*
X662447Y-674856D01*
Y-675945D01*
X661902Y-677033D01*
X661358Y-677577D01*
X659726Y-678121D01*
X654828D02*
X659726D01*
X661358Y-678665D01*
X661902Y-679210D01*
X662447Y-680298D01*
Y-681930D01*
X661902Y-683019D01*
X661358Y-683563D01*
X659726Y-684107D01*
X654828D01*
X673983Y-672680D02*
Y-684107D01*
Y-672680D02*
X677792D01*
X679425Y-673224D01*
X680513Y-674312D01*
X681057Y-675400D01*
X681601Y-677033D01*
Y-679754D01*
X681057Y-681386D01*
X680513Y-682475D01*
X679425Y-683563D01*
X677792Y-684107D01*
X673983D01*
X691233Y-672680D02*
X684159D01*
Y-684107D01*
X691233D01*
X684159Y-678121D02*
X688512D01*
X700756Y-674312D02*
X699668Y-673224D01*
X698035Y-672680D01*
X695859D01*
X694226Y-673224D01*
X693138Y-674312D01*
Y-675400D01*
X693682Y-676489D01*
X694226Y-677033D01*
X695314Y-677577D01*
X698579Y-678665D01*
X699668Y-679210D01*
X700212Y-679754D01*
X700756Y-680842D01*
Y-682475D01*
X699668Y-683563D01*
X698035Y-684107D01*
X695859D01*
X694226Y-683563D01*
X693138Y-682475D01*
X703314Y-672680D02*
Y-684107D01*
X713870Y-675400D02*
X713326Y-674312D01*
X712238Y-673224D01*
X711150Y-672680D01*
X708973D01*
X707885Y-673224D01*
X706796Y-674312D01*
X706252Y-675400D01*
X705708Y-677033D01*
Y-679754D01*
X706252Y-681386D01*
X706796Y-682475D01*
X707885Y-683563D01*
X708973Y-684107D01*
X711150D01*
X712238Y-683563D01*
X713326Y-682475D01*
X713870Y-681386D01*
Y-679754D01*
X711150D02*
X713870D01*
X716482Y-672680D02*
Y-684107D01*
Y-672680D02*
X724101Y-684107D01*
Y-672680D02*
Y-684107D01*
X734331Y-672680D02*
X727257D01*
Y-684107D01*
X734331D01*
X727257Y-678121D02*
X731610D01*
X736236Y-672680D02*
Y-684107D01*
Y-672680D02*
X741133D01*
X742766Y-673224D01*
X743310Y-673768D01*
X743854Y-674856D01*
Y-675945D01*
X743310Y-677033D01*
X742766Y-677577D01*
X741133Y-678121D01*
X736236D01*
X740045D02*
X743854Y-684107D01*
X746956Y-676489D02*
X746412Y-677033D01*
X746956Y-677577D01*
X747500Y-677033D01*
X746956Y-676489D01*
Y-683019D02*
X746412Y-683563D01*
X746956Y-684107D01*
X747500Y-683563D01*
X746956Y-683019D01*
X1018088Y-597749D02*
Y-609177D01*
X1014279Y-597749D02*
X1021897D01*
X1023258D02*
Y-609177D01*
X1029461Y-597749D02*
Y-609177D01*
X1025652Y-597749D02*
X1033271D01*
X1034631D02*
Y-609177D01*
X1041161D01*
X1049487Y-597749D02*
X1042413D01*
Y-609177D01*
X1049487D01*
X1042413Y-603191D02*
X1046766D01*
X1051936Y-601559D02*
X1051391Y-602103D01*
X1051936Y-602647D01*
X1052480Y-602103D01*
X1051936Y-601559D01*
Y-608089D02*
X1051391Y-608633D01*
X1051936Y-609177D01*
X1052480Y-608633D01*
X1051936Y-608089D01*
X1014279Y-756135D02*
X1019176D01*
X1020809Y-755591D01*
X1021353Y-755047D01*
X1021897Y-753959D01*
Y-752326D01*
X1021353Y-751238D01*
X1020809Y-750694D01*
X1019176Y-750150D01*
X1014279D01*
Y-761577D01*
X1033162D02*
X1028808Y-750150D01*
X1024455Y-761577D01*
X1026087Y-757768D02*
X1031529D01*
X1035828Y-750150D02*
Y-761577D01*
Y-750150D02*
X1040726D01*
X1042358Y-750694D01*
X1042902Y-751238D01*
X1043447Y-752326D01*
Y-753415D01*
X1042902Y-754503D01*
X1042358Y-755047D01*
X1040726Y-755591D01*
X1035828D01*
X1039637D02*
X1043447Y-761577D01*
X1049813Y-750150D02*
Y-761577D01*
X1046004Y-750150D02*
X1053622D01*
X1063962D02*
Y-761577D01*
Y-750150D02*
X1071580Y-761577D01*
Y-750150D02*
Y-761577D01*
X1078001Y-750150D02*
X1076913Y-750694D01*
X1075825Y-751782D01*
X1075280Y-752870D01*
X1074736Y-754503D01*
Y-757224D01*
X1075280Y-758856D01*
X1075825Y-759945D01*
X1076913Y-761033D01*
X1078001Y-761577D01*
X1080178D01*
X1081266Y-761033D01*
X1082355Y-759945D01*
X1082899Y-758856D01*
X1083443Y-757224D01*
Y-754503D01*
X1082899Y-752870D01*
X1082355Y-751782D01*
X1081266Y-750694D01*
X1080178Y-750150D01*
X1078001D01*
X1086654Y-760489D02*
X1086109Y-761033D01*
X1086654Y-761577D01*
X1087198Y-761033D01*
X1086654Y-760489D01*
X1090245Y-753959D02*
X1089701Y-754503D01*
X1090245Y-755047D01*
X1090789Y-754503D01*
X1090245Y-753959D01*
Y-760489D02*
X1089701Y-761033D01*
X1090245Y-761577D01*
X1090789Y-761033D01*
X1090245Y-760489D01*
X640353Y-597749D02*
X633279D01*
Y-609177D01*
X640353D01*
X633279Y-603191D02*
X637632D01*
X642258Y-597749D02*
Y-609177D01*
Y-597749D02*
X649876Y-609177D01*
Y-597749D02*
Y-609177D01*
X661195Y-600470D02*
X660651Y-599382D01*
X659562Y-598294D01*
X658474Y-597749D01*
X656297D01*
X655209Y-598294D01*
X654121Y-599382D01*
X653577Y-600470D01*
X653032Y-602103D01*
Y-604824D01*
X653577Y-606456D01*
X654121Y-607545D01*
X655209Y-608633D01*
X656297Y-609177D01*
X658474D01*
X659562Y-608633D01*
X660651Y-607545D01*
X661195Y-606456D01*
Y-604824D01*
X658474D02*
X661195D01*
X663807Y-597749D02*
Y-609177D01*
X666201Y-597749D02*
Y-609177D01*
Y-597749D02*
X673820Y-609177D01*
Y-597749D02*
Y-609177D01*
X684050Y-597749D02*
X676976D01*
Y-609177D01*
X684050D01*
X676976Y-603191D02*
X681329D01*
X693029Y-597749D02*
X685955D01*
Y-609177D01*
X693029D01*
X685955Y-603191D02*
X690308D01*
X694933Y-597749D02*
Y-609177D01*
Y-597749D02*
X699831D01*
X701463Y-598294D01*
X702008Y-598838D01*
X702552Y-599926D01*
Y-601015D01*
X702008Y-602103D01*
X701463Y-602647D01*
X699831Y-603191D01*
X694933D01*
X698743D02*
X702552Y-609177D01*
X705654Y-601559D02*
X705109Y-602103D01*
X705654Y-602647D01*
X706198Y-602103D01*
X705654Y-601559D01*
Y-608089D02*
X705109Y-608633D01*
X705654Y-609177D01*
X706198Y-608633D01*
X705654Y-608089D01*
X1014279Y-826349D02*
Y-837777D01*
Y-826349D02*
X1018088D01*
X1019721Y-826894D01*
X1020809Y-827982D01*
X1021353Y-829070D01*
X1021897Y-830703D01*
Y-833424D01*
X1021353Y-835056D01*
X1020809Y-836144D01*
X1019721Y-837233D01*
X1018088Y-837777D01*
X1014279D01*
X1024455Y-826349D02*
X1027176Y-837777D01*
X1029897Y-826349D02*
X1027176Y-837777D01*
X1029897Y-826349D02*
X1032617Y-837777D01*
X1035338Y-826349D02*
X1032617Y-837777D01*
X1045786Y-829070D02*
X1045242Y-827982D01*
X1044154Y-826894D01*
X1043066Y-826349D01*
X1040889D01*
X1039800Y-826894D01*
X1038712Y-827982D01*
X1038168Y-829070D01*
X1037624Y-830703D01*
Y-833424D01*
X1038168Y-835056D01*
X1038712Y-836144D01*
X1039800Y-837233D01*
X1040889Y-837777D01*
X1043066D01*
X1044154Y-837233D01*
X1045242Y-836144D01*
X1045786Y-835056D01*
Y-833424D01*
X1043066D02*
X1045786D01*
X1057377Y-826349D02*
Y-837777D01*
Y-826349D02*
X1064996Y-837777D01*
Y-826349D02*
Y-837777D01*
X1071417Y-826349D02*
X1070328Y-826894D01*
X1069240Y-827982D01*
X1068696Y-829070D01*
X1068152Y-830703D01*
Y-833424D01*
X1068696Y-835056D01*
X1069240Y-836144D01*
X1070328Y-837233D01*
X1071417Y-837777D01*
X1073594D01*
X1074682Y-837233D01*
X1075770Y-836144D01*
X1076314Y-835056D01*
X1076859Y-833424D01*
Y-830703D01*
X1076314Y-829070D01*
X1075770Y-827982D01*
X1074682Y-826894D01*
X1073594Y-826349D01*
X1071417D01*
X1080069Y-830159D02*
X1079525Y-830703D01*
X1080069Y-831247D01*
X1080613Y-830703D01*
X1080069Y-830159D01*
Y-836689D02*
X1079525Y-837233D01*
X1080069Y-837777D01*
X1080613Y-837233D01*
X1080069Y-836689D01*
X1547679Y-750150D02*
Y-761577D01*
Y-750150D02*
X1552576D01*
X1554209Y-750694D01*
X1554753Y-751238D01*
X1555297Y-752326D01*
Y-753415D01*
X1554753Y-754503D01*
X1554209Y-755047D01*
X1552576Y-755591D01*
X1547679D01*
X1551488D02*
X1555297Y-761577D01*
X1564929Y-750150D02*
X1557855D01*
Y-761577D01*
X1564929D01*
X1557855Y-755591D02*
X1562208D01*
X1566834Y-750150D02*
X1571187Y-761577D01*
X1575540Y-750150D02*
X1571187Y-761577D01*
X1577554Y-753959D02*
X1577010Y-754503D01*
X1577554Y-755047D01*
X1578098Y-754503D01*
X1577554Y-753959D01*
Y-760489D02*
X1577010Y-761033D01*
X1577554Y-761577D01*
X1578098Y-761033D01*
X1577554Y-760489D01*
X633279Y-750150D02*
Y-761577D01*
Y-750150D02*
X637088D01*
X638721Y-750694D01*
X639809Y-751782D01*
X640353Y-752870D01*
X640897Y-754503D01*
Y-757224D01*
X640353Y-758856D01*
X639809Y-759945D01*
X638721Y-761033D01*
X637088Y-761577D01*
X633279D01*
X652162D02*
X647808Y-750150D01*
X643455Y-761577D01*
X645088Y-757768D02*
X650529D01*
X658637Y-750150D02*
Y-761577D01*
X654828Y-750150D02*
X662447D01*
X670881D02*
X663807D01*
Y-761577D01*
X670881D01*
X663807Y-755591D02*
X668160D01*
X673330Y-753959D02*
X672786Y-754503D01*
X673330Y-755047D01*
X673874Y-754503D01*
X673330Y-753959D01*
Y-760489D02*
X672786Y-761033D01*
X673330Y-761577D01*
X673874Y-761033D01*
X673330Y-760489D01*
D23*
X645979Y-850481D02*
Y-868257D01*
Y-850481D02*
X652751Y-868257D01*
X659523Y-850481D02*
X652751Y-868257D01*
X659523Y-850481D02*
Y-868257D01*
X664602Y-850481D02*
Y-868257D01*
Y-850481D02*
X672220D01*
X674760Y-851327D01*
X675606Y-852174D01*
X676452Y-853867D01*
Y-855560D01*
X675606Y-857253D01*
X674760Y-858099D01*
X672220Y-858946D01*
X664602D02*
X672220D01*
X674760Y-859792D01*
X675606Y-860639D01*
X676452Y-862332D01*
Y-864871D01*
X675606Y-866564D01*
X674760Y-867411D01*
X672220Y-868257D01*
X664602D01*
X681277Y-854713D02*
Y-853867D01*
X682124Y-852174D01*
X682970Y-851327D01*
X684663Y-850481D01*
X688049D01*
X689742Y-851327D01*
X690589Y-852174D01*
X691435Y-853867D01*
Y-855560D01*
X690589Y-857253D01*
X688896Y-859792D01*
X680431Y-868257D01*
X692282D01*
X696260Y-850481D02*
Y-868257D01*
X708111Y-850481D02*
X696260Y-862332D01*
X700493Y-858099D02*
X708111Y-868257D01*
X712936Y-854713D02*
Y-853867D01*
X713783Y-852174D01*
X714629Y-851327D01*
X716322Y-850481D01*
X719708D01*
X721401Y-851327D01*
X722247Y-852174D01*
X723094Y-853867D01*
Y-855560D01*
X722247Y-857253D01*
X720554Y-859792D01*
X712089Y-868257D01*
X723940D01*
X727919Y-874182D02*
X741463D01*
X743748Y-850481D02*
X750520Y-868257D01*
X757292Y-850481D02*
X750520Y-868257D01*
X759577Y-853867D02*
X761270Y-853020D01*
X763810Y-850481D01*
Y-868257D01*
X773460Y-866564D02*
X772613Y-867411D01*
X773460Y-868257D01*
X774306Y-867411D01*
X773460Y-866564D01*
X778200Y-859792D02*
X785818D01*
X788358Y-858946D01*
X789204Y-858099D01*
X790051Y-856406D01*
Y-853867D01*
X789204Y-852174D01*
X788358Y-851327D01*
X785818Y-850481D01*
X778200D01*
Y-868257D01*
X804187Y-858946D02*
X802494Y-857253D01*
X800801Y-856406D01*
X798262D01*
X796569Y-857253D01*
X794876Y-858946D01*
X794029Y-861485D01*
Y-863178D01*
X794876Y-865717D01*
X796569Y-867411D01*
X798262Y-868257D01*
X800801D01*
X802494Y-867411D01*
X804187Y-865717D01*
X807996Y-850481D02*
Y-868257D01*
Y-858946D02*
X809689Y-857253D01*
X811382Y-856406D01*
X813922D01*
X815615Y-857253D01*
X817308Y-858946D01*
X818154Y-861485D01*
Y-863178D01*
X817308Y-865717D01*
X815615Y-867411D01*
X813922Y-868257D01*
X811382D01*
X809689Y-867411D01*
X807996Y-865717D01*
X821963Y-850481D02*
Y-868257D01*
Y-850481D02*
X827889D01*
X830428Y-851327D01*
X832121Y-853020D01*
X832968Y-854713D01*
X833814Y-857253D01*
Y-861485D01*
X832968Y-864025D01*
X832121Y-865717D01*
X830428Y-867411D01*
X827889Y-868257D01*
X821963D01*
X842025Y-856406D02*
X840332Y-857253D01*
X838639Y-858946D01*
X837793Y-861485D01*
Y-863178D01*
X838639Y-865717D01*
X840332Y-867411D01*
X842025Y-868257D01*
X844565D01*
X846257Y-867411D01*
X847950Y-865717D01*
X848797Y-863178D01*
Y-861485D01*
X847950Y-858946D01*
X846257Y-857253D01*
X844565Y-856406D01*
X842025D01*
X862849Y-858946D02*
X861156Y-857253D01*
X859463Y-856406D01*
X856923D01*
X855230Y-857253D01*
X853537Y-858946D01*
X852691Y-861485D01*
Y-863178D01*
X853537Y-865717D01*
X855230Y-867411D01*
X856923Y-868257D01*
X859463D01*
X861156Y-867411D01*
X862849Y-865717D01*
X656137Y-774281D02*
X647672D01*
X646825Y-781899D01*
X647672Y-781053D01*
X650211Y-780206D01*
X652751D01*
X655290Y-781053D01*
X656983Y-782746D01*
X657830Y-785285D01*
Y-786978D01*
X656983Y-789518D01*
X655290Y-791210D01*
X652751Y-792057D01*
X650211D01*
X647672Y-791210D01*
X646825Y-790364D01*
X645979Y-788671D01*
X661808Y-794596D02*
X673659Y-774281D01*
X685002Y-776820D02*
X684156Y-775127D01*
X681616Y-774281D01*
X679923D01*
X677384Y-775127D01*
X675691Y-777667D01*
X674844Y-781899D01*
Y-786132D01*
X675691Y-789518D01*
X677384Y-791210D01*
X679923Y-792057D01*
X680770D01*
X683309Y-791210D01*
X685002Y-789518D01*
X685848Y-786978D01*
Y-786132D01*
X685002Y-783592D01*
X683309Y-781899D01*
X680770Y-781053D01*
X679923D01*
X677384Y-781899D01*
X675691Y-783592D01*
X674844Y-786132D01*
X689742Y-794596D02*
X701593Y-774281D01*
X703625Y-778513D02*
Y-777667D01*
X704471Y-775974D01*
X705318Y-775127D01*
X707011Y-774281D01*
X710396D01*
X712089Y-775127D01*
X712936Y-775974D01*
X713783Y-777667D01*
Y-779360D01*
X712936Y-781053D01*
X711243Y-783592D01*
X702778Y-792057D01*
X714629D01*
X723686Y-774281D02*
X721147Y-775127D01*
X719454Y-777667D01*
X718607Y-781899D01*
Y-784439D01*
X719454Y-788671D01*
X721147Y-791210D01*
X723686Y-792057D01*
X725379D01*
X727919Y-791210D01*
X729612Y-788671D01*
X730458Y-784439D01*
Y-781899D01*
X729612Y-777667D01*
X727919Y-775127D01*
X725379Y-774281D01*
X723686D01*
X735283Y-778513D02*
Y-777667D01*
X736130Y-775974D01*
X736976Y-775127D01*
X738669Y-774281D01*
X742055D01*
X743748Y-775127D01*
X744594Y-775974D01*
X745441Y-777667D01*
Y-779360D01*
X744594Y-781053D01*
X742902Y-783592D01*
X734437Y-792057D01*
X746288D01*
X755345Y-774281D02*
X752805Y-775127D01*
X751113Y-777667D01*
X750266Y-781899D01*
Y-784439D01*
X751113Y-788671D01*
X752805Y-791210D01*
X755345Y-792057D01*
X757038D01*
X759577Y-791210D01*
X761270Y-788671D01*
X762117Y-784439D01*
Y-781899D01*
X761270Y-777667D01*
X759577Y-775127D01*
X757038Y-774281D01*
X755345D01*
X1451664Y-922867D02*
Y-905093D01*
X1442777Y-913980D01*
X1454626D01*
X713797Y-908055D02*
X716759Y-905093D01*
X722684D01*
X725647Y-908055D01*
Y-911018D01*
X722684Y-913980D01*
X719722D01*
X722684D01*
X725647Y-916942D01*
Y-919905D01*
X722684Y-922867D01*
X716759D01*
X713797Y-919905D01*
X-5874Y-922867D02*
X-17723D01*
X-5874Y-911018D01*
Y-908055D01*
X-8836Y-905093D01*
X-14761D01*
X-17723Y-908055D01*
X-744163Y-908477D02*
X-742470Y-907630D01*
X-739930Y-905091D01*
Y-922867D01*
X715490Y974509D02*
X724801D01*
X719722Y967737D01*
X722262D01*
X723955Y966891D01*
X724801Y966044D01*
X725648Y963505D01*
Y961812D01*
X724801Y959273D01*
X723108Y957579D01*
X720569Y956733D01*
X718029D01*
X715490Y957579D01*
X714643Y958426D01*
X713797Y960119D01*
X-16876Y970277D02*
Y971123D01*
X-16030Y972816D01*
X-15184Y973663D01*
X-13491Y974509D01*
X-10105D01*
X-8412Y973663D01*
X-7565Y972816D01*
X-6719Y971123D01*
Y969430D01*
X-7565Y967737D01*
X-9258Y965198D01*
X-17723Y956733D01*
X-5872D01*
X-744163Y971123D02*
X-742470Y971970D01*
X-739930Y974509D01*
Y956733D01*
X-1087571Y-701383D02*
Y-719159D01*
Y-701383D02*
X-1081646D01*
X-1079106Y-702229D01*
X-1077413Y-703922D01*
X-1076567Y-705615D01*
X-1075720Y-708155D01*
Y-712387D01*
X-1076567Y-714927D01*
X-1077413Y-716619D01*
X-1079106Y-718313D01*
X-1081646Y-719159D01*
X-1087571D01*
X-1074874Y-225555D02*
X-1075720Y-223862D01*
X-1077413Y-222169D01*
X-1079106Y-221323D01*
X-1082492D01*
X-1084185Y-222169D01*
X-1085878Y-223862D01*
X-1086724Y-225555D01*
X-1087571Y-228095D01*
Y-232327D01*
X-1086724Y-234867D01*
X-1085878Y-236560D01*
X-1084185Y-238253D01*
X-1082492Y-239099D01*
X-1079106D01*
X-1077413Y-238253D01*
X-1075720Y-236560D01*
X-1074874Y-234867D01*
X-1087571Y263817D02*
Y246041D01*
Y263817D02*
X-1079953D01*
X-1077413Y262971D01*
X-1076567Y262124D01*
X-1075720Y260431D01*
Y258738D01*
X-1076567Y257045D01*
X-1077413Y256199D01*
X-1079953Y255352D01*
X-1087571D02*
X-1079953D01*
X-1077413Y254506D01*
X-1076567Y253659D01*
X-1075720Y251966D01*
Y249427D01*
X-1076567Y247734D01*
X-1077413Y246887D01*
X-1079953Y246041D01*
X-1087571D01*
X-1074027Y726609D02*
X-1080799Y744385D01*
X-1087571Y726609D01*
X-1085032Y732534D02*
X-1076567D01*
X1782629Y-701383D02*
Y-719159D01*
Y-701383D02*
X1788554D01*
X1791094Y-702229D01*
X1792787Y-703922D01*
X1793633Y-705615D01*
X1794480Y-708155D01*
Y-712387D01*
X1793633Y-714927D01*
X1792787Y-716619D01*
X1791094Y-718313D01*
X1788554Y-719159D01*
X1782629D01*
D124*
X402250Y578850D02*
X413250D01*
X407750Y573350D02*
Y584350D01*
X402250Y604250D02*
X413250D01*
X407750Y598750D02*
Y609750D01*
X402250Y629650D02*
X413250D01*
X407750Y624150D02*
Y635150D01*
X236000Y449500D02*
X244000D01*
X240000Y445500D02*
Y453500D01*
X49750Y615000D02*
X59750D01*
X54750Y610000D02*
Y620000D01*
X253950Y764050D02*
X276850D01*
X265400Y752600D02*
Y775500D01*
X321550Y772150D02*
X344450D01*
X333000Y760700D02*
Y783600D01*
X389150Y764050D02*
X412050D01*
X400600Y752600D02*
Y775500D01*
X315550Y734050D02*
X324450D01*
X320000Y729600D02*
Y738500D01*
X341550Y734050D02*
X350450D01*
X346000Y729600D02*
Y738500D01*
X295050Y734050D02*
X303950D01*
X299500Y729600D02*
Y738500D01*
X362050Y734050D02*
X370950D01*
X366500Y729600D02*
Y738500D01*
X295050Y709150D02*
X303950D01*
X299500Y704700D02*
Y713600D01*
X362050Y709150D02*
X370950D01*
X366500Y704700D02*
Y713600D01*
X728900Y248050D02*
X740900D01*
X734900Y242050D02*
Y254050D01*
X703500Y248050D02*
X715500D01*
X709500Y242050D02*
Y254050D01*
X728900Y273450D02*
X740900D01*
X734900Y267450D02*
Y279450D01*
X703500Y273450D02*
X715500D01*
X709500Y267450D02*
Y279450D01*
X728900Y298850D02*
X740900D01*
X734900Y292850D02*
Y304850D01*
X703500Y298850D02*
X715500D01*
X709500Y292850D02*
Y304850D01*
X728900Y324250D02*
X740900D01*
X734900Y318250D02*
Y330250D01*
X703500Y324250D02*
X715500D01*
X709500Y318250D02*
Y330250D01*
X728900Y349650D02*
X740900D01*
X734900Y343650D02*
Y355650D01*
X703500Y349650D02*
X715500D01*
X709500Y343650D02*
Y355650D01*
X728900Y375050D02*
X740900D01*
X734900Y369050D02*
Y381050D01*
X703500Y375050D02*
X715500D01*
X709500Y369050D02*
Y381050D01*
X728900Y400450D02*
X740900D01*
X734900Y394450D02*
Y406450D01*
X703500Y400450D02*
X715500D01*
X709500Y394450D02*
Y406450D01*
X728900Y425850D02*
X740900D01*
X734900Y419850D02*
Y431850D01*
X703500Y425850D02*
X715500D01*
X709500Y419850D02*
Y431850D01*
X728900Y451250D02*
X740900D01*
X734900Y445250D02*
Y457250D01*
X703500Y451250D02*
X715500D01*
X709500Y445250D02*
Y457250D01*
X728900Y476650D02*
X740900D01*
X734900Y470650D02*
Y482650D01*
X703500Y476650D02*
X715500D01*
X709500Y470650D02*
Y482650D01*
X728900Y502050D02*
X740900D01*
X734900Y496050D02*
Y508050D01*
X703500Y502050D02*
X715500D01*
X709500Y496050D02*
Y508050D01*
X728900Y527450D02*
X740900D01*
X734900Y521450D02*
Y533450D01*
X703500Y527450D02*
X715500D01*
X709500Y521450D02*
Y533450D01*
X728900Y552850D02*
X740900D01*
X734900Y546850D02*
Y558850D01*
X703500Y552850D02*
X715500D01*
X709500Y546850D02*
Y558850D01*
X728900Y578250D02*
X740900D01*
X734900Y572250D02*
Y584250D01*
X703500Y578250D02*
X715500D01*
X709500Y572250D02*
Y584250D01*
X728900Y603650D02*
X740900D01*
X734900Y597650D02*
Y609650D01*
X703500Y603650D02*
X715500D01*
X709500Y597650D02*
Y609650D01*
X728900Y629050D02*
X740900D01*
X734900Y623050D02*
Y635050D01*
X703500Y629050D02*
X715500D01*
X709500Y623050D02*
Y635050D01*
X728900Y654450D02*
X740900D01*
X734900Y648450D02*
Y660450D01*
X703500Y654450D02*
X715500D01*
X709500Y648450D02*
Y660450D01*
X139400Y287500D02*
X149400D01*
X144400Y282500D02*
Y292500D01*
X139400Y312900D02*
X149400D01*
X144400Y307900D02*
Y317900D01*
X139400Y338300D02*
X149400D01*
X144400Y333300D02*
Y343300D01*
X139400Y363700D02*
X149400D01*
X144400Y358700D02*
Y368700D01*
X139400Y389100D02*
X149400D01*
X144400Y384100D02*
Y394100D01*
X139400Y414500D02*
X149400D01*
X144400Y409500D02*
Y419500D01*
X139400Y439900D02*
X149400D01*
X144400Y434900D02*
Y444900D01*
X139400Y465300D02*
X149400D01*
X144400Y460300D02*
Y470300D01*
X139400Y490700D02*
X149400D01*
X144400Y485700D02*
Y495700D01*
X139400Y516100D02*
X149400D01*
X144400Y511100D02*
Y521100D01*
X114000Y287500D02*
X124000D01*
X119000Y282500D02*
Y292500D01*
X114000Y312900D02*
X124000D01*
X119000Y307900D02*
Y317900D01*
X114000Y338300D02*
X124000D01*
X119000Y333300D02*
Y343300D01*
X114000Y363700D02*
X124000D01*
X119000Y358700D02*
Y368700D01*
X114000Y389100D02*
X124000D01*
X119000Y384100D02*
Y394100D01*
X114000Y414500D02*
X124000D01*
X119000Y409500D02*
Y419500D01*
X114000Y439900D02*
X124000D01*
X119000Y434900D02*
Y444900D01*
X114000Y465300D02*
X124000D01*
X119000Y460300D02*
Y470300D01*
X114000Y490700D02*
X124000D01*
X119000Y485700D02*
Y495700D01*
X114000Y516100D02*
X124000D01*
X119000Y511100D02*
Y521100D01*
X55050Y82700D02*
X73550D01*
X64300Y73450D02*
Y91950D01*
X55050Y214800D02*
X73550D01*
X64300Y205550D02*
Y224050D01*
X743500Y105000D02*
X752500D01*
X748000Y100500D02*
Y109500D01*
X667500Y105000D02*
X676500D01*
X672000Y100500D02*
Y109500D01*
X517820Y772900D02*
X537120D01*
X527470Y763250D02*
Y782550D01*
X708280Y772900D02*
X727580D01*
X717930Y763250D02*
Y782550D01*
X459400Y739900D02*
X478700D01*
X469050Y730250D02*
Y749550D01*
X766700Y739900D02*
X786000D01*
X776350Y730250D02*
Y749550D01*
X664800Y763000D02*
X671800D01*
X668300Y759500D02*
Y766500D01*
X642000Y778000D02*
X649000D01*
X645500Y774500D02*
Y781500D01*
X619200Y763000D02*
X626200D01*
X622700Y759500D02*
Y766500D01*
X596400Y778000D02*
X603400D01*
X599900Y774500D02*
Y781500D01*
X573600Y763000D02*
X580600D01*
X577100Y759500D02*
Y766500D01*
X657200Y778000D02*
X664200D01*
X660700Y774500D02*
Y781500D01*
X634400Y763000D02*
X641400D01*
X637900Y759500D02*
Y766500D01*
X611600Y778000D02*
X618600D01*
X615100Y774500D02*
Y781500D01*
X588800Y763000D02*
X595800D01*
X592300Y759500D02*
Y766500D01*
X566000Y778000D02*
X573000D01*
X569500Y774500D02*
Y781500D01*
X672400Y778000D02*
X679400D01*
X675900Y774500D02*
Y781500D01*
X649600Y763000D02*
X656600D01*
X653100Y759500D02*
Y766500D01*
X626800Y778000D02*
X633800D01*
X630300Y774500D02*
Y781500D01*
X604000Y763000D02*
X611000D01*
X607500Y759500D02*
Y766500D01*
X581200Y778000D02*
X588200D01*
X584700Y774500D02*
Y781500D01*
X29250Y442700D02*
X40250D01*
X34750Y437200D02*
Y448200D01*
X29250Y468100D02*
X40250D01*
X34750Y462600D02*
Y473600D01*
X29250Y518900D02*
X40250D01*
X34750Y513400D02*
Y524400D01*
X29250Y544300D02*
X40250D01*
X34750Y538800D02*
Y549800D01*
X29250Y493500D02*
X40250D01*
X34750Y488000D02*
Y499000D01*
X103000Y670000D02*
X112000D01*
X107500Y665500D02*
Y674500D01*
X128000Y670000D02*
X137000D01*
X132500Y665500D02*
Y674500D01*
X128000Y690000D02*
X137000D01*
X132500Y685500D02*
Y694500D01*
X103000Y690000D02*
X112000D01*
X107500Y685500D02*
Y694500D01*
X48300Y717100D02*
X71300D01*
X59800Y705600D02*
Y728600D01*
X168700Y717100D02*
X191700D01*
X180200Y705600D02*
Y728600D01*
X566950Y177050D02*
X574950D01*
X570950Y173050D02*
Y181050D01*
X566950Y151650D02*
X574950D01*
X570950Y147650D02*
Y155650D01*
X566950Y126250D02*
X574950D01*
X570950Y122250D02*
Y130250D01*
X566950Y100850D02*
X574950D01*
X570950Y96850D02*
Y104850D01*
X490750Y100850D02*
X498750D01*
X494750Y96850D02*
Y104850D01*
X490750Y126250D02*
X498750D01*
X494750Y122250D02*
Y130250D01*
X490750Y151650D02*
X498750D01*
X494750Y147650D02*
Y155650D01*
X490750Y177050D02*
X498750D01*
X494750Y173050D02*
Y181050D01*
X476000Y705000D02*
X484000D01*
X480000Y701000D02*
Y709000D01*
X476000Y680000D02*
X484000D01*
X480000Y676000D02*
Y684000D01*
X476000Y655000D02*
X484000D01*
X480000Y651000D02*
Y659000D01*
X246000Y323500D02*
X254000D01*
X250000Y319500D02*
Y327500D01*
X29250Y334000D02*
X40250D01*
X34750Y328500D02*
Y339500D01*
X29250Y384800D02*
X40250D01*
X34750Y379300D02*
Y390300D01*
X29250Y359400D02*
X40250D01*
X34750Y353900D02*
Y364900D01*
X29250Y308600D02*
X40250D01*
X34750Y303100D02*
Y314100D01*
X29250Y283200D02*
X40250D01*
X34750Y277700D02*
Y288700D01*
X321120Y668020D02*
X329120D01*
X325120Y664020D02*
Y672020D01*
X295720Y668020D02*
X303720D01*
X299720Y664020D02*
Y672020D01*
X63250Y443000D02*
X71250D01*
X67250Y439000D02*
Y447000D01*
X63250Y468250D02*
X71250D01*
X67250Y464250D02*
Y472250D01*
X62750Y308750D02*
X70750D01*
X66750Y304750D02*
Y312750D01*
X63000Y283000D02*
X71000D01*
X67000Y279000D02*
Y287000D01*
X361500Y499250D02*
X369500D01*
X365500Y495250D02*
Y503250D01*
X173500Y642500D02*
X181500D01*
X177500Y638500D02*
Y646500D01*
X196250Y246500D02*
X204250D01*
X200250Y242500D02*
Y250500D01*
X581000Y430000D02*
X589000D01*
X585000Y426000D02*
Y434000D01*
X581000Y405000D02*
X589000D01*
X585000Y401000D02*
Y409000D01*
X581000Y455000D02*
X589000D01*
X585000Y451000D02*
Y459000D01*
X581000Y480000D02*
X589000D01*
X585000Y476000D02*
Y484000D01*
X542500Y572750D02*
X550500D01*
X546500Y568750D02*
Y576750D01*
X390000Y381250D02*
X427000D01*
X408500Y362750D02*
Y399750D01*
X524000Y43000D02*
X526500D01*
X525250Y41750D02*
Y44250D01*
X664250Y24500D02*
X666750D01*
X665500Y23250D02*
Y25750D01*
X95000Y306000D02*
X97500D01*
X96250Y304750D02*
Y307250D01*
X269750Y449000D02*
X272250D01*
X271000Y447750D02*
Y450250D01*
X285000Y427250D02*
X287500D01*
X286250Y426000D02*
Y428500D01*
X251750Y370750D02*
X254250D01*
X253000Y369500D02*
Y372000D01*
X270500Y380500D02*
X273000D01*
X271750Y379250D02*
Y381750D01*
X274750Y391250D02*
X277250D01*
X276000Y390000D02*
Y392500D01*
X230250Y372750D02*
X232750D01*
X231500Y371500D02*
Y374000D01*
X130750Y300000D02*
X133250D01*
X132000Y298750D02*
Y301250D01*
X316000Y407250D02*
X318500D01*
X317250Y406000D02*
Y408500D01*
X316000Y399250D02*
X318500D01*
X317250Y398000D02*
Y400500D01*
X498750Y409500D02*
X501250D01*
X500000Y408250D02*
Y410750D01*
X508500Y409750D02*
X511000D01*
X509750Y408500D02*
Y411000D01*
X344000Y403250D02*
X346500D01*
X345250Y402000D02*
Y404500D01*
X256160Y531000D02*
X258660D01*
X257410Y529750D02*
Y532250D01*
X344250Y381000D02*
X346750D01*
X345500Y379750D02*
Y382250D01*
X356000Y383750D02*
X358500D01*
X357250Y382500D02*
Y385000D01*
X316000Y391250D02*
X318500D01*
X317250Y390000D02*
Y392500D01*
X146250Y176000D02*
X148750D01*
X147500Y174750D02*
Y177250D01*
X597500Y729000D02*
X600000D01*
X598750Y727750D02*
Y730250D01*
X584750Y646250D02*
X587250D01*
X586000Y645000D02*
Y647500D01*
X546500Y646500D02*
X549000D01*
X547750Y645250D02*
Y647750D01*
X576750Y685750D02*
X579250D01*
X578000Y684500D02*
Y687000D01*
X192500Y468250D02*
X195000D01*
X193750Y467000D02*
Y469500D01*
X226500Y505750D02*
X229000D01*
X227750Y504500D02*
Y507000D01*
X600500Y316000D02*
X603000D01*
X601750Y314750D02*
Y317250D01*
X613750Y346750D02*
X616250D01*
X615000Y345500D02*
Y348000D01*
X602750Y579750D02*
X605250D01*
X604000Y578500D02*
Y581000D01*
X615500Y610750D02*
X618000D01*
X616750Y609500D02*
Y612000D01*
X228750Y659500D02*
X231250D01*
X230000Y658250D02*
Y660750D01*
X272000Y260750D02*
X274500D01*
X273250Y259500D02*
Y262000D01*
X244500Y619500D02*
X247000D01*
X245750Y618250D02*
Y620750D01*
X230000Y631500D02*
X232500D01*
X231250Y630250D02*
Y632750D01*
X218250Y182250D02*
X220750D01*
X219500Y181000D02*
Y183500D01*
X186500Y195500D02*
X189000D01*
X187750Y194250D02*
Y196750D01*
X217250Y111250D02*
X219750D01*
X218500Y110000D02*
Y112500D01*
X323250Y255750D02*
X325750D01*
X324500Y254500D02*
Y257000D01*
X292000Y269500D02*
X294500D01*
X293250Y268250D02*
Y270750D01*
X381750Y290000D02*
X384250D01*
X383000Y288750D02*
Y291250D01*
X438500Y369750D02*
X441000D01*
X439750Y368500D02*
Y371000D01*
X449750Y404250D02*
X452250D01*
X451000Y403000D02*
Y405500D01*
X375250Y386000D02*
X377750D01*
X376500Y384750D02*
Y387250D01*
X428750Y351250D02*
X431250D01*
X430000Y350000D02*
Y352500D01*
X468000Y331000D02*
X470500D01*
X469250Y329750D02*
Y332250D01*
X377250Y358750D02*
X379750D01*
X378500Y357500D02*
Y360000D01*
X370000Y372500D02*
X372500D01*
X371250Y371250D02*
Y373750D01*
X390250Y413750D02*
X392750D01*
X391500Y412500D02*
Y415000D01*
X275250Y15000D02*
X277750D01*
X276500Y13750D02*
Y16250D01*
X275250Y39250D02*
X277750D01*
X276500Y38000D02*
Y40500D01*
X275000Y64750D02*
X277500D01*
X276250Y63500D02*
Y66000D01*
X275000Y98500D02*
X277500D01*
X276250Y97250D02*
Y99750D01*
X274750Y123500D02*
X277250D01*
X276000Y122250D02*
Y124750D01*
X274750Y148500D02*
X277250D01*
X276000Y147250D02*
Y149750D01*
X274500Y173750D02*
X277000D01*
X275750Y172500D02*
Y175000D01*
X449250Y444500D02*
X451750D01*
X450500Y443250D02*
Y445750D01*
X377250Y444250D02*
X379750D01*
X378500Y443000D02*
Y445500D01*
X353250Y444250D02*
X355750D01*
X354500Y443000D02*
Y445500D01*
X344000Y351250D02*
X346500D01*
X345250Y350000D02*
Y352500D01*
X357250Y318000D02*
X359750D01*
X358500Y316750D02*
Y319250D01*
X377250Y318000D02*
X379750D01*
X378500Y316750D02*
Y319250D01*
X409250Y318000D02*
X411750D01*
X410500Y316750D02*
Y319250D01*
X437250Y318000D02*
X439750D01*
X438500Y316750D02*
Y319250D01*
X453250Y318000D02*
X455750D01*
X454500Y316750D02*
Y319250D01*
X470000Y351250D02*
X472500D01*
X471250Y350000D02*
Y352500D01*
X470000Y383000D02*
X472500D01*
X471250Y381750D02*
Y384250D01*
X470000Y407250D02*
X472500D01*
X471250Y406000D02*
Y408500D01*
X437250Y472250D02*
X439750D01*
X438500Y471000D02*
Y473500D01*
X413250Y472250D02*
X415750D01*
X414500Y471000D02*
Y473500D01*
X316000Y371250D02*
X318500D01*
X317250Y370000D02*
Y372500D01*
X316000Y331250D02*
X318500D01*
X317250Y330000D02*
Y332500D01*
X421250Y290000D02*
X423750D01*
X422500Y288750D02*
Y291250D01*
X498500Y371250D02*
X501000D01*
X499750Y370000D02*
Y372500D01*
X498500Y391250D02*
X501000D01*
X499750Y390000D02*
Y392500D01*
X379500Y547250D02*
X382000D01*
X380750Y546000D02*
Y548500D01*
X773750Y552250D02*
X776250D01*
X775000Y551000D02*
Y553500D01*
X774000Y577750D02*
X776500D01*
X775250Y576500D02*
Y579000D01*
X389250Y700500D02*
X391750D01*
X390500Y699250D02*
Y701750D01*
X412000Y701500D02*
X414500D01*
X413250Y700250D02*
Y702750D01*
X176000Y582500D02*
X178500D01*
X177250Y581250D02*
Y583750D01*
X174250Y606250D02*
X176750D01*
X175500Y605000D02*
Y607500D01*
X50750Y669500D02*
X53250D01*
X52000Y668250D02*
Y670750D01*
X161250Y594250D02*
X163750D01*
X162500Y593000D02*
Y595500D01*
X543750Y629750D02*
X546250D01*
X545000Y628500D02*
Y631000D01*
X517250Y642250D02*
X519750D01*
X518500Y641000D02*
Y643500D01*
X495750Y594000D02*
X498250D01*
X497000Y592750D02*
Y595250D01*
X545000Y527000D02*
X547500D01*
X546250Y525750D02*
Y528250D01*
X782750Y337250D02*
X785250D01*
X784000Y336000D02*
Y338500D01*
X192500Y519000D02*
X195000D01*
X193750Y517750D02*
Y520250D01*
X670500Y607000D02*
X673000D01*
X671750Y605750D02*
Y608250D01*
X661500Y517500D02*
X664000D01*
X662750Y516250D02*
Y518750D01*
X671000Y538000D02*
X673500D01*
X672250Y536750D02*
Y539250D01*
X499250Y327000D02*
X501750D01*
X500500Y325750D02*
Y328250D01*
X590500Y534500D02*
X593000D01*
X591750Y533250D02*
Y535750D01*
X330250Y215750D02*
X332750D01*
X331500Y214500D02*
Y217000D01*
X347000Y327250D02*
X349500D01*
X348250Y326000D02*
Y328500D01*
X65250Y371250D02*
X67750D01*
X66500Y370000D02*
Y372500D01*
X367250Y257250D02*
X369750D01*
X368500Y256000D02*
Y258500D01*
X426750Y249750D02*
X429250D01*
X428000Y248500D02*
Y251000D01*
X408000Y250250D02*
X410500D01*
X409250Y249000D02*
Y251500D01*
X389000Y249000D02*
X391500D01*
X390250Y247750D02*
Y250250D01*
X66250Y519500D02*
X68750D01*
X67500Y518250D02*
Y520750D01*
X562500Y585500D02*
X565000D01*
X563750Y584250D02*
Y586750D01*
X189500Y657500D02*
X192000D01*
X190750Y656250D02*
Y658750D01*
X284250Y572000D02*
X286750D01*
X285500Y570750D02*
Y573250D01*
X276500Y558750D02*
X279000D01*
X277750Y557500D02*
Y560000D01*
X589000Y502250D02*
X591500D01*
X590250Y501000D02*
Y503500D01*
X560750Y443750D02*
X563250D01*
X562000Y442500D02*
Y445000D01*
X438250Y444500D02*
X440750D01*
X439500Y443250D02*
Y445750D01*
X106000Y748500D02*
X108500D01*
X107250Y747250D02*
Y749750D01*
X132000Y748500D02*
X134500D01*
X133250Y747250D02*
Y749750D01*
X498250Y427250D02*
X500750D01*
X499500Y426000D02*
Y428500D01*
X560750Y270500D02*
X563250D01*
X562000Y269250D02*
Y271750D01*
X316250Y596500D02*
X318750D01*
X317500Y595250D02*
Y597750D01*
X314500Y435250D02*
X317000D01*
X315750Y434000D02*
Y436500D01*
X345500Y433250D02*
X348000D01*
X346750Y432000D02*
Y434500D01*
X354500Y427250D02*
X357000D01*
X355750Y426000D02*
Y428500D01*
X153250Y246500D02*
X155750D01*
X154500Y245250D02*
Y247750D01*
X224500Y227500D02*
X227000D01*
X225750Y226250D02*
Y228750D01*
X212000Y227500D02*
X214500D01*
X213250Y226250D02*
Y228750D01*
X477250Y465250D02*
X479750D01*
X478500Y464000D02*
Y466500D01*
X344500Y480000D02*
X347000D01*
X345750Y478750D02*
Y481250D01*
X613750Y84250D02*
X616250D01*
X615000Y83000D02*
Y85500D01*
X461750Y475500D02*
X464250D01*
X463000Y474250D02*
Y476750D01*
X485000Y450250D02*
X487500D01*
X486250Y449000D02*
Y451500D01*
X462500Y440500D02*
X465000D01*
X463750Y439250D02*
Y441750D01*
X503750Y313000D02*
X506250D01*
X505000Y311750D02*
Y314250D01*
X346250Y609000D02*
X348750D01*
X347500Y607750D02*
Y610250D01*
X307750Y609500D02*
X310250D01*
X309000Y608250D02*
Y610750D01*
X316500Y425500D02*
X319000D01*
X317750Y424250D02*
Y426750D01*
X237500Y290500D02*
X240000D01*
X238750Y289250D02*
Y291750D01*
X306500Y357250D02*
X309000D01*
X307750Y356000D02*
Y358500D01*
X328250Y87000D02*
X330750D01*
X329500Y85750D02*
Y88250D01*
X519500Y467250D02*
X522000D01*
X520750Y466000D02*
Y468500D01*
X512750Y460500D02*
X515250D01*
X514000Y459250D02*
Y461750D01*
X506250Y467000D02*
X508750D01*
X507500Y465750D02*
Y468250D01*
X469500Y471000D02*
X472000D01*
X470750Y469750D02*
Y472250D01*
X427500Y340750D02*
X430000D01*
X428750Y339500D02*
Y342000D01*
X423250Y323000D02*
X425750D01*
X424500Y321750D02*
Y324250D01*
X472750Y505750D02*
X475250D01*
X474000Y504500D02*
Y507000D01*
X263660Y531000D02*
X266160D01*
X264910Y529750D02*
Y532250D01*
X397910Y320000D02*
X400410D01*
X399160Y318750D02*
Y321250D01*
X390410Y320000D02*
X392910D01*
X391660Y318750D02*
Y321250D01*
X491000Y611000D02*
X493500D01*
X492250Y609750D02*
Y612250D01*
X622750Y677500D02*
X625250D01*
X624000Y676250D02*
Y678750D01*
X546750Y698750D02*
X549250D01*
X548000Y697500D02*
Y700000D01*
X676750Y677750D02*
X679250D01*
X678000Y676500D02*
Y679000D01*
X622750Y730250D02*
X625250D01*
X624000Y729000D02*
Y731500D01*
X519500Y755500D02*
X522000D01*
X520750Y754250D02*
Y756750D01*
X572000Y646000D02*
X574500D01*
X573250Y644750D02*
Y647250D01*
X449500Y643000D02*
X452000D01*
X450750Y641750D02*
Y644250D01*
X658000Y349250D02*
X660500D01*
X659250Y348000D02*
Y350500D01*
X168000Y111000D02*
X170500D01*
X169250Y109750D02*
Y112250D01*
X425000Y510750D02*
X427500D01*
X426250Y509500D02*
Y512000D01*
X626250Y215750D02*
X628750D01*
X627500Y214500D02*
Y217000D01*
X149750Y55500D02*
X152250D01*
X151000Y54250D02*
Y56750D01*
X389750Y186750D02*
X392250D01*
X391000Y185500D02*
Y188000D01*
X271500Y300750D02*
X274000D01*
X272750Y299500D02*
Y302000D01*
X198000Y426000D02*
X200500D01*
X199250Y424750D02*
Y427250D01*
X448500Y540000D02*
X451000D01*
X449750Y538750D02*
Y541250D01*
X442750Y699250D02*
X445250D01*
X444000Y698000D02*
Y700500D01*
X235500Y720750D02*
X238000D01*
X236750Y719500D02*
Y722000D01*
X723500Y726500D02*
X726000D01*
X724750Y725250D02*
Y727750D01*
X465500Y201000D02*
X468000D01*
X466750Y199750D02*
Y202250D01*
X542250Y315500D02*
X544750D01*
X543500Y314250D02*
Y316750D01*
X130000Y552250D02*
X132500D01*
X131250Y551000D02*
Y553500D01*
X402500Y40750D02*
X405000D01*
X403750Y39500D02*
Y42000D01*
X707750Y103750D02*
X710250D01*
X709000Y102500D02*
Y105000D01*
X513250Y480500D02*
X515750D01*
X514500Y479250D02*
Y481750D01*
X18750Y630000D02*
X21250D01*
X20000Y628750D02*
Y631250D01*
X88750Y630000D02*
X91250D01*
X90000Y628750D02*
Y631250D01*
X68750Y630000D02*
X71250D01*
X70000Y628750D02*
Y631250D01*
X38750Y630000D02*
X41250D01*
X40000Y628750D02*
Y631250D01*
X18750Y600000D02*
X21250D01*
X20000Y598750D02*
Y601250D01*
X38750Y600000D02*
X41250D01*
X40000Y598750D02*
Y601250D01*
X68750Y600000D02*
X71250D01*
X70000Y598750D02*
Y601250D01*
X88750Y600000D02*
X91250D01*
X90000Y598750D02*
Y601250D01*
X78750Y615000D02*
X81250D01*
X80000Y613750D02*
Y616250D01*
X28750Y615000D02*
X31250D01*
X30000Y613750D02*
Y616250D01*
X8750Y615000D02*
X11250D01*
X10000Y613750D02*
Y616250D01*
X98750Y615000D02*
X101250D01*
X100000Y613750D02*
Y616250D01*
X294500Y529500D02*
X307500D01*
X301000Y523000D02*
Y536000D01*
X316250Y314500D02*
X318750D01*
X317500Y313250D02*
Y315750D01*
X230250Y585750D02*
X232750D01*
X231500Y584500D02*
Y587000D01*
X244750Y598250D02*
X247250D01*
X246000Y597000D02*
Y599500D01*
X604250Y193000D02*
X606750D01*
X605500Y191750D02*
Y194250D01*
X542250Y381000D02*
X544750D01*
X543500Y379750D02*
Y382250D01*
X646250Y150500D02*
X648750D01*
X647500Y149250D02*
Y151750D01*
X653750Y476000D02*
X656250D01*
X655000Y474750D02*
Y477250D01*
M02*
